<svg width="140" height="50" viewBox="0 0 140 50" fill="none" xmlns="http://www.w3.org/2000/svg">
<g clip-path="url(#clip0_2001_967)">
<path d="M139.968 41.2709C139.968 46.2773 135.824 49.9679 131.043 49.9679H8.51093C3.88889 49.9679 0 45.9884 0 41.3671V8.63286C0 3.88318 3.95264 0 8.63843 0H131.457C136.271 0 140 4.17202 140 8.8896V41.2709H139.968ZM138.502 41.2709V8.63286C138.502 4.49294 135.027 1.47625 131.043 1.47625H9.05282C5.03643 1.47625 1.4663 4.39666 1.4663 8.63286V41.1746C1.4663 45.3787 4.84517 48.4596 8.92532 48.4596H131.043C135.027 48.4596 138.502 45.475 138.502 41.2388V41.2709Z" fill="#000000"/>
<path d="M80.6785 30.9374H74.8133V38.6074C74.8133 39.2814 74.2714 39.8591 73.5701 39.8591H67.928C67.2267 39.8591 66.6211 39.2814 66.6211 38.5112V11.4893C66.6211 10.687 67.2586 10.1094 67.9918 10.1094H79.9134C84.663 10.1094 88.9344 12.3238 90.1776 17.1697C91.3889 21.9515 90.1776 27.5997 85.3005 29.8462C83.8661 30.4881 82.3679 30.9053 80.7103 30.9053L80.6785 30.9374ZM82.0491 20.379C81.9854 18.8064 80.9972 17.5548 79.4034 17.4585C77.8096 17.3623 76.3433 17.4264 74.8133 17.4585V23.6203C76.4071 23.6203 77.9052 23.6524 79.4353 23.5882C81.1247 23.4919 82.1129 22.0799 82.0491 20.379Z" fill="#0D402E"/>
<path d="M32.3232 39.8579H11.795C11.0299 39.8579 10.4243 39.3445 10.4243 38.5742V35.365C10.3924 34.8194 10.6793 34.2097 10.9981 33.7283L22.4735 17.3932H11.9225C11.1893 17.3932 10.7431 16.8798 10.6156 16.1737V11.4561C10.6156 10.6859 11.1893 10.0762 11.9862 10.0762H32.0363C32.8014 10.0762 33.407 10.6538 33.407 11.392V14.7296C33.407 15.3072 33.0245 15.917 32.7057 16.3984L21.4216 32.4446H32.2913C33.1201 32.4767 33.5983 33.0864 33.662 33.8567V38.5422C33.662 39.1519 33.1201 39.8258 32.3551 39.8258L32.3232 39.8579Z" fill="#0D402E"/>
<path d="M49.4712 19.8334L48.1324 24.6472L45.0404 34.8205L43.9247 38.3828C43.6378 39.2493 42.8728 39.827 41.9165 39.827H36.2744C36.0513 39.827 35.6688 39.6665 35.5413 39.506C35.3819 39.3456 35.2863 38.8321 35.3819 38.5433L45.2316 11.2326C45.4866 10.5266 46.1242 10.1094 46.8254 10.1094H52.4994C53.2644 10.1094 53.8701 10.5908 54.1569 11.3289L63.9429 38.447C64.0386 38.7358 63.9429 39.2493 63.8473 39.4098C63.7517 39.5702 63.3054 39.827 63.0504 39.827H57.0258C56.0058 39.7949 55.3045 39.1209 55.0495 38.2223L51.7025 26.8937L49.5668 19.8334H49.4712Z" fill="#0D402E"/>
<path d="M120.395 39.8261H114.689C113.956 39.8261 113.382 39.2164 113.382 38.4461V17.4256H106.688C105.955 17.4256 105.541 16.88 105.445 16.174V11.5848C105.445 10.7183 106.019 10.1406 106.912 10.1406H128.109C128.874 10.1406 129.544 10.6862 129.544 11.4564V16.1419C129.448 16.9442 128.97 17.4256 128.173 17.4256H121.607V38.4461C121.607 39.1522 121.16 39.8582 120.395 39.8582V39.8261Z" fill="#0D402E"/>
<path d="M101.015 39.8581H95.4371C94.6402 39.8581 94.1939 39.3767 94.0664 38.5744V21.9826C94.0664 21.1803 94.6721 20.6348 95.3733 20.6348H101.047C101.717 20.6348 102.322 21.1803 102.322 21.9826V38.5744C102.195 39.3126 101.844 39.8581 101.015 39.8581Z" fill="#0D402E"/>
<path d="M101.015 17.4577H95.4371C94.6402 17.4577 94.1939 16.9763 94.0664 16.174V11.4885C94.0664 10.6862 94.6721 10.1406 95.3733 10.1406H101.047C101.717 10.1406 102.322 10.6862 102.322 11.4885V16.174C102.195 16.9121 101.844 17.4577 101.015 17.4577Z" fill="#0D402E"/>
</g>
<defs>
<clipPath id="clip0_2001_967">
<rect width="140" height="50" fill="white"/>
</clipPath>
</defs>
</svg>
