<svg xmlns="http://www.w3.org/2000/svg" viewBox="360 310 840 420" preserveAspectRatio="xMidYMid meet">
<g transform="translate(0.000000,1024.000000) scale(0.100000,-0.100000)" fill="#000000" stroke="none">
<path d="M3960 6853 c-148 -23 -251 -87 -329 -204 -75 -112 -71 -37 -71 -1253
0 -1071 0 -1093 20 -1150 56 -164 189 -278 358 -306 48 -7 1113 -10 3787 -8
l3720 3 58 22 c136 52 224 145 272 286 l25 76 0 1073 c0 698 -4 1089 -11 1118
-34 148 -144 267 -299 322 l-65 23 -3720 1 c-2046 1 -3731 0 -3745 -3z m7562
-106 c125 -61 193 -160 209 -304 12 -106 10 -2030 -2 -2113 -11 -78 -56 -173
-101 -217 -58 -56 -144 -100 -216 -112 -48 -8 -1095 -11 -3772 -9 -3640 3
-3706 3 -3750 22 -124 54 -198 125 -242 233 l-23 58 0 1090 c0 1055 1 1092 19
1142 41 110 132 198 239 232 61 20 107 20 3813 18 l3750 -2 76 -38z"/>
<path d="M6271 6188 c-13 -7 -32 -24 -42 -38 -10 -14 -95 -254 -189 -535 -95
-280 -205 -609 -246 -730 -43 -127 -73 -233 -72 -250 l3 -30 227 -3 c272 -3
262 -7 298 128 50 186 72 267 154 567 47 172 86 315 86 318 0 3 6 5 14 5 18 0
19 -3 171 -534 69 -242 130 -447 136 -457 15 -30 51 -34 283 -34 198 0 220 2
230 18 12 19 19 -2 -119 387 -46 129 -147 413 -223 630 -184 518 -177 502
-213 536 l-30 29 -222 3 c-164 2 -228 -1 -246 -10z"/>
<path d="M4326 6174 c-13 -13 -16 -42 -16 -163 0 -108 3 -151 13 -159 8 -7
122 -12 312 -15 165 -3 310 -8 321 -12 25 -8 25 -8 -295 -460 -85 -121 -197
-280 -248 -354 l-93 -134 0 -133 c0 -111 2 -133 16 -138 9 -3 296 -6 639 -6
559 0 623 2 629 16 3 9 6 78 6 154 0 113 -3 142 -16 154 -13 14 -58 16 -339
16 -208 0 -326 4 -330 10 -6 9 100 166 240 355 84 113 411 578 423 602 15 28
16 214 1 246 -11 23 -14 24 -177 30 -91 4 -369 7 -618 7 -398 0 -454 -2 -468
-16z"/>
<path d="M7498 6166 l-23 -12 -3 -766 c-2 -687 0 -768 14 -782 13 -14 47 -16
224 -16 156 0 211 3 217 13 4 6 10 113 13 237 l5 225 205 1 c177 1 216 4 283
22 122 34 200 76 264 146 93 100 133 218 133 391 0 211 -79 363 -239 459 -101
61 -172 77 -396 86 -283 13 -668 10 -697 -4z m802 -366 c107 -59 123 -226 33
-322 -46 -48 -91 -58 -257 -58 l-136 0 0 206 0 206 158 -4 c145 -3 160 -5 202
-28z"/>
<path d="M9594 6155 c-13 -20 -15 -48 -12 -159 1 -74 8 -140 13 -145 6 -6 110
-11 258 -13 l249 -3 3 -608 c3 -451 7 -612 16 -623 15 -19 428 -21 447 -2 9 9
12 162 12 625 l0 613 228 0 c164 0 231 3 240 12 8 8 12 58 12 160 0 135 -2
148 -19 158 -13 7 -258 10 -725 10 l-706 0 -16 -25z"/>
<path d="M8967 6153 c-4 -3 -7 -73 -7 -154 0 -146 0 -149 23 -154 12 -3 117
-4 232 -3 l210 3 8 134 c6 91 6 141 -2 157 l-11 24 -223 0 c-123 0 -227 -3
-230 -7z"/>
<path d="M8980 5701 c-6 -13 -10 -200 -10 -538 0 -453 2 -521 16 -541 15 -21
20 -22 213 -22 148 0 201 3 209 13 12 14 20 1076 8 1095 -5 9 -68 12 -216 12
-197 0 -210 -1 -220 -19z"/>
</g>
</svg>
