<svg width="358" height="547" viewBox="0 0 358 547" fill="none" xmlns="http://www.w3.org/2000/svg">
<rect x="1" y="35" width="354" height="512" rx="20" fill="#F8F5F2"/>
<path d="M31.9526 113V97.27H38.1126C42.2266 97.27 44.5146 98.942 44.5146 102.264V102.352C44.5146 104.596 43.3266 105.85 41.6766 106.488L45.4386 113H40.6866L37.4966 107.368H36.4406V113H31.9526ZM36.4406 104.442H37.8926C39.4106 104.442 40.1586 103.804 40.1586 102.528V102.44C40.1586 101.164 39.3666 100.658 37.9146 100.658H36.4406V104.442ZM52.0138 113.264C48.4058 113.264 45.7658 111.152 45.7658 107.39V107.214C45.7658 103.518 48.5158 101.186 51.9918 101.186C55.1378 101.186 57.8438 102.99 57.8438 107.126V108.16H49.7478C49.8578 109.678 50.7378 110.558 52.1458 110.558C53.4438 110.558 53.9938 109.964 54.1478 109.194H57.8438C57.4918 111.79 55.4898 113.264 52.0138 113.264ZM49.7918 105.938H54.0158C53.9498 104.552 53.2678 103.782 51.9918 103.782C50.8038 103.782 49.9898 104.552 49.7918 105.938ZM64.1477 113.264C60.8697 113.264 58.9557 111.9 58.8677 109.348H62.4977C62.6297 110.184 63.0037 110.646 64.1257 110.646C65.0937 110.646 65.5337 110.272 65.5337 109.7C65.5337 109.15 64.9837 108.886 63.3997 108.666C60.3197 108.27 59.0217 107.368 59.0217 104.97C59.0217 102.418 61.2877 101.186 63.9497 101.186C66.7877 101.186 68.7677 102.154 69.0317 104.904H65.4677C65.3137 104.134 64.8957 103.76 63.9937 103.76C63.1357 103.76 62.6957 104.134 62.6957 104.662C62.6957 105.212 63.2237 105.432 64.6317 105.608C67.8217 106.004 69.3617 106.84 69.3617 109.304C69.3617 112.032 67.3377 113.264 64.1477 113.264ZM73.0279 100.394C71.7959 100.394 70.8719 99.536 70.8719 98.37C70.8719 97.204 71.7959 96.324 73.0279 96.324C74.2599 96.324 75.2059 97.204 75.2059 98.37C75.2059 99.536 74.2599 100.394 73.0279 100.394ZM71.0699 113V101.494H75.0079V113H71.0699ZM81.7162 113.264C79.0542 113.264 76.8762 111.35 76.8762 107.368V107.192C76.8762 103.276 79.0322 101.186 81.7602 101.186C83.5642 101.186 84.6422 101.956 85.3022 103.122V96.434H89.2402V113H85.3022V111.13C84.7302 112.318 83.4542 113.264 81.7162 113.264ZM83.1022 110.25C84.5322 110.25 85.4122 109.26 85.4122 107.302V107.126C85.4122 105.19 84.5982 104.156 83.1462 104.156C81.6722 104.156 80.8802 105.146 80.8802 107.148V107.324C80.8802 109.26 81.7382 110.25 83.1022 110.25ZM97.1955 113.264C93.5875 113.264 90.9475 111.152 90.9475 107.39V107.214C90.9475 103.518 93.6975 101.186 97.1735 101.186C100.319 101.186 103.025 102.99 103.025 107.126V108.16H94.9295C95.0395 109.678 95.9195 110.558 97.3275 110.558C98.6255 110.558 99.1755 109.964 99.3295 109.194H103.025C102.673 111.79 100.671 113.264 97.1955 113.264ZM94.9735 105.938H99.1975C99.1315 104.552 98.4495 103.782 97.1735 103.782C95.9855 103.782 95.1715 104.552 94.9735 105.938ZM104.712 113V101.494H108.65V103.342C109.266 102.154 110.52 101.186 112.434 101.186C114.656 101.186 116.196 102.572 116.196 105.52V113H112.258V106.312C112.258 105.014 111.752 104.376 110.608 104.376C109.442 104.376 108.65 105.08 108.65 106.554V113H104.712ZM123.016 113.264C120.42 113.264 118.968 112.01 118.968 109.304V104.178H117.582V101.494H118.968V99.096H122.906V101.494H125.172V104.178H122.906V108.93C122.906 109.766 123.324 110.14 124.072 110.14C124.512 110.14 124.842 110.074 125.194 109.942V112.934C124.688 113.066 123.94 113.264 123.016 113.264ZM129.059 100.394C127.827 100.394 126.903 99.536 126.903 98.37C126.903 97.204 127.827 96.324 129.059 96.324C130.291 96.324 131.237 97.204 131.237 98.37C131.237 99.536 130.291 100.394 129.059 100.394ZM127.101 113V101.494H131.039V113H127.101ZM136.713 113.264C134.645 113.264 132.819 112.252 132.819 109.81C132.819 107.104 135.107 106.048 138.935 106.048H140.035V105.784C140.035 104.684 139.771 103.958 138.517 103.958C137.439 103.958 137.043 104.596 136.955 105.322H133.259C133.435 102.55 135.613 101.186 138.759 101.186C141.927 101.186 143.951 102.484 143.951 105.542V113H140.123V111.658C139.573 112.494 138.561 113.264 136.713 113.264ZM138.077 110.602C139.199 110.602 140.035 109.964 140.035 108.974V108.27H139.001C137.417 108.27 136.713 108.578 136.713 109.524C136.713 110.184 137.153 110.602 138.077 110.602ZM146.308 113V96.434H150.224V113H146.308ZM157.005 116.85V101.494H160.943V103.21C161.603 102.11 162.791 101.186 164.529 101.186C167.213 101.186 169.391 103.21 169.391 107.148V107.324C169.391 111.284 167.213 113.264 164.507 113.264C162.769 113.264 161.515 112.45 160.943 111.306V116.85H157.005ZM163.121 110.25C164.595 110.25 165.387 109.216 165.387 107.324V107.148C165.387 105.124 164.507 104.156 163.121 104.156C161.691 104.156 160.833 105.19 160.833 107.126V107.302C160.833 109.26 161.691 110.25 163.121 110.25ZM171.142 113V101.494H175.08V103.782C175.806 102.066 177.016 101.318 178.798 101.34V105.014C176.4 104.948 175.08 105.696 175.08 107.544V113H171.142ZM182.62 100.394C181.388 100.394 180.464 99.536 180.464 98.37C180.464 97.204 181.388 96.324 182.62 96.324C183.852 96.324 184.798 97.204 184.798 98.37C184.798 99.536 183.852 100.394 182.62 100.394ZM180.662 113V101.494H184.6V113H180.662ZM192.474 113.264C189.042 113.264 186.424 111.262 186.424 107.39V107.214C186.424 103.386 189.174 101.186 192.562 101.186C195.378 101.186 197.974 102.418 198.194 105.916H194.498C194.322 104.838 193.794 104.244 192.65 104.244C191.264 104.244 190.45 105.234 190.45 107.17V107.346C190.45 109.348 191.22 110.382 192.716 110.382C193.816 110.382 194.586 109.722 194.718 108.468H198.26C198.15 111.372 196.192 113.264 192.474 113.264ZM205.498 113.264C201.89 113.264 199.25 111.152 199.25 107.39V107.214C199.25 103.518 202 101.186 205.476 101.186C208.622 101.186 211.328 102.99 211.328 107.126V108.16H203.232C203.342 109.678 204.222 110.558 205.63 110.558C206.928 110.558 207.478 109.964 207.632 109.194H211.328C210.976 111.79 208.974 113.264 205.498 113.264ZM203.276 105.938H207.5C207.434 104.552 206.752 103.782 205.476 103.782C204.288 103.782 203.474 104.552 203.276 105.938ZM222.788 113.264C219.356 113.264 216.738 111.262 216.738 107.39V107.214C216.738 103.386 219.488 101.186 222.876 101.186C225.692 101.186 228.288 102.418 228.508 105.916H224.812C224.636 104.838 224.108 104.244 222.964 104.244C221.578 104.244 220.764 105.234 220.764 107.17V107.346C220.764 109.348 221.534 110.382 223.03 110.382C224.13 110.382 224.9 109.722 225.032 108.468H228.574C228.464 111.372 226.506 113.264 222.788 113.264ZM233.479 113.264C231.411 113.264 229.585 112.252 229.585 109.81C229.585 107.104 231.873 106.048 235.701 106.048H236.801V105.784C236.801 104.684 236.537 103.958 235.283 103.958C234.205 103.958 233.809 104.596 233.721 105.322H230.025C230.201 102.55 232.379 101.186 235.525 101.186C238.693 101.186 240.717 102.484 240.717 105.542V113H236.889V111.658C236.339 112.494 235.327 113.264 233.479 113.264ZM234.843 110.602C235.965 110.602 236.801 109.964 236.801 108.974V108.27H235.767C234.183 108.27 233.479 108.578 233.479 109.524C233.479 110.184 233.919 110.602 234.843 110.602ZM243.074 113V96.434H246.99V113H243.074ZM254.865 113.264C251.433 113.264 248.815 111.262 248.815 107.39V107.214C248.815 103.386 251.565 101.186 254.953 101.186C257.769 101.186 260.365 102.418 260.585 105.916H256.889C256.713 104.838 256.185 104.244 255.041 104.244C253.655 104.244 252.841 105.234 252.841 107.17V107.346C252.841 109.348 253.611 110.382 255.107 110.382C256.207 110.382 256.977 109.722 257.109 108.468H260.651C260.541 111.372 258.583 113.264 254.865 113.264ZM266.041 113.264C263.819 113.264 262.169 111.9 262.169 108.996V101.494H266.107V108.358C266.107 109.656 266.613 110.294 267.735 110.294C268.923 110.294 269.693 109.59 269.693 108.116V101.494H273.631V113H269.693V111.218C269.077 112.406 267.955 113.264 266.041 113.264ZM276.074 113V96.434H279.99V113H276.074ZM285.665 113.264C283.597 113.264 281.771 112.252 281.771 109.81C281.771 107.104 284.059 106.048 287.887 106.048H288.987V105.784C288.987 104.684 288.723 103.958 287.469 103.958C286.391 103.958 285.995 104.596 285.907 105.322H282.211C282.387 102.55 284.565 101.186 287.711 101.186C290.879 101.186 292.903 102.484 292.903 105.542V113H289.075V111.658C288.525 112.494 287.513 113.264 285.665 113.264ZM287.029 110.602C288.151 110.602 288.987 109.964 288.987 108.974V108.27H287.953C286.369 108.27 285.665 108.578 285.665 109.524C285.665 110.184 286.105 110.602 287.029 110.602ZM299.661 113.264C297.065 113.264 295.613 112.01 295.613 109.304V104.178H294.227V101.494H295.613V99.096H299.551V101.494H301.817V104.178H299.551V108.93C299.551 109.766 299.969 110.14 300.717 110.14C301.157 110.14 301.487 110.074 301.839 109.942V112.934C301.333 113.066 300.585 113.264 299.661 113.264ZM309.312 113.264C305.77 113.264 303.02 111.108 303.02 107.39V107.214C303.02 103.518 305.77 101.186 309.334 101.186C312.876 101.186 315.604 103.452 315.604 107.104V107.28C315.604 111.02 312.854 113.264 309.312 113.264ZM309.334 110.338C310.808 110.338 311.6 109.238 311.6 107.324V107.148C311.6 105.212 310.83 104.134 309.334 104.134C307.86 104.134 307.046 105.168 307.046 107.104V107.28C307.046 109.26 307.816 110.338 309.334 110.338ZM317.321 113V101.494H321.259V103.782C321.985 102.066 323.195 101.318 324.977 101.34V105.014C322.579 104.948 321.259 105.696 321.259 107.544V113H317.321Z" fill="#414042"/>
<rect width="299" height="42" transform="matrix(1 0 0 -1 29 228)" fill="#F8F5F2"/>
<rect x="0.5" y="-0.5" width="298" height="41" transform="matrix(1 0 0 -1 29 227)" stroke="#828282" stroke-opacity="0.5"/>
<path d="M42.472 174V164.576H39.384V162.56H48.168V164.576H45.08V174H42.472ZM49.024 174V165.632H51.344V167.232C51.872 166.112 52.688 165.52 54.048 165.504V167.664C52.336 167.648 51.344 168.208 51.344 169.808V174H49.024ZM59.2863 174.176C56.7582 174.176 54.9183 172.592 54.9183 169.92V169.792C54.9183 167.152 56.7903 165.44 59.2223 165.44C61.3823 165.44 63.3023 166.704 63.3023 169.696V170.336H57.2703C57.3343 171.728 58.0863 172.528 59.3503 172.528C60.4223 172.528 60.9503 172.064 61.0943 171.36H63.2863C63.0143 173.168 61.5743 174.176 59.2863 174.176ZM57.3023 168.912H61.0463C60.9663 167.648 60.3263 167.04 59.2223 167.04C58.1823 167.04 57.4783 167.728 57.3023 168.912ZM67.155 174.176C65.635 174.176 64.355 173.44 64.355 171.68C64.355 169.728 66.147 168.992 68.707 168.992H69.651V168.656C69.651 167.664 69.347 167.12 68.291 167.12C67.379 167.12 66.963 167.584 66.867 168.304H64.675C64.819 166.32 66.387 165.44 68.435 165.44C70.483 165.44 71.939 166.272 71.939 168.544V174H69.683V172.992C69.203 173.664 68.467 174.176 67.155 174.176ZM67.843 172.56C68.867 172.56 69.651 172 69.651 171.072V170.368H68.755C67.411 170.368 66.627 170.656 66.627 171.552C66.627 172.16 66.995 172.56 67.843 172.56ZM76.955 174.16C75.195 174.16 74.251 173.264 74.251 171.52V167.28H73.179V165.632H74.251V163.824H76.555V165.632H78.315V167.28H76.555V171.312C76.555 171.984 76.891 172.304 77.483 172.304C77.835 172.304 78.091 172.256 78.363 172.144V173.936C78.043 174.048 77.579 174.16 76.955 174.16ZM79.9303 174V165.632H82.2503V166.912C82.6663 166.128 83.5623 165.44 84.8103 165.44C85.9143 165.44 86.7463 165.904 87.1463 166.896C87.8183 165.888 88.9062 165.44 89.9623 165.44C91.5143 165.44 92.7143 166.416 92.7143 168.64V174H90.4103V168.896C90.4103 167.824 89.9303 167.344 89.0983 167.344C88.2023 167.344 87.4823 167.92 87.4823 169.056V174H85.1783V168.896C85.1783 167.824 84.6823 167.344 83.8663 167.344C82.9703 167.344 82.2503 167.92 82.2503 169.056V174H79.9303ZM98.5519 174.176C96.0239 174.176 94.1839 172.592 94.1839 169.92V169.792C94.1839 167.152 96.0559 165.44 98.4879 165.44C100.648 165.44 102.568 166.704 102.568 169.696V170.336H96.5359C96.5999 171.728 97.3519 172.528 98.6159 172.528C99.6879 172.528 100.216 172.064 100.36 171.36H102.552C102.28 173.168 100.84 174.176 98.5519 174.176ZM96.5679 168.912H100.312C100.232 167.648 99.5919 167.04 98.4879 167.04C97.4479 167.04 96.7439 167.728 96.5679 168.912ZM104.087 174V165.632H106.407V166.96C106.823 166.128 107.735 165.44 109.127 165.44C110.775 165.44 111.943 166.432 111.943 168.672V174H109.623V169.008C109.623 167.872 109.175 167.328 108.151 167.328C107.159 167.328 106.407 167.936 106.407 169.168V174H104.087ZM116.986 174.16C115.226 174.16 114.282 173.264 114.282 171.52V167.28H113.21V165.632H114.282V163.824H116.586V165.632H118.346V167.28H116.586V171.312C116.586 171.984 116.922 172.304 117.514 172.304C117.866 172.304 118.122 172.256 118.394 172.144V173.936C118.074 174.048 117.61 174.16 116.986 174.16ZM126.564 174.16C124.804 174.16 123.86 173.264 123.86 171.52V167.28H122.788V165.632H123.86V163.824H126.164V165.632H127.924V167.28H126.164V171.312C126.164 171.984 126.5 172.304 127.092 172.304C127.444 172.304 127.7 172.256 127.972 172.144V173.936C127.652 174.048 127.188 174.16 126.564 174.16ZM130.596 176.848L132.068 173.152L128.74 165.632H131.236L133.268 170.656L135.14 165.632H137.364L132.836 176.848H130.596ZM138.618 176.848V165.632H140.938V166.944C141.402 166.144 142.378 165.44 143.61 165.44C145.658 165.44 147.258 166.96 147.258 169.728V169.856C147.258 172.624 145.69 174.176 143.61 174.176C142.314 174.176 141.37 173.536 140.938 172.72V176.848H138.618ZM142.922 172.368C144.202 172.368 144.906 171.504 144.906 169.872V169.744C144.906 168.048 144.074 167.216 142.906 167.216C141.69 167.216 140.858 168.064 140.858 169.744V169.872C140.858 171.552 141.658 172.368 142.922 172.368ZM152.661 174.176C150.133 174.176 148.293 172.592 148.293 169.92V169.792C148.293 167.152 150.165 165.44 152.597 165.44C154.757 165.44 156.677 166.704 156.677 169.696V170.336H150.645C150.709 171.728 151.461 172.528 152.725 172.528C153.797 172.528 154.325 172.064 154.469 171.36H156.661C156.389 173.168 154.949 174.176 152.661 174.176ZM150.677 168.912H154.421C154.341 167.648 153.701 167.04 152.597 167.04C151.557 167.04 150.853 167.728 150.677 168.912ZM159.105 167.856L157.681 166.832L159.073 165.28L157.169 164.976L157.649 163.328L159.441 164.144L159.169 162.112H161.041L160.753 164.144L162.545 163.328L163.025 164.976L161.105 165.28L162.497 166.832L161.073 167.856L160.081 165.984L159.105 167.856Z" fill="#414042"/>
<path d="M43.544 211.128C41.032 211.128 39.512 209.768 39.448 207.72H40.312C40.44 209.304 41.496 210.392 43.592 210.392C45.448 210.408 46.68 209.416 46.68 207.752C46.68 206.488 45.96 205.96 43.928 205.4C41.768 204.776 40.712 204.088 40.712 202.52C40.712 200.68 42.2 199.432 44.392 199.432C46.456 199.432 47.832 200.424 47.944 202.312H47.112C46.936 200.792 45.912 200.168 44.328 200.168C42.568 200.168 41.56 201.032 41.56 202.488C41.56 203.544 42.232 204.056 44.248 204.632C46.504 205.272 47.56 205.976 47.56 207.672C47.56 209.752 45.928 211.128 43.544 211.128ZM50.0818 207.56C50.0818 209.368 50.9618 210.408 52.7698 210.408C54.0978 210.408 55.0418 209.816 55.4738 208.664H56.3218C55.7938 210.312 54.4178 211.128 52.7378 211.128C50.4498 211.128 49.2018 209.688 49.2018 207.528C49.2018 204.744 50.9298 202.504 53.4738 202.504C55.8258 202.504 57.0417 204.088 56.6418 206.632L56.6098 206.888H50.1138C50.0818 207.112 50.0818 207.336 50.0818 207.56ZM53.4418 203.224C51.8098 203.224 50.5938 204.328 50.2098 206.2H55.8578C56.0658 204.344 55.2978 203.224 53.4418 203.224ZM57.9376 211L59.8896 198.632H60.7536L58.8016 211H57.9376ZM62.3005 207.56C62.3005 209.368 63.1805 210.408 64.9885 210.408C66.3165 210.408 67.2605 209.816 67.6925 208.664H68.5405C68.0125 210.312 66.6365 211.128 64.9565 211.128C62.6685 211.128 61.4205 209.688 61.4205 207.528C61.4205 204.744 63.1485 202.504 65.6925 202.504C68.0445 202.504 69.2605 204.088 68.8605 206.632L68.8285 206.888H62.3325C62.3005 207.112 62.3005 207.336 62.3005 207.56ZM65.6605 203.224C64.0285 203.224 62.8125 204.328 62.4285 206.2H68.0765C68.2845 204.344 67.5165 203.224 65.6605 203.224ZM73.9004 211.128C71.5164 211.128 70.1244 209.56 70.1244 207.32C70.1244 204.44 72.0444 202.504 74.4444 202.504C76.2364 202.504 77.5964 203.512 77.7084 205.336H76.8924C76.7804 203.912 75.8044 203.224 74.4124 203.224C72.3804 203.224 71.0044 204.888 71.0044 207.32C71.0044 209.256 72.0924 210.408 73.9164 210.408C75.3084 210.408 76.4444 209.608 76.7644 208.136H77.5804C77.1804 210.088 75.7084 211.128 73.9004 211.128ZM81.2904 211.112C79.8664 211.112 79.2744 210.216 79.4824 208.824L80.3464 203.352H79.1144L79.2264 202.632H80.4584L80.7624 200.728H81.6104L81.3064 202.632H83.4824L83.3704 203.352H81.2104L80.3304 208.856C80.1544 209.96 80.5704 210.392 81.4024 210.392C81.7704 210.392 82.1224 210.312 82.4264 210.2L82.3144 210.92C82.0424 211.048 81.6904 211.112 81.2904 211.112ZM90.556 211.112C89.132 211.112 88.54 210.216 88.748 208.824L89.612 203.352H88.38L88.492 202.632H89.724L90.028 200.728H90.876L90.572 202.632H92.748L92.636 203.352H90.476L89.596 208.856C89.42 209.96 89.836 210.392 90.668 210.392C91.036 210.392 91.388 210.312 91.692 210.2L91.58 210.92C91.308 211.048 90.956 211.112 90.556 211.112ZM93.4525 211L94.4125 204.968C94.5885 203.848 94.6205 203.224 94.6365 202.632H95.4365C95.4365 203.08 95.3885 203.768 95.2925 204.504C95.9005 203.384 96.7645 202.568 98.4605 202.52L98.3325 203.32C96.6685 203.384 95.3725 204.232 95.0205 206.488L94.3005 211H93.4525ZM99.6599 207.56C99.6599 209.368 100.54 210.408 102.348 210.408C103.676 210.408 104.62 209.816 105.052 208.664H105.9C105.372 210.312 103.996 211.128 102.316 211.128C100.028 211.128 98.7799 209.688 98.7799 207.528C98.7799 204.744 100.508 202.504 103.052 202.504C105.404 202.504 106.62 204.088 106.22 206.632L106.188 206.888H99.6919C99.6599 207.112 99.6599 207.336 99.6599 207.56ZM103.02 203.224C101.388 203.224 100.172 204.328 99.7879 206.2H105.436C105.644 204.344 104.876 203.224 103.02 203.224ZM110.185 211.128C108.377 211.128 107.449 210.152 107.449 208.808C107.449 206.808 109.225 206.2 111.257 206.2H113.417L113.513 205.528C113.753 204.024 113.209 203.224 111.577 203.224C110.377 203.224 109.497 203.72 109.161 205H108.313C108.729 203.16 110.233 202.504 111.609 202.504C113.609 202.504 114.681 203.544 114.361 205.592L113.881 208.6C113.705 209.72 113.673 210.408 113.705 211H112.889C112.873 210.6 112.889 210.056 112.937 209.624C112.409 210.488 111.417 211.128 110.185 211.128ZM110.281 210.44C111.689 210.44 112.873 209.624 113.081 208.232L113.305 206.856H111.273C109.513 206.856 108.297 207.24 108.297 208.808C108.297 209.72 108.905 210.44 110.281 210.44ZM118.369 211.112C116.945 211.112 116.353 210.216 116.561 208.824L117.424 203.352H116.193L116.305 202.632H117.537L117.841 200.728H118.689L118.385 202.632H120.561L120.449 203.352H118.289L117.409 208.856C117.233 209.96 117.649 210.392 118.481 210.392C118.849 210.392 119.201 210.312 119.505 210.2L119.393 210.92C119.121 211.048 118.769 211.112 118.369 211.112ZM121.265 211L122.225 204.968C122.401 203.848 122.433 203.224 122.449 202.632H123.249C123.249 203.08 123.217 203.72 123.121 204.376C123.697 203.32 124.657 202.504 125.953 202.504C127.265 202.504 128.161 203.16 128.321 204.568C128.945 203.24 130.161 202.504 131.361 202.504C133.057 202.504 134.161 203.528 133.761 206.024L132.977 211H132.129L132.929 205.912C133.217 204.056 132.577 203.24 131.201 203.24C129.921 203.24 128.625 204.184 128.337 205.992L127.553 211H126.705L127.505 205.864C127.793 204.104 127.137 203.24 125.777 203.24C124.465 203.24 123.185 204.232 122.913 205.992L122.113 211H121.265ZM136.363 207.56C136.363 209.368 137.243 210.408 139.051 210.408C140.379 210.408 141.323 209.816 141.755 208.664H142.603C142.075 210.312 140.699 211.128 139.019 211.128C136.731 211.128 135.483 209.688 135.483 207.528C135.483 204.744 137.211 202.504 139.755 202.504C142.107 202.504 143.323 204.088 142.923 206.632L142.891 206.888H136.395C136.363 207.112 136.363 207.336 136.363 207.56ZM139.723 203.224C138.091 203.224 136.875 204.328 136.491 206.2H142.139C142.347 204.344 141.579 203.224 139.723 203.224ZM144.187 211L145.147 204.968C145.323 203.848 145.355 203.224 145.371 202.632H146.171C146.171 203.08 146.123 203.768 146.027 204.44C146.603 203.384 147.675 202.504 149.147 202.504C150.939 202.504 152.043 203.576 151.659 206.008L150.859 211H150.011L150.827 205.848C151.115 204.088 150.379 203.24 148.987 203.24C147.515 203.24 146.107 204.248 145.819 206.04L145.035 211H144.187ZM155.806 211.112C154.382 211.112 153.79 210.216 153.998 208.824L154.862 203.352H153.63L153.742 202.632H154.974L155.278 200.728H156.126L155.822 202.632H157.998L157.886 203.352H155.726L154.846 208.856C154.67 209.96 155.086 210.392 155.918 210.392C156.286 210.392 156.638 210.312 156.942 210.2L156.83 210.92C156.558 211.048 156.206 211.112 155.806 211.112Z" fill="#414042"/>
<path d="M304.992 197V217" stroke="#414042" stroke-width="3" stroke-linecap="round"/>
<path d="M295 207.008L315 207.008" stroke="#414042" stroke-width="3" stroke-linecap="round"/>
<path d="M39.504 257L42.948 246.99H44.544L47.932 257H46.728L45.748 254.116H41.618L40.652 257H39.504ZM43.69 247.998L41.954 253.15H45.426L43.69 247.998ZM49.6096 257V249.678H50.7716V250.84C51.1076 250.154 51.9196 249.552 53.1236 249.552C54.6356 249.552 55.6996 250.378 55.6996 252.506V257H54.5376V252.422C54.5376 251.134 53.9916 250.56 52.8156 250.56C51.7376 250.56 50.7716 251.246 50.7716 252.562V257H49.6096ZM60.2028 257.098C58.8728 257.098 58.2288 256.314 58.2288 255.166V250.658H57.1788V249.678H58.2288V248.012H59.3908V249.678H61.0988V250.658H59.3908V255.054C59.3908 255.768 59.7128 256.118 60.3008 256.118C60.6648 256.118 60.9448 256.062 61.1968 255.964V256.944C60.9588 257.028 60.6788 257.098 60.2028 257.098ZM68.8844 257.098C67.5544 257.098 66.9104 256.314 66.9104 255.166V250.658H65.8604V249.678H66.9104V248.012H68.0724V249.678H69.7804V250.658H68.0724V255.054C68.0724 255.768 68.3944 256.118 68.9824 256.118C69.3464 256.118 69.6264 256.062 69.8784 255.964V256.944C69.6404 257.028 69.3604 257.098 68.8844 257.098ZM71.635 257V249.678H72.797V250.994C73.259 250.168 73.889 249.594 75.205 249.552V250.644C73.735 250.714 72.797 251.176 72.797 252.982V257H71.635ZM79.6896 257.126C77.6176 257.126 76.1476 255.67 76.1476 253.416V253.304C76.1476 251.092 77.5616 249.552 79.5776 249.552C81.2716 249.552 82.8676 250.574 82.8676 253.192V253.57H77.3516C77.4076 255.236 78.2056 256.16 79.7036 256.16C80.8376 256.16 81.4956 255.74 81.6496 254.886H82.8116C82.5596 256.356 81.3416 257.126 79.6896 257.126ZM77.3936 252.632H81.6776C81.5656 251.12 80.7816 250.518 79.5776 250.518C78.3876 250.518 77.5896 251.33 77.3936 252.632ZM86.553 257.126C85.195 257.126 84.117 256.468 84.117 254.97C84.117 253.276 85.909 252.702 87.785 252.702H88.835V252.17C88.835 251.008 88.387 250.518 87.267 250.518C86.259 250.518 85.699 250.938 85.587 251.834H84.425C84.579 250.168 85.909 249.552 87.323 249.552C88.723 249.552 89.997 250.126 89.997 252.17V257H88.835V256.076C88.289 256.762 87.631 257.126 86.553 257.126ZM86.665 256.202C87.897 256.202 88.835 255.572 88.835 254.438V253.528H87.827C86.357 253.528 85.279 253.892 85.279 254.97C85.279 255.726 85.643 256.202 86.665 256.202ZM94.5055 257.098C93.1755 257.098 92.5315 256.314 92.5315 255.166V250.658H91.4815V249.678H92.5315V248.012H93.6935V249.678H95.4015V250.658H93.6935V255.054C93.6935 255.768 94.0155 256.118 94.6035 256.118C94.9675 256.118 95.2475 256.062 95.4995 255.964V256.944C95.2615 257.028 94.9815 257.098 94.5055 257.098ZM97.2561 257V249.678H98.4181V250.798C98.7541 250.112 99.5521 249.552 100.602 249.552C101.54 249.552 102.366 249.944 102.744 250.924C103.248 249.972 104.34 249.552 105.25 249.552C106.566 249.552 107.714 250.336 107.714 252.464V257H106.552V252.38C106.552 251.092 106.006 250.56 104.998 250.56C104.046 250.56 103.066 251.204 103.066 252.52V257H101.904V252.38C101.904 251.092 101.358 250.56 100.35 250.56C99.3981 250.56 98.4181 251.204 98.4181 252.52V257H97.2561ZM112.994 257.126C110.922 257.126 109.452 255.67 109.452 253.416V253.304C109.452 251.092 110.866 249.552 112.882 249.552C114.576 249.552 116.172 250.574 116.172 253.192V253.57H110.656C110.712 255.236 111.51 256.16 113.008 256.16C114.142 256.16 114.8 255.74 114.954 254.886H116.116C115.864 256.356 114.646 257.126 112.994 257.126ZM110.698 252.632H114.982C114.87 251.12 114.086 250.518 112.882 250.518C111.692 250.518 110.894 251.33 110.698 252.632ZM117.955 257V249.678H119.117V250.84C119.453 250.154 120.265 249.552 121.469 249.552C122.981 249.552 124.045 250.378 124.045 252.506V257H122.883V252.422C122.883 251.134 122.337 250.56 121.161 250.56C120.083 250.56 119.117 251.246 119.117 252.562V257H117.955ZM128.548 257.098C127.218 257.098 126.574 256.314 126.574 255.166V250.658H125.524V249.678H126.574V248.012H127.736V249.678H129.444V250.658H127.736V255.054C127.736 255.768 128.058 256.118 128.646 256.118C129.01 256.118 129.29 256.062 129.542 255.964V256.944C129.304 257.028 129.024 257.098 128.548 257.098ZM136.917 258.89V257.14C134.495 256.972 133.319 255.684 133.221 253.836H135.811C135.881 254.48 136.147 254.984 136.917 255.152V253.108C134.481 252.758 133.445 251.876 133.445 249.93C133.445 248.236 134.775 247.018 136.917 246.864V245.618H138.009V246.878C140.039 247.046 141.243 247.984 141.411 249.902H138.877C138.793 249.37 138.583 249.006 138.009 248.852V250.784C140.151 251.092 141.551 251.82 141.551 253.85C141.551 255.558 140.445 256.986 138.009 257.14V258.89H136.917ZM135.965 249.72C135.965 250.21 136.161 250.462 136.917 250.616V248.824C136.287 248.936 135.965 249.272 135.965 249.72ZM138.947 254.158C138.947 253.696 138.751 253.458 138.009 253.29V255.152C138.625 255.026 138.947 254.662 138.947 254.158ZM142.061 257V256.594L145.561 252.884C146.555 251.82 147.213 250.966 147.213 250.126C147.213 249.454 146.863 249.006 146.149 249.006C145.435 249.006 144.987 249.44 144.861 250.63H142.257C142.355 248.124 143.867 246.85 146.289 246.85C148.739 246.85 150.041 248.166 150.041 250.014C150.041 251.386 149.271 252.422 148.151 253.5L146.751 254.858H150.111V257H142.061ZM155.127 257.168C152.341 257.168 151.039 255.88 150.955 253.71H153.503C153.587 254.536 153.979 255.096 154.973 255.096C155.855 255.096 156.289 254.676 156.289 253.962C156.289 253.178 155.869 252.786 154.973 252.786H154.175V251.008H154.917C155.813 251.008 156.247 250.602 156.247 249.902C156.247 249.3 155.855 248.908 155.099 248.908C154.329 248.908 153.881 249.37 153.769 250.182H151.235C151.361 248.208 152.677 246.85 155.169 246.85C157.521 246.85 158.935 247.928 158.935 249.594C158.935 250.714 158.291 251.442 157.241 251.75C158.389 251.988 159.187 252.8 159.187 254.018C159.187 255.922 157.773 257.168 155.127 257.168ZM164.203 257.154C161.837 257.154 160.465 256.09 160.255 254.172H162.887C162.985 254.676 163.293 255.026 164.063 255.026C165.253 255.026 165.743 254.13 165.785 252.422C165.351 253.108 164.749 253.598 163.517 253.598C161.599 253.598 160.129 252.492 160.129 250.364C160.129 248.264 161.697 246.836 164.245 246.836C167.227 246.836 168.627 248.838 168.627 251.736V252.072C168.627 255.32 167.059 257.154 164.203 257.154ZM164.203 251.75C165.029 251.75 165.575 251.148 165.575 250.35C165.575 249.468 165.043 248.852 164.203 248.852C163.405 248.852 162.873 249.468 162.873 250.322C162.873 251.148 163.377 251.75 164.203 251.75ZM44.446 284.126C41.548 284.126 39.77 282.138 39.77 279.058V278.946C39.77 275.978 41.758 273.836 44.474 273.836C46.56 273.836 48.324 274.942 48.534 277.112H47.33C47.078 275.586 46.196 274.802 44.488 274.802C42.416 274.802 41.03 276.412 41.03 278.932V279.044C41.03 281.592 42.318 283.132 44.474 283.132C46.112 283.132 47.246 282.306 47.498 280.682H48.632C48.282 282.992 46.686 284.126 44.446 284.126ZM50.4306 284V273.178H51.6066V284H50.4306ZM57.0226 284.126C54.9366 284.126 53.4386 282.544 53.4386 280.402V280.29C53.4386 278.092 54.9646 276.552 57.0366 276.552C59.1086 276.552 60.6346 278.078 60.6346 280.276V280.388C60.6346 282.6 59.1086 284.126 57.0226 284.126ZM57.0366 283.16C58.5066 283.16 59.4306 282.054 59.4306 280.402V280.304C59.4306 278.61 58.4926 277.518 57.0366 277.518C55.5666 277.518 54.6426 278.61 54.6426 280.29V280.402C54.6426 282.068 55.5526 283.16 57.0366 283.16ZM64.6598 284.098C63.3298 284.098 62.6858 283.314 62.6858 282.166V277.658H61.6358V276.678H62.6858V275.012H63.8478V276.678H65.5558V277.658H63.8478V282.054C63.8478 282.768 64.1698 283.118 64.7578 283.118C65.1218 283.118 65.4018 283.062 65.6538 282.964V283.944C65.4158 284.028 65.1358 284.098 64.6598 284.098ZM67.4104 284V273.178H68.5724V277.84C68.9084 277.154 69.7204 276.552 70.9244 276.552C72.4364 276.552 73.5004 277.378 73.5004 279.506V284H72.3384V279.422C72.3384 278.134 71.7924 277.56 70.6164 277.56C69.5384 277.56 68.5724 278.246 68.5724 279.562V284H67.4104ZM78.7736 284.126C76.7016 284.126 75.2316 282.67 75.2316 280.416V280.304C75.2316 278.092 76.6456 276.552 78.6616 276.552C80.3556 276.552 81.9516 277.574 81.9516 280.192V280.57H76.4356C76.4916 282.236 77.2896 283.16 78.7876 283.16C79.9216 283.16 80.5796 282.74 80.7336 281.886H81.8956C81.6436 283.356 80.4256 284.126 78.7736 284.126ZM76.4776 279.632H80.7616C80.6496 278.12 79.8656 277.518 78.6616 277.518C77.4716 277.518 76.6736 278.33 76.4776 279.632ZM86.071 284.126C84.321 284.126 83.271 283.244 83.201 281.746H84.335C84.419 282.614 84.881 283.16 86.057 283.16C87.163 283.16 87.653 282.782 87.653 281.998C87.653 281.228 87.079 280.976 85.945 280.766C84.041 280.416 83.397 279.884 83.397 278.61C83.397 277.252 84.727 276.552 85.875 276.552C87.191 276.552 88.325 277.084 88.521 278.666H87.401C87.233 277.868 86.785 277.518 85.861 277.518C85.021 277.518 84.475 277.938 84.475 278.568C84.475 279.226 84.839 279.492 86.183 279.73C87.695 280.01 88.759 280.346 88.759 281.9C88.759 283.23 87.849 284.126 86.071 284.126ZM102.075 278.834L100.437 281.956L102.117 284H100.703L99.7086 282.796C99.0786 283.524 98.1966 284.098 96.9366 284.098C95.1026 284.098 93.7726 283.006 93.7726 281.354C93.7726 279.772 94.7806 278.974 96.0686 278.344C95.4806 277.588 95.1866 276.902 95.1866 276.23C95.1866 274.718 96.3766 273.934 97.6366 273.934C98.8686 273.934 99.8206 274.788 99.8206 275.992C99.8206 277.21 98.9526 278.036 97.6786 278.582L99.7786 281.144L100.997 278.834H102.075ZM96.3066 276.244C96.3066 276.748 96.6286 277.252 97.1746 277.938C98.2946 277.434 98.7286 276.93 98.7286 275.964C98.7286 275.32 98.2666 274.844 97.5946 274.844C96.8946 274.844 96.3066 275.264 96.3066 276.244ZM96.9786 283.146C97.7766 283.146 98.5046 282.782 99.1066 282.054L96.6146 279.016C95.6346 279.492 94.9486 280.066 94.9486 281.242C94.9486 282.446 95.7186 283.146 96.9786 283.146ZM111.807 284.126C108.909 284.126 107.131 282.138 107.131 279.058V278.946C107.131 275.978 109.119 273.836 111.835 273.836C113.921 273.836 115.685 274.942 115.895 277.112H114.691C114.439 275.586 113.557 274.802 111.849 274.802C109.777 274.802 108.391 276.412 108.391 278.932V279.044C108.391 281.592 109.679 283.132 111.835 283.132C113.473 283.132 114.607 282.306 114.859 280.682H115.993C115.643 282.992 114.047 284.126 111.807 284.126ZM119.735 284.126C118.377 284.126 117.299 283.468 117.299 281.97C117.299 280.276 119.091 279.702 120.967 279.702H122.017V279.17C122.017 278.008 121.569 277.518 120.449 277.518C119.441 277.518 118.881 277.938 118.769 278.834H117.607C117.761 277.168 119.091 276.552 120.505 276.552C121.905 276.552 123.179 277.126 123.179 279.17V284H122.017V283.076C121.471 283.762 120.813 284.126 119.735 284.126ZM119.847 283.202C121.079 283.202 122.017 282.572 122.017 281.438V280.528H121.009C119.539 280.528 118.461 280.892 118.461 281.97C118.461 282.726 118.825 283.202 119.847 283.202ZM125.461 284V276.678H126.623V277.994C127.085 277.168 127.715 276.594 129.031 276.552V277.644C127.561 277.714 126.623 278.176 126.623 279.982V284H125.461ZM130.725 286.548V276.678H131.887V277.91C132.307 277.196 133.301 276.552 134.365 276.552C136.283 276.552 137.697 277.952 137.697 280.234V280.346C137.697 282.586 136.381 284.126 134.365 284.126C133.161 284.126 132.307 283.524 131.887 282.796V286.548H130.725ZM134.253 283.16C135.709 283.16 136.493 282.18 136.493 280.402V280.29C136.493 278.442 135.471 277.518 134.239 277.518C132.881 277.518 131.845 278.414 131.845 280.29V280.402C131.845 282.278 132.825 283.16 134.253 283.16ZM142.498 284.126C140.426 284.126 138.956 282.67 138.956 280.416V280.304C138.956 278.092 140.37 276.552 142.386 276.552C144.08 276.552 145.676 277.574 145.676 280.192V280.57H140.16C140.216 282.236 141.014 283.16 142.512 283.16C143.646 283.16 144.304 282.74 144.458 281.886H145.62C145.368 283.356 144.15 284.126 142.498 284.126ZM140.202 279.632H144.486C144.374 278.12 143.59 277.518 142.386 277.518C141.196 277.518 140.398 278.33 140.202 279.632ZM149.685 284.098C148.355 284.098 147.711 283.314 147.711 282.166V277.658H146.661V276.678H147.711V275.012H148.873V276.678H150.581V277.658H148.873V282.054C148.873 282.768 149.195 283.118 149.783 283.118C150.147 283.118 150.427 283.062 150.679 282.964V283.944C150.441 284.028 150.161 284.098 149.685 284.098ZM156.225 284V273.99H157.919L161.013 281.788L164.009 273.99H165.689V284H164.471V275.572L161.153 284H160.775L157.345 275.572V284H156.225ZM171.169 284.126C169.083 284.126 167.585 282.544 167.585 280.402V280.29C167.585 278.092 169.111 276.552 171.183 276.552C173.255 276.552 174.781 278.078 174.781 280.276V280.388C174.781 282.6 173.255 284.126 171.169 284.126ZM171.183 283.16C172.653 283.16 173.577 282.054 173.577 280.402V280.304C173.577 278.61 172.639 277.518 171.183 277.518C169.713 277.518 168.789 278.61 168.789 280.29V280.402C168.789 282.068 169.699 283.16 171.183 283.16ZM178.806 284.098C177.476 284.098 176.832 283.314 176.832 282.166V277.658H175.782V276.678H176.832V275.012H177.994V276.678H179.702V277.658H177.994V282.054C177.994 282.768 178.316 283.118 178.904 283.118C179.268 283.118 179.548 283.062 179.8 282.964V283.944C179.562 284.028 179.282 284.098 178.806 284.098ZM181.557 284V273.178H182.719V277.84C183.055 277.154 183.867 276.552 185.071 276.552C186.583 276.552 187.647 277.378 187.647 279.506V284H186.485V279.422C186.485 278.134 185.939 277.56 184.763 277.56C183.685 277.56 182.719 278.246 182.719 279.562V284H181.557ZM195.855 284.098C194.525 284.098 193.881 283.314 193.881 282.166V277.658H192.831V276.678H193.881V275.012H195.043V276.678H196.751V277.658H195.043V282.054C195.043 282.768 195.365 283.118 195.953 283.118C196.317 283.118 196.597 283.062 196.849 282.964V283.944C196.611 284.028 196.331 284.098 195.855 284.098ZM198.606 284V276.678H199.768V277.994C200.23 277.168 200.86 276.594 202.176 276.552V277.644C200.706 277.714 199.768 278.176 199.768 279.982V284H198.606ZM206.66 284.126C204.588 284.126 203.118 282.67 203.118 280.416V280.304C203.118 278.092 204.532 276.552 206.548 276.552C208.242 276.552 209.838 277.574 209.838 280.192V280.57H204.322C204.378 282.236 205.176 283.16 206.674 283.16C207.808 283.16 208.466 282.74 208.62 281.886H209.782C209.53 283.356 208.312 284.126 206.66 284.126ZM204.364 279.632H208.648C208.536 278.12 207.752 277.518 206.548 277.518C205.358 277.518 204.56 278.33 204.364 279.632ZM213.524 284.126C212.166 284.126 211.088 283.468 211.088 281.97C211.088 280.276 212.88 279.702 214.756 279.702H215.806V279.17C215.806 278.008 215.358 277.518 214.238 277.518C213.23 277.518 212.67 277.938 212.558 278.834H211.396C211.55 277.168 212.88 276.552 214.294 276.552C215.694 276.552 216.968 277.126 216.968 279.17V284H215.806V283.076C215.26 283.762 214.602 284.126 213.524 284.126ZM213.636 283.202C214.868 283.202 215.806 282.572 215.806 281.438V280.528H214.798C213.328 280.528 212.25 280.892 212.25 281.97C212.25 282.726 212.614 283.202 213.636 283.202ZM221.476 284.098C220.146 284.098 219.502 283.314 219.502 282.166V277.658H218.452V276.678H219.502V275.012H220.664V276.678H222.372V277.658H220.664V282.054C220.664 282.768 220.986 283.118 221.574 283.118C221.938 283.118 222.218 283.062 222.47 282.964V283.944C222.232 284.028 221.952 284.098 221.476 284.098ZM224.227 284V276.678H225.389V277.798C225.725 277.112 226.523 276.552 227.573 276.552C228.511 276.552 229.337 276.944 229.715 277.924C230.219 276.972 231.311 276.552 232.221 276.552C233.537 276.552 234.685 277.336 234.685 279.464V284H233.523V279.38C233.523 278.092 232.977 277.56 231.969 277.56C231.017 277.56 230.037 278.204 230.037 279.52V284H228.875V279.38C228.875 278.092 228.329 277.56 227.321 277.56C226.369 277.56 225.389 278.204 225.389 279.52V284H224.227ZM239.965 284.126C237.893 284.126 236.423 282.67 236.423 280.416V280.304C236.423 278.092 237.837 276.552 239.853 276.552C241.547 276.552 243.143 277.574 243.143 280.192V280.57H237.627C237.683 282.236 238.481 283.16 239.979 283.16C241.113 283.16 241.771 282.74 241.925 281.886H243.087C242.835 283.356 241.617 284.126 239.965 284.126ZM237.669 279.632H241.953C241.841 278.12 241.057 277.518 239.853 277.518C238.663 277.518 237.865 278.33 237.669 279.632ZM244.926 284V276.678H246.088V277.84C246.424 277.154 247.236 276.552 248.44 276.552C249.952 276.552 251.016 277.378 251.016 279.506V284H249.854V279.422C249.854 278.134 249.308 277.56 248.132 277.56C247.054 277.56 246.088 278.246 246.088 279.562V284H244.926ZM255.519 284.098C254.189 284.098 253.545 283.314 253.545 282.166V277.658H252.495V276.678H253.545V275.012H254.707V276.678H256.415V277.658H254.707V282.054C254.707 282.768 255.029 283.118 255.617 283.118C255.981 283.118 256.261 283.062 256.513 282.964V283.944C256.275 284.028 255.995 284.098 255.519 284.098ZM263.887 285.89V284.14C261.465 283.972 260.289 282.684 260.191 280.836H262.781C262.851 281.48 263.117 281.984 263.887 282.152V280.108C261.451 279.758 260.415 278.876 260.415 276.93C260.415 275.236 261.745 274.018 263.887 273.864V272.618H264.979V273.878C267.009 274.046 268.213 274.984 268.381 276.902H265.847C265.763 276.37 265.553 276.006 264.979 275.852V277.784C267.121 278.092 268.521 278.82 268.521 280.85C268.521 282.558 267.415 283.986 264.979 284.14V285.89H263.887ZM262.935 276.72C262.935 277.21 263.131 277.462 263.887 277.616V275.824C263.257 275.936 262.935 276.272 262.935 276.72ZM265.917 281.158C265.917 280.696 265.721 280.458 264.979 280.29V282.152C265.595 282.026 265.917 281.662 265.917 281.158ZM273.484 284.168C270.698 284.168 269.396 282.88 269.312 280.71H271.86C271.944 281.536 272.336 282.096 273.33 282.096C274.212 282.096 274.646 281.676 274.646 280.962C274.646 280.178 274.226 279.786 273.33 279.786H272.532V278.008H273.274C274.17 278.008 274.604 277.602 274.604 276.902C274.604 276.3 274.212 275.908 273.456 275.908C272.686 275.908 272.238 276.37 272.126 277.182H269.592C269.718 275.208 271.034 273.85 273.526 273.85C275.878 273.85 277.292 274.928 277.292 276.594C277.292 277.714 276.648 278.442 275.598 278.75C276.746 278.988 277.544 279.8 277.544 281.018C277.544 282.922 276.13 284.168 273.484 284.168ZM282.645 284.168C280.125 284.168 278.473 283.118 278.473 281.172C278.473 280.024 279.103 279.142 280.293 278.722C279.425 278.33 278.893 277.658 278.893 276.65C278.893 274.858 280.615 273.85 282.673 273.85C284.801 273.85 286.453 274.858 286.453 276.636C286.453 277.658 285.893 278.316 285.039 278.708C286.229 279.114 286.831 279.968 286.831 281.102C286.831 283.034 285.179 284.168 282.645 284.168ZM282.687 277.98C283.345 277.98 283.863 277.56 283.863 276.874C283.863 276.202 283.331 275.782 282.673 275.782C282.029 275.782 281.497 276.202 281.497 276.874C281.497 277.56 282.043 277.98 282.687 277.98ZM282.659 282.152C283.457 282.152 284.017 281.676 284.017 280.878C284.017 280.08 283.471 279.604 282.673 279.604C281.889 279.604 281.301 280.066 281.301 280.878C281.301 281.676 281.875 282.152 282.659 282.152ZM291.552 284.168C288.892 284.168 287.688 282.726 287.618 280.85H290.222C290.32 281.55 290.6 282.012 291.524 282.012C292.35 282.012 292.728 281.396 292.728 280.598C292.728 279.702 292.238 279.17 291.37 279.17C290.558 279.17 290.054 279.492 289.718 279.884H288.01L288.22 273.99H294.968V276.09H290.292L290.236 278.302C290.614 277.756 291.328 277.238 292.574 277.238C294.408 277.238 295.612 278.47 295.612 280.64C295.612 282.768 294.086 284.168 291.552 284.168ZM43.494 311.126C40.82 311.126 39.854 309.656 39.672 307.948H40.848C41.002 309.138 41.478 310.146 43.494 310.146C44.782 310.146 45.776 309.39 45.776 308.256C45.776 307.122 45.258 306.646 43.354 306.338C41.254 306.016 40.008 305.358 40.008 303.58C40.008 302.04 41.338 300.864 43.228 300.864C45.23 300.864 46.476 301.844 46.672 303.622H45.58C45.342 302.362 44.614 301.844 43.228 301.844C41.856 301.844 41.142 302.53 41.142 303.468C41.142 304.448 41.506 304.952 43.55 305.26C45.776 305.61 46.952 306.282 46.952 308.172C46.952 309.852 45.482 311.126 43.494 311.126ZM49.5413 302.152C49.1213 302.152 48.7713 301.802 48.7713 301.382C48.7713 300.962 49.1213 300.612 49.5413 300.612C49.9613 300.612 50.3113 300.962 50.3113 301.382C50.3113 301.802 49.9613 302.152 49.5413 302.152ZM48.9813 311V303.678H50.1433V311H48.9813ZM52.5497 311V300.178H53.7257V311H52.5497ZM57.9377 311L55.2777 303.678H56.5377L58.7077 309.824L60.8497 303.678H62.0537L59.4217 311H57.9377ZM66.3732 311.126C64.3012 311.126 62.8312 309.67 62.8312 307.416V307.304C62.8312 305.092 64.2452 303.552 66.2612 303.552C67.9552 303.552 69.5512 304.574 69.5512 307.192V307.57H64.0352C64.0912 309.236 64.8892 310.16 66.3872 310.16C67.5212 310.16 68.1792 309.74 68.3332 308.886H69.4952C69.2432 310.356 68.0252 311.126 66.3732 311.126ZM64.0772 306.632H68.3612C68.2492 305.12 67.4652 304.518 66.2612 304.518C65.0712 304.518 64.2732 305.33 64.0772 306.632ZM71.3342 311V303.678H72.4962V304.994C72.9582 304.168 73.5882 303.594 74.9042 303.552V304.644C73.4342 304.714 72.4962 305.176 72.4962 306.982V311H71.3342ZM76.9866 311V304.658H75.9366V303.678H76.9866V302.488C76.9866 301.004 77.7006 300.136 79.1426 300.136C79.5206 300.136 79.7166 300.164 79.9406 300.248V301.228C79.7306 301.144 79.5066 301.102 79.1846 301.102C78.4426 301.102 78.1486 301.62 78.1486 302.362V303.678H79.9406V304.658H78.1486V311H76.9866ZM81.9574 302.152C81.5374 302.152 81.1874 301.802 81.1874 301.382C81.1874 300.962 81.5374 300.612 81.9574 300.612C82.3774 300.612 82.7274 300.962 82.7274 301.382C82.7274 301.802 82.3774 302.152 81.9574 302.152ZM81.3974 311V303.678H82.5594V311H81.3974ZM87.2057 311.126C85.4557 311.126 84.4057 310.244 84.3357 308.746H85.4697C85.5537 309.614 86.0157 310.16 87.1917 310.16C88.2977 310.16 88.7877 309.782 88.7877 308.998C88.7877 308.228 88.2137 307.976 87.0797 307.766C85.1757 307.416 84.5317 306.884 84.5317 305.61C84.5317 304.252 85.8617 303.552 87.0097 303.552C88.3257 303.552 89.4597 304.084 89.6557 305.666H88.5357C88.3677 304.868 87.9197 304.518 86.9957 304.518C86.1557 304.518 85.6097 304.938 85.6097 305.568C85.6097 306.226 85.9737 306.492 87.3177 306.73C88.8297 307.01 89.8937 307.346 89.8937 308.9C89.8937 310.23 88.9837 311.126 87.2057 311.126ZM91.6643 311V300.178H92.8263V304.84C93.1623 304.154 93.9743 303.552 95.1783 303.552C96.6903 303.552 97.7543 304.378 97.7543 306.506V311H96.5923V306.422C96.5923 305.134 96.0463 304.56 94.8703 304.56C93.7923 304.56 92.8263 305.246 92.8263 306.562V311H91.6643ZM105.963 311.098C104.633 311.098 103.989 310.314 103.989 309.166V304.658H102.939V303.678H103.989V302.012H105.151V303.678H106.859V304.658H105.151V309.054C105.151 309.768 105.473 310.118 106.061 310.118C106.425 310.118 106.705 310.062 106.957 309.964V310.944C106.719 311.028 106.439 311.098 105.963 311.098ZM108.713 311V303.678H109.875V304.994C110.337 304.168 110.967 303.594 112.283 303.552V304.644C110.813 304.714 109.875 305.176 109.875 306.982V311H108.713ZM116.768 311.126C114.696 311.126 113.226 309.67 113.226 307.416V307.304C113.226 305.092 114.64 303.552 116.656 303.552C118.35 303.552 119.946 304.574 119.946 307.192V307.57H114.43C114.486 309.236 115.284 310.16 116.782 310.16C117.916 310.16 118.574 309.74 118.728 308.886H119.89C119.638 310.356 118.42 311.126 116.768 311.126ZM114.472 306.632H118.756C118.644 305.12 117.86 304.518 116.656 304.518C115.466 304.518 114.668 305.33 114.472 306.632ZM123.631 311.126C122.273 311.126 121.195 310.468 121.195 308.97C121.195 307.276 122.987 306.702 124.863 306.702H125.913V306.17C125.913 305.008 125.465 304.518 124.345 304.518C123.337 304.518 122.777 304.938 122.665 305.834H121.503C121.657 304.168 122.987 303.552 124.401 303.552C125.801 303.552 127.075 304.126 127.075 306.17V311H125.913V310.076C125.367 310.762 124.709 311.126 123.631 311.126ZM123.743 310.202C124.975 310.202 125.913 309.572 125.913 308.438V307.528H124.905C123.435 307.528 122.357 307.892 122.357 308.97C122.357 309.726 122.721 310.202 123.743 310.202ZM131.584 311.098C130.254 311.098 129.61 310.314 129.61 309.166V304.658H128.56V303.678H129.61V302.012H130.772V303.678H132.48V304.658H130.772V309.054C130.772 309.768 131.094 310.118 131.682 310.118C132.046 310.118 132.326 310.062 132.578 309.964V310.944C132.34 311.028 132.06 311.098 131.584 311.098ZM134.334 311V303.678H135.496V304.798C135.832 304.112 136.63 303.552 137.68 303.552C138.618 303.552 139.444 303.944 139.822 304.924C140.326 303.972 141.418 303.552 142.328 303.552C143.644 303.552 144.792 304.336 144.792 306.464V311H143.63V306.38C143.63 305.092 143.084 304.56 142.076 304.56C141.124 304.56 140.144 305.204 140.144 306.52V311H138.982V306.38C138.982 305.092 138.436 304.56 137.428 304.56C136.476 304.56 135.496 305.204 135.496 306.52V311H134.334ZM150.072 311.126C148 311.126 146.53 309.67 146.53 307.416V307.304C146.53 305.092 147.944 303.552 149.96 303.552C151.654 303.552 153.25 304.574 153.25 307.192V307.57H147.734C147.79 309.236 148.588 310.16 150.086 310.16C151.22 310.16 151.878 309.74 152.032 308.886H153.194C152.942 310.356 151.724 311.126 150.072 311.126ZM147.776 306.632H152.06C151.948 305.12 151.164 304.518 149.96 304.518C148.77 304.518 147.972 305.33 147.776 306.632ZM155.033 311V303.678H156.195V304.84C156.531 304.154 157.343 303.552 158.547 303.552C160.059 303.552 161.123 304.378 161.123 306.506V311H159.961V306.422C159.961 305.134 159.415 304.56 158.239 304.56C157.161 304.56 156.195 305.246 156.195 306.562V311H155.033ZM165.627 311.098C164.297 311.098 163.653 310.314 163.653 309.166V304.658H162.603V303.678H163.653V302.012H164.815V303.678H166.523V304.658H164.815V309.054C164.815 309.768 165.137 310.118 165.725 310.118C166.089 310.118 166.369 310.062 166.621 309.964V310.944C166.383 311.028 166.103 311.098 165.627 311.098ZM174.938 312.89V311.14C172.516 310.972 171.34 309.684 171.242 307.836H173.832C173.902 308.48 174.168 308.984 174.938 309.152V307.108C172.502 306.758 171.466 305.876 171.466 303.93C171.466 302.236 172.796 301.018 174.938 300.864V299.618H176.03V300.878C178.06 301.046 179.264 301.984 179.432 303.902H176.898C176.814 303.37 176.604 303.006 176.03 302.852V304.784C178.172 305.092 179.572 305.82 179.572 307.85C179.572 309.558 178.466 310.986 176.03 311.14V312.89H174.938ZM173.986 303.72C173.986 304.21 174.182 304.462 174.938 304.616V302.824C174.308 302.936 173.986 303.272 173.986 303.72ZM176.968 308.158C176.968 307.696 176.772 307.458 176.03 307.29V309.152C176.646 309.026 176.968 308.662 176.968 308.158ZM180.083 311V310.594L183.583 306.884C184.577 305.82 185.235 304.966 185.235 304.126C185.235 303.454 184.885 303.006 184.171 303.006C183.457 303.006 183.009 303.44 182.883 304.63H180.279C180.377 302.124 181.889 300.85 184.311 300.85C186.761 300.85 188.063 302.166 188.063 304.014C188.063 305.386 187.293 306.422 186.173 307.5L184.773 308.858H188.133V311H180.083ZM193.092 311.154C190.726 311.154 189.354 310.09 189.144 308.172H191.776C191.874 308.676 192.182 309.026 192.952 309.026C194.142 309.026 194.632 308.13 194.674 306.422C194.24 307.108 193.638 307.598 192.406 307.598C190.488 307.598 189.018 306.492 189.018 304.364C189.018 302.264 190.586 300.836 193.134 300.836C196.116 300.836 197.516 302.838 197.516 305.736V306.072C197.516 309.32 195.948 311.154 193.092 311.154ZM193.092 305.75C193.918 305.75 194.464 305.148 194.464 304.35C194.464 303.468 193.932 302.852 193.092 302.852C192.294 302.852 191.762 303.468 191.762 304.322C191.762 305.148 192.266 305.75 193.092 305.75ZM202.403 311.154C200.037 311.154 198.665 310.09 198.455 308.172H201.087C201.185 308.676 201.493 309.026 202.263 309.026C203.453 309.026 203.943 308.13 203.985 306.422C203.551 307.108 202.949 307.598 201.717 307.598C199.799 307.598 198.329 306.492 198.329 304.364C198.329 302.264 199.897 300.836 202.445 300.836C205.427 300.836 206.827 302.838 206.827 305.736V306.072C206.827 309.32 205.259 311.154 202.403 311.154ZM202.403 305.75C203.229 305.75 203.775 305.148 203.775 304.35C203.775 303.468 203.243 302.852 202.403 302.852C201.605 302.852 201.073 303.468 201.073 304.322C201.073 305.148 201.577 305.75 202.403 305.75Z" fill="#414141"/>
<path d="M189.782 246.789L199.353 256.36" stroke="#414042" stroke-width="2" stroke-linecap="round"/>
<path d="M189.79 256.36L199.361 246.789" stroke="#414042" stroke-width="2" stroke-linecap="round"/>
<path d="M315.782 273.789L325.353 283.36" stroke="#414042" stroke-width="2" stroke-linecap="round"/>
<path d="M315.79 283.36L325.361 273.789" stroke="#414042" stroke-width="2" stroke-linecap="round"/>
<path d="M226.782 300.789L236.353 310.36" stroke="#414042" stroke-width="2" stroke-linecap="round"/>
<path d="M226.79 310.36L236.361 300.789" stroke="#414042" stroke-width="2" stroke-linecap="round"/>
<rect x="59" y="401" width="238" height="57" rx="28.5" fill="#1CDC38"/>
<rect x="59" y="401" width="238" height="57" rx="28.5" stroke="#828282"/>
<path d="M98.0801 425L99.6641 414.968L96.8161 416.808L97.0241 415.48L99.9841 413.56H101.28L99.4721 425H98.0801ZM107.143 425.144C104.375 425.144 103.143 423.176 103.127 420.744C103.127 420.264 103.159 419.768 103.239 419.32L103.335 418.728C103.863 415.496 105.767 413.416 108.423 413.416C111.175 413.416 112.327 415.432 112.327 417.864C112.327 418.312 112.295 418.808 112.215 419.272L112.119 419.864C111.607 423.032 109.799 425.144 107.143 425.144ZM107.223 423.992C109.095 423.992 110.295 422.472 110.743 419.704L110.839 419.112C110.903 418.728 110.935 418.28 110.935 417.864C110.935 416.216 110.375 414.536 108.343 414.536C106.503 414.536 105.175 416.104 104.727 418.824L104.631 419.416C104.567 419.816 104.519 420.296 104.519 420.76C104.519 422.36 105.063 423.992 107.223 423.992ZM116.421 418.872C114.949 418.872 113.957 417.784 113.957 416.376C113.957 414.824 115.189 413.464 116.757 413.464C118.261 413.464 119.189 414.584 119.189 416.008C119.189 417.544 117.973 418.872 116.421 418.872ZM114.325 425L123.077 413.56H124.341L115.589 425H114.325ZM115.173 416.44C115.173 417.144 115.461 417.848 116.453 417.848C117.397 417.848 117.973 417.048 117.973 415.96C117.973 415.256 117.669 414.488 116.709 414.488C115.669 414.488 115.173 415.368 115.173 416.44ZM121.925 425.128C120.453 425.128 119.461 424.04 119.461 422.632C119.461 421.08 120.693 419.72 122.261 419.72C123.765 419.72 124.693 420.84 124.693 422.264C124.693 423.8 123.477 425.128 121.925 425.128ZM120.677 422.696C120.677 423.4 120.965 424.104 121.957 424.104C122.901 424.104 123.477 423.304 123.477 422.216C123.477 421.512 123.173 420.744 122.213 420.744C121.173 420.744 120.677 421.624 120.677 422.696ZM133.234 425.144C131.01 425.144 130.002 423.864 129.97 422.424H131.266C131.33 423.32 131.794 424.04 133.282 424.04C134.45 424.04 134.994 423.528 134.994 422.664C134.994 421.944 134.562 421.624 133.298 421.304C131.426 420.84 130.754 420.184 130.754 418.92C130.754 417.32 132.162 416.488 133.666 416.488C135.298 416.488 136.53 417.208 136.626 418.904H135.378C135.33 418.104 134.674 417.592 133.634 417.592C132.594 417.592 132.002 418.056 132.002 418.84C132.002 419.48 132.386 419.8 133.698 420.12C135.362 420.536 136.29 421.064 136.29 422.6C136.29 424.136 135.106 425.144 133.234 425.144ZM140.41 425.128C138.698 425.128 137.706 424.184 137.706 422.76C137.706 420.696 139.578 420.088 141.77 420.088H143.386L143.482 419.48C143.69 418.2 143.258 417.592 141.914 417.592C140.826 417.592 140.138 418.056 139.914 419.096H138.586C138.97 417.096 140.618 416.488 141.962 416.488C143.834 416.488 145.146 417.336 144.794 419.592L144.33 422.504C144.154 423.592 144.106 424.296 144.186 425H142.938C142.89 424.552 142.89 424.04 142.922 423.672C142.33 424.632 141.418 425.128 140.41 425.128ZM140.586 424.088C141.834 424.088 142.858 423.4 143.082 421.944L143.226 421.032H141.802C139.93 421.032 139.018 421.48 139.018 422.76C139.018 423.496 139.514 424.088 140.586 424.088ZM148.241 425L146.593 416.632H148.001L149.297 423.72L152.801 416.632H154.209L149.937 425H148.241ZM156.924 414.888C156.444 414.888 156.044 414.504 156.044 414.024C156.044 413.544 156.46 413.128 156.94 413.128C157.42 413.128 157.804 413.512 157.804 413.992C157.804 414.472 157.404 414.888 156.924 414.888ZM154.556 425L155.884 416.632H157.212L155.884 425H154.556ZM158.602 425L159.53 419.128C159.706 417.992 159.738 417.336 159.754 416.632H161.002C161.002 417.096 160.97 417.736 160.906 418.296C161.482 417.288 162.474 416.488 163.834 416.488C165.578 416.488 166.666 417.464 166.266 419.992L165.466 425H164.138L164.986 419.688C165.21 418.296 164.714 417.624 163.546 417.624C162.154 417.624 160.954 418.552 160.698 420.136L159.93 425H158.602ZM176.742 416.632L175.494 424.584C175.126 426.888 173.654 428.04 171.334 428.04C168.63 428.04 167.766 426.68 167.606 425.48H168.95C169.11 426.328 169.814 426.92 171.302 426.92C173.094 426.92 173.894 426.072 174.166 424.456L174.358 423.288C173.734 424.184 172.838 424.696 171.606 424.696C169.558 424.696 168.118 423.24 168.118 421.128C168.118 418.616 169.894 416.488 172.342 416.488C173.942 416.488 174.79 417.352 175.174 418.152L175.414 416.632H176.742ZM171.75 423.624C173.414 423.624 174.87 422.28 174.87 420.024C174.87 418.488 173.814 417.592 172.39 417.592C170.598 417.592 169.51 419.208 169.51 421.064C169.51 422.568 170.278 423.624 171.75 423.624ZM184.754 425.128C183.042 425.128 182.05 424.184 182.05 422.76C182.05 420.696 183.922 420.088 186.114 420.088H187.73L187.826 419.48C188.034 418.2 187.602 417.592 186.258 417.592C185.17 417.592 184.482 418.056 184.258 419.096H182.93C183.314 417.096 184.962 416.488 186.306 416.488C188.178 416.488 189.49 417.336 189.138 419.592L188.674 422.504C188.498 423.592 188.45 424.296 188.53 425H187.282C187.234 424.552 187.234 424.04 187.266 423.672C186.674 424.632 185.762 425.128 184.754 425.128ZM184.93 424.088C186.178 424.088 187.202 423.4 187.426 421.944L187.57 421.032H186.146C184.274 421.032 183.362 421.48 183.362 422.76C183.362 423.496 183.858 424.088 184.93 424.088ZM194.739 425.128C192.227 425.128 190.835 423.56 190.835 421.32C190.835 418.232 192.899 416.504 195.171 416.504C197.011 416.504 198.451 417.416 198.563 419.448H197.299C197.139 418.008 196.275 417.608 195.107 417.608C193.443 417.608 192.195 418.904 192.195 421.32C192.195 423.08 193.059 424.04 194.771 424.04C195.939 424.04 196.963 423.32 197.187 422.024H198.435C198.083 424.008 196.595 425.128 194.739 425.128ZM202.334 425.112C200.686 425.112 200.094 424.072 200.302 422.712L201.086 417.752H199.886L200.062 416.632H201.262L201.566 414.728H202.894L202.59 416.632H204.494L204.318 417.752H202.414L201.614 422.76C201.47 423.672 201.79 423.992 202.542 423.992C202.862 423.992 203.23 423.928 203.534 423.816L203.358 424.92C203.07 425.048 202.718 425.112 202.334 425.112ZM207.627 414.888C207.147 414.888 206.747 414.504 206.747 414.024C206.747 413.544 207.163 413.128 207.643 413.128C208.123 413.128 208.507 413.512 208.507 413.992C208.507 414.472 208.107 414.888 207.627 414.888ZM205.259 425L206.587 416.632H207.915L206.587 425H205.259ZM211.241 425L209.593 416.632H211.001L212.297 423.72L215.801 416.632H217.209L212.937 425H211.241ZM220.082 425.128C218.37 425.128 217.378 424.184 217.378 422.76C217.378 420.696 219.25 420.088 221.442 420.088H223.058L223.154 419.48C223.362 418.2 222.93 417.592 221.586 417.592C220.498 417.592 219.81 418.056 219.586 419.096H218.258C218.642 417.096 220.29 416.488 221.634 416.488C223.506 416.488 224.818 417.336 224.466 419.592L224.002 422.504C223.826 423.592 223.778 424.296 223.858 425H222.61C222.562 424.552 222.562 424.04 222.594 423.672C222.002 424.632 221.09 425.128 220.082 425.128ZM220.258 424.088C221.506 424.088 222.53 423.4 222.754 421.944L222.898 421.032H221.474C219.602 421.032 218.69 421.48 218.69 422.76C218.69 423.496 219.186 424.088 220.258 424.088ZM228.647 425.112C226.999 425.112 226.407 424.072 226.615 422.712L227.399 417.752H226.199L226.375 416.632H227.575L227.879 414.728H229.207L228.903 416.632H230.807L230.631 417.752H228.727L227.927 422.76C227.783 423.672 228.103 423.992 228.855 423.992C229.175 423.992 229.543 423.928 229.847 423.816L229.671 424.92C229.383 425.048 229.031 425.112 228.647 425.112ZM232.757 421.624C232.757 423.144 233.461 424.04 235.061 424.04C236.229 424.04 237.045 423.544 237.365 422.584H238.693C238.181 424.312 236.709 425.144 235.013 425.144C232.741 425.144 231.397 423.656 231.397 421.56C231.397 418.6 233.301 416.504 235.765 416.504C238.037 416.504 239.461 417.912 239.013 420.776L238.965 421.08H232.773C232.757 421.256 232.757 421.432 232.757 421.624ZM235.685 417.592C234.501 417.592 233.349 418.296 232.933 420.008H237.781C237.909 418.328 237.205 417.592 235.685 417.592ZM243.809 425.144C241.729 425.144 240.273 423.704 240.273 421.448C240.273 418.776 241.921 416.488 244.609 416.488C246.209 416.488 247.025 417.352 247.409 418.152L248.273 412.632H249.601L248.049 422.504C247.873 423.64 247.841 424.312 247.873 425H246.609C246.577 424.52 246.609 423.96 246.673 423.48C246.081 424.472 245.041 425.144 243.809 425.144ZM243.969 424.04C245.745 424.04 247.105 422.744 247.105 420.152C247.105 418.568 246.081 417.592 244.657 417.592C242.769 417.592 241.681 419.208 241.681 421.384C241.681 423.048 242.529 424.04 243.969 424.04ZM251.314 425.08C250.754 425.08 250.29 424.632 250.29 424.056C250.29 423.48 250.738 423.032 251.298 423.032C251.858 423.032 252.338 423.48 252.338 424.056C252.338 424.632 251.874 425.08 251.314 425.08ZM114.229 445L114.981 440.104L112.325 433.56H116.085L117.317 437.096L119.605 433.56H123.221L118.613 440.296L117.877 445H114.229ZM125.532 445.208C123.276 445.208 121.18 444.024 121.18 441.368C121.164 438.504 123.18 436.408 126.076 436.408C128.332 436.408 130.428 437.608 130.428 440.296C130.428 443.208 128.428 445.208 125.532 445.208ZM125.58 442.888C126.732 442.888 127.26 441.704 127.26 440.152C127.26 439.368 126.892 438.728 126.028 438.728C124.876 438.728 124.316 439.864 124.316 441.384C124.316 442.12 124.588 442.888 125.58 442.888ZM140.622 436.632L139.726 442.376C139.55 443.48 139.486 444.296 139.518 445H136.446C136.414 444.632 136.414 444.12 136.446 443.656C135.822 444.552 135.006 445.208 133.726 445.208C132.062 445.208 130.878 444.184 131.278 441.672L132.078 436.632H135.23L134.446 441.56C134.318 442.424 134.59 442.888 135.278 442.888C136.078 442.888 136.574 442.392 136.734 441.384L137.486 436.632H140.622ZM143.661 438.328L141.949 437.672L143.549 433.352L146.237 434.248L143.661 438.328ZM147.695 445L146.079 436.632H149.311L149.983 441.768L152.335 436.632H155.439L151.055 445H147.695ZM157.908 441.528C157.908 442.392 158.276 443.096 159.332 443.096C160.116 443.096 160.516 442.712 160.676 442.168H163.636C163.236 444.136 161.588 445.208 159.252 445.208C156.82 445.208 154.836 444.04 154.836 441.368C154.836 438.376 156.9 436.392 159.7 436.392C162.5 436.392 164.18 438.152 163.716 441.144L163.668 441.512H157.908V441.528ZM159.684 438.408C159.028 438.408 158.404 438.808 158.1 439.864H160.82C160.9 439.016 160.596 438.408 159.684 438.408ZM170.806 445.224C168.502 445.224 166.966 444.328 166.95 442.312H169.862C169.91 442.84 170.15 443.176 170.886 443.176C171.43 443.176 171.734 442.984 171.734 442.584C171.734 442.216 171.494 442.072 170.358 441.864C168.47 441.512 167.59 440.824 167.59 439.368C167.59 437.384 169.238 436.376 171.478 436.392C173.59 436.392 175.046 437.176 175.158 439.16H172.294C172.246 438.728 171.974 438.376 171.398 438.376C170.822 438.376 170.55 438.584 170.55 438.936C170.55 439.32 170.934 439.448 171.766 439.624C173.974 440.04 174.838 440.648 174.838 442.248C174.838 444.28 173.126 445.224 170.806 445.224ZM178.126 445.208C176.654 445.208 175.486 444.376 175.486 442.888C175.486 440.68 177.15 439.944 179.95 439.944H181.102L181.134 439.752C181.246 439.064 181.118 438.584 180.286 438.584C179.582 438.584 179.326 439.016 179.214 439.48H176.27C176.686 437.416 178.158 436.392 180.43 436.392C183.262 436.392 184.59 437.608 184.19 440.152L183.838 442.376C183.661 443.464 183.614 444.296 183.71 445H180.654C180.59 444.664 180.59 444.296 180.606 443.96C180.141 444.616 179.406 445.208 178.126 445.208ZM179.454 443.128C180.141 443.128 180.67 442.696 180.766 442.072L180.846 441.64H180.03C179.006 441.64 178.622 441.864 178.622 442.44C178.622 442.824 178.91 443.128 179.454 443.128ZM186.664 445L185.048 436.632H188.28L188.952 441.768L191.304 436.632H194.408L190.024 445H186.664ZM196.877 441.528C196.877 442.392 197.245 443.096 198.301 443.096C199.085 443.096 199.485 442.712 199.645 442.168H202.605C202.205 444.136 200.557 445.208 198.221 445.208C195.789 445.208 193.805 444.04 193.805 441.368C193.805 438.376 195.869 436.392 198.669 436.392C201.469 436.392 203.149 438.152 202.685 441.144L202.637 441.512H196.877V441.528ZM198.653 438.408C197.997 438.408 197.373 438.808 197.069 439.864H199.789C199.869 439.016 199.565 438.408 198.653 438.408ZM209.599 447.16L209.919 445.096C207.967 444.824 206.255 443.768 206.191 441.368H209.391C209.407 442.056 209.727 442.488 210.303 442.68L210.639 440.584C208.175 440.056 207.087 439.096 207.087 437.24C207.087 434.824 209.199 433.448 211.775 433.4L211.999 431.992H213.311L213.071 433.48C214.975 433.72 216.479 434.664 216.575 436.952H213.439C213.423 436.392 213.119 436.072 212.687 435.896L212.367 437.928C214.591 438.408 216.015 439.272 216.015 441.24C216.015 443.848 213.967 445.176 211.215 445.192L210.911 447.16H209.599ZM210.207 436.744C210.207 437.208 210.431 437.448 211.103 437.656L211.407 435.768C210.783 435.848 210.207 436.12 210.207 436.744ZM212.815 441.752C212.815 441.352 212.575 441.096 211.903 440.872L211.599 442.808C212.399 442.744 212.815 442.392 212.815 441.752ZM221.3 445.192C219.028 445.192 217.012 444.232 216.9 441.688H220.244C220.308 442.28 220.772 442.52 221.428 442.52C222.596 442.52 223.188 441.528 223.508 439.848C222.98 440.584 222.244 441.128 220.916 441.128C219.156 441.128 217.428 440.2 217.428 437.912C217.428 435.08 219.604 433.368 222.452 433.368C225.412 433.368 227.268 434.936 227.268 438.024C227.268 438.472 227.236 438.936 227.156 439.432L227.108 439.736C226.5 443.4 224.596 445.192 221.3 445.192ZM220.9 437.576C220.9 438.328 221.3 438.84 222.068 438.84C222.932 438.84 223.62 438.216 223.62 437.192C223.62 436.504 223.236 435.912 222.388 435.912C221.54 435.912 220.9 436.584 220.9 437.576ZM226.783 445L226.863 444.504L231.439 440.36C232.735 439.24 233.823 438.232 233.823 437.08C233.823 436.504 233.503 436.104 232.863 436.104C232.175 436.104 231.631 436.52 231.343 437.832H228.063C228.415 434.808 230.463 433.384 233.183 433.384C235.631 433.384 237.439 434.504 237.439 436.792C237.439 438.68 236.175 439.88 234.687 441.096L233.231 442.312H236.703L236.303 445H226.783ZM238.766 441.144L239.518 433.56H243.054L241.374 441.144H238.766ZM239.726 445.192C238.718 445.192 237.982 444.456 237.982 443.512C237.982 442.584 238.75 441.816 239.758 441.816C240.766 441.816 241.534 442.552 241.534 443.496C241.534 444.44 240.734 445.192 239.726 445.192Z" fill="#414042"/>
<rect x="59" y="344" width="238" height="57" rx="28.5" fill="#E5E5E5"/>
<rect x="59" y="344" width="238" height="57" rx="28.5" stroke="#828282"/>
<path d="M110.824 387.32V383.32C105.288 382.936 102.6 379.992 102.376 375.768H108.296C108.456 377.24 109.064 378.392 110.824 378.776V374.104C105.256 373.304 102.888 371.288 102.888 366.84C102.888 362.968 105.928 360.184 110.824 359.832V356.984H113.32V359.864C117.96 360.248 120.712 362.392 121.096 366.776H115.304C115.112 365.56 114.632 364.728 113.32 364.376V368.792C118.216 369.496 121.416 371.16 121.416 375.8C121.416 379.704 118.888 382.968 113.32 383.32V387.32H110.824ZM108.648 366.36C108.648 367.48 109.096 368.056 110.824 368.408V364.312C109.384 364.568 108.648 365.336 108.648 366.36ZM115.464 376.504C115.464 375.448 115.016 374.904 113.32 374.52V378.776C114.728 378.488 115.464 377.656 115.464 376.504ZM132.823 383.384C127.063 383.384 123.287 380.984 123.287 376.536C123.287 373.912 124.727 371.896 127.447 370.936C125.463 370.04 124.247 368.504 124.247 366.2C124.247 362.104 128.183 359.8 132.887 359.8C137.751 359.8 141.527 362.104 141.527 366.168C141.527 368.504 140.247 370.008 138.295 370.904C141.015 371.832 142.391 373.784 142.391 376.376C142.391 380.792 138.615 383.384 132.823 383.384ZM132.919 369.24C134.423 369.24 135.607 368.28 135.607 366.712C135.607 365.176 134.391 364.216 132.887 364.216C131.415 364.216 130.199 365.176 130.199 366.712C130.199 368.28 131.447 369.24 132.919 369.24ZM132.855 378.776C134.679 378.776 135.959 377.688 135.959 375.864C135.959 374.04 134.711 372.952 132.887 372.952C131.095 372.952 129.751 374.008 129.751 375.864C129.751 377.688 131.063 378.776 132.855 378.776ZM153.697 383.384C147.329 383.384 144.353 380.44 144.161 375.48H149.985C150.177 377.368 151.073 378.648 153.345 378.648C155.361 378.648 156.353 377.688 156.353 376.056C156.353 374.264 155.393 373.368 153.345 373.368H151.521V369.304H153.217C155.265 369.304 156.257 368.376 156.257 366.776C156.257 365.4 155.361 364.504 153.633 364.504C151.873 364.504 150.849 365.56 150.593 367.416H144.801C145.089 362.904 148.097 359.8 153.793 359.8C159.169 359.8 162.401 362.264 162.401 366.072C162.401 368.632 160.929 370.296 158.529 371C161.153 371.544 162.977 373.4 162.977 376.184C162.977 380.536 159.745 383.384 153.697 383.384ZM169.141 383V366.584L164.789 369.272V363.8L170.037 360.12H175.701V383H169.141ZM191.701 383.162C187.741 383.162 185.473 380.408 185.473 376.646V376.502C185.473 372.74 188.011 369.932 191.701 369.932C194.257 369.932 196.543 371.12 196.939 374.018H195.373C195.013 371.966 193.609 371.174 191.737 371.174C188.785 371.174 187.093 373.334 187.093 376.484V376.628C187.093 379.814 188.677 381.902 191.701 381.902C194.491 381.902 195.697 380.084 195.751 377.798H191.989V376.502H197.281V377.456C197.281 381.182 194.995 383.162 191.701 383.162ZM203.972 383.162C200.534 383.162 199.292 381.272 199.058 379.076H200.57C200.768 380.606 201.38 381.902 203.972 381.902C205.628 381.902 206.906 380.93 206.906 379.472C206.906 378.014 206.24 377.402 203.792 377.006C201.092 376.592 199.49 375.746 199.49 373.46C199.49 371.48 201.2 369.968 203.63 369.968C206.204 369.968 207.806 371.228 208.058 373.514H206.654C206.348 371.894 205.412 371.228 203.63 371.228C201.866 371.228 200.948 372.11 200.948 373.316C200.948 374.576 201.416 375.224 204.044 375.62C206.906 376.07 208.418 376.934 208.418 379.364C208.418 381.524 206.528 383.162 203.972 383.162ZM213.288 383V371.408H209.544V370.13H218.598V371.408H214.854V383H213.288ZM226.144 371.624C225.604 371.624 225.154 371.174 225.154 370.634C225.154 370.094 225.604 369.644 226.144 369.644C226.684 369.644 227.134 370.094 227.134 370.634C227.134 371.174 226.684 371.624 226.144 371.624ZM225.424 383V373.586H226.918V383H225.424ZM229.976 383V373.586H231.47V375.08C231.902 374.198 232.946 373.424 234.494 373.424C236.438 373.424 237.806 374.486 237.806 377.222V383H236.312V377.114C236.312 375.458 235.61 374.72 234.098 374.72C232.712 374.72 231.47 375.602 231.47 377.294V383H229.976ZM244.64 383.162C242.012 383.162 240.032 381.308 240.032 378.392V378.248C240.032 375.368 242.084 373.424 244.604 373.424C246.566 373.424 248.402 374.324 248.69 376.718H247.214C246.98 375.224 245.9 374.666 244.604 374.666C242.894 374.666 241.58 376.034 241.58 378.248V378.392C241.58 380.696 242.84 381.92 244.658 381.92C245.99 381.92 247.196 381.146 247.358 379.616H248.744C248.546 381.65 246.908 383.162 244.64 383.162ZM251.85 383.09C251.22 383.09 250.698 382.586 250.698 381.938C250.698 381.29 251.22 380.786 251.85 380.786C252.48 380.786 253.002 381.29 253.002 381.938C253.002 382.586 252.48 383.09 251.85 383.09Z" fill="#414042"/>
<rect x="76" width="203" height="73" rx="36.5" fill="#1CDC38"/>
<rect x="76" width="203" height="73" rx="36.5" stroke="#828282"/>
<path d="M128.738 35.351C123.284 35.351 120.368 33.164 120.233 28.817H126.038C126.146 30.032 126.74 31.031 128.738 31.031C130.169 31.031 130.871 30.383 130.871 29.438C130.871 28.412 130.196 28.088 128.117 27.791C122.555 27.17 120.665 25.55 120.665 21.581C120.665 18.017 123.581 15.425 128.387 15.425C133.166 15.425 135.839 17.369 136.163 21.581H130.493C130.358 20.393 129.683 19.718 128.387 19.718C127.118 19.718 126.47 20.285 126.47 21.122C126.47 22.04 127.037 22.472 129.17 22.742C134.03 23.255 136.73 24.497 136.73 28.79C136.73 32.381 133.922 35.351 128.738 35.351ZM141.356 35.351C138.818 35.351 136.55 34.109 136.55 31.085C136.55 27.764 139.25 26.468 144.137 26.468H145.352V26.225C145.352 25.037 145.136 24.173 143.705 24.173C142.49 24.173 142.112 24.956 142.031 25.685H137.063C137.279 22.229 139.979 20.474 144.029 20.474C148.133 20.474 150.617 22.148 150.617 25.874V35H145.487V33.38C144.893 34.352 143.651 35.351 141.356 35.351ZM143.273 31.787C144.488 31.787 145.352 31.112 145.352 30.059V29.33H144.218C142.436 29.33 141.788 29.681 141.788 30.68C141.788 31.355 142.301 31.787 143.273 31.787ZM155.377 35L150.193 20.879H155.863L158.536 29.465L161.236 20.879H166.231L161.074 35H155.377ZM172.556 35.351C168.047 35.351 164.726 32.786 164.726 28.115V27.899C164.726 23.309 168.236 20.474 172.556 20.474C176.525 20.474 179.9 22.742 179.9 27.818V29.114H170.099C170.234 30.815 171.233 31.733 172.745 31.733C174.23 31.733 174.797 31.031 174.959 30.221H179.927C179.495 33.461 177.038 35.351 172.556 35.351ZM170.126 26.333H174.77C174.716 24.821 173.987 23.903 172.556 23.903C171.26 23.903 170.342 24.74 170.126 26.333ZM187.138 35V21.716L183.574 23.849V18.773L188.002 15.695H193.267V35H187.138ZM203.662 35.351C198.1 35.351 194.644 31.895 194.644 25.739V24.983C194.644 18.8 198.613 15.398 203.77 15.398C208.9 15.398 212.923 18.449 212.923 24.848V25.577C212.923 31.787 209.305 35.351 203.662 35.351ZM203.851 30.626C206.011 30.626 206.848 29.033 206.848 25.685V24.983C206.848 21.608 205.957 20.042 203.797 20.042C201.61 20.042 200.719 21.608 200.719 24.956V25.712C200.719 29.087 201.61 30.626 203.851 30.626ZM218.091 25.28C214.743 25.28 212.853 23.12 212.853 20.312C212.853 17.558 215.094 15.479 218.118 15.479C221.088 15.479 223.329 17.423 223.329 20.231C223.329 23.066 221.358 25.28 218.091 25.28ZM215.337 35L229.026 15.695H231.78L218.064 35H215.337ZM218.118 22.256C219.036 22.256 219.522 21.5 219.522 20.312C219.522 19.124 219.036 18.395 218.118 18.395C217.2 18.395 216.687 19.124 216.687 20.285C216.687 21.527 217.2 22.256 218.118 22.256ZM228.891 35.351C225.543 35.351 223.68 33.191 223.68 30.383C223.68 27.629 225.894 25.55 228.918 25.55C231.915 25.55 234.156 27.494 234.156 30.302C234.156 33.137 232.158 35.351 228.891 35.351ZM228.918 32.327C229.836 32.327 230.322 31.571 230.322 30.383C230.322 29.195 229.836 28.466 228.918 28.466C228 28.466 227.487 29.195 227.487 30.356C227.487 31.598 228 32.327 228.918 32.327ZM113.821 51V40.99H119.673V41.984H115.039V45.526H118.651V46.52H115.039V51H113.821ZM123.293 51.126C121.207 51.126 119.709 49.544 119.709 47.402V47.29C119.709 45.092 121.235 43.552 123.307 43.552C125.379 43.552 126.905 45.078 126.905 47.276V47.388C126.905 49.6 125.379 51.126 123.293 51.126ZM123.307 50.16C124.777 50.16 125.701 49.054 125.701 47.402V47.304C125.701 45.61 124.763 44.518 123.307 44.518C121.837 44.518 120.913 45.61 120.913 47.29V47.402C120.913 49.068 121.823 50.16 123.307 50.16ZM128.005 51V43.678H129.167V44.994C129.629 44.168 130.259 43.594 131.575 43.552V44.644C130.105 44.714 129.167 45.176 129.167 46.982V51H128.005ZM137.841 51.126C136.091 51.126 135.041 50.244 134.971 48.746H136.105C136.189 49.614 136.651 50.16 137.827 50.16C138.933 50.16 139.423 49.782 139.423 48.998C139.423 48.228 138.849 47.976 137.715 47.766C135.811 47.416 135.167 46.884 135.167 45.61C135.167 44.252 136.497 43.552 137.645 43.552C138.961 43.552 140.095 44.084 140.291 45.666H139.171C139.003 44.868 138.555 44.518 137.631 44.518C136.791 44.518 136.245 44.938 136.245 45.568C136.245 46.226 136.609 46.492 137.953 46.73C139.465 47.01 140.529 47.346 140.529 48.9C140.529 50.23 139.619 51.126 137.841 51.126ZM143.434 51.126C142.076 51.126 140.998 50.468 140.998 48.97C140.998 47.276 142.79 46.702 144.666 46.702H145.716V46.17C145.716 45.008 145.268 44.518 144.148 44.518C143.14 44.518 142.58 44.938 142.468 45.834H141.306C141.46 44.168 142.79 43.552 144.204 43.552C145.604 43.552 146.878 44.126 146.878 46.17V51H145.716V50.076C145.17 50.762 144.512 51.126 143.434 51.126ZM143.546 50.202C144.778 50.202 145.716 49.572 145.716 48.438V47.528H144.708C143.238 47.528 142.16 47.892 142.16 48.97C142.16 49.726 142.524 50.202 143.546 50.202ZM148.461 51V43.678H149.623V44.798C149.959 44.112 150.757 43.552 151.807 43.552C152.745 43.552 153.571 43.944 153.949 44.924C154.453 43.972 155.545 43.552 156.455 43.552C157.771 43.552 158.919 44.336 158.919 46.464V51H157.757V46.38C157.757 45.092 157.211 44.56 156.203 44.56C155.251 44.56 154.271 45.204 154.271 46.52V51H153.109V46.38C153.109 45.092 152.563 44.56 151.555 44.56C150.603 44.56 149.623 45.204 149.623 46.52V51H148.461ZM163.499 51.126C161.427 51.126 159.957 49.67 159.957 47.416V47.304C159.957 45.092 161.371 43.552 163.387 43.552C165.081 43.552 166.677 44.574 166.677 47.192V47.57H161.161C161.217 49.236 162.015 50.16 163.513 50.16C164.647 50.16 165.305 49.74 165.459 48.886H166.621C166.369 50.356 165.151 51.126 163.499 51.126ZM161.203 46.632H165.487C165.375 45.12 164.591 44.518 163.387 44.518C162.197 44.518 161.399 45.33 161.203 46.632ZM173.523 51.126C171.605 51.126 170.219 49.768 170.219 47.486V47.374C170.219 45.134 171.619 43.552 173.635 43.552C174.853 43.552 175.609 44.14 176.029 44.854V40.178H177.191V51H176.029V49.74C175.609 50.454 174.587 51.126 173.523 51.126ZM173.649 50.16C175.007 50.16 176.071 49.264 176.071 47.388V47.276C176.071 45.4 175.175 44.518 173.747 44.518C172.291 44.518 171.423 45.54 171.423 47.318V47.43C171.423 49.278 172.417 50.16 173.649 50.16ZM180.676 51.126C179.318 51.126 178.24 50.468 178.24 48.97C178.24 47.276 180.032 46.702 181.908 46.702H182.958V46.17C182.958 45.008 182.51 44.518 181.39 44.518C180.382 44.518 179.822 44.938 179.71 45.834H178.548C178.702 44.168 180.032 43.552 181.446 43.552C182.846 43.552 184.12 44.126 184.12 46.17V51H182.958V50.076C182.412 50.762 181.754 51.126 180.676 51.126ZM180.788 50.202C182.02 50.202 182.958 49.572 182.958 48.438V47.528H181.95C180.48 47.528 179.402 47.892 179.402 48.97C179.402 49.726 179.766 50.202 180.788 50.202ZM186.156 53.548L187.542 50.244L184.672 43.678H185.918L188.158 48.928L190.188 43.678H191.378L187.332 53.548H186.156ZM195.213 51V43.678H196.375V44.798C196.711 44.112 197.509 43.552 198.559 43.552C199.497 43.552 200.323 43.944 200.701 44.924C201.205 43.972 202.297 43.552 203.207 43.552C204.523 43.552 205.671 44.336 205.671 46.464V51H204.509V46.38C204.509 45.092 203.963 44.56 202.955 44.56C202.003 44.56 201.023 45.204 201.023 46.52V51H199.861V46.38C199.861 45.092 199.315 44.56 198.307 44.56C197.355 44.56 196.375 45.204 196.375 46.52V51H195.213ZM209.733 51.126C208.277 51.126 207.185 50.328 207.185 48.312V43.678H208.347V48.256C208.347 49.544 208.893 50.118 210.041 50.118C211.077 50.118 212.057 49.432 212.057 48.116V43.678H213.219V51H212.057V49.838C211.721 50.524 210.909 51.126 209.733 51.126ZM214.896 51V40.178H216.072V51H214.896ZM219.976 51.098C218.646 51.098 218.002 50.314 218.002 49.166V44.658H216.952V43.678H218.002V42.012H219.164V43.678H220.872V44.658H219.164V49.054C219.164 49.768 219.486 50.118 220.074 50.118C220.438 50.118 220.718 50.062 220.97 49.964V50.944C220.732 51.028 220.452 51.098 219.976 51.098ZM222.614 42.152C222.194 42.152 221.844 41.802 221.844 41.382C221.844 40.962 222.194 40.612 222.614 40.612C223.034 40.612 223.384 40.962 223.384 41.382C223.384 41.802 223.034 42.152 222.614 42.152ZM222.054 51V43.678H223.216V51H222.054ZM224.894 53.548V43.678H226.056V44.91C226.476 44.196 227.47 43.552 228.534 43.552C230.452 43.552 231.866 44.952 231.866 47.234V47.346C231.866 49.586 230.55 51.126 228.534 51.126C227.33 51.126 226.476 50.524 226.056 49.796V53.548H224.894ZM228.422 50.16C229.878 50.16 230.662 49.18 230.662 47.402V47.29C230.662 45.442 229.64 44.518 228.408 44.518C227.05 44.518 226.014 45.414 226.014 47.29V47.402C226.014 49.278 226.994 50.16 228.422 50.16ZM233 51V40.178H234.176V51H233ZM238.85 51.126C236.778 51.126 235.308 49.67 235.308 47.416V47.304C235.308 45.092 236.722 43.552 238.738 43.552C240.432 43.552 242.028 44.574 242.028 47.192V47.57H236.512C236.568 49.236 237.366 50.16 238.864 50.16C239.998 50.16 240.656 49.74 240.81 48.886H241.972C241.72 50.356 240.502 51.126 238.85 51.126ZM236.554 46.632H240.838C240.726 45.12 239.942 44.518 238.738 44.518C237.548 44.518 236.75 45.33 236.554 46.632ZM148.116 65.098C146.786 65.098 146.142 64.314 146.142 63.166V58.658H145.092V57.678H146.142V56.012H147.304V57.678H149.012V58.658H147.304V63.054C147.304 63.768 147.626 64.118 148.214 64.118C148.578 64.118 148.858 64.062 149.11 63.964V64.944C148.872 65.028 148.592 65.098 148.116 65.098ZM150.167 65V57.678H151.329V58.994C151.791 58.168 152.421 57.594 153.737 57.552V58.644C152.267 58.714 151.329 59.176 151.329 60.982V65H150.167ZM157.521 65.126C155.449 65.126 153.979 63.67 153.979 61.416V61.304C153.979 59.092 155.393 57.552 157.409 57.552C159.103 57.552 160.699 58.574 160.699 61.192V61.57H155.183C155.239 63.236 156.037 64.16 157.535 64.16C158.669 64.16 159.327 63.74 159.481 62.886H160.643C160.391 64.356 159.173 65.126 157.521 65.126ZM155.225 60.632H159.509C159.397 59.12 158.613 58.518 157.409 58.518C156.219 58.518 155.421 59.33 155.225 60.632ZM163.685 65.126C162.327 65.126 161.249 64.468 161.249 62.97C161.249 61.276 163.041 60.702 164.917 60.702H165.967V60.17C165.967 59.008 165.519 58.518 164.399 58.518C163.391 58.518 162.831 58.938 162.719 59.834H161.557C161.711 58.168 163.041 57.552 164.455 57.552C165.855 57.552 167.129 58.126 167.129 60.17V65H165.967V64.076C165.421 64.762 164.763 65.126 163.685 65.126ZM163.797 64.202C165.029 64.202 165.967 63.572 165.967 62.438V61.528H164.959C163.489 61.528 162.411 61.892 162.411 62.97C162.411 63.726 162.775 64.202 163.797 64.202ZM170.937 65.098C169.607 65.098 168.963 64.314 168.963 63.166V58.658H167.913V57.678H168.963V56.012H170.125V57.678H171.833V58.658H170.125V63.054C170.125 63.768 170.447 64.118 171.035 64.118C171.399 64.118 171.679 64.062 171.931 63.964V64.944C171.693 65.028 171.413 65.098 170.937 65.098ZM172.988 65V57.678H174.15V58.798C174.486 58.112 175.284 57.552 176.334 57.552C177.272 57.552 178.098 57.944 178.476 58.924C178.98 57.972 180.072 57.552 180.982 57.552C182.298 57.552 183.446 58.336 183.446 60.464V65H182.284V60.38C182.284 59.092 181.738 58.56 180.73 58.56C179.778 58.56 178.798 59.204 178.798 60.52V65H177.636V60.38C177.636 59.092 177.09 58.56 176.082 58.56C175.13 58.56 174.15 59.204 174.15 60.52V65H172.988ZM188.026 65.126C185.954 65.126 184.484 63.67 184.484 61.416V61.304C184.484 59.092 185.898 57.552 187.914 57.552C189.608 57.552 191.204 58.574 191.204 61.192V61.57H185.688C185.744 63.236 186.542 64.16 188.04 64.16C189.174 64.16 189.832 63.74 189.986 62.886H191.148C190.896 64.356 189.678 65.126 188.026 65.126ZM185.73 60.632H190.014C189.902 59.12 189.118 58.518 187.914 58.518C186.724 58.518 185.926 59.33 185.73 60.632ZM192.287 65V57.678H193.449V58.84C193.785 58.154 194.597 57.552 195.801 57.552C197.313 57.552 198.377 58.378 198.377 60.506V65H197.215V60.422C197.215 59.134 196.669 58.56 195.493 58.56C194.415 58.56 193.449 59.246 193.449 60.562V65H192.287ZM202.18 65.098C200.85 65.098 200.206 64.314 200.206 63.166V58.658H199.156V57.678H200.206V56.012H201.368V57.678H203.076V58.658H201.368V63.054C201.368 63.768 201.69 64.118 202.278 64.118C202.642 64.118 202.922 64.062 203.174 63.964V64.944C202.936 65.028 202.656 65.098 202.18 65.098ZM206.499 65.126C204.749 65.126 203.699 64.244 203.629 62.746H204.763C204.847 63.614 205.309 64.16 206.485 64.16C207.591 64.16 208.081 63.782 208.081 62.998C208.081 62.228 207.507 61.976 206.373 61.766C204.469 61.416 203.825 60.884 203.825 59.61C203.825 58.252 205.155 57.552 206.303 57.552C207.619 57.552 208.753 58.084 208.949 59.666H207.829C207.661 58.868 207.213 58.518 206.289 58.518C205.449 58.518 204.903 58.938 204.903 59.568C204.903 60.226 205.267 60.492 206.611 60.73C208.123 61.01 209.187 61.346 209.187 62.9C209.187 64.23 208.277 65.126 206.499 65.126Z" fill="#414042"/>
<path d="M194.608 508.416C187.76 508.416 183.28 505.024 183.28 498.336C183.28 490.432 188.08 484.768 196.176 484.768C202.384 484.768 206.288 487.744 206.512 493.792H199.216C199.024 491.648 198.096 490.432 195.984 490.432C192.56 490.432 190.896 493.952 190.864 498.016C190.832 500.608 191.856 502.688 194.672 502.688C196.688 502.688 198.16 501.568 198.768 499.232H205.968C205.072 505.376 200.304 508.416 194.608 508.416ZM212.064 508.416C209.12 508.416 206.784 506.752 206.784 503.776C206.784 499.36 210.112 497.888 215.712 497.888H218.016L218.08 497.504C218.304 496.128 218.048 495.168 216.384 495.168C214.976 495.168 214.464 496.032 214.24 496.96H208.352C209.184 492.832 212.128 490.784 216.672 490.784C222.336 490.784 224.992 493.216 224.192 498.304L223.488 502.752C223.135 504.928 223.04 506.592 223.232 508H217.12C216.992 507.328 216.992 506.592 217.024 505.92C216.095 507.232 214.624 508.416 212.064 508.416ZM214.72 504.256C216.095 504.256 217.152 503.392 217.344 502.144L217.504 501.28H215.872C213.824 501.28 213.056 501.728 213.056 502.88C213.056 503.648 213.632 504.256 214.72 504.256ZM225.695 508L229.503 484H235.743L231.967 508H225.695ZM235.289 508L239.097 484H245.337L241.561 508H235.289ZM250.629 508L252.389 496.832C252.773 494.4 252.965 492.8 253.029 491.264H259.173C259.173 492.096 259.141 493.216 259.013 494.208C260.197 492.288 262.021 490.784 264.741 490.784C267.845 490.784 270.213 492.864 269.413 497.92L267.813 508H261.509L263.013 498.496C263.301 496.704 262.725 495.84 261.285 495.84C259.685 495.84 258.693 496.832 258.373 498.848L256.933 508H250.629ZM279.939 508.416C275.427 508.416 271.235 506.048 271.235 500.736C271.203 495.008 275.235 490.816 281.027 490.816C285.539 490.816 289.731 493.216 289.731 498.592C289.731 504.416 285.731 508.416 279.939 508.416ZM280.035 503.776C282.339 503.776 283.395 501.408 283.395 498.304C283.395 496.736 282.659 495.456 280.931 495.456C278.627 495.456 277.507 497.728 277.507 500.768C277.507 502.24 278.051 503.776 280.035 503.776ZM293.212 508L290.94 491.264H297.308L298.044 500.672L301.884 491.264H306.94L307.74 500.672L311.548 491.264H317.628L309.756 508H303.836L302.972 499.2L299.292 508H293.212ZM318.908 500.288L320.411 485.12H327.484L324.124 500.288H318.908ZM320.828 508.384C318.812 508.384 317.34 506.912 317.34 505.024C317.34 503.168 318.876 501.632 320.891 501.632C322.908 501.632 324.444 503.104 324.444 504.992C324.444 506.88 322.844 508.384 320.828 508.384Z" fill="#1CDC38"/>
<path d="M28.668 525.092L27.984 524.6L28.98 523.268L27.504 522.92L27.768 522.116L29.184 522.692L29.1 521.084H29.976L29.892 522.692L31.296 522.116L31.56 522.92L30.072 523.268L31.068 524.6L30.396 525.092L29.508 523.652L28.668 525.092ZM32.9533 530V523.724H33.9493V524.852C34.3453 524.144 34.8853 523.652 36.0133 523.616V524.552C34.7533 524.612 33.9493 525.008 33.9493 526.556V530H32.9533ZM39.8573 530.108C38.0813 530.108 36.8213 528.86 36.8213 526.928V526.832C36.8213 524.936 38.0333 523.616 39.7613 523.616C41.2133 523.616 42.5813 524.492 42.5813 526.736V527.06H37.8533C37.9013 528.488 38.5853 529.28 39.8693 529.28C40.8413 529.28 41.4053 528.92 41.5373 528.188H42.5333C42.3173 529.448 41.2733 530.108 39.8573 530.108ZM37.8893 526.256H41.5613C41.4653 524.96 40.7933 524.444 39.7613 524.444C38.7413 524.444 38.0573 525.14 37.8893 526.256ZM48.6216 532.184V528.92C48.2616 529.532 47.3856 530.108 46.4736 530.108C44.8296 530.108 43.6416 528.944 43.6416 526.988V526.892C43.6416 524.972 44.8416 523.616 46.5696 523.616C47.6136 523.616 48.2616 524.12 48.6216 524.732V523.724H49.6176V532.184H48.6216ZM46.5816 529.28C47.7456 529.28 48.6576 528.512 48.6576 526.904V526.808C48.6576 525.2 47.8896 524.444 46.6656 524.444C45.4176 524.444 44.6736 525.32 44.6736 526.844V526.94C44.6736 528.524 45.5256 529.28 46.5816 529.28ZM53.757 530.108C52.509 530.108 51.573 529.424 51.573 527.696V523.724H52.569V527.648C52.569 528.752 53.037 529.244 54.021 529.244C54.909 529.244 55.749 528.656 55.749 527.528V523.724H56.745V530H55.749V529.004C55.461 529.592 54.765 530.108 53.757 530.108ZM59.262 522.416C58.902 522.416 58.602 522.116 58.602 521.756C58.602 521.396 58.902 521.096 59.262 521.096C59.622 521.096 59.922 521.396 59.922 521.756C59.922 522.116 59.622 522.416 59.262 522.416ZM58.782 530V523.724H59.778V530H58.782ZM61.8166 530V523.724H62.8126V524.852C63.2086 524.144 63.7486 523.652 64.8766 523.616V524.552C63.6166 524.612 62.8126 525.008 62.8126 526.556V530H61.8166ZM68.7205 530.108C66.9445 530.108 65.6845 528.86 65.6845 526.928V526.832C65.6845 524.936 66.8965 523.616 68.6245 523.616C70.0765 523.616 71.4445 524.492 71.4445 526.736V527.06H66.7165C66.7645 528.488 67.4485 529.28 68.7325 529.28C69.7045 529.28 70.2685 528.92 70.4005 528.188H71.3965C71.1805 529.448 70.1365 530.108 68.7205 530.108ZM66.7525 526.256H70.4245C70.3285 524.96 69.6565 524.444 68.6245 524.444C67.6045 524.444 66.9205 525.14 66.7525 526.256ZM75.3368 530.108C73.6928 530.108 72.5048 528.944 72.5048 526.988V526.892C72.5048 524.972 73.7048 523.616 75.4328 523.616C76.4768 523.616 77.1248 524.12 77.4848 524.732V520.724H78.4808V530H77.4848V528.92C77.1248 529.532 76.2488 530.108 75.3368 530.108ZM75.4448 529.28C76.6088 529.28 77.5208 528.512 77.5208 526.904V526.808C77.5208 525.2 76.7528 524.444 75.5288 524.444C74.2808 524.444 73.5368 525.32 73.5368 526.844V526.94C73.5368 528.524 74.3888 529.28 75.4448 529.28ZM83.8881 530V524.564H82.9881V523.724H83.8881V522.704C83.8881 521.432 84.5001 520.688 85.7361 520.688C86.0601 520.688 86.2281 520.712 86.4201 520.784V521.624C86.2401 521.552 86.0481 521.516 85.7721 521.516C85.1361 521.516 84.8841 521.96 84.8841 522.596V523.724H86.4201V524.564H84.8841V530H83.8881ZM88.1487 522.416C87.7887 522.416 87.4887 522.116 87.4887 521.756C87.4887 521.396 87.7887 521.096 88.1487 521.096C88.5087 521.096 88.8087 521.396 88.8087 521.756C88.8087 522.116 88.5087 522.416 88.1487 522.416ZM87.6687 530V523.724H88.6647V530H87.6687ZM93.2713 530.108C91.4953 530.108 90.2353 528.86 90.2353 526.928V526.832C90.2353 524.936 91.4473 523.616 93.1753 523.616C94.6273 523.616 95.9953 524.492 95.9953 526.736V527.06H91.2673C91.3153 528.488 91.9993 529.28 93.2833 529.28C94.2553 529.28 94.8193 528.92 94.9513 528.188H95.9473C95.7313 529.448 94.6873 530.108 93.2713 530.108ZM91.3033 526.256H94.9753C94.8793 524.96 94.2073 524.444 93.1753 524.444C92.1553 524.444 91.4713 525.14 91.3033 526.256ZM97.5476 530V520.724H98.5556V530H97.5476ZM102.958 530.108C101.314 530.108 100.126 528.944 100.126 526.988V526.892C100.126 524.972 101.326 523.616 103.054 523.616C104.098 523.616 104.746 524.12 105.106 524.732V520.724H106.102V530H105.106V528.92C104.746 529.532 103.87 530.108 102.958 530.108ZM103.066 529.28C104.23 529.28 105.142 528.512 105.142 526.904V526.808C105.142 525.2 104.374 524.444 103.15 524.444C101.902 524.444 101.158 525.32 101.158 526.844V526.94C101.158 528.524 102.01 529.28 103.066 529.28ZM110.061 530.108C108.561 530.108 107.661 529.352 107.601 528.068H108.573C108.645 528.812 109.041 529.28 110.049 529.28C110.997 529.28 111.417 528.956 111.417 528.284C111.417 527.624 110.925 527.408 109.953 527.228C108.321 526.928 107.769 526.472 107.769 525.38C107.769 524.216 108.909 523.616 109.893 523.616C111.021 523.616 111.993 524.072 112.161 525.428H111.201C111.057 524.744 110.673 524.444 109.881 524.444C109.161 524.444 108.693 524.804 108.693 525.344C108.693 525.908 109.005 526.136 110.157 526.34C111.453 526.58 112.365 526.868 112.365 528.2C112.365 529.34 111.585 530.108 110.061 530.108Z" fill="#414141"/>
</svg>
