<svg width="354" height="185" viewBox="0 0 354 185" fill="none" xmlns="http://www.w3.org/2000/svg">
<rect width="354" height="185" rx="20" fill="#1CDC38"/>
<ellipse cx="57.621" cy="125.5" rx="37.1068" ry="37.5" fill="#F8F5F2"/>
<path d="M38.2323 122.101C33.1823 122.101 30.4823 120.076 30.3573 116.051H35.7323C35.8323 117.176 36.3823 118.101 38.2323 118.101C39.5573 118.101 40.2073 117.501 40.2073 116.626C40.2073 115.676 39.5823 115.376 37.6573 115.101C32.5073 114.526 30.7573 113.026 30.7573 109.351C30.7573 106.051 33.4573 103.651 37.9073 103.651C42.3323 103.651 44.8073 105.451 45.1073 109.351H39.8573C39.7323 108.251 39.1073 107.626 37.9073 107.626C36.7323 107.626 36.1323 108.151 36.1323 108.926C36.1323 109.776 36.6573 110.176 38.6323 110.426C43.1323 110.901 45.6323 112.051 45.6323 116.026C45.6323 119.351 43.0323 122.101 38.2323 122.101ZM49.9153 122.101C47.5653 122.101 45.4653 120.951 45.4653 118.151C45.4653 115.076 47.9653 113.876 52.4903 113.876H53.6153V113.651C53.6153 112.551 53.4153 111.751 52.0903 111.751C50.9653 111.751 50.6153 112.476 50.5403 113.151H45.9403C46.1403 109.951 48.6403 108.326 52.3903 108.326C56.1903 108.326 58.4903 109.876 58.4903 113.326V121.776H53.7403V120.276C53.1903 121.176 52.0403 122.101 49.9153 122.101ZM51.6903 118.801C52.8153 118.801 53.6153 118.176 53.6153 117.201V116.526H52.5653C50.9153 116.526 50.3153 116.851 50.3153 117.776C50.3153 118.401 50.7903 118.801 51.6903 118.801ZM62.8981 121.776L58.0981 108.701H63.3481L65.8231 116.651L68.3231 108.701H72.9481L68.1731 121.776H62.8981ZM78.8048 122.101C74.6298 122.101 71.5548 119.726 71.5548 115.401V115.201C71.5548 110.951 74.8048 108.326 78.8048 108.326C82.4798 108.326 85.6048 110.426 85.6048 115.126V116.326H76.5298C76.6548 117.901 77.5798 118.751 78.9798 118.751C80.3548 118.751 80.8798 118.101 81.0298 117.351H85.6298C85.2298 120.351 82.9548 122.101 78.8048 122.101ZM76.5548 113.751H80.8548C80.8048 112.351 80.1298 111.501 78.8048 111.501C77.6048 111.501 76.7548 112.276 76.5548 113.751ZM37.9832 145.776V133.476L34.6832 135.451V130.751L38.7832 127.901H43.6582V145.776H37.9832ZM53.2828 146.101C48.1328 146.101 44.9328 142.901 44.9328 137.201V136.501C44.9328 130.776 48.6078 127.626 53.3828 127.626C58.1328 127.626 61.8578 130.451 61.8578 136.376V137.051C61.8578 142.801 58.5078 146.101 53.2828 146.101ZM53.4578 141.726C55.4578 141.726 56.2328 140.251 56.2328 137.151V136.501C56.2328 133.376 55.4078 131.926 53.4078 131.926C51.3828 131.926 50.5578 133.376 50.5578 136.476V137.176C50.5578 140.301 51.3828 141.726 53.4578 141.726ZM66.6428 136.776C63.5428 136.776 61.7928 134.776 61.7928 132.176C61.7928 129.626 63.8678 127.701 66.6678 127.701C69.4178 127.701 71.4928 129.501 71.4928 132.101C71.4928 134.726 69.6678 136.776 66.6428 136.776ZM64.0928 145.776L76.7678 127.901H79.3178L66.6178 145.776H64.0928ZM66.6678 133.976C67.5178 133.976 67.9678 133.276 67.9678 132.176C67.9678 131.076 67.5178 130.401 66.6678 130.401C65.8178 130.401 65.3428 131.076 65.3428 132.151C65.3428 133.301 65.8178 133.976 66.6678 133.976ZM76.6428 146.101C73.5428 146.101 71.8178 144.101 71.8178 141.501C71.8178 138.951 73.8678 137.026 76.6678 137.026C79.4428 137.026 81.5178 138.826 81.5178 141.426C81.5178 144.051 79.6678 146.101 76.6428 146.101ZM76.6678 143.301C77.5178 143.301 77.9678 142.601 77.9678 141.501C77.9678 140.401 77.5178 139.726 76.6678 139.726C75.8178 139.726 75.3428 140.401 75.3428 141.476C75.3428 142.626 75.8178 143.301 76.6678 143.301Z" fill="#414042"/>
<path d="M50.4362 42V28.632H45.9962V24.84H59.8202V28.632H55.3802V42H50.4362ZM61.6001 42V23.928H65.8961V31.464C66.5681 30.168 67.9361 29.112 70.0241 29.112C72.4481 29.112 74.1281 30.624 74.1281 33.84V42H69.8321V34.704C69.8321 33.288 69.2801 32.592 68.0321 32.592C66.7601 32.592 65.8961 33.36 65.8961 34.968V42H61.6001ZM82.7207 42.288C78.7847 42.288 75.9047 39.984 75.9047 35.88V35.688C75.9047 31.656 78.9047 29.112 82.6967 29.112C86.1287 29.112 89.0807 31.08 89.0807 35.592V36.72H80.2487C80.3687 38.376 81.3287 39.336 82.8647 39.336C84.2807 39.336 84.8807 38.688 85.0487 37.848H89.0807C88.6967 40.68 86.5127 42.288 82.7207 42.288ZM80.2967 34.296H84.9047C84.8327 32.784 84.0887 31.944 82.6967 31.944C81.4007 31.944 80.5127 32.784 80.2967 34.296ZM95.6548 42V29.448H99.9508V31.368C100.623 30.168 101.943 29.112 103.887 29.112C105.543 29.112 106.695 29.832 107.295 31.2C108.375 29.736 109.863 29.112 111.447 29.112C113.823 29.112 115.551 30.648 115.551 33.792V42H111.255V34.512C111.255 33.24 110.631 32.616 109.647 32.616C108.495 32.616 107.727 33.36 107.727 34.728V42H103.479V34.512C103.479 33.24 102.855 32.616 101.871 32.616C100.719 32.616 99.9508 33.36 99.9508 34.728V42H95.6548ZM124.183 42.288C120.319 42.288 117.319 39.936 117.319 35.88V35.688C117.319 31.656 120.319 29.112 124.207 29.112C128.071 29.112 131.047 31.584 131.047 35.568V35.76C131.047 39.84 128.047 42.288 124.183 42.288ZM124.207 39.096C125.815 39.096 126.679 37.896 126.679 35.808V35.616C126.679 33.504 125.839 32.328 124.207 32.328C122.599 32.328 121.711 33.456 121.711 35.568V35.76C121.711 37.92 122.551 39.096 124.207 39.096ZM132.92 42V29.448H137.216V31.944C138.008 30.072 139.328 29.256 141.272 29.28V33.288C138.656 33.216 137.216 34.032 137.216 36.048V42H132.92ZM149.213 42.288C145.277 42.288 142.397 39.984 142.397 35.88V35.688C142.397 31.656 145.397 29.112 149.189 29.112C152.621 29.112 155.573 31.08 155.573 35.592V36.72H146.741C146.861 38.376 147.821 39.336 149.357 39.336C150.773 39.336 151.373 38.688 151.541 37.848H155.573C155.189 40.68 153.005 42.288 149.213 42.288ZM146.789 34.296H151.397C151.325 32.784 150.581 31.944 149.189 31.944C147.893 31.944 147.005 32.784 146.789 34.296ZM163.995 46.2L166.083 40.728L161.067 29.448H165.723L168.315 36.144L170.715 29.448H174.819L168.099 46.2H163.995ZM181.792 42.288C177.928 42.288 174.928 39.936 174.928 35.88V35.688C174.928 31.656 177.928 29.112 181.816 29.112C185.68 29.112 188.656 31.584 188.656 35.568V35.76C188.656 39.84 185.656 42.288 181.792 42.288ZM181.816 39.096C183.424 39.096 184.288 37.896 184.288 35.808V35.616C184.288 33.504 183.448 32.328 181.816 32.328C180.208 32.328 179.32 33.456 179.32 35.568V35.76C179.32 37.92 180.16 39.096 181.816 39.096ZM194.658 42.288C192.234 42.288 190.434 40.8 190.434 37.632V29.448H194.73V36.936C194.73 38.352 195.282 39.048 196.506 39.048C197.802 39.048 198.642 38.28 198.642 36.672V29.448H202.938V42H198.642V40.056C197.97 41.352 196.746 42.288 194.658 42.288ZM210.217 46.2V29.448H214.513V31.32C215.233 30.12 216.529 29.112 218.425 29.112C221.353 29.112 223.729 31.32 223.729 35.616V35.808C223.729 40.128 221.353 42.288 218.401 42.288C216.505 42.288 215.137 41.4 214.513 40.152V46.2H210.217ZM216.889 39C218.497 39 219.361 37.872 219.361 35.808V35.616C219.361 33.408 218.401 32.352 216.889 32.352C215.329 32.352 214.393 33.48 214.393 35.592V35.784C214.393 37.92 215.329 39 216.889 39ZM225.639 42V29.448H229.935V31.944C230.727 30.072 232.047 29.256 233.991 29.28V33.288C231.375 33.216 229.935 34.032 229.935 36.048V42H225.639ZM241.98 42.288C238.116 42.288 235.116 39.936 235.116 35.88V35.688C235.116 31.656 238.116 29.112 242.004 29.112C245.868 29.112 248.844 31.584 248.844 35.568V35.76C248.844 39.84 245.844 42.288 241.98 42.288ZM242.004 39.096C243.612 39.096 244.476 37.896 244.476 35.808V35.616C244.476 33.504 243.636 32.328 242.004 32.328C240.396 32.328 239.508 33.456 239.508 35.568V35.76C239.508 37.92 240.348 39.096 242.004 39.096ZM255.709 42.288C252.877 42.288 251.293 40.92 251.293 37.968V32.376H249.781V29.448H251.293V26.832H255.589V29.448H258.061V32.376H255.589V37.56C255.589 38.472 256.045 38.88 256.861 38.88C257.341 38.88 257.701 38.808 258.085 38.664V41.928C257.533 42.072 256.717 42.288 255.709 42.288ZM266.189 42.288C262.253 42.288 259.373 39.984 259.373 35.88V35.688C259.373 31.656 262.373 29.112 266.165 29.112C269.597 29.112 272.549 31.08 272.549 35.592V36.72H263.717C263.837 38.376 264.797 39.336 266.333 39.336C267.749 39.336 268.349 38.688 268.517 37.848H272.549C272.165 40.68 269.981 42.288 266.189 42.288ZM263.765 34.296H268.373C268.301 32.784 267.557 31.944 266.165 31.944C264.869 31.944 263.981 32.784 263.765 34.296ZM280.317 42.288C276.573 42.288 273.717 40.104 273.717 35.88V35.688C273.717 31.512 276.717 29.112 280.413 29.112C283.485 29.112 286.317 30.456 286.557 34.272H282.525C282.333 33.096 281.757 32.448 280.509 32.448C278.997 32.448 278.109 33.528 278.109 35.64V35.832C278.109 38.016 278.949 39.144 280.581 39.144C281.781 39.144 282.621 38.424 282.765 37.056H286.629C286.509 40.224 284.373 42.288 280.317 42.288ZM293.373 42.288C290.541 42.288 288.957 40.92 288.957 37.968V32.376H287.445V29.448H288.957V26.832H293.253V29.448H295.725V32.376H293.253V37.56C293.253 38.472 293.709 38.88 294.525 38.88C295.005 38.88 295.365 38.808 295.749 38.664V41.928C295.197 42.072 294.381 42.288 293.373 42.288ZM299.366 44.928L296.822 43.944L298.838 37.632L302.822 39.048L299.366 44.928ZM77.4085 71.288C74.5765 71.288 72.9925 69.92 72.9925 66.968V61.376H71.4805V58.448H72.9925V55.832H77.2885V58.448H79.7605V61.376H77.2885V66.56C77.2885 67.472 77.7445 67.88 78.5605 67.88C79.0405 67.88 79.4005 67.808 79.7845 67.664V70.928C79.2325 71.072 78.4165 71.288 77.4085 71.288ZM81.7447 71V52.928H86.0407V60.464C86.7127 59.168 88.0807 58.112 90.1687 58.112C92.5927 58.112 94.2727 59.624 94.2727 62.84V71H89.9767V63.704C89.9767 62.288 89.4247 61.592 88.1767 61.592C86.9047 61.592 86.0407 62.36 86.0407 63.968V71H81.7447ZM102.865 71.288C98.9292 71.288 96.0492 68.984 96.0492 64.88V64.688C96.0492 60.656 99.0492 58.112 102.841 58.112C106.273 58.112 109.225 60.08 109.225 64.592V65.72H100.393C100.513 67.376 101.473 68.336 103.009 68.336C104.425 68.336 105.025 67.688 105.193 66.848H109.225C108.841 69.68 106.657 71.288 102.865 71.288ZM100.441 63.296H105.049C104.977 61.784 104.233 60.944 102.841 60.944C101.545 60.944 100.657 61.784 100.441 63.296ZM115.799 71V58.448H120.095V60.368C120.767 59.168 122.087 58.112 124.031 58.112C125.687 58.112 126.839 58.832 127.439 60.2C128.519 58.736 130.007 58.112 131.591 58.112C133.967 58.112 135.695 59.648 135.695 62.792V71H131.399V63.512C131.399 62.24 130.775 61.616 129.791 61.616C128.639 61.616 127.871 62.36 127.871 63.728V71H123.623V63.512C123.623 62.24 122.999 61.616 122.015 61.616C120.863 61.616 120.095 62.36 120.095 63.728V71H115.799ZM144.327 71.288C140.463 71.288 137.463 68.936 137.463 64.88V64.688C137.463 60.656 140.463 58.112 144.351 58.112C148.215 58.112 151.191 60.584 151.191 64.568V64.76C151.191 68.84 148.191 71.288 144.327 71.288ZM144.351 68.096C145.959 68.096 146.823 66.896 146.823 64.808V64.616C146.823 62.504 145.983 61.328 144.351 61.328C142.743 61.328 141.855 62.456 141.855 64.568V64.76C141.855 66.92 142.695 68.096 144.351 68.096ZM153.065 71V58.448H157.361V60.944C158.153 59.072 159.473 58.256 161.417 58.28V62.288C158.801 62.216 157.361 63.032 157.361 65.048V71H153.065ZM169.357 71.288C165.421 71.288 162.541 68.984 162.541 64.88V64.688C162.541 60.656 165.541 58.112 169.333 58.112C172.765 58.112 175.717 60.08 175.717 64.592V65.72H166.885C167.005 67.376 167.965 68.336 169.501 68.336C170.917 68.336 171.517 67.688 171.685 66.848H175.717C175.333 69.68 173.149 71.288 169.357 71.288ZM166.933 63.296H171.541C171.469 61.784 170.725 60.944 169.333 60.944C168.037 60.944 167.149 61.784 166.933 63.296ZM184.14 75.2L186.228 69.728L181.212 58.448H185.868L188.46 65.144L190.86 58.448H194.964L188.244 75.2H184.14ZM201.937 71.288C198.073 71.288 195.073 68.936 195.073 64.88V64.688C195.073 60.656 198.073 58.112 201.961 58.112C205.825 58.112 208.801 60.584 208.801 64.568V64.76C208.801 68.84 205.801 71.288 201.937 71.288ZM201.961 68.096C203.569 68.096 204.433 66.896 204.433 64.808V64.616C204.433 62.504 203.593 61.328 201.961 61.328C200.353 61.328 199.465 62.456 199.465 64.568V64.76C199.465 66.92 200.305 68.096 201.961 68.096ZM214.802 71.288C212.378 71.288 210.578 69.8 210.578 66.632V58.448H214.874V65.936C214.874 67.352 215.426 68.048 216.65 68.048C217.946 68.048 218.786 67.28 218.786 65.672V58.448H223.082V71H218.786V69.056C218.114 70.352 216.89 71.288 214.802 71.288ZM235.282 71.288C231.706 71.288 229.618 69.8 229.522 67.016H233.482C233.626 67.928 234.034 68.432 235.258 68.432C236.314 68.432 236.794 68.024 236.794 67.4C236.794 66.8 236.194 66.512 234.466 66.272C231.106 65.84 229.69 64.856 229.69 62.24C229.69 59.456 232.162 58.112 235.066 58.112C238.162 58.112 240.322 59.168 240.61 62.168H236.722C236.554 61.328 236.098 60.92 235.114 60.92C234.178 60.92 233.698 61.328 233.698 61.904C233.698 62.504 234.274 62.744 235.81 62.936C239.29 63.368 240.97 64.28 240.97 66.968C240.97 69.944 238.762 71.288 235.282 71.288ZM246.241 71.288C243.985 71.288 241.993 70.184 241.993 67.52C241.993 64.568 244.489 63.416 248.665 63.416H249.865V63.128C249.865 61.928 249.577 61.136 248.209 61.136C247.033 61.136 246.601 61.832 246.505 62.624H242.473C242.665 59.6 245.041 58.112 248.473 58.112C251.929 58.112 254.137 59.528 254.137 62.864V71H249.961V69.536C249.361 70.448 248.257 71.288 246.241 71.288ZM247.729 68.384C248.953 68.384 249.865 67.688 249.865 66.608V65.84H248.737C247.009 65.84 246.241 66.176 246.241 67.208C246.241 67.928 246.721 68.384 247.729 68.384ZM259.765 71L255.157 58.448H259.741L262.357 66.536L264.925 58.448H269.029L264.445 71H259.765ZM275.928 71.288C271.992 71.288 269.112 68.984 269.112 64.88V64.688C269.112 60.656 272.112 58.112 275.904 58.112C279.336 58.112 282.288 60.08 282.288 64.592V65.72H273.456C273.576 67.376 274.536 68.336 276.072 68.336C277.488 68.336 278.088 67.688 278.256 66.848H282.288C281.904 69.68 279.72 71.288 275.928 71.288ZM273.504 63.296H278.112C278.04 61.784 277.296 60.944 275.904 60.944C274.608 60.944 273.72 61.784 273.504 63.296Z" fill="#414042"/>
<path d="M113.494 106.126C110.82 106.126 109.854 104.656 109.672 102.948H110.848C111.002 104.138 111.478 105.146 113.494 105.146C114.782 105.146 115.776 104.39 115.776 103.256C115.776 102.122 115.258 101.646 113.354 101.338C111.254 101.016 110.008 100.358 110.008 98.58C110.008 97.04 111.338 95.864 113.228 95.864C115.23 95.864 116.476 96.844 116.672 98.622H115.58C115.342 97.362 114.614 96.844 113.228 96.844C111.856 96.844 111.142 97.53 111.142 98.468C111.142 99.448 111.506 99.952 113.55 100.26C115.776 100.61 116.952 101.282 116.952 103.172C116.952 104.852 115.482 106.126 113.494 106.126ZM120.787 106.126C119.429 106.126 118.351 105.468 118.351 103.97C118.351 102.276 120.143 101.702 122.019 101.702H123.069V101.17C123.069 100.008 122.621 99.518 121.501 99.518C120.493 99.518 119.933 99.938 119.821 100.834H118.659C118.813 99.168 120.143 98.552 121.557 98.552C122.957 98.552 124.231 99.126 124.231 101.17V106H123.069V105.076C122.523 105.762 121.865 106.126 120.787 106.126ZM120.899 105.202C122.131 105.202 123.069 104.572 123.069 103.438V102.528H122.061C120.591 102.528 119.513 102.892 119.513 103.97C119.513 104.726 119.877 105.202 120.899 105.202ZM128.143 106L125.483 98.678H126.743L128.913 104.824L131.055 98.678H132.259L129.627 106H128.143ZM136.578 106.126C134.506 106.126 133.036 104.67 133.036 102.416V102.304C133.036 100.092 134.45 98.552 136.466 98.552C138.16 98.552 139.756 99.574 139.756 102.192V102.57H134.24C134.296 104.236 135.094 105.16 136.592 105.16C137.726 105.16 138.384 104.74 138.538 103.886H139.7C139.448 105.356 138.23 106.126 136.578 106.126ZM134.282 101.632H138.566C138.454 100.12 137.67 99.518 136.466 99.518C135.276 99.518 134.478 100.33 134.282 101.632ZM146.77 106V97.194L144.53 98.804V97.67L146.854 95.99H147.988V106H146.77ZM154.476 106.126C152.082 106.126 150.5 104.194 150.5 101.282V100.722C150.5 97.768 151.998 95.864 154.448 95.864C156.912 95.864 158.354 97.838 158.354 100.694V101.254C158.354 104.166 156.94 106.126 154.476 106.126ZM154.476 105.118C156.226 105.118 157.122 103.774 157.122 101.24V100.68C157.122 98.356 156.142 96.844 154.448 96.844C152.754 96.844 151.746 98.244 151.746 100.708V101.268C151.746 103.802 152.81 105.118 154.476 105.118ZM161.961 100.638C160.771 100.638 159.665 99.658 159.665 98.3C159.665 96.914 160.743 95.906 161.961 95.906C163.207 95.906 164.257 96.914 164.257 98.272C164.257 99.658 163.165 100.638 161.961 100.638ZM161.079 106L167.197 95.99H168.261L162.143 106H161.079ZM161.961 99.728C162.717 99.728 163.193 99.21 163.193 98.272C163.193 97.376 162.717 96.816 161.961 96.816C161.219 96.816 160.729 97.334 160.729 98.286C160.729 99.238 161.219 99.728 161.961 99.728ZM167.393 106.112C166.203 106.112 165.097 105.132 165.097 103.774C165.097 102.388 166.175 101.38 167.393 101.38C168.639 101.38 169.689 102.388 169.689 103.746C169.689 105.132 168.597 106.112 167.393 106.112ZM167.393 105.202C168.149 105.202 168.625 104.684 168.625 103.746C168.625 102.85 168.149 102.29 167.393 102.29C166.651 102.29 166.161 102.808 166.161 103.76C166.161 104.712 166.651 105.202 167.393 105.202ZM178.087 106.126C176.001 106.126 174.503 104.544 174.503 102.402V102.29C174.503 100.092 176.029 98.552 178.101 98.552C180.173 98.552 181.699 100.078 181.699 102.276V102.388C181.699 104.6 180.173 106.126 178.087 106.126ZM178.101 105.16C179.571 105.16 180.495 104.054 180.495 102.402V102.304C180.495 100.61 179.557 99.518 178.101 99.518C176.631 99.518 175.707 100.61 175.707 102.29V102.402C175.707 104.068 176.617 105.16 178.101 105.16ZM183.498 106V98.678H184.66V99.84C184.996 99.154 185.808 98.552 187.012 98.552C188.524 98.552 189.588 99.378 189.588 101.506V106H188.426V101.422C188.426 100.134 187.88 99.56 186.704 99.56C185.626 99.56 184.66 100.246 184.66 101.562V106H183.498ZM197.797 106.098C196.467 106.098 195.823 105.314 195.823 104.166V99.658H194.773V98.678H195.823V97.012H196.985V98.678H198.693V99.658H196.985V104.054C196.985 104.768 197.307 105.118 197.895 105.118C198.259 105.118 198.539 105.062 198.791 104.964V105.944C198.553 106.028 198.273 106.098 197.797 106.098ZM200.547 106V95.178H201.709V99.84C202.045 99.154 202.857 98.552 204.061 98.552C205.573 98.552 206.637 99.378 206.637 101.506V106H205.475V101.422C205.475 100.134 204.929 99.56 203.753 99.56C202.675 99.56 201.709 100.246 201.709 101.562V106H200.547ZM211.91 106.126C209.838 106.126 208.368 104.67 208.368 102.416V102.304C208.368 100.092 209.782 98.552 211.798 98.552C213.492 98.552 215.088 99.574 215.088 102.192V102.57H209.572C209.628 104.236 210.426 105.16 211.924 105.16C213.058 105.16 213.716 104.74 213.87 103.886H215.032C214.78 105.356 213.562 106.126 211.91 106.126ZM209.614 101.632H213.898C213.786 100.12 213.002 99.518 211.798 99.518C210.608 99.518 209.81 100.33 209.614 101.632ZM222.802 106.098C221.472 106.098 220.828 105.314 220.828 104.166V99.658H219.778V98.678H220.828V97.012H221.99V98.678H223.698V99.658H221.99V104.054C221.99 104.768 222.312 105.118 222.9 105.118C223.264 105.118 223.544 105.062 223.796 104.964V105.944C223.558 106.028 223.278 106.098 222.802 106.098ZM228.591 106.126C226.505 106.126 225.007 104.544 225.007 102.402V102.29C225.007 100.092 226.533 98.552 228.605 98.552C230.677 98.552 232.203 100.078 232.203 102.276V102.388C232.203 104.6 230.677 106.126 228.591 106.126ZM228.605 105.16C230.075 105.16 230.999 104.054 230.999 102.402V102.304C230.999 100.61 230.061 99.518 228.605 99.518C227.135 99.518 226.211 100.61 226.211 102.29V102.402C226.211 104.068 227.121 105.16 228.605 105.16ZM236.228 106.098C234.898 106.098 234.254 105.314 234.254 104.166V99.658H233.204V98.678H234.254V97.012H235.416V98.678H237.124V99.658H235.416V104.054C235.416 104.768 235.738 105.118 236.326 105.118C236.69 105.118 236.97 105.062 237.222 104.964V105.944C236.984 106.028 236.704 106.098 236.228 106.098ZM240.881 106.126C239.523 106.126 238.445 105.468 238.445 103.97C238.445 102.276 240.237 101.702 242.113 101.702H243.163V101.17C243.163 100.008 242.715 99.518 241.595 99.518C240.587 99.518 240.027 99.938 239.915 100.834H238.753C238.907 99.168 240.237 98.552 241.651 98.552C243.051 98.552 244.325 99.126 244.325 101.17V106H243.163V105.076C242.617 105.762 241.959 106.126 240.881 106.126ZM240.993 105.202C242.225 105.202 243.163 104.572 243.163 103.438V102.528H242.155C240.685 102.528 239.607 102.892 239.607 103.97C239.607 104.726 239.971 105.202 240.993 105.202ZM246.636 106V95.178H247.812V106H246.636ZM256.933 106.126C254.889 106.126 253.349 104.684 253.349 102.416V102.304C253.349 100.064 254.945 98.552 256.905 98.552C258.431 98.552 259.859 99.252 260.083 101.114H258.935C258.753 99.952 257.913 99.518 256.905 99.518C255.575 99.518 254.553 100.582 254.553 102.304V102.416C254.553 104.208 255.533 105.16 256.947 105.16C257.983 105.16 258.921 104.558 259.047 103.368H260.125C259.971 104.95 258.697 106.126 256.933 106.126ZM264.917 106.126C262.831 106.126 261.333 104.544 261.333 102.402V102.29C261.333 100.092 262.859 98.552 264.931 98.552C267.003 98.552 268.529 100.078 268.529 102.276V102.388C268.529 104.6 267.003 106.126 264.917 106.126ZM264.931 105.16C266.401 105.16 267.325 104.054 267.325 102.402V102.304C267.325 100.61 266.387 99.518 264.931 99.518C263.461 99.518 262.537 100.61 262.537 102.29V102.402C262.537 104.068 263.447 105.16 264.931 105.16ZM272.596 106.126C270.846 106.126 269.796 105.244 269.726 103.746H270.86C270.944 104.614 271.406 105.16 272.582 105.16C273.688 105.16 274.178 104.782 274.178 103.998C274.178 103.228 273.604 102.976 272.47 102.766C270.566 102.416 269.922 101.884 269.922 100.61C269.922 99.252 271.252 98.552 272.4 98.552C273.716 98.552 274.85 99.084 275.046 100.666H273.926C273.758 99.868 273.31 99.518 272.386 99.518C271.546 99.518 271 99.938 271 100.568C271 101.226 271.364 101.492 272.708 101.73C274.22 102.01 275.284 102.346 275.284 103.9C275.284 105.23 274.374 106.126 272.596 106.126ZM279.281 106.098C277.951 106.098 277.307 105.314 277.307 104.166V99.658H276.257V98.678H277.307V97.012H278.469V98.678H280.177V99.658H278.469V104.054C278.469 104.768 278.791 105.118 279.379 105.118C279.743 105.118 280.023 105.062 280.275 104.964V105.944C280.037 106.028 279.757 106.098 279.281 106.098ZM288.775 106.126C286.689 106.126 285.191 104.544 285.191 102.402V102.29C285.191 100.092 286.717 98.552 288.789 98.552C290.861 98.552 292.387 100.078 292.387 102.276V102.388C292.387 104.6 290.861 106.126 288.775 106.126ZM288.789 105.16C290.259 105.16 291.183 104.054 291.183 102.402V102.304C291.183 100.61 290.245 99.518 288.789 99.518C287.319 99.518 286.395 100.61 286.395 102.29V102.402C286.395 104.068 287.305 105.16 288.789 105.16ZM294.438 106V99.658H293.388V98.678H294.438V97.488C294.438 96.004 295.166 95.136 296.622 95.136C297 95.136 297.196 95.178 297.49 95.276V96.256C297.28 96.172 296.986 96.102 296.664 96.102C295.908 96.102 295.6 96.62 295.6 97.362V98.678H297.392V99.658H295.6V106H294.438ZM304.957 106.098C303.627 106.098 302.983 105.314 302.983 104.166V99.658H301.933V98.678H302.983V97.012H304.145V98.678H305.853V99.658H304.145V104.054C304.145 104.768 304.467 105.118 305.055 105.118C305.419 105.118 305.699 105.062 305.951 104.964V105.944C305.713 106.028 305.433 106.098 304.957 106.098ZM307.707 106V95.178H308.869V99.84C309.205 99.154 310.017 98.552 311.221 98.552C312.733 98.552 313.797 99.378 313.797 101.506V106H312.635V101.422C312.635 100.134 312.089 99.56 310.913 99.56C309.835 99.56 308.869 100.246 308.869 101.562V106H307.707ZM319.07 106.126C316.998 106.126 315.528 104.67 315.528 102.416V102.304C315.528 100.092 316.942 98.552 318.958 98.552C320.652 98.552 322.248 99.574 322.248 102.192V102.57H316.732C316.788 104.236 317.586 105.16 319.084 105.16C320.218 105.16 320.876 104.74 321.03 103.886H322.192C321.94 105.356 320.722 106.126 319.07 106.126ZM316.774 101.632H321.058C320.946 100.12 320.162 99.518 318.958 99.518C317.768 99.518 316.97 100.33 316.774 101.632ZM110.764 115.152C110.344 115.152 109.994 114.802 109.994 114.382C109.994 113.962 110.344 113.612 110.764 113.612C111.184 113.612 111.534 113.962 111.534 114.382C111.534 114.802 111.184 115.152 110.764 115.152ZM109.126 126.674V125.694C109.952 125.624 110.204 125.204 110.204 124.56V116.678H111.366V124.462C111.366 125.862 110.75 126.618 109.126 126.674ZM116.782 124.126C114.696 124.126 113.198 122.544 113.198 120.402V120.29C113.198 118.092 114.724 116.552 116.796 116.552C118.868 116.552 120.394 118.078 120.394 120.276V120.388C120.394 122.6 118.868 124.126 116.782 124.126ZM116.796 123.16C118.266 123.16 119.19 122.054 119.19 120.402V120.304C119.19 118.61 118.252 117.518 116.796 117.518C115.326 117.518 114.402 118.61 114.402 120.29V120.402C114.402 122.068 115.312 123.16 116.796 123.16ZM125.834 124.126C124.644 124.126 123.776 123.524 123.356 122.796V124H122.194V113.178H123.356V117.91C123.776 117.196 124.77 116.552 125.834 116.552C127.752 116.552 129.166 117.952 129.166 120.234V120.346C129.166 122.586 127.85 124.126 125.834 124.126ZM125.722 123.16C127.178 123.16 127.962 122.18 127.962 120.402V120.29C127.962 118.442 126.94 117.518 125.708 117.518C124.35 117.518 123.314 118.414 123.314 120.29V120.402C123.314 122.278 124.294 123.16 125.722 123.16ZM136.146 124L133.892 116.678H135.152L136.86 122.572L138.638 116.678H139.646L141.312 122.572L143.034 116.678H144.224L141.942 124H140.654L139.128 118.512L137.42 124H136.146ZM145.791 124V113.178H146.953V117.84C147.289 117.154 148.101 116.552 149.305 116.552C150.817 116.552 151.881 117.378 151.881 119.506V124H150.719V119.422C150.719 118.134 150.173 117.56 148.997 117.56C147.919 117.56 146.953 118.246 146.953 119.562V124H145.791ZM157.154 124.126C155.082 124.126 153.612 122.67 153.612 120.416V120.304C153.612 118.092 155.026 116.552 157.042 116.552C158.736 116.552 160.332 117.574 160.332 120.192V120.57H154.816C154.872 122.236 155.67 123.16 157.168 123.16C158.302 123.16 158.96 122.74 159.114 121.886H160.276C160.024 123.356 158.806 124.126 157.154 124.126ZM154.858 119.632H159.142C159.03 118.12 158.246 117.518 157.042 117.518C155.852 117.518 155.054 118.33 154.858 119.632ZM162.115 124V116.678H163.277V117.84C163.613 117.154 164.425 116.552 165.629 116.552C167.141 116.552 168.205 117.378 168.205 119.506V124H167.043V119.422C167.043 118.134 166.497 117.56 165.321 117.56C164.243 117.56 163.277 118.246 163.277 119.562V124H162.115ZM174.846 126.548L176.232 123.244L173.362 116.678H174.608L176.848 121.928L178.878 116.678H180.068L176.022 126.548H174.846ZM184.431 124.126C182.345 124.126 180.847 122.544 180.847 120.402V120.29C180.847 118.092 182.373 116.552 184.445 116.552C186.517 116.552 188.043 118.078 188.043 120.276V120.388C188.043 122.6 186.517 124.126 184.431 124.126ZM184.445 123.16C185.915 123.16 186.839 122.054 186.839 120.402V120.304C186.839 118.61 185.901 117.518 184.445 117.518C182.975 117.518 182.051 118.61 182.051 120.29V120.402C182.051 122.068 182.961 123.16 184.445 123.16ZM192.32 124.126C190.864 124.126 189.772 123.328 189.772 121.312V116.678H190.934V121.256C190.934 122.544 191.48 123.118 192.628 123.118C193.664 123.118 194.644 122.432 194.644 121.116V116.678H195.806V124H194.644V122.838C194.308 123.524 193.496 124.126 192.32 124.126ZM201.86 126.548V116.678H203.022V117.91C203.442 117.196 204.436 116.552 205.5 116.552C207.418 116.552 208.832 117.952 208.832 120.234V120.346C208.832 122.586 207.516 124.126 205.5 124.126C204.296 124.126 203.442 123.524 203.022 122.796V126.548H201.86ZM205.388 123.16C206.844 123.16 207.628 122.18 207.628 120.402V120.29C207.628 118.442 206.606 117.518 205.374 117.518C204.016 117.518 202.98 118.414 202.98 120.29V120.402C202.98 122.278 203.96 123.16 205.388 123.16ZM213.115 124.126C211.659 124.126 210.567 123.328 210.567 121.312V116.678H211.729V121.256C211.729 122.544 212.275 123.118 213.423 123.118C214.459 123.118 215.439 122.432 215.439 121.116V116.678H216.601V124H215.439V122.838C215.103 123.524 214.291 124.126 213.115 124.126ZM218.949 124V116.678H220.111V117.994C220.573 117.168 221.203 116.594 222.519 116.552V117.644C221.049 117.714 220.111 118.176 220.111 119.982V124H218.949ZM227.046 124.126C225.002 124.126 223.462 122.684 223.462 120.416V120.304C223.462 118.064 225.058 116.552 227.018 116.552C228.544 116.552 229.972 117.252 230.196 119.114H229.048C228.866 117.952 228.026 117.518 227.018 117.518C225.688 117.518 224.666 118.582 224.666 120.304V120.416C224.666 122.208 225.646 123.16 227.06 123.16C228.096 123.16 229.034 122.558 229.16 121.368H230.238C230.084 122.95 228.81 124.126 227.046 124.126ZM231.992 124V113.178H233.154V117.84C233.49 117.154 234.302 116.552 235.506 116.552C237.018 116.552 238.082 117.378 238.082 119.506V124H236.92V119.422C236.92 118.134 236.374 117.56 235.198 117.56C234.12 117.56 233.154 118.246 233.154 119.562V124H231.992ZM242.194 124.126C240.836 124.126 239.758 123.468 239.758 121.97C239.758 120.276 241.55 119.702 243.426 119.702H244.476V119.17C244.476 118.008 244.028 117.518 242.908 117.518C241.9 117.518 241.34 117.938 241.228 118.834H240.066C240.22 117.168 241.55 116.552 242.964 116.552C244.364 116.552 245.638 117.126 245.638 119.17V124H244.476V123.076C243.93 123.762 243.272 124.126 242.194 124.126ZM242.306 123.202C243.538 123.202 244.476 122.572 244.476 121.438V120.528H243.468C241.998 120.528 240.92 120.892 240.92 121.97C240.92 122.726 241.284 123.202 242.306 123.202ZM250.188 124.126C248.438 124.126 247.388 123.244 247.318 121.746H248.452C248.536 122.614 248.998 123.16 250.174 123.16C251.28 123.16 251.77 122.782 251.77 121.998C251.77 121.228 251.196 120.976 250.062 120.766C248.158 120.416 247.514 119.884 247.514 118.61C247.514 117.252 248.844 116.552 249.992 116.552C251.308 116.552 252.442 117.084 252.638 118.666H251.518C251.35 117.868 250.902 117.518 249.978 117.518C249.138 117.518 248.592 117.938 248.592 118.568C248.592 119.226 248.956 119.492 250.3 119.73C251.812 120.01 252.876 120.346 252.876 121.9C252.876 123.23 251.966 124.126 250.188 124.126ZM257.643 124.126C255.571 124.126 254.101 122.67 254.101 120.416V120.304C254.101 118.092 255.515 116.552 257.531 116.552C259.225 116.552 260.821 117.574 260.821 120.192V120.57H255.305C255.361 122.236 256.159 123.16 257.657 123.16C258.791 123.16 259.449 122.74 259.603 121.886H260.765C260.513 123.356 259.295 124.126 257.643 124.126ZM255.347 119.632H259.631C259.519 118.12 258.735 117.518 257.531 117.518C256.341 117.518 255.543 118.33 255.347 119.632ZM268.535 124.098C267.205 124.098 266.561 123.314 266.561 122.166V117.658H265.511V116.678H266.561V115.012H267.723V116.678H269.431V117.658H267.723V122.054C267.723 122.768 268.045 123.118 268.633 123.118C268.997 123.118 269.277 123.062 269.529 122.964V123.944C269.291 124.028 269.011 124.098 268.535 124.098ZM272.755 124L270.501 116.678H271.761L273.469 122.572L275.247 116.678H276.255L277.921 122.572L279.643 116.678H280.833L278.551 124H277.263L275.737 118.512L274.029 124H272.755ZM285.302 124.126C283.216 124.126 281.718 122.544 281.718 120.402V120.29C281.718 118.092 283.244 116.552 285.316 116.552C287.388 116.552 288.914 118.078 288.914 120.276V120.388C288.914 122.6 287.388 124.126 285.302 124.126ZM285.316 123.16C286.786 123.16 287.71 122.054 287.71 120.402V120.304C287.71 118.61 286.772 117.518 285.316 117.518C283.846 117.518 282.922 118.61 282.922 120.29V120.402C282.922 122.068 283.832 123.16 285.316 123.16ZM297.456 124.126C295.37 124.126 293.872 122.544 293.872 120.402V120.29C293.872 118.092 295.398 116.552 297.47 116.552C299.542 116.552 301.068 118.078 301.068 120.276V120.388C301.068 122.6 299.542 124.126 297.456 124.126ZM297.47 123.16C298.94 123.16 299.864 122.054 299.864 120.402V120.304C299.864 118.61 298.926 117.518 297.47 117.518C296 117.518 295.076 118.61 295.076 120.29V120.402C295.076 122.068 295.986 123.16 297.47 123.16ZM302.867 124V116.678H304.029V117.994C304.491 117.168 305.121 116.594 306.437 116.552V117.644C304.967 117.714 304.029 118.176 304.029 119.982V124H302.867ZM110.176 142V134.678H111.338V135.798C111.674 135.112 112.472 134.552 113.522 134.552C114.46 134.552 115.286 134.944 115.664 135.924C116.168 134.972 117.26 134.552 118.17 134.552C119.486 134.552 120.634 135.336 120.634 137.464V142H119.472V137.38C119.472 136.092 118.926 135.56 117.918 135.56C116.966 135.56 115.986 136.204 115.986 137.52V142H114.824V137.38C114.824 136.092 114.278 135.56 113.27 135.56C112.318 135.56 111.338 136.204 111.338 137.52V142H110.176ZM125.956 142.126C123.87 142.126 122.372 140.544 122.372 138.402V138.29C122.372 136.092 123.898 134.552 125.97 134.552C128.042 134.552 129.568 136.078 129.568 138.276V138.388C129.568 140.6 128.042 142.126 125.956 142.126ZM125.97 141.16C127.44 141.16 128.364 140.054 128.364 138.402V138.304C128.364 136.61 127.426 135.518 125.97 135.518C124.5 135.518 123.576 136.61 123.576 138.29V138.402C123.576 140.068 124.486 141.16 125.97 141.16ZM131.367 142V134.678H132.529V135.994C132.991 135.168 133.621 134.594 134.937 134.552V135.644C133.467 135.714 132.529 136.176 132.529 137.982V142H131.367ZM139.422 142.126C137.35 142.126 135.88 140.67 135.88 138.416V138.304C135.88 136.092 137.294 134.552 139.31 134.552C141.004 134.552 142.6 135.574 142.6 138.192V138.57H137.084C137.14 140.236 137.938 141.16 139.436 141.16C140.57 141.16 141.228 140.74 141.382 139.886H142.544C142.292 141.356 141.074 142.126 139.422 142.126ZM137.126 137.632H141.41C141.298 136.12 140.514 135.518 139.31 135.518C138.12 135.518 137.322 136.33 137.126 137.632ZM150.314 142.098C148.984 142.098 148.34 141.314 148.34 140.166V135.658H147.29V134.678H148.34V133.012H149.502V134.678H151.21V135.658H149.502V140.054C149.502 140.768 149.824 141.118 150.412 141.118C150.776 141.118 151.056 141.062 151.308 140.964V141.944C151.07 142.028 150.79 142.098 150.314 142.098ZM153.065 142V134.678H154.227V135.994C154.689 135.168 155.319 134.594 156.635 134.552V135.644C155.165 135.714 154.227 136.176 154.227 137.982V142H153.065ZM161.119 142.126C159.047 142.126 157.577 140.67 157.577 138.416V138.304C157.577 136.092 158.991 134.552 161.007 134.552C162.701 134.552 164.297 135.574 164.297 138.192V138.57H158.781C158.837 140.236 159.635 141.16 161.133 141.16C162.267 141.16 162.925 140.74 163.079 139.886H164.241C163.989 141.356 162.771 142.126 161.119 142.126ZM158.823 137.632H163.107C162.995 136.12 162.211 135.518 161.007 135.518C159.817 135.518 159.019 136.33 158.823 137.632ZM167.983 142.126C166.625 142.126 165.547 141.468 165.547 139.97C165.547 138.276 167.339 137.702 169.215 137.702H170.265V137.17C170.265 136.008 169.817 135.518 168.697 135.518C167.689 135.518 167.129 135.938 167.017 136.834H165.855C166.009 135.168 167.339 134.552 168.753 134.552C170.153 134.552 171.427 135.126 171.427 137.17V142H170.265V141.076C169.719 141.762 169.061 142.126 167.983 142.126ZM168.095 141.202C169.327 141.202 170.265 140.572 170.265 139.438V138.528H169.257C167.787 138.528 166.709 138.892 166.709 139.97C166.709 140.726 167.073 141.202 168.095 141.202ZM175.935 142.098C174.605 142.098 173.961 141.314 173.961 140.166V135.658H172.911V134.678H173.961V133.012H175.123V134.678H176.831V135.658H175.123V140.054C175.123 140.768 175.445 141.118 176.033 141.118C176.397 141.118 176.677 141.062 176.929 140.964V141.944C176.691 142.028 176.411 142.098 175.935 142.098ZM178.686 142V134.678H179.848V135.798C180.184 135.112 180.982 134.552 182.032 134.552C182.97 134.552 183.796 134.944 184.174 135.924C184.678 134.972 185.77 134.552 186.68 134.552C187.996 134.552 189.144 135.336 189.144 137.464V142H187.982V137.38C187.982 136.092 187.436 135.56 186.428 135.56C185.476 135.56 184.496 136.204 184.496 137.52V142H183.334V137.38C183.334 136.092 182.788 135.56 181.78 135.56C180.828 135.56 179.848 136.204 179.848 137.52V142H178.686ZM194.424 142.126C192.352 142.126 190.882 140.67 190.882 138.416V138.304C190.882 136.092 192.296 134.552 194.312 134.552C196.006 134.552 197.602 135.574 197.602 138.192V138.57H192.086C192.142 140.236 192.94 141.16 194.438 141.16C195.572 141.16 196.23 140.74 196.384 139.886H197.546C197.294 141.356 196.076 142.126 194.424 142.126ZM192.128 137.632H196.412C196.3 136.12 195.516 135.518 194.312 135.518C193.122 135.518 192.324 136.33 192.128 137.632ZM199.385 142V134.678H200.547V135.84C200.883 135.154 201.695 134.552 202.899 134.552C204.411 134.552 205.475 135.378 205.475 137.506V142H204.313V137.422C204.313 136.134 203.767 135.56 202.591 135.56C201.513 135.56 200.547 136.246 200.547 137.562V142H199.385ZM209.978 142.098C208.648 142.098 208.004 141.314 208.004 140.166V135.658H206.954V134.678H208.004V133.012H209.166V134.678H210.874V135.658H209.166V140.054C209.166 140.768 209.488 141.118 210.076 141.118C210.44 141.118 210.72 141.062 210.972 140.964V141.944C210.734 142.028 210.454 142.098 209.978 142.098ZM214.997 142.126C213.247 142.126 212.197 141.244 212.127 139.746H213.261C213.345 140.614 213.807 141.16 214.983 141.16C216.089 141.16 216.579 140.782 216.579 139.998C216.579 139.228 216.005 138.976 214.871 138.766C212.967 138.416 212.323 137.884 212.323 136.61C212.323 135.252 213.653 134.552 214.801 134.552C216.117 134.552 217.251 135.084 217.447 136.666H216.327C216.159 135.868 215.711 135.518 214.787 135.518C213.947 135.518 213.401 135.938 213.401 136.568C213.401 137.226 213.765 137.492 215.109 137.73C216.621 138.01 217.685 138.346 217.685 139.9C217.685 141.23 216.775 142.126 214.997 142.126ZM225.386 142.098C224.056 142.098 223.412 141.314 223.412 140.166V135.658H222.362V134.678H223.412V133.012H224.574V134.678H226.282V135.658H224.574V140.054C224.574 140.768 224.896 141.118 225.484 141.118C225.848 141.118 226.128 141.062 226.38 140.964V141.944C226.142 142.028 225.862 142.098 225.386 142.098ZM228.137 142V131.178H229.299V135.84C229.635 135.154 230.447 134.552 231.651 134.552C233.163 134.552 234.227 135.378 234.227 137.506V142H233.065V137.422C233.065 136.134 232.519 135.56 231.343 135.56C230.265 135.56 229.299 136.246 229.299 137.562V142H228.137ZM238.338 142.126C236.98 142.126 235.902 141.468 235.902 139.97C235.902 138.276 237.694 137.702 239.57 137.702H240.62V137.17C240.62 136.008 240.172 135.518 239.052 135.518C238.044 135.518 237.484 135.938 237.372 136.834H236.21C236.364 135.168 237.694 134.552 239.108 134.552C240.508 134.552 241.782 135.126 241.782 137.17V142H240.62V141.076C240.074 141.762 239.416 142.126 238.338 142.126ZM238.45 141.202C239.682 141.202 240.62 140.572 240.62 139.438V138.528H239.612C238.142 138.528 237.064 138.892 237.064 139.97C237.064 140.726 237.428 141.202 238.45 141.202ZM246.291 142.098C244.961 142.098 244.317 141.314 244.317 140.166V135.658H243.267V134.678H244.317V133.012H245.479V134.678H247.187V135.658H245.479V140.054C245.479 140.768 245.801 141.118 246.389 141.118C246.753 141.118 247.033 141.062 247.285 140.964V141.944C247.047 142.028 246.767 142.098 246.291 142.098ZM254.216 142L251.962 134.678H253.222L254.93 140.572L256.708 134.678H257.716L259.382 140.572L261.104 134.678H262.294L260.012 142H258.724L257.198 136.512L255.49 142H254.216ZM266.721 142.126C264.649 142.126 263.179 140.67 263.179 138.416V138.304C263.179 136.092 264.593 134.552 266.609 134.552C268.303 134.552 269.899 135.574 269.899 138.192V138.57H264.383C264.439 140.236 265.237 141.16 266.735 141.16C267.869 141.16 268.527 140.74 268.681 139.886H269.843C269.591 141.356 268.373 142.126 266.721 142.126ZM264.425 137.632H268.709C268.597 136.12 267.813 135.518 266.609 135.518C265.419 135.518 264.621 136.33 264.425 137.632ZM277.655 142.126C275.905 142.126 274.855 141.244 274.785 139.746H275.919C276.003 140.614 276.465 141.16 277.641 141.16C278.747 141.16 279.237 140.782 279.237 139.998C279.237 139.228 278.663 138.976 277.529 138.766C275.625 138.416 274.981 137.884 274.981 136.61C274.981 135.252 276.311 134.552 277.459 134.552C278.775 134.552 279.909 135.084 280.105 136.666H278.985C278.817 135.868 278.369 135.518 277.445 135.518C276.605 135.518 276.059 135.938 276.059 136.568C276.059 137.226 276.423 137.492 277.767 137.73C279.279 138.01 280.343 138.346 280.343 139.9C280.343 141.23 279.433 142.126 277.655 142.126ZM285.11 142.126C283.038 142.126 281.568 140.67 281.568 138.416V138.304C281.568 136.092 282.982 134.552 284.998 134.552C286.692 134.552 288.288 135.574 288.288 138.192V138.57H282.772C282.828 140.236 283.626 141.16 285.124 141.16C286.258 141.16 286.916 140.74 287.07 139.886H288.232C287.98 141.356 286.762 142.126 285.11 142.126ZM282.814 137.632H287.098C286.986 136.12 286.202 135.518 284.998 135.518C283.808 135.518 283.01 136.33 282.814 137.632ZM290.071 142V134.678H291.233V135.994C291.695 135.168 292.325 134.594 293.641 134.552V135.644C292.171 135.714 291.233 136.176 291.233 137.982V142H290.071ZM297.237 142L294.577 134.678H295.837L298.007 140.824L300.149 134.678H301.353L298.721 142H297.237ZM303.469 133.152C303.049 133.152 302.699 132.802 302.699 132.382C302.699 131.962 303.049 131.612 303.469 131.612C303.889 131.612 304.239 131.962 304.239 132.382C304.239 132.802 303.889 133.152 303.469 133.152ZM302.909 142V134.678H304.071V142H302.909ZM309.487 142.126C307.443 142.126 305.903 140.684 305.903 138.416V138.304C305.903 136.064 307.499 134.552 309.459 134.552C310.985 134.552 312.413 135.252 312.637 137.114H311.489C311.307 135.952 310.467 135.518 309.459 135.518C308.129 135.518 307.107 136.582 307.107 138.304V138.416C307.107 140.208 308.087 141.16 309.501 141.16C310.537 141.16 311.475 140.558 311.601 139.368H312.679C312.525 140.95 311.251 142.126 309.487 142.126ZM317.43 142.126C315.358 142.126 313.888 140.67 313.888 138.416V138.304C313.888 136.092 315.302 134.552 317.318 134.552C319.012 134.552 320.608 135.574 320.608 138.192V138.57H315.092C315.148 140.236 315.946 141.16 317.444 141.16C318.578 141.16 319.236 140.74 319.39 139.886H320.552C320.3 141.356 319.082 142.126 317.43 142.126ZM315.134 137.632H319.418C319.306 136.12 318.522 135.518 317.318 135.518C316.128 135.518 315.33 136.33 315.134 137.632ZM113.214 160.126C111.128 160.126 109.63 158.544 109.63 156.402V156.29C109.63 154.092 111.156 152.552 113.228 152.552C115.3 152.552 116.826 154.078 116.826 156.276V156.388C116.826 158.6 115.3 160.126 113.214 160.126ZM113.228 159.16C114.698 159.16 115.622 158.054 115.622 156.402V156.304C115.622 154.61 114.684 153.518 113.228 153.518C111.758 153.518 110.834 154.61 110.834 156.29V156.402C110.834 158.068 111.744 159.16 113.228 159.16ZM118.625 160V152.678H119.787V153.84C120.123 153.154 120.935 152.552 122.139 152.552C123.651 152.552 124.715 153.378 124.715 155.506V160H123.553V155.422C123.553 154.134 123.007 153.56 121.831 153.56C120.753 153.56 119.787 154.246 119.787 155.562V160H118.625ZM132.923 160.098C131.593 160.098 130.949 159.314 130.949 158.166V153.658H129.899V152.678H130.949V151.012H132.111V152.678H133.819V153.658H132.111V158.054C132.111 158.768 132.433 159.118 133.021 159.118C133.385 159.118 133.665 159.062 133.917 158.964V159.944C133.679 160.028 133.399 160.098 132.923 160.098ZM135.674 160V149.178H136.836V153.84C137.172 153.154 137.984 152.552 139.188 152.552C140.7 152.552 141.764 153.378 141.764 155.506V160H140.602V155.422C140.602 154.134 140.056 153.56 138.88 153.56C137.802 153.56 136.836 154.246 136.836 155.562V160H135.674ZM147.037 160.126C144.965 160.126 143.495 158.67 143.495 156.416V156.304C143.495 154.092 144.909 152.552 146.925 152.552C148.619 152.552 150.215 153.574 150.215 156.192V156.57H144.699C144.755 158.236 145.553 159.16 147.051 159.16C148.185 159.16 148.843 158.74 148.997 157.886H150.159C149.907 159.356 148.689 160.126 147.037 160.126ZM144.741 155.632H149.025C148.913 154.12 148.129 153.518 146.925 153.518C145.735 153.518 144.937 154.33 144.741 155.632ZM157.971 160.126C156.221 160.126 155.171 159.244 155.101 157.746H156.235C156.319 158.614 156.781 159.16 157.957 159.16C159.063 159.16 159.553 158.782 159.553 157.998C159.553 157.228 158.979 156.976 157.845 156.766C155.941 156.416 155.297 155.884 155.297 154.61C155.297 153.252 156.627 152.552 157.775 152.552C159.091 152.552 160.225 153.084 160.421 154.666H159.301C159.133 153.868 158.685 153.518 157.761 153.518C156.921 153.518 156.375 153.938 156.375 154.568C156.375 155.226 156.739 155.492 158.083 155.73C159.595 156.01 160.659 156.346 160.659 157.9C160.659 159.23 159.749 160.126 157.971 160.126ZM164.264 160.126C162.906 160.126 161.828 159.468 161.828 157.97C161.828 156.276 163.62 155.702 165.496 155.702H166.546V155.17C166.546 154.008 166.098 153.518 164.978 153.518C163.97 153.518 163.41 153.938 163.298 154.834H162.136C162.29 153.168 163.62 152.552 165.034 152.552C166.434 152.552 167.708 153.126 167.708 155.17V160H166.546V159.076C166 159.762 165.342 160.126 164.264 160.126ZM164.376 159.202C165.608 159.202 166.546 158.572 166.546 157.438V156.528H165.538C164.068 156.528 162.99 156.892 162.99 157.97C162.99 158.726 163.354 159.202 164.376 159.202ZM169.99 160V152.678H171.152V153.798C171.488 153.112 172.286 152.552 173.336 152.552C174.274 152.552 175.1 152.944 175.478 153.924C175.982 152.972 177.074 152.552 177.984 152.552C179.3 152.552 180.448 153.336 180.448 155.464V160H179.286V155.38C179.286 154.092 178.74 153.56 177.732 153.56C176.78 153.56 175.8 154.204 175.8 155.52V160H174.638V155.38C174.638 154.092 174.092 153.56 173.084 153.56C172.132 153.56 171.152 154.204 171.152 155.52V160H169.99ZM185.729 160.126C183.657 160.126 182.187 158.67 182.187 156.416V156.304C182.187 154.092 183.601 152.552 185.617 152.552C187.311 152.552 188.907 153.574 188.907 156.192V156.57H183.391C183.447 158.236 184.245 159.16 185.743 159.16C186.877 159.16 187.535 158.74 187.689 157.886H188.851C188.599 159.356 187.381 160.126 185.729 160.126ZM183.433 155.632H187.717C187.605 154.12 186.821 153.518 185.617 153.518C184.427 153.518 183.629 154.33 183.433 155.632ZM197.153 160.126C195.235 160.126 193.849 158.768 193.849 156.486V156.374C193.849 154.134 195.249 152.552 197.265 152.552C198.483 152.552 199.239 153.14 199.659 153.854V149.178H200.821V160H199.659V158.74C199.239 159.454 198.217 160.126 197.153 160.126ZM197.279 159.16C198.637 159.16 199.701 158.264 199.701 156.388V156.276C199.701 154.4 198.805 153.518 197.377 153.518C195.921 153.518 195.053 154.54 195.053 156.318V156.43C195.053 158.278 196.047 159.16 197.279 159.16ZM205.006 160.126C203.648 160.126 202.57 159.468 202.57 157.97C202.57 156.276 204.362 155.702 206.238 155.702H207.288V155.17C207.288 154.008 206.84 153.518 205.72 153.518C204.712 153.518 204.152 153.938 204.04 154.834H202.878C203.032 153.168 204.362 152.552 205.776 152.552C207.176 152.552 208.45 153.126 208.45 155.17V160H207.288V159.076C206.742 159.762 206.084 160.126 205.006 160.126ZM205.118 159.202C206.35 159.202 207.288 158.572 207.288 157.438V156.528H206.28C204.81 156.528 203.732 156.892 203.732 157.97C203.732 158.726 204.096 159.202 205.118 159.202ZM211.186 162.548L212.572 159.244L209.702 152.678H210.948L213.188 157.928L215.218 152.678H216.408L212.362 162.548H211.186ZM217.751 160.07C217.261 160.07 216.855 159.678 216.855 159.174C216.855 158.67 217.261 158.278 217.751 158.278C218.241 158.278 218.647 158.67 218.647 159.174C218.647 159.678 218.241 160.07 217.751 160.07Z" fill="#414042"/>
</svg>
