<svg width="71" height="71" viewBox="0 0 71 71" fill="none" xmlns="http://www.w3.org/2000/svg">
<circle cx="35.5" cy="35.5" r="35.5" fill="white"/>
<circle cx="35.4999" cy="35.4999" r="26.0698" stroke="#F73500" stroke-width="4"/>
<mask id="path-3-inside-1_1_96" fill="white">
<path d="M32.1628 34.8617L31.8293 33.377C31.0297 32.8486 28.9605 33.5322 28.4422 32.9786C27.8154 32.3117 27.0921 28.0882 26.4252 26.9055C25.8827 25.9492 23.2791 24.0577 23.1265 23.2105C23.014 22.5813 23.476 22.422 23.9943 22.7155C24.36 22.9253 26.9555 25.6389 27.2328 26.0667C27.8515 27.0313 29.0408 31.8252 29.3462 32.0391L31.54 32.1146C31.8574 30.9193 30.5596 30.2692 30.3748 28.8683C30.19 27.4675 30.6922 25.4879 30.5234 24.5358C30.2663 23.0888 28.2614 21.7173 28.1609 19.6287C28.1167 18.6808 29.3623 15.0822 30.2583 14.9312C30.6359 14.8725 30.5154 14.9816 30.6118 15.2039C31.0016 16.0972 29.7319 17.5358 29.4908 18.5382C29.0328 20.4507 30.1016 21.7761 31.2627 23.114C31.1261 21.0169 30.7484 18.794 33.0306 17.8252C34.7423 17.0996 33.8422 19.7209 34.4248 20.3417L36.253 20.5765C37.2052 20.1236 36.6588 17.67 37.4785 17.6616C38.716 17.9678 39.9374 19.377 40.0097 20.7108C40.058 21.6544 39.2905 22.4597 39.9013 23.1098C40.9499 21.6125 42.0107 20.2829 41.5124 18.2824C41.2674 17.2967 39.399 15.3926 40.8816 14.9438C42.3803 17.0577 43.4812 18.966 42.2477 21.5747C41.9062 22.2961 40.5401 23.978 40.4356 24.5232C40.2669 25.3872 40.737 27.5556 40.5803 28.8516C40.3955 30.3698 39.3307 30.7347 39.395 32.1272C40.0017 32.0349 41.3035 32.3579 41.7133 31.9217C42.3442 31.2506 42.9268 27.2955 43.6098 26.1421C43.7665 25.8737 46.8161 22.6736 47.0411 22.5771C47.7282 22.2794 48.0737 22.9085 47.6438 23.6466C47.0612 24.6532 45.2531 25.7563 44.5781 26.9474C43.6299 28.6209 43.4692 31.2212 42.5169 32.9744C42.0308 33.4986 39.9133 32.8779 39.1379 33.3812C38.8004 33.5993 38.6919 34.8534 39.0977 34.8534H43.5174C44.6705 35.9145 44.9518 38.1541 45.9482 39.2362C46.6554 40.0037 49.4679 41.4255 49.7572 41.9792C49.938 42.3231 49.7813 42.7761 49.4478 42.9354C49.2068 43.0487 45.3536 40.3812 45.0201 39.9954C44.2326 39.0768 43.9312 37.1434 43.0152 36.2164C42.6857 36.0487 39.3789 36.0193 38.8968 36.1158C37.8039 36.3255 39.3468 38.6994 39.8088 39.1439C40.4959 39.8024 43.5777 40.7713 43.9192 41.3543L44.1201 45.5484L50.2434 49.4321C50.7054 49.8935 50.4322 50.8833 49.701 50.422L43.0995 46.1943C42.3843 45.2548 43.1598 43.2416 42.7098 42.1973C42.525 41.7695 40.5361 40.7755 40.4035 40.9348C40.6848 44.0301 40.9057 46.9702 39.5999 49.8474C38.3303 52.6532 35.582 54.6203 32.9623 52.1541C30.5315 49.8683 30.2502 46.102 30.3467 42.9145C30.3627 42.4279 30.6199 41.8701 30.5676 41.4591C30.4109 40.2554 28.852 41.8492 28.189 42.0211C27.9359 43.0529 28.4904 45.5568 27.8877 46.3243L21.3104 50.4681L20.7197 50.5771C20.6554 50.1619 20.326 49.7551 20.7197 49.4321L26.847 45.5484C27.2288 44.3489 26.5537 42.3692 27.2529 41.3585C27.8194 40.5448 30.4632 39.8444 31.2708 39.0517C31.6364 38.6952 32.8016 36.7575 32.4842 36.3045C32.215 35.9187 28.6591 36.1116 27.948 36.2122C27.6265 36.4136 26.5337 39.3159 25.9551 40.0037C25.6778 40.3309 21.905 43.0571 21.6519 43.0109C21.2019 42.927 21.0612 42.3399 21.3144 41.9246C21.676 41.3333 24.3439 40.075 25.047 39.2656C25.9993 38.1751 26.3649 35.969 27.4497 34.8534H32.1708L32.1628 34.8617ZM32.2632 30.0385C34.1677 30.374 36.8918 29.791 38.8928 30.0385C39.7687 28.8306 39.6642 26.6287 39.3066 25.2027C39.1218 24.4771 38.4508 23.5837 38.3945 22.9924C38.2981 21.969 39.6481 20.0984 37.9928 19.5532C37.8521 20.4591 37.4383 21.3273 36.6588 21.8096C35.6865 21.3441 34.469 22.1619 33.7659 21.3399C33.3119 20.8072 33.2717 19.8635 32.5686 19.5532C31.4516 20.803 32.8498 22.2123 32.7373 22.9672C32.6771 23.3489 32.0623 24.0535 31.8694 24.5903C31.6485 25.2027 31.3672 26.5616 31.3511 27.2075C31.331 27.8995 31.548 29.9127 32.2672 30.0385H32.2632ZM33.0668 31.2967C32.7253 31.5316 32.7413 31.8252 32.7735 32.2152C32.7976 32.513 33.5931 35.927 33.6855 36.1032C34.3646 37.3908 37.0445 37.2692 37.4985 35.7131C37.6432 35.2224 37.5066 34.7485 37.599 34.3501C37.6994 33.9097 38.6236 31.2967 37.8883 31.2967H33.0668ZM37.0124 43.6988C38.8245 43.2877 40.1705 43.4345 38.9972 41.0271C38.6959 40.809 36.7311 41.5891 36.5825 40.8342C36.3816 39.836 38.9771 40.4777 38.2378 38.691C37.5669 37.0762 36.5383 38.2338 35.4775 38.2338C34.7141 38.2338 34.007 37.6005 33.3722 37.8983C32.1547 39.0727 32.3034 40.1883 34.1356 40.138L34.3726 41.1487C32.9141 41.2955 31.4516 40.1421 31.5802 42.5286C31.6525 43.9127 34.6056 42.8222 33.8583 44.5082C33.3119 44.6089 31.5681 44.2146 31.3752 44.848C30.9413 46.2782 32.7534 46.8611 33.778 46.9073L33.9708 47.8593C32.9021 47.851 31.3431 47.5448 32.2833 49.1008C32.9744 50.2416 33.8463 49.407 34.4771 49.9564C35.3128 50.682 33.8222 50.9001 33.9748 51.3195C34.228 52.0115 35.4173 52.1415 36.036 52.0073C36.3173 51.9444 37.607 51.3153 37.0566 51.0091C36.3896 51.0049 36.2168 50.552 36.47 49.9438C38.049 49.6335 38.9691 49.9732 38.9972 47.8635C38.8124 47.6622 36.7633 48.3626 36.9883 47.1296C37.1008 46.7227 40.1705 46.7898 39.5838 44.8522C39.387 44.2063 37.5468 44.6173 36.9883 44.5082L37.0204 43.6988H37.0124Z"/>
</mask>
<path d="M32.1628 34.8617L31.8293 33.377C31.0297 32.8486 28.9605 33.5322 28.4422 32.9786C27.8154 32.3117 27.0921 28.0882 26.4252 26.9055C25.8827 25.9492 23.2791 24.0577 23.1265 23.2105C23.014 22.5813 23.476 22.422 23.9943 22.7155C24.36 22.9253 26.9555 25.6389 27.2328 26.0667C27.8515 27.0313 29.0408 31.8252 29.3462 32.0391L31.54 32.1146C31.8574 30.9193 30.5596 30.2692 30.3748 28.8683C30.19 27.4675 30.6922 25.4879 30.5234 24.5358C30.2663 23.0888 28.2614 21.7173 28.1609 19.6287C28.1167 18.6808 29.3623 15.0822 30.2583 14.9312C30.6359 14.8725 30.5154 14.9816 30.6118 15.2039C31.0016 16.0972 29.7319 17.5358 29.4908 18.5382C29.0328 20.4507 30.1016 21.7761 31.2627 23.114C31.1261 21.0169 30.7484 18.794 33.0306 17.8252C34.7423 17.0996 33.8422 19.7209 34.4248 20.3417L36.253 20.5765C37.2052 20.1236 36.6588 17.67 37.4785 17.6616C38.716 17.9678 39.9374 19.377 40.0097 20.7108C40.058 21.6544 39.2905 22.4597 39.9013 23.1098C40.9499 21.6125 42.0107 20.2829 41.5124 18.2824C41.2674 17.2967 39.399 15.3926 40.8816 14.9438C42.3803 17.0577 43.4812 18.966 42.2477 21.5747C41.9062 22.2961 40.5401 23.978 40.4356 24.5232C40.2669 25.3872 40.737 27.5556 40.5803 28.8516C40.3955 30.3698 39.3307 30.7347 39.395 32.1272C40.0017 32.0349 41.3035 32.3579 41.7133 31.9217C42.3442 31.2506 42.9268 27.2955 43.6098 26.1421C43.7665 25.8737 46.8161 22.6736 47.0411 22.5771C47.7282 22.2794 48.0737 22.9085 47.6438 23.6466C47.0612 24.6532 45.2531 25.7563 44.5781 26.9474C43.6299 28.6209 43.4692 31.2212 42.5169 32.9744C42.0308 33.4986 39.9133 32.8779 39.1379 33.3812C38.8004 33.5993 38.6919 34.8534 39.0977 34.8534H43.5174C44.6705 35.9145 44.9518 38.1541 45.9482 39.2362C46.6554 40.0037 49.4679 41.4255 49.7572 41.9792C49.938 42.3231 49.7813 42.7761 49.4478 42.9354C49.2068 43.0487 45.3536 40.3812 45.0201 39.9954C44.2326 39.0768 43.9312 37.1434 43.0152 36.2164C42.6857 36.0487 39.3789 36.0193 38.8968 36.1158C37.8039 36.3255 39.3468 38.6994 39.8088 39.1439C40.4959 39.8024 43.5777 40.7713 43.9192 41.3543L44.1201 45.5484L50.2434 49.4321C50.7054 49.8935 50.4322 50.8833 49.701 50.422L43.0995 46.1943C42.3843 45.2548 43.1598 43.2416 42.7098 42.1973C42.525 41.7695 40.5361 40.7755 40.4035 40.9348C40.6848 44.0301 40.9057 46.9702 39.5999 49.8474C38.3303 52.6532 35.582 54.6203 32.9623 52.1541C30.5315 49.8683 30.2502 46.102 30.3467 42.9145C30.3627 42.4279 30.6199 41.8701 30.5676 41.4591C30.4109 40.2554 28.852 41.8492 28.189 42.0211C27.9359 43.0529 28.4904 45.5568 27.8877 46.3243L21.3104 50.4681L20.7197 50.5771C20.6554 50.1619 20.326 49.7551 20.7197 49.4321L26.847 45.5484C27.2288 44.3489 26.5537 42.3692 27.2529 41.3585C27.8194 40.5448 30.4632 39.8444 31.2708 39.0517C31.6364 38.6952 32.8016 36.7575 32.4842 36.3045C32.215 35.9187 28.6591 36.1116 27.948 36.2122C27.6265 36.4136 26.5337 39.3159 25.9551 40.0037C25.6778 40.3309 21.905 43.0571 21.6519 43.0109C21.2019 42.927 21.0612 42.3399 21.3144 41.9246C21.676 41.3333 24.3439 40.075 25.047 39.2656C25.9993 38.1751 26.3649 35.969 27.4497 34.8534H32.1708L32.1628 34.8617ZM32.2632 30.0385C34.1677 30.374 36.8918 29.791 38.8928 30.0385C39.7687 28.8306 39.6642 26.6287 39.3066 25.2027C39.1218 24.4771 38.4508 23.5837 38.3945 22.9924C38.2981 21.969 39.6481 20.0984 37.9928 19.5532C37.8521 20.4591 37.4383 21.3273 36.6588 21.8096C35.6865 21.3441 34.469 22.1619 33.7659 21.3399C33.3119 20.8072 33.2717 19.8635 32.5686 19.5532C31.4516 20.803 32.8498 22.2123 32.7373 22.9672C32.6771 23.3489 32.0623 24.0535 31.8694 24.5903C31.6485 25.2027 31.3672 26.5616 31.3511 27.2075C31.331 27.8995 31.548 29.9127 32.2672 30.0385H32.2632ZM33.0668 31.2967C32.7253 31.5316 32.7413 31.8252 32.7735 32.2152C32.7976 32.513 33.5931 35.927 33.6855 36.1032C34.3646 37.3908 37.0445 37.2692 37.4985 35.7131C37.6432 35.2224 37.5066 34.7485 37.599 34.3501C37.6994 33.9097 38.6236 31.2967 37.8883 31.2967H33.0668ZM37.0124 43.6988C38.8245 43.2877 40.1705 43.4345 38.9972 41.0271C38.6959 40.809 36.7311 41.5891 36.5825 40.8342C36.3816 39.836 38.9771 40.4777 38.2378 38.691C37.5669 37.0762 36.5383 38.2338 35.4775 38.2338C34.7141 38.2338 34.007 37.6005 33.3722 37.8983C32.1547 39.0727 32.3034 40.1883 34.1356 40.138L34.3726 41.1487C32.9141 41.2955 31.4516 40.1421 31.5802 42.5286C31.6525 43.9127 34.6056 42.8222 33.8583 44.5082C33.3119 44.6089 31.5681 44.2146 31.3752 44.848C30.9413 46.2782 32.7534 46.8611 33.778 46.9073L33.9708 47.8593C32.9021 47.851 31.3431 47.5448 32.2833 49.1008C32.9744 50.2416 33.8463 49.407 34.4771 49.9564C35.3128 50.682 33.8222 50.9001 33.9748 51.3195C34.228 52.0115 35.4173 52.1415 36.036 52.0073C36.3173 51.9444 37.607 51.3153 37.0566 51.0091C36.3896 51.0049 36.2168 50.552 36.47 49.9438C38.049 49.6335 38.9691 49.9732 38.9972 47.8635C38.8124 47.6622 36.7633 48.3626 36.9883 47.1296C37.1008 46.7227 40.1705 46.7898 39.5838 44.8522C39.387 44.2063 37.5468 44.6173 36.9883 44.5082L37.0204 43.6988H37.0124Z" fill="#414042" stroke="#414042" stroke-width="2" mask="url(#path-3-inside-1_1_96)"/>
<path d="M15.8513 17.7224L53.2777 55.1488" stroke="#F73500" stroke-width="4"/>
</svg>
