<svg width="22" height="22" viewBox="0 0 22 22" fill="none" xmlns="http://www.w3.org/2000/svg">
<path d="M4.36373 13.965L4.12193 13.8421L3.41832 14.4685L3.3337 18.7207C2.85737 19.0773 1.94098 20.3855 1.4042 20.4144C1.20593 20.424 1.2011 20.4264 1.2156 20.2265C1.27121 19.3833 2.64943 18.9111 2.78966 18.1787C3.00969 17.0367 2.61074 15.319 2.81626 14.1095C2.93716 13.7024 4.32504 13.0736 4.65629 12.6905C4.886 12.4255 5.18582 11.5341 5.38892 11.1318C5.55576 10.7993 6.02 10.3609 5.94504 10.0043C5.90878 9.83324 4.63453 9.45499 4.36131 9.62364C4.03731 9.82601 3.04113 12.2593 2.49226 12.823C2.2142 13.1097 0.279868 14.2902 0.00906148 14.0228C-0.0030281 13.8108 -0.0272059 13.6566 0.127541 13.4808C0.437034 13.1314 1.65808 12.7459 2.11748 12.2111C2.61074 11.6377 3.6722 8.99725 4.1171 8.77801C4.89325 8.72019 5.74677 9.18998 6.49874 9.42127L7.10564 8.90329C7.05003 8.49132 6.6003 8.51782 6.30048 8.29136C5.47597 7.66738 5.68874 5.80748 5.13988 4.99317C4.80379 4.49447 3.43283 4.4246 3.64077 3.73076C3.6988 3.53802 3.83662 3.55489 4.00104 3.58621C4.17513 3.61994 5.65247 4.38847 5.73952 4.51134L6.50358 7.48428C6.75263 7.86252 8.16953 8.76356 8.23723 7.92998C7.964 7.34454 7.84794 6.31823 8.03896 5.69906C8.18645 5.22445 8.8006 5.01486 9.00371 4.73298C9.22374 4.42942 9.26484 3.71148 9.55016 3.35733C9.55983 3.11882 8.68938 2.00819 8.46451 1.91423C7.77057 1.62272 6.13364 2.05155 5.31638 1.79859C5.22209 1.76968 3.74232 0.731314 3.69155 0.646992C3.58274 0.466303 3.63352 0.242251 3.6311 0.0471062C3.94543 -0.270907 5.3043 1.1216 5.77095 1.2252C6.61964 1.41553 7.84794 1.11678 8.74257 1.27579C9.19956 1.41071 9.72908 2.56712 10.0362 2.75745C10.1982 2.85622 11.4168 2.85622 11.6755 2.8249C12.2558 2.75263 12.6693 1.55285 13.2641 1.27579C14.178 1.12642 15.3556 1.40348 16.2333 1.22279C16.6588 1.13606 18.3441 -0.502191 18.4989 0.230203C18.5545 0.500033 17.0554 1.68776 16.8015 1.78895C16.0834 2.07564 14.4561 1.69017 13.6268 1.87809C13.4261 1.93591 12.5024 3.08991 12.4783 3.26097C12.4662 3.33806 12.957 4.66793 13.0029 4.7378C13.1263 4.92813 13.5276 5.0269 13.7114 5.2365C14.2844 5.88698 14.1708 7.20963 13.7791 7.94202L13.8323 8.12271C14.1563 8.51059 15.3822 7.79506 15.5297 7.51078C15.844 6.90848 15.9262 4.92571 16.3227 4.44629C16.4847 4.24873 18.2571 3.33565 18.494 3.84158C18.5835 4.25837 17.1472 4.6077 16.9151 4.91608C16.4847 5.49428 16.4267 7.36381 16.0737 8.02152C15.931 8.28654 15.0509 8.50577 14.8696 8.89847L15.5079 9.41645C15.9963 9.32249 17.5075 8.60696 17.8847 8.77319C18.008 8.8262 18.1458 9.04061 18.2329 9.15866C18.818 9.97779 19.2895 11.4643 19.8892 12.2063C20.4888 12.9483 22 13.0375 22 14.018C21.7485 14.2686 19.7586 13.0784 19.5168 12.8206C19.0526 12.3292 17.9524 9.76819 17.6502 9.62123C17.198 9.39958 16.5524 9.86456 16.0834 9.92961C16.0519 10.0549 16.0906 10.1729 16.1317 10.291C16.197 10.4717 17.2367 12.5604 17.3213 12.6616C17.5728 12.9555 19.1106 13.712 19.2025 13.9795L19.2484 18.1498C19.3935 18.7882 21.0594 19.7133 20.8249 20.2482C20.8031 20.424 20.779 20.4192 20.6097 20.412C20.0802 20.3855 19.1517 19.0677 18.6802 18.7159L18.5956 14.4637L17.892 13.8373L17.6502 13.9602V16.4898C17.6502 19.6724 13.1311 22.2671 10.2078 21.978C7.91806 21.7515 4.35164 18.9038 4.35164 16.4898V13.9602L4.36373 13.965ZM9.98538 4.74985H12.0406C12.4396 4.74985 12.1639 3.35974 10.955 3.41756C10.0869 3.45852 9.53081 4.62216 9.98538 4.74985ZM9.40508 5.37864C7.88663 5.71834 8.71839 7.84083 9.6904 8.53709C10.6624 9.23335 11.3539 9.23335 12.3356 8.53709C13.1553 7.95407 14.0451 6.27968 13.061 5.54006C12.7273 5.28951 9.8935 5.26782 9.40508 5.37864ZM8.77642 8.63587C8.44033 8.83583 7.316 9.40922 7.40305 9.85492C9.24792 11.3221 12.9594 11.3173 14.7583 9.75132C14.7583 9.66941 13.6509 8.74669 13.4841 8.7226C13.0247 8.65755 12.3549 9.38995 11.8206 9.59232C10.5584 10.0717 9.73875 9.38031 8.77642 8.63587ZM6.83967 10.4548C6.54227 10.4548 5.98615 11.245 6.10704 11.4932C8.37021 13.4061 12.2486 13.5169 14.843 12.2424C15.0872 12.122 15.9649 11.6811 15.9697 11.4402L15.2879 10.4259C13.31 11.5847 11.0444 11.9389 8.81269 11.339C8.37263 11.2209 6.95089 10.4548 6.84209 10.4548H6.83967ZM16.6612 13.7554C16.9732 13.435 16.6419 12.4303 16.255 12.2304C13.0803 14.3143 8.95535 14.2469 5.7637 12.2304C4.75543 13.5675 5.34057 13.7891 6.59546 14.2734C9.40992 15.3575 12.0382 15.4033 14.9034 14.4782C15.1718 14.3914 16.5476 13.8734 16.6588 13.7602L16.6612 13.7554ZM5.26803 14.3914C4.07841 16.0417 6.37543 16.6512 7.62549 16.9813C10.2393 17.6703 14.2167 17.5426 16.6032 16.1646C17.302 15.7623 17.1593 14.4492 16.7555 14.4179C13.1456 16.232 8.86105 16.2778 5.26803 14.3914ZM16.6927 16.9187C13.9774 17.9883 11.2161 18.434 8.32186 17.851C7.35227 17.6559 6.3706 17.1162 5.49531 16.9307C5.2511 16.8777 5.30672 17.0415 5.32606 17.2198C5.40585 17.9667 5.77096 18.2871 6.39961 18.5617C9.02063 19.7085 13.3028 19.7061 15.8948 18.4702C16.5138 18.1739 16.6999 17.5691 16.6927 16.9187ZM7.14433 19.5688C6.79131 19.8796 8.83445 20.8529 8.99645 20.9155C10.8703 21.6383 12.384 21.4142 14.0958 20.412C14.4126 20.2265 15.5297 19.5206 14.5891 19.5736C14.0257 19.6049 13.0706 19.9952 12.4009 20.0482C10.631 20.1928 8.85863 19.9711 7.14433 19.5688Z" fill="#38B44A"/>
</svg>
