<svg width="284" height="43" viewBox="0 0 284 43" fill="none" xmlns="http://www.w3.org/2000/svg">
<rect width="135" height="43" rx="12" fill="#F8F5F2"/>
<path d="M31.0077 19V8.99H34.5917C36.9577 8.99 38.4557 9.956 38.4557 12.028V12.084C38.4557 13.596 37.5737 14.394 36.3977 14.744L39.0437 19H36.6357L34.2417 15.136H33.2617V19H31.0077ZM33.2617 13.596H34.5357C35.6697 13.596 36.2437 13.12 36.2437 12.154V12.098C36.2437 11.076 35.6277 10.726 34.5357 10.726H33.2617V13.596ZM43.3052 19.154C41.0932 19.154 39.4832 17.768 39.4832 15.43V15.318C39.4832 13.008 41.1212 11.51 43.2492 11.51C45.1392 11.51 46.8192 12.616 46.8192 15.234V15.794H41.5412C41.5972 17.012 42.2552 17.712 43.3612 17.712C44.2992 17.712 44.7612 17.306 44.8872 16.69H46.8052C46.5672 18.272 45.3072 19.154 43.3052 19.154ZM41.5692 14.548H44.8452C44.7752 13.442 44.2152 12.91 43.2492 12.91C42.3392 12.91 41.7232 13.512 41.5692 14.548ZM50.8763 19.154C48.9023 19.154 47.7543 18.286 47.6843 16.704H49.5743C49.6583 17.362 49.9803 17.74 50.8623 17.74C51.6463 17.74 52.0103 17.446 52.0103 16.942C52.0103 16.438 51.5763 16.228 50.5263 16.074C48.5803 15.78 47.8243 15.22 47.8243 13.792C47.8243 12.266 49.2243 11.51 50.7223 11.51C52.3463 11.51 53.5643 12.098 53.7463 13.778H51.8843C51.7723 13.176 51.4363 12.896 50.7363 12.896C50.0783 12.896 49.7003 13.204 49.7003 13.652C49.7003 14.114 50.0503 14.296 51.1143 14.45C52.9483 14.716 53.9563 15.178 53.9563 16.746C53.9563 18.328 52.8083 19.154 50.8763 19.154ZM56.2937 10.684C55.6497 10.684 55.1457 10.208 55.1457 9.578C55.1457 8.948 55.6497 8.472 56.2937 8.472C56.9517 8.472 57.4557 8.948 57.4557 9.578C57.4557 10.208 56.9517 10.684 56.2937 10.684ZM55.2997 19V11.678H57.3157V19H55.2997ZM61.9252 19.154C60.1472 19.154 58.7472 17.88 58.7472 15.444V15.332C58.7472 12.924 60.1332 11.51 61.9672 11.51C63.1432 11.51 63.8712 12.028 64.2772 12.77V8.36H66.2932V19H64.2772V17.782C63.8992 18.524 63.0032 19.154 61.9252 19.154ZM62.5272 17.572C63.5912 17.572 64.3332 16.858 64.3332 15.374V15.262C64.3332 13.806 63.6892 13.064 62.5832 13.064C61.4492 13.064 60.8192 13.834 60.8192 15.29V15.402C60.8192 16.858 61.5192 17.572 62.5272 17.572ZM71.4692 19.154C69.2572 19.154 67.6472 17.768 67.6472 15.43V15.318C67.6472 13.008 69.2852 11.51 71.4132 11.51C73.3032 11.51 74.9832 12.616 74.9832 15.234V15.794H69.7052C69.7612 17.012 70.4192 17.712 71.5252 17.712C72.4632 17.712 72.9252 17.306 73.0512 16.69H74.9692C74.7312 18.272 73.4712 19.154 71.4692 19.154ZM69.7332 14.548H73.0092C72.9392 13.442 72.3792 12.91 71.4132 12.91C70.5032 12.91 69.8872 13.512 69.7332 14.548ZM76.312 19V11.678H78.342V12.84C78.706 12.112 79.504 11.51 80.722 11.51C82.164 11.51 83.186 12.378 83.186 14.338V19H81.156V14.632C81.156 13.638 80.764 13.162 79.868 13.162C79 13.162 78.342 13.694 78.342 14.772V19H76.312ZM87.5993 19.14C86.0593 19.14 85.2333 18.356 85.2333 16.83V13.12H84.2953V11.678H85.2333V10.096H87.2493V11.678H88.7893V13.12H87.2493V16.648C87.2493 17.236 87.5433 17.516 88.0613 17.516C88.3693 17.516 88.5933 17.474 88.8313 17.376V18.944C88.5513 19.042 88.1453 19.14 87.5993 19.14ZM91.2526 10.684C90.6086 10.684 90.1046 10.208 90.1046 9.578C90.1046 8.948 90.6086 8.472 91.2526 8.472C91.9106 8.472 92.4146 8.948 92.4146 9.578C92.4146 10.208 91.9106 10.684 91.2526 10.684ZM90.2586 19V11.678H92.2746V19H90.2586ZM96.1141 19.154C94.7841 19.154 93.6641 18.51 93.6641 16.97C93.6641 15.262 95.2321 14.618 97.4721 14.618H98.2981V14.324C98.2981 13.456 98.0321 12.98 97.1081 12.98C96.3101 12.98 95.9461 13.386 95.8621 14.016H93.9441C94.0701 12.28 95.4421 11.51 97.2341 11.51C99.0261 11.51 100.3 12.238 100.3 14.226V19H98.3261V18.118C97.9061 18.706 97.2621 19.154 96.1141 19.154ZM96.7161 17.74C97.6121 17.74 98.2981 17.25 98.2981 16.438V15.822H97.5141C96.3381 15.822 95.6521 16.074 95.6521 16.858C95.6521 17.39 95.9741 17.74 96.7161 17.74ZM102.098 19V8.36H104.114V19H102.098Z" fill="#004136"/>
<rect x="149.5" y="0.5" width="134" height="42" rx="11.5" stroke="#F8F5F2" stroke-opacity="0.4"/>
<path d="M181.226 19.14C178.09 19.14 176.34 17.138 176.34 14.058V13.946C176.34 10.936 178.412 8.836 181.198 8.836C183.494 8.836 185.272 9.984 185.496 12.336H183.606C183.396 11.006 182.654 10.32 181.212 10.32C179.448 10.32 178.3 11.692 178.3 13.932V14.044C178.3 16.298 179.378 17.628 181.226 17.628C182.612 17.628 183.592 16.928 183.788 15.514H185.608C185.314 17.922 183.606 19.14 181.226 19.14ZM190.357 19.14C188.201 19.14 186.605 17.642 186.605 15.416V15.304C186.605 13.036 188.215 11.524 190.371 11.524C192.513 11.524 194.123 13.022 194.123 15.262V15.374C194.123 17.656 192.513 19.14 190.357 19.14ZM190.371 17.824C191.631 17.824 192.387 16.886 192.387 15.388V15.29C192.387 13.778 191.631 12.854 190.371 12.854C189.111 12.854 188.341 13.764 188.341 15.276V15.388C188.341 16.886 189.083 17.824 190.371 17.824ZM195.654 19V11.678H197.348V12.798C197.698 12.112 198.496 11.524 199.574 11.524C200.526 11.524 201.282 11.93 201.646 12.84C202.206 11.93 203.214 11.524 204.124 11.524C205.468 11.524 206.56 12.35 206.56 14.366V19H204.866V14.478C204.866 13.4 204.404 12.938 203.564 12.938C202.724 12.938 201.954 13.498 201.954 14.618V19H200.26V14.478C200.26 13.4 199.784 12.938 198.958 12.938C198.118 12.938 197.348 13.498 197.348 14.618V19H195.654ZM208.505 19V11.678H210.199V12.798C210.549 12.112 211.347 11.524 212.425 11.524C213.377 11.524 214.133 11.93 214.497 12.84C215.057 11.93 216.065 11.524 216.975 11.524C218.319 11.524 219.411 12.35 219.411 14.366V19H217.717V14.478C217.717 13.4 217.255 12.938 216.415 12.938C215.575 12.938 214.805 13.498 214.805 14.618V19H213.111V14.478C213.111 13.4 212.635 12.938 211.809 12.938C210.969 12.938 210.199 13.498 210.199 14.618V19H208.505ZM224.577 19.14C222.421 19.14 220.867 17.726 220.867 15.416V15.304C220.867 13.036 222.421 11.524 224.507 11.524C226.327 11.524 227.965 12.602 227.965 15.22V15.71H222.603C222.659 17.096 223.359 17.88 224.619 17.88C225.641 17.88 226.173 17.474 226.299 16.76H227.937C227.699 18.3 226.453 19.14 224.577 19.14ZM222.631 14.576H226.285C226.201 13.316 225.557 12.756 224.507 12.756C223.485 12.756 222.799 13.442 222.631 14.576ZM229.478 19V11.678H231.172V13.05C231.634 12.126 232.32 11.58 233.552 11.566V13.148C232.068 13.162 231.172 13.638 231.172 15.192V19H229.478ZM238.098 19.14C235.998 19.14 234.402 17.768 234.402 15.43V15.318C234.402 12.994 236.054 11.524 238.098 11.524C239.722 11.524 241.248 12.252 241.444 14.268H239.806C239.666 13.288 239.022 12.882 238.126 12.882C236.964 12.882 236.138 13.778 236.138 15.29V15.402C236.138 16.998 236.922 17.838 238.168 17.838C239.064 17.838 239.834 17.306 239.932 16.27H241.486C241.36 17.95 240.086 19.14 238.098 19.14ZM243.813 10.474C243.253 10.474 242.805 10.054 242.805 9.508C242.805 8.948 243.253 8.528 243.813 8.528C244.373 8.528 244.821 8.948 244.821 9.508C244.821 10.054 244.373 10.474 243.813 10.474ZM242.987 19V11.678H244.681V19H242.987ZM248.663 19.14C247.319 19.14 246.213 18.496 246.213 16.97C246.213 15.262 247.865 14.646 249.965 14.646H250.875V14.268C250.875 13.288 250.539 12.798 249.545 12.798C248.663 12.798 248.229 13.218 248.145 13.946H246.507C246.647 12.238 248.005 11.524 249.643 11.524C251.281 11.524 252.569 12.196 252.569 14.198V19H250.903V18.104C250.427 18.734 249.783 19.14 248.663 19.14ZM249.069 17.922C250.105 17.922 250.875 17.376 250.875 16.438V15.71H250.007C248.719 15.71 247.893 16.004 247.893 16.9C247.893 17.516 248.229 17.922 249.069 17.922ZM254.553 19V8.29H256.247V19H254.553Z" fill="#F8F5F2" fill-opacity="0.4"/>
</svg>
