<?xml version="1.0" encoding="UTF-8"?>
<svg id="Layer_1" data-name="Layer 1" xmlns="http://www.w3.org/2000/svg" viewBox="0 0 44.28 84.46">
  <defs>
    <style>
      .cls-1 {
        fill: #001457;
      }

      .cls-2 {
        fill: #fff;
      }

      .cls-3 {
        fill: #20aa4d;
      }
    </style>
  </defs>
  <g id="Ant">
    <g>
      <path class="cls-2" d="M16.2,23.81c.72,.55,1.43,.69,1.82,.57,.68-.2,1.21-.39,1.63-.54,.72-.26,1.28-.46,1.91-.46h1.16c.63,0,1.2,.2,1.91,.46,.43,.15,.95,.34,1.63,.54,.39,.11,1.1-.02,1.82-.57,.46-.35,1.53-1.37,1.48-3.19-.07-2.85-1.24-4.83-2.64-6.16-.49-.46-1.01-.87-1.55-1.2-1.47-.91-2.84-1.26-3.23-1.27-.39,.01-1.77,.36-3.23,1.27-.6,.39-1.16,.79-1.55,1.2-1.4,1.33-2.57,3.31-2.64,6.16-.05,1.82,1.02,2.84,1.48,3.19Z"/>
      <path class="cls-2" d="M23.49,52.36v-5.44c.24-.1,.45-.25,.58-.47,.28-.49,.16-1.31-.31-2.14-.13-.23-.17-.48-.13-.72l.92-1.16c.82-1.17,.65-3.96,.41-5.23-.04-.19-.02-.4,.05-.58l.05-.15,.59-1.63,.68-1.9c.99-2.76-2.75-4.97-2.79-5-.34-.2-.55-.56-.55-.95v-1.36c-.1-.02-.19-.04-.27-.04h-1.16c-.08,0-.17,.02-.27,.04v1.36c0,.39-.21,.76-.55,.96-.04,.02-3.78,2.24-2.78,5l.68,1.9,.59,1.63,.05,.15c.07,.19,.08,.39,.05,.58-.25,1.32-.42,4.07,.41,5.23l.92,1.15c.04,.24,0,.5-.13,.72-.48,.83-.6,1.65-.31,2.14,.11,.19,.29,.32,.49,.42v5.52c-2.43,1.06-6.7,4.38-6.42,11.32,.12,2.83,1.13,5.02,3.03,6.5,2.8,2.2,6.85,2.2,9.65,0,1.89-1.49,2.91-3.67,3.03-6.5,.29-7.03-4.09-10.34-6.5-11.36Z"/>
    </g>
    <g>
      <path class="cls-3" d="M25.05,36.47l.59-1.63,.68-1.9c.99-2.76-2.75-4.97-2.79-5-.34-.2-.55-.56-.55-.95v-1.36c-.1-.02-.19-.04-.27-.04h-1.07s.02,.04,.03,.04v1.36c0,.39,.21,.76,.55,.95,.04,.02,3.78,2.24,2.79,5l-.68,1.9-.59,1.63-.05,.15c-.07,.19-.08,.39-.05,.58,.24,1.27,.41,4.06-.41,5.23l-.92,1.16c-.04,.24,0,.49,.13,.72,.48,.83,.6,1.65,.31,2.14-.1,.17-.27,.42-.47,.69,.58-.02,1.45-.14,1.77-.69,.28-.49,.16-1.31-.31-2.14-.13-.23-.17-.48-.13-.72l.92-1.16c.82-1.17,.65-3.96,.41-5.23-.04-.19-.02-.4,.05-.58l.05-.15Z"/>
      <path class="cls-3" d="M26.92,14.46c-.49-.46-1.01-.87-1.55-1.2-1.47-.91-2.84-1.26-3.23-1.27-.2,0-.69,.11-1.31,.33,.56,.2,1.23,.5,1.92,.93,.54,.33,1.06,.73,1.55,1.2,1.4,1.33,2.57,3.31,2.64,6.16,.05,1.82-1.02,2.84-1.48,3.19-.11,.08-.22,.14-.33,.21,.33,.11,.69,.24,1.14,.37,.39,.11,1.1-.02,1.82-.57,.46-.35,1.53-1.37,1.48-3.19-.07-2.85-1.24-4.83-2.64-6.16Z"/>
      <path class="cls-3" d="M22.78,52.1c-.28-.08-.5-.25-.64-.48-.14,.23-.36,.4-.64,.48-.21,.06-.46,.15-.73,.27,2.42,1.03,6.77,4.34,6.48,11.35-.12,2.83-1.36,4.76-3.03,6.5-.67,.7-1.48,1.24-2.37,1.62,1.81,.06,3.63-.46,5.11-1.62,1.89-1.49,2.91-3.67,3.03-6.5,.32-7.78-5.1-11.02-7.21-11.61Z"/>
    </g>
    <g>
      <path class="cls-1" d="M30.58,13.07c.17,0,.35-.04,.51-.13l3.52-1.84c.32-.16,.53-.47,.58-.82l.71-5.03,2.09-3.59c.31-.53,.13-1.2-.4-1.51-.53-.31-1.2-.13-1.51,.4l-2.2,3.78c-.07,.12-.12,.26-.14,.4l-.66,4.68-3.02,1.58c-.54,.28-.75,.95-.47,1.49,.2,.38,.58,.59,.98,.59Z"/>
      <path class="cls-1" d="M8.38,5.25l.71,5.03c.05,.35,.27,.66,.58,.82l3.52,1.84c.16,.09,.34,.13,.51,.13,.4,0,.78-.22,.98-.59,.28-.54,.07-1.21-.47-1.49l-3.02-1.58-.66-4.68c-.02-.14-.07-.28-.14-.4L8.19,.55c-.31-.53-.98-.7-1.51-.4-.53,.31-.7,.98-.4,1.51l2.09,3.59Z"/>
    </g>
    <path class="cls-1" d="M43.69,31.55c-.54-.28-1.21-.08-1.49,.46l-6.12,11.63-4.88,2.37c-.84-1.32-2.89-2.72-4.28-3.46,.26-.72,.38-1.52,.43-2.28,1.58,.76,2.38,.95,2.84,.95,.26,0,.41-.06,.53-.1,.03-.01,.04-.03,.07-.04,.14-.05,.26-.14,.36-.24,.03-.03,.05-.07,.08-.1,.07-.08,.12-.16,.17-.26,.02-.04,.06-.07,.07-.11,.05-.13,.09-.28,.08-.52l1.3-7.89,2.62-3.29c.09-.12,.16-.25,.2-.39l3.22-10.97,1.77-2.47c.36-.5,.24-1.18-.25-1.54-.5-.35-1.18-.24-1.54,.25l-1.86,2.6c-.04,.06-.05,.12-.08,.18-.04,.07-.09,.13-.11,.21l-3.21,10.92-2.67,3.35s-.04,.08-.06,.12c-.01,.02-.02,.05-.04,.07-.06,.11-.09,.22-.11,.33,0,.01,0,.02-.01,.03l-.86,5.21c-.67-.94-1.26-1.63-1.75-2.05l.3-.84c1.32-3.66-1.87-6.36-3.21-7.3v-.03c.15,.05,.29,.09,.46,.14,.29,.08,.6,.13,.91,.13,.94,0,1.96-.37,2.87-1.07,1.54-1.18,2.39-3,2.34-5-.11-4.48-2.44-7.14-4.36-8.58-2.01-1.5-4.33-2.2-5.26-2.2s-3.25,.7-5.26,2.2c-1.93,1.44-4.25,4.1-4.36,8.58-.05,1.99,.8,3.81,2.34,5,1.21,.93,2.62,1.28,3.78,.94,.16-.05,.31-.09,.46-.14v.03c-1.34,.94-4.53,3.63-3.21,7.3l.3,.84c-.5,.42-1.08,1.11-1.75,2.05l-.86-5.2s0-.02-.01-.03c-.02-.12-.06-.23-.11-.33-.01-.02-.02-.05-.04-.07-.02-.04-.03-.08-.06-.12l-2.67-3.35-3.21-10.92c-.02-.08-.07-.14-.11-.21-.03-.06-.04-.12-.08-.18l-1.48-2.06c0-.24-.04-.48-.19-.68l-1.86-2.6c-.35-.5-1.04-.61-1.54-.25-.5,.36-.61,1.04-.25,1.54l1.48,2.06c0,.24,.04,.48,.19,.68l1.77,2.47,3.22,10.97c.04,.14,.11,.28,.2,.39l2.62,3.29,1.3,7.87c-.02,.25,.03,.41,.08,.54,.02,.05,.06,.08,.08,.12,.04,.09,.09,.16,.15,.23,.03,.04,.06,.09,.1,.12,.1,.09,.22,.17,.34,.22,.03,.01,.05,.04,.08,.05,.12,.05,.27,.1,.53,.1,.46,0,1.27-.18,2.84-.95,.05,.76,.17,1.56,.43,2.28-1.38,.74-3.44,2.15-4.28,3.46l-4.88-2.37-6.12-11.63c-.28-.54-.95-.74-1.49-.46-.54,.28-.74,.95-.46,1.49l6.29,11.96c.11,.22,.29,.37,.5,.47h0l6.48,3.14c.13,.09,.28,.17,.44,.22,.05,.02,.1,.02,.15,.03h.02c.17,.04,.36,.07,.56,.07,1.2,0,2.78-.64,3.88-1.16,.14,.2,.32,.41,.55,.6v2.41c-1.1,.6-2.34,1.49-3.44,2.7-1.2,1.31-2.09,2.85-2.68,4.55,0,.01-.02,.02-.03,.03l-3.75,6.36c-.12,.16-.22,.35-.24,.58l-.86,18.28c-.04,.61,.42,1.13,1.02,1.18,.03,0,.05,0,.08,0,.57,0,1.06-.45,1.1-1.03l.85-17.97,1.04-1.77s0,.07,0,.1c.14,3.5,1.45,6.24,3.87,8.15,1.75,1.37,3.95,2.13,6.19,2.13s4.44-.76,6.19-2.13c2.42-1.9,3.72-4.64,3.87-8.15,0-.04,0-.07,0-.11l1.04,1.77,.85,17.97c.04,.58,.52,1.03,1.1,1.03,.03,0,.05,0,.08,0,.61-.04,1.07-.57,1.02-1.18l-.86-18.28c-.02-.22-.11-.41-.24-.58l-3.75-6.36s-.03-.02-.04-.04c-.58-1.7-1.48-3.23-2.68-4.55-1.1-1.21-2.34-2.1-3.44-2.7v-2.41c.23-.19,.41-.4,.55-.6,1.1,.52,2.68,1.16,3.88,1.16,.2,0,.38-.02,.56-.06h.03s.1-.02,.14-.04c.16-.05,.3-.13,.43-.22l6.49-3.15h0c.2-.1,.38-.26,.5-.47l6.29-11.96c.28-.54,.08-1.21-.46-1.49Zm-16.42,5.28c.35,.42,.74,.95,1.09,1.47-.34-.16-.71-.35-1.1-.56-.03-.26-.06-.49-.09-.66l.09-.26Zm-10.25,.92c-.39,.21-.76,.4-1.1,.56,.35-.52,.75-1.06,1.09-1.47l.09,.26c-.03,.17-.06,.4-.09,.66Zm1-13.36c-.39,.11-1.1-.02-1.82-.57-.46-.35-1.53-1.37-1.48-3.19,.07-2.85,1.24-4.83,2.64-6.16,.39-.41,.95-.81,1.55-1.2,1.47-.91,2.84-1.26,3.23-1.27,.39,.01,1.77,.36,3.23,1.27,.54,.33,1.06,.73,1.55,1.2,1.4,1.33,2.57,3.31,2.64,6.16,.05,1.82-1.02,2.84-1.48,3.19-.72,.55-1.43,.69-1.82,.57-.68-.2-1.21-.39-1.63-.54-.72-.26-1.28-.46-1.91-.46h-1.16c-.63,0-1.2,.2-1.91,.46-.43,.15-.95,.34-1.63,.54Zm-.14,21.22c-.85,.42-1.75,.78-2.42,.98,.62-.6,1.64-1.34,2.56-1.88-.08,.3-.12,.6-.13,.9Zm12.12,18.11c-.12,2.83-1.13,5.02-3.03,6.5-2.8,2.2-6.85,2.2-9.65,0-1.89-1.49-2.91-3.67-3.03-6.5-.32-7.78,5.1-11.02,7.21-11.61,.28-.08,.5-.25,.64-.48,.14,.23,.36,.4,.64,.48,2.11,.59,7.53,3.83,7.21,11.61Zm-8.79-13.78v-.65c.29,.04,.6,.06,.94,.06s.65-.02,.94-.06v.65c-.38,0-.74,.2-.94,.52-.2-.32-.56-.52-.94-.52Zm4.44-15.1l-.59,1.63-.05,.15c-.07,.19-.08,.39-.05,.58,.24,1.27,.41,4.06-.41,5.23l-.92,1.16c-.04,.24,0,.49,.13,.72,.48,.83,.6,1.65,.31,2.14-.35,.6-1.36,.69-1.93,.69s-1.58-.09-1.93-.69c-.28-.49-.16-1.31,.31-2.14,.13-.23,.17-.48,.13-.72l-.92-1.15c-.82-1.16-.66-3.91-.41-5.23,.04-.19,.02-.4-.05-.58l-.05-.15-.59-1.63-.68-1.9c-.99-2.76,2.75-4.97,2.78-5,.34-.2,.55-.56,.55-.96v-1.36c.1-.02,.19-.04,.27-.04h1.16c.08,0,.17,.02,.27,.04v1.36c0,.39,.21,.76,.55,.95,.04,.02,3.78,2.24,2.79,5l-.68,1.9Zm.77,10.77c-.01-.29-.06-.59-.13-.9,.92,.53,1.93,1.28,2.56,1.88-.67-.2-1.57-.56-2.42-.98Z"/>
  </g>
</svg>