<?xml version="1.0" encoding="UTF-8"?>
<svg id="Layer_1" data-name="Layer 1" xmlns="http://www.w3.org/2000/svg" viewBox="0 0 72.13 68.34">
  <defs>
    <style>
      .cls-1 {
        fill: #001457;
      }

      .cls-2 {
        fill: #fff;
      }

      .cls-3 {
        fill: #20aa4d;
      }
    </style>
  </defs>
  <g id="Bed_Bug" data-name="Bed Bug">
    <path class="cls-2" d="M44.9,14.53h0c-.3,.24-.6,.46-.89,.68-.46-1.59-1.54-2.93-2.97-3.7,.17-.5,.28-1.02,.28-1.58,0-2.67-2.14-4.83-4.77-4.83s-4.77,2.16-4.77,4.83c0,.5,.1,.96,.23,1.41-1.63,.76-2.86,2.2-3.34,3.96-.34-.24-.68-.5-1.02-.77-22.25,10.27-11.03,46.78,8.69,48.33h.12c19.72-1.55,30.67-38.05,8.42-48.33Z"/>
    <path class="cls-3" d="M44.9,14.53h0c-.3,.24-.6,.46-.89,.68-.46-1.59-1.54-2.93-2.97-3.7,.17-.5,.28-1.02,.28-1.58,0-2.67-2.14-4.83-4.77-4.83-.34,0-.66,.04-.98,.1,.81,.75,2.84,2.84,2.84,4.73,0,.6-.12,1.18-.32,1.71,1.79,1.07,2.99,3.01,2.99,5.24,.56-.44,1.09-1.01,1.63-.65,2.59,1.73,4.76,4.04,6.3,6.74,1.96,3.44,2.88,7.4,2.97,11.34,.09,4.07-.66,8.15-2.09,11.96-1.4,3.72-3.45,7.24-6.18,10.14-2.57,2.74-5.81,4.82-9.42,5.91-.15,.04-.3,.08-.45,.13,.82,.19,1.65,.35,2.5,.41h.12c19.72-1.55,30.67-38.05,8.42-48.33Z"/>
    <path class="cls-1" d="M71.13,38.46h-2.6l-4.31-13.17c-.07-.21-.22-.37-.39-.49-.01,0-.02-.02-.04-.03-.07-.04-.14-.07-.22-.1-.05-.02-.09-.03-.14-.04-.06-.01-.11-.01-.17-.01-.04,0-.07-.01-.11,0l-6.74,.63c-.21-.53-.43-1.05-.68-1.56l3.89-6.75c.07-.12,.1-.26,.12-.4,.02-.07,.05-.15,.05-.23v-4.15l3.67-9.07c.21-.51-.04-1.1-.55-1.3-.51-.21-1.1,.04-1.3,.55l-3.74,9.25c-.05,.12-.07,.25-.07,.38v3.03l-7.09,2.1c-1.52-1.33-3.29-2.5-5.37-3.46h-.03c-.16-.08-.33-.1-.5-.09-.12,.01-.23,.05-.34,.11-.54-1.04-1.31-1.93-2.26-2.59,.07-.37,.12-.75,.12-1.13,0-1.16-.34-2.24-.92-3.15,0-.03,.02-.06,.03-.09l.42-4.27c.54,.02,1.15,.08,1.85,.15l6.88,.83c.15,.02,.31,0,.45-.05l3.95-1.4c.52-.18,.79-.76,.61-1.28-.19-.52-.76-.79-1.28-.61l-3.73,1.32-6.67-.8c-2.57-.26-5.23-.54-6.27,1.75l-.62,1.78c-.16-.01-.31-.02-.47-.02-.13,0-.26,.01-.38,.02l-.8-1.87c-1.01-2.2-3.66-1.93-6.25-1.66l-6.65,.8L18.74,.06c-.52-.18-1.09,.09-1.28,.61-.18,.52,.09,1.09,.61,1.28l3.95,1.4c.15,.05,.3,.07,.45,.05l6.86-.83c.71-.07,1.33-.13,1.87-.15l.47,4.28s.02,.05,.02,.08c-.58,.91-.92,1.99-.92,3.15,0,.3,.03,.6,.08,.9-1.12,.69-2.04,1.68-2.64,2.88-.29-.19-.65-.23-.97-.08-2.03,.94-3.77,2.09-5.26,3.38l-6.81-2.02v-3.03c0-.13-.02-.26-.07-.38L11.36,2.33c-.21-.51-.79-.76-1.3-.55-.51,.21-.76,.79-.55,1.3l3.67,9.07v4.15c0,.08,.03,.15,.05,.23,.01,.14,.05,.27,.12,.4l3.71,6.44c-.32,.63-.6,1.27-.86,1.92l-7.21-.68s-.07,0-.11,0c-.06,0-.11,0-.17,.01-.05,0-.1,.02-.14,.04-.08,.03-.15,.06-.22,.1-.01,0-.02,.02-.04,.03-.17,.12-.32,.28-.39,.49l-4.31,13.17H1c-.55,0-1,.45-1,1s.45,1,1,1h3.33c.43,0,.82-.28,.95-.69l3.59-10.98,5.3,4.7c.1,.09,.21,.15,.32,.19-.06,1.33-.02,2.65,.09,3.95l-4.48,5.17c-.11,.13-.17,.28-.21,.43-.06,.12-.1,.24-.11,.38l-1.71,20.6-3.42,2.3c-.46,.31-.58,.93-.27,1.39,.19,.29,.51,.44,.83,.44,.19,0,.39-.05,.56-.17l3.82-2.57c.25-.17,.41-.44,.44-.75l1.55-18.7c.09,.03,.18,.04,.28,.04h4.66c3.29,8.93,10.36,16.92,19.84,17.66h.2c9.39-.74,16.41-8.75,19.65-17.66h5.06c.1,0,.19-.02,.28-.04l1.55,18.7c.02,.3,.19,.58,.44,.75l3.82,2.57c.17,.11,.36,.17,.56,.17,.32,0,.64-.16,.83-.44,.31-.46,.19-1.08-.27-1.39l-3.42-2.3-1.71-20.6c-.01-.14-.05-.27-.11-.38-.04-.16-.1-.31-.21-.43l-4.75-5.49s-.09-.07-.14-.11c.09-1.28,.1-2.58,.02-3.88l5.1-4.52,3.59,10.98c.13,.41,.52,.69,.95,.69h3.33c.55,0,1-.45,1-1s-.45-1-1-1Zm-14.02-21.19l-2.52,4.38c-.65-1.04-1.39-2.03-2.25-2.97l4.77-1.41Zm-30.84,.45c.55-.23,1.12-.31,1.67-.31,.59,0,1.15,.1,1.6,.21,.93,.24,1.85,.65,2.63,1.03,.24,.12,.48,.22,.73,.33,.56,.25,1.09,.48,1.48,.79,.36,.28,.57,.6,.68,1.04,.23,.93-.21,1.86-1.13,2.37-1.06,.59-2.53,.55-3.95,.51l-.6-.02c-1.34-.03-2.37-.26-3.15-.71-.92-.53-1.45-1.43-1.59-2.69-.12-1.12,.49-2.07,1.64-2.55Zm11.02,3.09c.11-.43,.32-.75,.68-1.04,.39-.31,.92-.54,1.48-.79,.24-.11,.49-.22,.73-.33,.78-.38,1.7-.79,2.63-1.03,.86-.22,2.13-.38,3.27,.1,1.15,.48,1.77,1.44,1.64,2.55-.14,1.25-.68,2.15-1.59,2.69-.78,.45-1.81,.68-3.15,.71l-.6,.02c-1.42,.04-2.89,.08-3.95-.51-.92-.51-1.37-1.44-1.13-2.37Zm2.21-17.73c.07-.15,.18-.25,.31-.35l-.22,2.24c-.2-.13-.41-.24-.62-.34l.54-1.56Zm-5.96-.02l.66,1.55c-.24,.11-.48,.24-.7,.38l-.25-2.26c.12,.09,.23,.19,.29,.33Zm-.76,6.87c0-2.11,1.69-3.83,3.77-3.83s3.77,1.72,3.77,3.83c0,.06-.01,.13-.01,.19-.69-.22-1.43-.35-2.19-.35h-3.53c-.62,0-1.22,.08-1.8,.23,0-.03,0-.05,0-.07Zm1.81,1.84h3.53c2.06,0,3.87,1.24,4.68,3.06-4.31,2.86-8.56,2.88-12.91,.07,.79-1.86,2.61-3.13,4.71-3.13Zm-18.76,5.51l4.48,1.33c-.81,.87-1.5,1.8-2.13,2.76l-2.36-4.09Zm-6.25,9.49l.02-.09,5.9,.56c-.39,1.33-.66,2.68-.84,4.04l-5.09-4.51Zm2.85,17.43l-.36-.63,2.84-3.27s.01,.08,.02,.12c.22,1.26,.53,2.52,.91,3.78h-3.41Zm24.04,17.66h-.04c-6.86-.54-14.75-6.44-18.27-16.85-.02-.1-.05-.19-.09-.28-.48-1.47-.88-3.02-1.17-4.66-.13-.71-.23-1.4-.3-2.09,0-.06,0-.12-.01-.18-.56-5.25,.27-9.98,2.35-13.87,.05-.06,.08-.13,.11-.21,.97-1.75,2.2-3.32,3.67-4.69-.1,.47-.13,.96-.07,1.47,.21,1.89,1.1,3.34,2.58,4.19,1.08,.63,2.43,.95,4.12,.98h.58c.37,.03,.76,.04,1.15,.04,1.3,0,2.65-.12,3.83-.78,.51-.28,.93-.65,1.27-1.07,.34,.42,.76,.79,1.27,1.07,1.18,.66,2.54,.78,3.83,.78,.39,0,.78-.01,1.15-.02h.58c1.69-.05,3.03-.37,4.12-.99,1.48-.85,2.37-2.31,2.58-4.19,.07-.61,0-1.19-.16-1.73,6.28,5.65,7.48,14.35,6.2,21.49-1.81,10.12-9.04,20.79-19.28,21.6Zm24.58-18.29l-.36,.63h-3.83c.35-1.19,.64-2.39,.86-3.59,.04-.25,.07-.5,.11-.75l3.22,3.71Zm-3.15-12.7c-.18-1.24-.45-2.47-.81-3.69l5.42-.51,.02,.09-4.63,4.11Z"/>
  </g>
</svg>