<?xml version="1.0" encoding="UTF-8"?>
<svg id="Layer_1" data-name="Layer 1" xmlns="http://www.w3.org/2000/svg" viewBox="0 0 89.49 86.58">
  <defs>
    <style>
      .cls-1 {
        fill: #001457;
      }

      .cls-2 {
        fill: #fff;
      }

      .cls-3 {
        fill: #20aa4d;
      }
    </style>
  </defs>
  <g id="Centipede">
    <path class="cls-2" d="M60.4,20.94c1.78-2.96,5.08-4.32,7.39-4.33h0c1.33,0,3.46,1.49,4.79,4.25,.91,1.89,2.49,6.76-1.55,12.46-2.83-2.55-6.77-3.59-10.49-2.74-2.15-4.54-1.3-7.73-.16-9.63ZM8.69,66.96c-.2-2.81,1.23-5.42,3.68-6.78l1.19-1.37c-.01-.07-.04-.12-.07-.18-.32-2.55,1.17-4.93,3.53-5.8l1.4-.68s.01-.03,.02-.05c.02-.03,.04-.05,.05-.08,1.51-3.35,4.58-5.66,8.16-6.26l1.57-.33c2.84-1.87,6.3-2.59,9.64-2.05l1.61,.15s.07-.02,.11-.04c1.81-.9,3.87-1.08,5.81-.5,.02,0,.04,0,.06,0,.08,.02,.15,.04,.23,.04,.02,0,.03-.01,.05-.01,.01,0,.03,0,.04,0l1.21-.97c2.01-2.28,4.93-3.63,7.98-3.65h.01c.12,0,.23-.03,.34-.07,.03-.01,.06-.03,.1-.05h0l.83-1.35c.89-1.82,2.34-3.31,4.15-4.25,3.49-1.04,7.29-.02,9.81,2.6,.19,2.97-1.61,5.71-4.38,6.74-.22-.13-.48-.16-.72-.1l-.78,1.35c0,2.77-1.39,5.3-3.72,6.78-2.32,1.48-5.19,1.66-7.68,.5l-1.43,.44c-1.4,2.06-3.61,3.24-5.92,3.38-.17-.06-.35-.09-.53-.05-.05,.01-.09,.04-.14,.06-1.32-.03-2.64-.4-3.86-1.14h-.01c-.07-.05-.15-.07-.23-.09-.05-.01-.09-.04-.14-.05h-.03l-1.42,.66c-2.16,1.32-4.84,1.53-7.19,.5,0,0-.02,0-.03,0,0,0-.01-.01-.02-.01-.06-.02-.11-.02-.17-.03-.07-.01-.13-.03-.2-.03-.02,0-.04,0-.06,0l-1.07,1.07c-.8,1.61-2.46,2.63-4.27,2.62-.11-.05-.22-.09-.34-.09l-1.06,1.45c.41,1.72-.5,3.43-2.12,4.07-.1,0-.19,.02-.29,.06l-.6,1.78c.09,1.34-.49,2.65-1.54,3.49-.09,.03-.19,.07-.27,.14l-.27,1.98c.77,2.57,.08,5.34-1.88,7.23-2.1,2.02-5.17,2.57-7.84,1.41-1.71-1.26-2.85-3.18-3.14-5.29-.26-1.91,.19-3.86,1.25-5.46l.6-1.73Z"/>
    <g>
      <path class="cls-3" d="M64.23,40.3c-.22-.13-.48-.16-.72-.1l-.78,1.35c0,2.77-1.39,5.3-3.72,6.78-2.32,1.48-5.19,1.66-7.68,.5l-1.43,.44c-1.4,2.06-3.61,3.24-5.92,3.38-.17-.06-.35-.09-.53-.05-.05,.01-.09,.04-.14,.06-1.32-.03-2.64-.4-3.86-1.14h-.01c-.07-.05-.15-.07-.23-.09-.05-.01-.09-.04-.14-.05h-.03l-1.42,.66c-2.16,1.32-4.84,1.53-7.19,.5,0,0-.02,0-.03,0,0,0-.01-.01-.02-.01-.06-.02-.11-.02-.17-.03-.07-.01-.13-.03-.2-.03-.02,0-.04,0-.06,0l-1.07,1.07c-.8,1.61-2.46,2.63-4.27,2.62-.11-.05-.22-.09-.34-.09l-1.06,1.45c.41,1.72-.5,3.43-2.12,4.07-.1,0-.19,.02-.29,.06l-.6,1.78c.09,1.34-.49,2.65-1.54,3.49-.09,.03-.19,.07-.27,.14l-.27,1.98c.77,2.57,.08,5.34-1.88,7.23-2.08,2-5.11,2.55-7.76,1.44,.48,.68,1.07,1.3,1.76,1.8,2.67,1.16,5.74,.61,7.84-1.41,1.96-1.89,2.65-4.66,1.88-7.23l.27-1.98c.08-.07,.17-.11,.27-.14,1.05-.84,1.63-2.15,1.54-3.49l.6-1.78c.09-.04,.19-.06,.29-.06,1.62-.64,2.53-2.36,2.12-4.07l1.06-1.45c.12,0,.24,.03,.34,.09,1.81,0,3.47-1.01,4.27-2.62l1.07-1.07s.04,0,.06,0c.07,0,.13,.02,.2,.03,.06,.01,.11,0,.17,.03,0,0,.01,.01,.02,.01,0,0,.02,0,.03,0,2.35,1.03,5.03,.82,7.19-.5l1.42-.66h.03s.09,.03,.14,.05c.08,.02,.16,.04,.23,.08h.01c1.21,.74,2.54,1.11,3.86,1.14,.05-.02,.09-.05,.14-.06,.19-.04,.37,0,.53,.05,2.31-.14,4.52-1.32,5.92-3.38l1.43-.44c2.49,1.16,5.36,.97,7.68-.5,2.34-1.48,3.73-4.02,3.72-6.78l.78-1.35c.24-.06,.5-.03,.72,.1,2.76-1.02,4.57-3.76,4.38-6.74-.55-.57-1.18-1.06-1.84-1.47,.03,2.83-1.72,5.4-4.37,6.38Z"/>
      <path class="cls-3" d="M72.84,20.97c-1.33-2.76-3.46-4.25-4.79-4.25h0c-.29,0-.59,.02-.91,.07,1.32,.32,3.09,1.76,4.26,4.18,.87,1.81,2.34,6.33-1.05,11.7,.33,.24,.65,.48,.95,.76,4.04-5.7,2.46-10.57,1.55-12.46Z"/>
    </g>
    <g>
      <path class="cls-1" d="M88.75,8.96c-5.33-1.46-11.59,1.05-15.56,6.23-.34,.44-.25,1.07,.19,1.4,.18,.14,.4,.21,.61,.21,.3,0,.6-.13,.79-.39,4.02-5.25,9.65-6.55,13.45-5.51,.53,.14,1.08-.17,1.23-.7,.15-.53-.17-1.08-.7-1.23Z"/>
      <path class="cls-1" d="M54.09,1.97c3.82,.97,8.08,4.88,8.99,11.42,.07,.5,.5,.86,.99,.86,.05,0,.09,0,.14,0,.55-.08,.93-.58,.85-1.13C64.16,6.65,59.95,1.39,54.58,.03c-.54-.14-1.08,.19-1.22,.72-.14,.54,.19,1.08,.72,1.22Z"/>
    </g>
    <path class="cls-1" d="M80.38,28.32c-.53-.16-1.09,.13-1.25,.66l-1.36,4.42-5.52,2.92c.03-.4,.02-.8,0-1.21,5.27-6.83,3.32-12.85,2.21-15.15-1.53-3.17-4.24-5.38-6.59-5.38h-.02c-2.96,.02-6.91,1.66-9.1,5.3-1.39,2.31-2.45,6.14,.02,11.43-1.04,.65-1.97,1.46-2.75,2.39l-2.88-3-.71-3.78c-.1-.54-.62-.9-1.17-.8-.54,.1-.9,.62-.8,1.17l.76,4.1c.05,.25,.18,.46,.37,.6l3.25,3.38c-.19,.34-.37,.69-.53,1.04-1.94,.12-3.82,.68-5.49,1.62l-2.67-2.44-.02-3.05c0-.55-.45-.99-1-.99h0c-.55,0-1,.45-.99,1.01l.02,3.23s.02,.07,.02,.11c-.04,.32,.04,.65,.3,.88l2.63,2.41c-.63,.51-1.21,1.08-1.74,1.71-2.12-.49-4.32-.27-6.31,.64-.2-.04-.39-.08-.59-.11,0-.13-.01-.27-.07-.4l-1.13-2.86,.79-1.79c.22-.51,0-1.1-.51-1.32-.51-.22-1.1,0-1.32,.51l-.94,2.13c-.11,.26-.11,.54,0,.78,.01,.06,0,.13,.03,.19l.99,2.52c-2.17-.08-4.34,.3-6.36,1.1l-.63-4.26,.5-1.75c.15-.53-.15-1.08-.68-1.24-.53-.15-1.08,.15-1.24,.68l-.55,1.92c-.05,.16-.04,.32,0,.47,0,.05-.01,.09,0,.14l.72,4.89s.02,.04,.02,.06c-.24,.14-.49,.28-.72,.43-2.49,.22-4.8,1.14-6.71,2.61l-1.01-3.13,.86-3.49c.13-.54-.19-1.08-.73-1.21-.53-.13-1.08,.19-1.21,.73l-.93,3.75s0,.07,0,.11c-.01,.06-.01,.13,0,.19,0,.05,0,.1,.02,.16,0,.04,0,.08,.01,.12l1.37,4.25c-.83,.89-1.53,1.91-2.08,3.03-.76,.22-1.47,.54-2.1,.96l-2.09-2.31,.35-2.3c.08-.55-.29-1.06-.84-1.14-.55-.09-1.06,.29-1.14,.84l-.4,2.62c-.01,.08,0,.15,.01,.23-.03,.28,.04,.56,.24,.78l2.36,2.6c-1.25,1.44-1.95,3.34-1.83,5.34-.89,.48-1.67,1.09-2.34,1.81l-2.04-2.91,.52-2.44c.11-.54-.23-1.07-.77-1.19-.55-.11-1.07,.23-1.19,.77l-.58,2.72c-.03,.15-.02,.3,.01,.44,0,.19,.04,.39,.16,.56l2.63,3.75c-.9,1.58-1.33,3.43-1.17,5.34-.29,.4-.56,.81-.78,1.25l-2.45-1.69-.5-2.95c-.09-.55-.61-.92-1.15-.82-.54,.09-.91,.61-.82,1.15l.53,3.12c.01,.09,.05,.16,.09,.24,.04,.27,.17,.52,.42,.69l3.13,2.16c-.37,1.31-.48,2.69-.29,4.05,.08,.6,.23,1.18,.41,1.74l-2.56-.18-.85-2.1c-.21-.51-.79-.76-1.3-.55-.51,.21-.76,.79-.55,1.3l1.09,2.68c.16,.39,.53,.62,.93,.62,.01,0,.02,0,.04,0h.02l4.1,.29s.03,0,.05,0c.55,.9,1.24,1.7,2.04,2.39-.02,.03-.05,.04-.08,.08l-2.3,3.51c-.3,.46-.17,1.08,.29,1.38,.17,.11,.36,.16,.55,.16,.33,0,.65-.16,.84-.45l2.3-3.51c.05-.07,.06-.15,.09-.23,.95,.32,1.92,.47,2.89,.47,.07,0,.14,0,.21-.01h0l1.52,3.92c.15,.4,.53,.64,.93,.64,.12,0,.24-.02,.36-.07,.51-.2,.77-.78,.57-1.29l-1.35-3.48c1.51-.38,2.93-1.15,4.11-2.28,.24-.23,.44-.48,.64-.72l2.98,2.38c.18,.15,.4,.22,.62,.22,.02,0,.03-.01,.05-.01,.06,.01,.11,.04,.18,.04l2,.04h.02c.54,0,.99-.43,1-.98,.01-.55-.43-1.01-.98-1.02l-1.87-.04-2.87-2.29c1.11-2.11,1.34-4.59,.61-6.93,.33-.27,.62-.58,.88-.91l2.28,2.65c.2,.23,.48,.35,.76,.35,.04,0,.08-.02,.12-.02l1.89,.11s.04,0,.06,0c.53,0,.97-.41,1-.94,.03-.55-.39-1.02-.94-1.06l-1.67-.1-2.49-2.89c.24-.74,.35-1.52,.3-2.31,1.91-.92,3.08-2.82,3.1-4.89l2.02,3.32c.18,.29,.48,.46,.8,.47l1.29,.4c.1,.03,.2,.05,.3,.05,.43,0,.82-.28,.96-.7,.16-.53-.13-1.09-.66-1.25l-1.19-.37-1.61-2.66c1.4-.57,2.6-1.59,3.36-2.94,.98,.32,2,.48,3.01,.48,.05,0,.1,0,.15,0,0,.04,0,.08,.01,.12l1.35,4.09c.04,.11,.09,.21,.16,.29h0l.88,1.31c.19,.29,.51,.44,.83,.44,.19,0,.39-.06,.56-.17,.46-.31,.58-.93,.27-1.39l-.84-1.25-1.22-3.68c1.16-.26,2.28-.74,3.3-1.42,1.26,.65,2.59,1.01,3.92,1.09l.45,2.42c.06,.31,.26,.55,.52,.69,.04,.03,.07,.07,.12,.09l2.13,1.04c.14,.07,.29,.1,.44,.1,.37,0,.73-.21,.9-.56,.24-.5,.04-1.09-.46-1.34l-1.77-.86-.31-1.66c1.34-.2,2.63-.69,3.78-1.43l4.02,4.02c.2,.2,.45,.29,.71,.29,.11,0,.22-.03,.33-.06l2.11,.13s.04,0,.06,0c.52,0,.96-.41,1-.94,.03-.55-.39-1.03-.94-1.06l-2.21-.14-3.5-3.51c.3-.3,.59-.62,.85-.96,1.15,.44,2.35,.67,3.55,.67,1.42,0,2.84-.31,4.16-.92,.05,.04,.08,.1,.14,.13l4.53,2.78c.16,.1,.34,.15,.52,.15,.08,0,.15-.01,.23-.03h2.1c.55,.01,1-.43,1-.98,0-.55-.44-1-.99-1.01h-2.09l-3.55-2.19c2-1.51,3.33-3.69,3.79-6.12l2.21,2.27c.13,.25,.35,.44,.64,.51l3.21,.75c.08,.02,.15,.03,.23,.03,.45,0,.86-.31,.97-.77,.13-.54-.21-1.08-.75-1.2l-2.83-.66-2.45-2.52c.87-.43,1.66-1,2.32-1.68,.07,.06,.13,.12,.21,.15l4.61,2.08c.16,.1,.34,.17,.54,.17,.07,0,.15,0,.23-.03l3.17-.73c.54-.12,.87-.66,.75-1.2-.12-.54-.66-.87-1.2-.75l-2.81,.65-4.27-1.93c.33-.54,.61-1.11,.82-1.71,.08,.02,.16,.03,.24,.03,.16,0,.32-.04,.47-.12l6.53-3.46s.02-.02,.03-.03c.22-.12,.41-.31,.49-.58l1.49-4.82c.16-.53-.13-1.09-.66-1.25Zm-19.92-7.4c1.78-2.96,5.08-4.32,7.39-4.33h0c1.33,0,3.45,1.49,4.79,4.25,.91,1.89,2.49,6.76-1.55,12.46-2.83-2.55-6.77-3.59-10.49-2.74-2.15-4.54-1.3-7.73-.16-9.63Zm5.42,21.08c-.38-.21-.86-.18-1.18,.14-.23,.23-.31,.53-.28,.83-.01,.05-.02,.1-.02,.16,0,.03-.02,.05-.02,.08,.01,2.78-1.38,5.33-3.72,6.82-2.35,1.49-5.25,1.67-7.76,.47-.04-.02-.09-.02-.13-.03-.06-.02-.13-.04-.19-.05-.06,0-.13,0-.19,0-.06,0-.12,.01-.18,.03-.06,.02-.12,.05-.18,.08-.06,.03-.11,.06-.16,.09-.05,.04-.1,.09-.14,.14-.03,.03-.07,.06-.09,.09-2.31,3.53-6.94,4.57-10.54,2.38h-.02c-.07-.05-.15-.07-.23-.09-.05-.01-.09-.04-.14-.05-.07-.01-.14,0-.22,0-.06,0-.11,0-.16,.01-.05,.01-.1,.05-.15,.07-.07,.03-.14,.05-.2,.1,0,0-.01,0-.02,0-2.25,1.74-5.27,2.11-7.88,.97,0,0-.02,0-.02,0,0,0-.01-.01-.02-.01-.05-.02-.11-.02-.16-.03-.07-.01-.14-.03-.21-.03-.06,0-.11,.02-.16,.03-.07,.01-.14,.02-.21,.05-.06,.02-.1,.06-.15,.1-.06,.04-.12,.07-.16,.12-.05,.05-.08,.11-.11,.16-.03,.05-.08,.09-.1,.14,0,0,0,.02,0,.03,0,0-.01,.01-.01,.02-.75,1.98-2.74,3.23-4.85,3.05-.06,0-.12,.01-.18,.02-.06,0-.11,0-.17,.01,0,0-.01,0-.02,0-.06,.02-.12,.06-.17,.09-.06,.03-.12,.06-.18,.1-.03,.02-.04,.06-.07,.08-.06,.07-.13,.13-.17,.21-.02,.04-.03,.09-.04,.13-.03,.08-.06,.16-.07,.24,0,0,0,.01,0,.02,0,.06,.01,.12,.02,.18,0,.06,0,.11,.01,.17,.5,1.85-.54,3.74-2.38,4.3-.05,.02-.09,.05-.14,.07-.06,.03-.12,.05-.17,.09-.05,.04-.09,.09-.13,.14-.04,.05-.09,.09-.12,.14-.03,.06-.05,.12-.07,.18-.02,.06-.05,.12-.06,.18,0,.07,0,.13,0,.2,0,.05-.01,.1,0,.16,.35,1.67-.38,3.41-1.82,4.33-.03,.02-.05,.05-.08,.07-.05,.04-.1,.09-.14,.14-.04,.05-.07,.1-.1,.15-.03,.06-.06,.11-.08,.17-.02,.06-.03,.12-.04,.18,0,.06,0,.13,0,.19,0,.07,.02,.13,.04,.19,.01,.04,0,.07,.02,.11,1.1,2.73,.45,5.82-1.68,7.87-2.1,2.02-5.17,2.57-7.84,1.41-1.71-1.26-2.85-3.18-3.14-5.29-.29-2.14,.31-4.34,1.66-6.03h0c.07-.1,.13-.21,.16-.32,0-.01,.01-.02,.02-.03,0,0,0-.02,0-.03,.03-.12,.04-.24,.03-.36h0c-.4-3.19,1.29-6.2,4.21-7.5,.02,0,.04-.03,.06-.04,.06-.03,.11-.07,.16-.12,.05-.04,.1-.08,.14-.13,.04-.05,.07-.1,.1-.16,.03-.06,.06-.11,.08-.17,.02-.06,.02-.12,.03-.18,0-.07,.01-.13,0-.2,0-.02,0-.05,0-.07-.46-2.88,1.43-5.62,4.28-6.22,0,0,.02,0,.03-.01,.12-.03,.22-.07,.32-.14,.02-.01,.04-.03,.06-.05,.07-.06,.13-.12,.19-.19,.02-.03,.04-.06,.06-.1,.02-.03,.04-.05,.05-.08,1.66-3.67,5.18-6.13,9.2-6.4,.02,0,.04-.01,.06-.02,.09-.01,.18-.04,.26-.07,.03-.01,.07-.03,.1-.05,.02-.01,.04-.02,.06-.03,3.15-2.08,7.05-2.77,10.72-1.89,.01,0,.03,0,.04,0,.06,.01,.13,.03,.19,.03,.04,0,.08,0,.12-.01,.02,0,.04,0,.06,0,.09-.02,.18-.04,.26-.08,1.81-.9,3.87-1.08,5.81-.5,.02,0,.04,0,.06,0,.08,.02,.15,.04,.23,.04,.02,0,.03-.01,.05-.01,.11,0,.21-.03,.31-.07,.03-.01,.06-.01,.09-.03,.13-.07,.24-.16,.33-.27,0,0,0,0,.01-.01,2-2.63,5.17-4.21,8.47-4.23h.01c.12,0,.23-.03,.34-.07,.03-.01,.06-.03,.1-.05,.07-.04,.14-.08,.2-.14,.03-.02,.06-.05,.08-.07,.06-.07,.11-.14,.15-.23,.01-.03,.03-.05,.04-.07v-.02c.84-2.2,2.44-3.99,4.52-5.07,3.49-1.04,7.29-.02,9.8,2.6,.19,2.97-1.61,5.71-4.38,6.74Z"/>
  </g>
</svg>