<?xml version="1.0" encoding="UTF-8"?>
<svg id="Layer_1" data-name="Layer 1" xmlns="http://www.w3.org/2000/svg" viewBox="0 0 79.36 80.61">
  <defs>
    <style>
      .cls-1 {
        fill: #001457;
      }

      .cls-2 {
        fill: #fff;
      }

      .cls-3 {
        fill: #20aa4d;
      }
    </style>
  </defs>
  <g id="Cockroach">
    <path class="cls-2" d="M39.58,79.61c9.41-2.83,11.31-27.18,11.31-41.06,0,0,.68-8.89-3.85-11.32-.55-1-.06-2.38-1.44-3.44-.61-2.77-3.66-4.75-5.86-4.32h-.3c-2.2-.43-5.25,1.55-5.86,4.32-1.39,1.05-.89,2.44-1.44,3.44-4.53,2.44-3.85,11.32-3.85,11.32,0,13.87,2.34,39.06,11.31,41.06Z"/>
    <path class="cls-3" d="M47.04,27.23c-.55-1-.06-2.38-1.44-3.44-.61-2.77-3.66-4.75-5.86-4.32h-.3c-.53-.1-1.1-.06-1.68,.09,1.84,.48,3.72,2.13,4.19,4.24,1.39,1.05,.89,2.44,1.44,3.44,.44,.23,.81,.54,1.16,.89h3.15c-.74,.32-1.56,.59-2.45,.82,2.46,3.47,2,9.62,2,9.62,0,12.96-1.66,35.06-9.55,40.22,.6,.39,1.23,.69,1.9,.84,9.41-2.83,11.31-27.18,11.31-41.06,0,0,.68-8.89-3.85-11.32Z"/>
    <path class="cls-1" d="M78.23,0c-.94,.12-22.85,3.13-33.93,19.98-1.36-1.14-3.09-1.78-4.66-1.52h-.13c-1.52-.26-3.19,.34-4.53,1.42C23.89,3.13,2.07,.13,1.13,0,.59-.07,.08,.32,0,.87-.06,1.42,.32,1.92,.87,1.99c.22,.03,22.2,3.06,32.71,19.39-.4,.57-.71,1.19-.9,1.84-.95,.87-1.1,1.88-1.21,2.64-.04,.25-.07,.48-.13,.66-.68,.42-1.24,.98-1.71,1.6l-6.88-1.98-1.45-3.46c-.21-.51-.8-.75-1.31-.54-.51,.21-.75,.8-.54,1.31l1.82,4.34,7.31,2.11c-1.11,2.48-1.33,5.44-1.34,7.17l-3.78-.78s-.04,0-.06,0c-.38-.09-.8,.05-1.04,.38l-7.26,9.95-5.4,3.33c-.47,.29-.62,.91-.32,1.38,.19,.31,.52,.47,.85,.47,.18,0,.36-.05,.52-.15l5.51-3.41c.13-.08,.23-.19,.31-.32,.03-.03,.07-.05,.1-.08l6.59-9.03,4.06,4.84s.04,.03,.06,.05c.07,1.81,.18,3.96,.36,6.3h-5.21c-.34,0-.64,.17-.82,.44-.13,.14-.24,.32-.26,.52l-2.19,16.18-5.2,6.48c-.35,.43-.28,1.06,.15,1.41,.18,.15,.41,.22,.62,.22,.29,0,.58-.13,.78-.37l5.38-6.71s.03-.06,.04-.09c.03-.05,.06-.1,.08-.16,.03-.06,.05-.12,.06-.19,0-.02,.02-.04,.02-.06l1.98-14.67,5.43,5.15c1.46,10.31,4.48,21.01,10.74,22.41,.07,.02,.14,.02,.22,.02,.1,0,.19-.01,.29-.04,6.27-1.88,9.29-12.08,10.73-22.23l5.59-5.3,1.98,14.67s.02,.04,.02,.06c.01,.07,.04,.13,.06,.19,.02,.06,.05,.11,.08,.16,.02,.03,.02,.06,.04,.09l5.38,6.71c.2,.25,.49,.37,.78,.37,.22,0,.44-.07,.62-.22,.43-.35,.5-.97,.15-1.41l-5.2-6.48-2.19-16.18c-.03-.21-.13-.38-.26-.53-.18-.27-.48-.44-.82-.44h-5.22c-.05,0-.1,.02-.15,.03,.16-2.23,.26-4.32,.33-6.17,.1-.06,.19-.11,.27-.2l4.06-4.84,6.59,9.03s.07,.05,.1,.08c.08,.12,.18,.23,.31,.32l5.51,3.41c.16,.1,.35,.15,.52,.15,.33,0,.66-.17,.85-.47,.29-.47,.15-1.09-.32-1.38l-5.4-3.33-7.26-9.95c-.24-.34-.66-.47-1.04-.38-.02,0-.04,0-.06,0l-4,.82c-.01-1.74-.23-4.68-1.32-7.16l7.51-2.16,1.81-4.35c.21-.51-.03-1.1-.54-1.31-.51-.21-1.1,.03-1.31,.54l-1.44,3.46-7.04,2.03s-.01,0-.02,.01c-.48-.65-1.05-1.22-1.76-1.66-.06-.18-.09-.41-.13-.66-.11-.76-.26-1.77-1.21-2.64-.17-.6-.45-1.17-.81-1.7C56.15,5.06,78.26,2.02,78.49,1.99c.55-.07,.93-.57,.86-1.12-.07-.55-.58-.94-1.12-.86Zm-26.34,39.16l1.63-.33-1.65,1.96c0-.59,.01-1.13,.01-1.63Zm-.57,12.79c.1,.03,.2,.06,.31,.06h2.72l-3.35,3.17c.12-1.09,.23-2.17,.32-3.23Zm-25.45-13.13l1.41,.29c0,.37,0,.84,.02,1.41l-1.42-1.7Zm-.83,13.19h2.72c.06,0,.1-.02,.16-.03,.09,1,.19,2.01,.31,3.05l-3.18-3.02Zm22.75-22.89c2.08,2.47,2.25,7.39,2.1,9.41,0,16.85-2.71,37.3-10.34,40.02-7.53-2.16-10.27-25.01-10.28-40.09-.15-1.96,.02-6.87,2.11-9.34,2.29,.95,5.2,1.48,8.22,1.48s5.91-.52,8.19-1.47Zm-2.07-2.98c.07,.46,.15,.97,.4,1.46-1.89,.63-4.16,.98-6.53,.98s-4.65-.35-6.55-.99c.25-.49,.33-1,.4-1.46,.11-.76,.2-1.17,.73-1.58,.19-.14,.32-.35,.37-.58,.46-2.07,2.62-3.6,4.25-3.6,.15,0,.3,.01,.44,.04,.06,.01,.13,.02,.19,.02h.31c.06,0,.13,0,.19-.02,1.65-.32,4.2,1.29,4.69,3.56,.05,.23,.18,.44,.37,.58,.53,.4,.62,.82,.73,1.58Z"/>
  </g>
</svg>