<?xml version="1.0" encoding="UTF-8"?>
<svg id="Layer_1" data-name="Layer 1" xmlns="http://www.w3.org/2000/svg" viewBox="0 0 94.58 93.97">
  <defs>
    <style>
      .cls-1 {
        fill: #001457;
      }

      .cls-2 {
        fill: #fff;
      }

      .cls-3 {
        fill: #20aa4d;
      }
    </style>
  </defs>
  <g id="Mosquito">
    <g>
      <path class="cls-2" d="M39.01,44.13c.06,1.07,.21,2.14,.38,3.2l-16.23,14.32c-2.88,2.54-6.86,3.63-10.63,2.9l-6.88-1.32c-1.34-.26-2.44-1.11-3.03-2.34-.58-1.23-.55-2.63,.1-3.83,1.87-3.46,4.98-5.98,8.75-7.09l27.55-8.16c-.02,.21-.03,.43-.04,.64l.02,1.67Z"/>
      <path class="cls-2" d="M51.14,73.3l-1.12-4.27-.52-1.96c-.03-.13-.04-.26-.03-.39l.19-1.92,.48-4.83,.22-2.26c-.99,.43-2.05,.65-3.07,.65s-2.08-.21-3.07-.65l.22,2.26,.48,4.83,.19,1.92c.01,.13,0,.26-.03,.39l-.52,1.96-1.12,4.27-.69,2.61,.56,1.66,1.43,4.27,2.54,7.58,2.54-7.58,1.43-4.27,.56-1.66-.69-2.61Z"/>
      <path class="cls-2" d="M55.57,42.43c0-.21-.02-.43-.04-.64l27.55,8.16c3.77,1.12,6.88,3.63,8.75,7.09,.65,1.2,.69,2.59,.1,3.83-.58,1.23-1.69,2.09-3.03,2.34l-6.88,1.32c-3.78,.73-7.75-.36-10.63-2.9l-16.23-14.32c.17-1.06,.32-2.13,.38-3.2l.02-1.67Z"/>
      <path class="cls-2" d="M52.32,51.6c-.32,3.08-2.75,4.46-5.02,4.46s-4.7-1.38-5.02-4.46c-.12-1.17-.32-2.34-.51-3.46-.5-2.96-.97-5.75-.09-8.4,.36-1.08,1.11-1.95,2.07-2.48,.15-.08,.31-.16,.48-.23h.02c.16-.07,.33-.12,.49-.17h.04c.16-.05,.33-.08,.5-.11,.03,0,.06,0,.09-.01,.17-.02,.34-.03,.51-.03h2.86c.17,0,.34,.01,.51,.03,.03,0,.06,0,.09,.01,.17,.02,.33,.05,.5,.1h.04c.17,.06,.33,.11,.49,.17h.02c.16,.07,.32,.15,.48,.23,.95,.52,1.71,1.39,2.07,2.48,.88,2.65,.41,5.45-.09,8.4-.19,1.13-.39,2.29-.51,3.46Z"/>
      <path class="cls-2" d="M47.29,32.47c1.16,0,2.18,.89,2.68,2.17-.02,0-.04,0-.06,0-.15-.03-.3-.05-.45-.06-.05,0-.1-.01-.15-.02-.2-.02-.39-.03-.59-.03h-2.86c-.2,0-.4,.01-.59,.03-.05,0-.1,.01-.15,.02-.15,.02-.3,.04-.45,.06-.02,0-.04,0-.06,0,.5-1.28,1.52-2.17,2.68-2.17Z"/>
    </g>
    <g>
      <path class="cls-3" d="M21.57,60.57c-2.88,2.54-6.86,3.63-10.63,2.9l-7.31-1.29c.57,.52,1.26,.9,2.04,1.05l6.88,1.32c3.78,.73,7.75-.36,10.63-2.9l16.23-14.32c-.11-.7-.2-1.41-.28-2.11l-17.56,15.35Z"/>
      <path class="cls-3" d="M91.85,57.04c-1.87-3.46-4.98-5.98-8.75-7.09l-.85-.25c2.66,1.39,4.85,3.57,6.3,6.34,.65,1.24,.69,2.69,.1,3.97s-1.69,2.16-3.03,2.43l-9.25,1.87c1.83,.5,3.78,.6,5.67,.23l6.88-1.32c1.34-.26,2.44-1.11,3.03-2.34,.58-1.23,.55-2.63-.1-3.83Z"/>
      <path class="cls-3" d="M51.15,73.3l-1.12-4.27-.52-1.96c-.03-.13-.04-.26-.03-.39l.19-1.92,.48-4.83,.22-2.26c-.55,.24-1.11,.4-1.68,.51l-.12,1.75-.48,4.83-.19,1.92c-.01,.13,0,.26,.03,.39l.52,1.96,1.12,4.27,.69,2.61-4.14,9.98,1.19,3.54,2.54-7.58,1.43-4.27,.56-1.66-.69-2.61Z"/>
      <path class="cls-3" d="M47.3,32.47c-.26,0-.52,.05-.76,.14,.97,.12,1.81,.86,2.3,1.92,.16,0,.33,0,.49,.02,.05,0,.1,.01,.15,.02,.15,.02,.3,.04,.45,.06,.02,0,.04,0,.06,0-.5-1.28-1.52-2.17-2.68-2.17Z"/>
      <path class="cls-3" d="M52.94,39.73c-.36-1.08-1.11-1.95-2.07-2.48-.15-.08-.31-.16-.48-.23h-.02c-.16-.07-.33-.12-.49-.17h-.04c-.16-.05-.33-.08-.5-.11-.03,0-.06,0-.09-.01-.17-.02-.34-.03-.51-.03h-1.91c.17,0,.34,.01,.51,.03,.03,0,.06,0,.09,.01,.17,.02,.33,.05,.5,.1h.04c.17,.06,.33,.11,.49,.17h.02c.16,.07,.32,.15,.48,.23,.95,.52,1.71,1.39,2.07,2.48,.88,2.65,.41,5.45-.09,8.4-.19,1.13-.39,2.29-.51,3.46-.24,2.33-2.63,3.68-4.76,4.2,.54,.17,1.1,.25,1.65,.25,2.27,0,4.7-1.38,5.02-4.46,.12-1.17,.32-2.34,.51-3.46,.5-2.96,.97-5.75,.09-8.4Z"/>
    </g>
    <g>
      <path class="cls-1" d="M50.25,30.59c-.15,0-.31-.04-.46-.11-.49-.25-.69-.85-.43-1.35,2.23-4.35,9.8-10.64,17.66-10.64,.55,0,1,.45,1,1s-.45,1-1,1c-7.31,0-14.12,6.12-15.88,9.55-.18,.35-.53,.54-.89,.54Z"/>
      <path class="cls-1" d="M44.36,30.59c-.36,0-.71-.2-.89-.54-1.76-3.43-8.57-9.55-15.88-9.55-.55,0-1-.45-1-1s.45-1,1-1c7.86,0,15.43,6.29,17.66,10.64,.25,.49,.06,1.09-.43,1.35-.15,.08-.3,.11-.46,.11Z"/>
      <path class="cls-1" d="M56.54,19.5c.17,.37,.53,.59,.91,.59,.14,0,.27-.03,.41-.09,.5-.22,.73-.82,.51-1.32l-1.31-2.94L70.26,1.68c.38-.4,.36-1.04-.04-1.41-.4-.38-1.04-.36-1.41,.04l-13.54,14.42c-.12,.13-.18,.28-.22,.43-.14,.26-.17,.57-.04,.87l1.54,3.46Z"/>
      <path class="cls-1" d="M37.55,15.75l-1.31,2.94c-.22,.5,0,1.1,.51,1.32,.13,.06,.27,.09,.41,.09,.38,0,.75-.22,.91-.59l1.54-3.46c.13-.29,.09-.6-.04-.87-.04-.16-.11-.31-.22-.43L25.81,.32c-.38-.4-1.01-.42-1.41-.04-.4,.38-.42,1.01-.04,1.41l13.2,14.07Z"/>
    </g>
    <path class="cls-1" d="M93.79,56.01c-2.15-3.98-5.73-6.87-10.06-8.16l-28.63-8.48c-.03-.14-.09-.32-.18-.51l9.39-7.35c.42-.33,.51-.92,.2-1.36l-.74-1.06-2.7-5.15c-.26-.49-.86-.68-1.35-.42-.49,.26-.68,.86-.42,1.35l2.2,4.18-9.22,5.62s0-.06-.01-.09c-.56-2.11-2.03-3.71-3.88-4.18-.03,0-.06-.01-.09-.02v-13.43c0-.55-.45-1-1-1s-1,.45-1,1v13.42s-.08,.01-.12,.03c-1.85,.46-3.32,2.06-3.88,4.18,0,.02,0,.05-.02,.07l-9.18-5.6,2.2-4.18c.26-.49,.07-1.09-.42-1.35-.49-.26-1.09-.07-1.35,.42l-2.7,5.15-.74,1.06c-.3,.44-.21,1.03,.2,1.36l9.38,7.35c-.03,.07-.07,.13-.1,.2-.04,.11-.06,.21-.1,.32l-28.63,8.48c-4.34,1.28-7.91,4.18-10.06,8.16-.99,1.82-1.05,3.95-.16,5.82,.89,1.88,2.57,3.18,4.6,3.57l6.88,1.32c.91,.17,1.83,.26,2.74,.26,3.56,0,7.07-1.29,9.77-3.68l1.07-.94v4.85l-8.82,9.19c-.38,.4-.37,1.03,.03,1.41,.19,.19,.44,.28,.69,.28,.26,0,.52-.1,.72-.31l9.02-9.39s.02-.04,.03-.05c.2-.18,.32-.44,.32-.73v-7.01l6.44-5.68,.98-.87,4.71-4.16c.08,.51,.15,1.02,.21,1.53l-5.67,6.54c-.19,.22-.26,.49-.24,.75,0,.02,0,.03,0,.05v14.42l-5.79,14.75-3.18,3.65c-.36,.42-.32,1.05,.1,1.41,.19,.17,.42,.25,.66,.25,.28,0,.56-.12,.75-.34l3.24-3.72s.02-.05,.04-.07c.08-.09,.15-.19,.2-.3l5.91-15.07c.06-.15,.07-.3,.06-.45,0-.02,.01-.04,.01-.07v-14.22l4.46-5.14s.03,.09,.05,.13c.16,.36,.73,1.4,1.22,1.94l1.06,10.74-2.36,8.97c-.05,.21-.05,.43,.02,.63l5.68,16.94c.15,.45,.57,.75,1.05,.75s.9-.3,1.05-.75l5.68-16.94c.07-.2,.08-.42,.02-.63l-2.36-8.97,1.06-10.74c.5-.55,1.11-1.49,1.22-1.94,.02-.05,.04-.11,.06-.16l4.48,5.17v14.22s.01,.04,.01,.07c-.01,.15,0,.3,.06,.45l5.91,15.07c.05,.12,.12,.22,.2,.3,.02,.02,.02,.05,.04,.07l3.24,3.72c.2,.23,.48,.34,.75,.34,.23,0,.47-.08,.66-.25,.42-.36,.46-.99,.1-1.41l-3.18-3.65-5.79-14.75v-14.42s0-.03,0-.05c.03-.26-.05-.54-.24-.75l-5.7-6.58c.06-.5,.12-1,.2-1.5l4.71,4.16,.98,.87,6.47,5.71v6.98c0,.29,.13,.55,.33,.73,.01,.02,.02,.04,.03,.05l9.02,9.39c.2,.2,.46,.31,.72,.31s.5-.09,.69-.28c.4-.38,.41-1.02,.03-1.41l-8.82-9.19v-4.82l1.03,.91c2.7,2.38,6.21,3.68,9.77,3.68,.91,0,1.83-.09,2.74-.26l6.88-1.32c2.04-.39,3.72-1.69,4.6-3.57,.89-1.88,.83-4-.16-5.82Zm-70.63,5.64c-2.88,2.54-6.86,3.63-10.63,2.9l-6.88-1.32c-1.34-.26-2.44-1.11-3.03-2.34-.58-1.23-.55-2.63,.1-3.83,1.87-3.46,4.98-5.98,8.75-7.09l27.55-8.16c-.02,.21-.03,.43-.04,.64l.02,1.67c.06,1.07,.21,2.14,.38,3.2l-16.23,14.32Zm24.13-29.18c1.16,0,2.18,.89,2.68,2.17-.02,0-.04,0-.06,0-.15-.03-.3-.05-.45-.06-.05,0-.1-.01-.15-.02-.2-.02-.39-.03-.59-.03h-2.86c-.2,0-.4,.01-.59,.03-.05,0-.1,.01-.15,.02-.15,.02-.3,.04-.45,.06-.02,0-.04,0-.06,0,.5-1.28,1.52-2.17,2.68-2.17Zm-12.86-.28l6.94,4.24c-.21,.21-.42,.44-.64,.7l-6.31-4.94Zm17.4,43.69l-.56,1.66-1.43,4.27-2.54,7.58-2.54-7.58-1.43-4.27-.56-1.66,.69-2.61,1.12-4.27,.52-1.96c.03-.13,.04-.26,.03-.39l-.19-1.92-.48-4.83-.22-2.26c.99,.43,2.05,.65,3.07,.65s2.08-.21,3.07-.65l-.22,2.26-.48,4.83-.19,1.92c-.01,.13,0,.26,.03,.39l.52,1.96,1.12,4.27,.69,2.61Zm.99-27.73c-.19,1.13-.39,2.29-.51,3.46-.32,3.08-2.75,4.46-5.02,4.46s-4.7-1.38-5.02-4.46c-.12-1.17-.32-2.34-.51-3.46-.5-2.96-.97-5.75-.09-8.4,.36-1.08,1.11-1.95,2.07-2.48,.15-.08,.31-.16,.48-.23h.02c.16-.07,.33-.12,.49-.17h.04c.16-.05,.33-.08,.5-.11,.03,0,.06,0,.09-.01,.17-.02,.34-.03,.51-.03h2.86c.17,0,.34,.01,.51,.03,.03,0,.06,0,.09,.01,.17,.02,.33,.05,.5,.1h.04c.17,.06,.33,.11,.49,.17h.02c.16,.07,.32,.15,.48,.23,.95,.52,1.71,1.39,2.07,2.48,.88,2.65,.41,5.45-.09,8.4Zm1.04-11c-.2-.26-.41-.5-.63-.71l6.96-4.25-6.33,4.96Zm38.1,23.73c-.58,1.23-1.69,2.09-3.03,2.34l-6.88,1.32c-3.78,.73-7.75-.36-10.63-2.9l-16.23-14.32c.17-1.06,.32-2.13,.38-3.2l.02-1.67c0-.21-.02-.43-.04-.64l27.55,8.16c3.77,1.12,6.88,3.63,8.75,7.09,.65,1.2,.69,2.59,.1,3.83Z"/>
  </g>
</svg>