<?xml version="1.0" encoding="UTF-8"?>
<svg id="Layer_1" data-name="Layer 1" xmlns="http://www.w3.org/2000/svg" viewBox="0 0 67.27 98.53">
  <defs>
    <style>
      .cls-1 {
        fill: #001457;
      }

      .cls-2 {
        fill: #fff;
      }

      .cls-3 {
        fill: #20aa4d;
      }
    </style>
  </defs>
  <g id="Mouse-Rat">
    <g>
      <path class="cls-2" d="M45.89,24.03c-.85-.8-6.53-3.02-10.13-4.37h1c0-10.3-5.19-18.65-11.6-18.65S13.56,9.35,13.56,19.65h.56c-3.6,1.36-9.28,3.57-10.13,4.37-.89,.22-4.66,3.77-2.15,6.81,1.45,1.17,3.48,2.33,5.84,2.99h-.61c-3.37,7.36-4.39,15.91-4.21,24.24,.14,6.5,1.04,13.15,3.86,18.75,2.46,4.89,6.36,8.78,10.89,10.89,6.17,2.86,12.63,2.04,18.37-2,4.39-3.09,7.85-7.94,9.64-13.53,1.53-4.77,1.85-9.95,1.88-15.05,.04-8.08-.72-16.46-4.26-23.42h-.66c2.2-.67,4.09-1.77,5.45-2.87,2.52-3.03-1.26-6.59-2.15-6.81Zm-29.98,9.66v.11h-.33c.11-.03,.22-.07,.33-.11Zm17.51,.05v-.25c.23,.09,.46,.17,.69,.24h-.69Z"/>
      <g>
        <path class="cls-3" d="M25.16,1c-.64,0-1.27,.11-1.89,.27,5.51,1.45,9.71,9.12,9.71,18.38h3.78c0-10.3-5.19-18.65-11.6-18.65Z"/>
        <path class="cls-3" d="M45.89,24.03c-1.26-1.18-13.1-5.48-13.1-5.48l-.32,.68c3.56,1.36,8.33,3.26,9.1,3.99,.89,.22,4.66,3.77,2.15,6.81-2.26,1.83-5.96,3.63-10.09,3.55,5.78,2.12,11.38-.29,14.4-2.73,2.52-3.03-1.26-6.59-2.15-6.81Z"/>
        <path class="cls-3" d="M43.24,33.71l-6.46,.02c3.52,6.96,4.28,15.33,4.25,23.4-.02,5.09-.35,10.27-1.88,15.05-1.79,5.59-5.25,10.44-9.64,13.53-2.45,1.72-5.03,2.86-7.67,3.37,4.83,.94,9.7-.25,14.14-3.37,4.39-3.09,7.85-7.94,9.64-13.53,1.53-4.77,1.85-9.95,1.88-15.05,.04-8.08-.72-16.46-4.26-23.42Z"/>
      </g>
    </g>
    <path class="cls-1" d="M65.62,59.95c-.1-.59-.18-1.1-.25-1.57-1.34-6.85-5.15-13.96-7.42-18.21-.87-1.63-1.63-3.03-1.82-3.68-.41-1.09-.99-4.95,1.61-8.27,.38-.48,.29-1.17-.19-1.55-.48-.38-1.17-.29-1.55,.19-3.25,4.13-2.5,8.91-1.97,10.33,.23,.79,.92,2.08,1.96,4.03,2.22,4.14,5.93,11.06,7.19,17.52,.05,.42,.14,.95,.25,1.58,1.03,6.15,3.77,22.48-13.43,31.31-12.45,6.16-20.6,.72-23.06-1.35,3.29-.35,6.54-1.6,9.6-3.75,4.59-3.23,8.15-8.22,10.01-14.04,1.66-5.17,1.9-10.66,1.92-15.35,.03-6.28-.37-15.4-3.98-23.07,1.64-.69,3.07-1.57,4.15-2.45l.14-.14c1.07-1.29,1.35-2.82,.83-4.42-.61-1.87-2.24-3.47-3.24-3.9-1.18-.86-5.19-2.49-8.63-3.81-.03-2.73-.41-5.31-1.09-7.66l6.31-1.01s.01,0,.02,0l5.7-.91c.55-.09,.92-.6,.83-1.15-.09-.55-.6-.92-1.15-.83l-7.42,1.18s-.01,0-.02,0l-4.76,.76c-.05,0-.09,.04-.14,.05-.17-.45-.35-.9-.54-1.33l3.9-1.47h.01l9.48-3.57c.52-.19,.78-.77,.58-1.29-.19-.52-.77-.78-1.29-.58l-9.91,3.72h-.01l-3.68,1.39c-.22-.38-.44-.76-.68-1.11l5.59-3.71c.46-.31,.59-.93,.28-1.39-.31-.46-.93-.58-1.39-.28l-5.69,3.78C30.6,1.48,27.99,0,25.17,0s-5.28,1.39-7.35,3.72L12.45,.17c-.46-.31-1.08-.18-1.39,.28-.31,.46-.18,1.08,.28,1.39l5.23,3.47c-.26,.38-.51,.78-.75,1.19l-3.27-1.23h0L2.66,1.54c-.52-.19-1.09,.07-1.29,.58s.07,1.09,.58,1.29l9.49,3.57h0l3.46,1.3c-.2,.45-.39,.91-.58,1.38l-5.3-.85s-.06-.03-.09-.03l-6.47-1.01c-.55-.09-1.06,.28-1.15,.83-.09,.55,.28,1.06,.83,1.15l5.64,.88s.05,.03,.08,.03l5.81,.93c-.67,2.32-1.06,4.88-1.11,7.57-3.53,1.35-7.85,3.08-9.08,3.98-1,.44-2.63,2.03-3.24,3.9-.53,1.61-.24,3.14,.83,4.42l.14,.14c1.18,.96,2.76,1.92,4.6,2.64-2.82,6.55-4.16,14.56-3.96,23.83,.17,7.95,1.47,14.23,3.97,19.18,2.57,5.11,6.61,9.14,11.36,11.34,2.32,1.08,4.71,1.64,7.1,1.74,0,.26,.09,.52,.29,.73,.1,.11,2.59,2.73,7.1,4.35,1.89,.68,4.32,1.23,7.22,1.23,3.43,0,7.51-.78,12.11-3.06,18.65-9.57,15.72-27.06,14.61-33.65ZM7.62,76.37c-2.36-4.69-3.59-10.68-3.75-18.33-.2-9.07,1.11-16.86,3.87-23.18,1.25,.33,2.57,.54,3.96,.54,3.6,0,7.54-1.33,11.23-5.13,.38-.4,.38-1.03-.02-1.41-.4-.39-1.03-.38-1.41,.02-7.06,7.27-15.17,4.23-18.93,1.24-.52-.67-.68-1.4-.47-2.22,.39-1.56,1.86-2.79,2.15-2.91l.26-.07,.19-.17c.73-.67,7.06-3.2,12.76-5.27,.52-.19,.79-.76,.6-1.28-.19-.52-.76-.79-1.28-.6-.53,.19-1.28,.47-2.16,.79,.39-9.15,4.97-16.4,10.56-16.4s10.23,7.34,10.57,16.57c-1.07-.4-1.99-.74-2.6-.96-.52-.19-1.09,.08-1.28,.6-.19,.52,.08,1.09,.6,1.28,5.69,2.06,12.02,4.6,12.76,5.27l.15,.17,.25,.06c.33,.14,1.8,1.36,2.19,2.92,.21,.82,.05,1.55-.47,2.22-3.75,2.99-11.87,6.02-18.93-1.24-.39-.4-1.02-.41-1.41-.02-.4,.38-.41,1.02-.02,1.41,3.69,3.8,7.63,5.13,11.23,5.13,1.56,0,3.04-.26,4.43-.66,3.51,7.34,3.9,16.25,3.87,22.38-.02,4.53-.25,9.83-1.83,14.74-1.73,5.41-5.02,10.04-9.26,13.02-5.59,3.93-11.59,4.59-17.37,1.91-4.34-2.02-8.04-5.72-10.42-10.43Z"/>
  </g>
</svg>