<?xml version="1.0" encoding="UTF-8"?>
<svg id="Layer_1" data-name="Layer 1" xmlns="http://www.w3.org/2000/svg" viewBox="0 0 59.52 76.37">
  <defs>
    <style>
      .cls-1 {
        fill: #001457;
      }

      .cls-2 {
        fill: #fff;
      }

      .cls-3 {
        fill: #20aa4d;
      }
    </style>
  </defs>
  <g id="Spider">
    <g>
      <path class="cls-2" d="M31.35,24.71v-7.07c0-.75,.96-1.36,2.14-1.36s2.14,.61,2.14,1.36v8.02"/>
      <path class="cls-2" d="M23.61,24.71v-7.07c0-.75,.96-1.36,2.14-1.36s2.14,.61,2.14,1.36v8.02"/>
      <path class="cls-2" d="M32.4,43.02l-.12,4.4c0,.51,.35,.95,.84,1.07,.03,0,2.78,.71,5.2,2.77,3.14,2.69,4.29,6.37,3.41,10.96-.89,4.64-3.16,7.89-6.74,9.65-2.71,1.34-5.22,1.3-5.24,1.3-.02,0-.04,0-.06,0-.03,0-2.53,.04-5.25-1.3-3.58-1.77-5.85-5.01-6.74-9.65-.88-4.59,.26-8.27,3.41-10.96,2.42-2.07,5.17-2.77,5.2-2.77,.49-.12,.84-.56,.84-1.07v-3.64l5.25-.76Z"/>
      <path class="cls-2" d="M28.76,41.44h1.9c1.15,0,1.82,.51,2.35,.93,.63,.48,1.22,.94,3.1,.77,2.67-.24,4.43-1.04,4.43-9.65,0-7.4-9.72-7.61-10.83-7.61s-10.83,.21-10.83,7.61c0,8.62,1.75,9.42,4.43,9.65,1.88,.17,2.47-.29,3.1-.77,.54-.41,1.2-.93,2.35-.93Z"/>
    </g>
    <g>
      <path class="cls-3" d="M38.31,51.26c-2.42-2.07-5.17-2.77-5.2-2.77-.49-.12-.84-.56-.84-1.07l.12-4.4-3.82,.55v3.36c0,.51,.35,.95,.84,1.07,.03,0,2.78,.71,5.2,2.77,3.14,2.69,4.29,6.37,3.41,10.96-.89,4.64-3.16,7.89-6.74,9.65-2.03,1-3.94,1.23-4.79,1.28,1.8,.52,3.16,.5,3.18,.5,.02,0,.04,0,.06,0,.02,0,2.53,.04,5.24-1.3,3.58-1.77,5.85-5.01,6.74-9.65,.88-4.59-.26-8.27-3.41-10.96Z"/>
      <path class="cls-3" d="M29.71,25.87c-.18,0-.58,0-1.13,.05,3.24,.52,8.07,2.16,8.07,7.37,0,7.11-1.2,8.89-3.11,9.43,.52,.31,1.2,.53,2.58,.41,2.67-.24,4.43-1.04,4.43-9.65,0-7.4-9.72-7.61-10.83-7.61Z"/>
      <path class="cls-3" d="M33.48,16.29c-.35,0-.68,.06-.97,.16,.69,.23,1.16,.68,1.16,1.2v7.59l1.95,.43v-8.02c0-.75-.96-1.36-2.14-1.36Z"/>
      <path class="cls-3" d="M25.75,16.29c-.35,0-.68,.06-.97,.16,.69,.23,1.16,.68,1.16,1.2v7.59l1.95,.43v-8.02c0-.75-.96-1.36-2.14-1.36Z"/>
    </g>
    <path class="cls-1" d="M58.94,54.64l-4.94-2.59-2.23-4.7s-.03-.04-.04-.06c-.03-.09-.04-.18-.09-.26l-4.23-7.13s-.02-.02-.03-.03c-.03-.04-.07-.07-.1-.11-.06-.06-.1-.13-.17-.18-.12-.09-.26-.16-.42-.2l-4.21-1.02c.12-.93,.2-1.97,.24-3.16,.06-.07,.12-.14,.16-.22l3.95-7.33,6.77-7.09c.07-.08,.11-.17,.16-.25,.01-.02,.03-.03,.05-.05l2.49-4.39s.02-.07,.03-.1c.07-.09,.13-.2,.17-.31l1.12-3.38c.19-.58-.12-1.2-.7-1.39-.58-.19-1.2,.12-1.39,.7l-1.11,3.36s-.03,.02-.03,.04l-2.48,4.36-6.63,6.94s-.04,.04-.06,.07l-.07,.07s-.02,.03-.03,.05c-.04,.05-.1,.09-.13,.16l-2.54,4.71c-.34-1.33-.96-2.51-1.88-3.51,.03-.1,.06-.19,.06-.3l.05-8.61,3.96-6.15c.08-.12,.14-.26,.17-.42l.99-6.92s0-.09,0-.13c0-.09,0-.17,0-.26,0-.04-.02-.07-.03-.11-.02-.07-.02-.14-.06-.21l-1.97-3.89c-.28-.54-.94-.76-1.48-.48-.54,.28-.76,.94-.48,1.48l1.82,3.58-.91,6.35-4.01,6.23c-.11,.17-.15,.37-.16,.56,0,.04-.03,.08-.03,.12l-.05,7.43c-.52-.32-1.08-.61-1.69-.87-.04-.02-.08-.03-.11-.04v-7.33c0-1.32-1.38-2.36-3.14-2.36s-3.14,1.03-3.14,2.36v6.04c-.3-.01-.51-.02-.64-.02-.14,0-.44,0-.83,.02v-6.05c0-1.32-1.38-2.36-3.14-2.36s-3.14,1.03-3.14,2.36v7.41c-.55,.23-1.05,.49-1.52,.77l-.05-7.37s-.02-.08-.03-.12c0-.19-.04-.39-.16-.56l-4.01-6.23-.91-6.35,1.82-3.58c.28-.54,.06-1.21-.48-1.48-.54-.28-1.21-.06-1.48,.48l-1.97,3.89c-.03,.07-.04,.14-.06,.21-.01,.04-.02,.07-.03,.11-.01,.09-.02,.17,0,.26,0,.05-.01,.09,0,.13l.99,6.92c.03,.16,.09,.29,.17,.42l3.96,6.15,.05,8.61c0,.07,.03,.14,.04,.21-.93,.99-1.58,2.16-1.93,3.48l-2.47-4.59c-.03-.06-.09-.1-.13-.16-.01-.01-.02-.03-.03-.05l-.07-.07s-.04-.05-.06-.07l-6.63-6.94-2.48-4.36s-.02-.02-.03-.04l-1.11-3.36c-.19-.58-.82-.89-1.39-.7-.58,.19-.89,.81-.7,1.39l1.12,3.38c.04,.12,.1,.22,.17,.31,.01,.03,.02,.07,.03,.1l2.49,4.39s.03,.03,.05,.05c.05,.09,.09,.18,.16,.25l6.77,7.09,3.95,7.33s.04,.05,.06,.08c.04,1.26,.12,2.35,.25,3.32l-4.12,1c-.16,.04-.3,.11-.42,.2-.07,.05-.12,.12-.17,.18-.03,.04-.08,.07-.1,.11,0,.01-.02,.02-.03,.03l-4.23,7.13c-.05,.08-.06,.17-.09,.26-.01,.02-.03,.04-.04,.06l-2.23,4.7-4.94,2.59c-.54,.29-.74,.96-.45,1.49,.2,.37,.58,.58,.97,.58,.18,0,.36-.04,.52-.13l5.22-2.73s.07-.06,.11-.09c.18-.11,.33-.27,.43-.47l2.37-5s.02-.08,.03-.13h0l4-6.75,3.6-.87c.19,.69,.43,1.3,.71,1.82h0l-6.98,9.25c-.24,.18-.4,.45-.43,.77l-1.29,12.61c0,.06,.01,.12,.02,.18,0,.04-.03,.08-.03,.13v9.97c0,.61,.49,1.1,1.1,1.1s1.1-.49,1.1-1.1v-9.97s-.01-.04-.01-.07c0-.01,.01-.03,.01-.04l1.25-12.2,6.72-8.9c1.17,.9,2.51,1.15,3.56,1.24,.71,.06,1.31,.05,1.82-.01v1.27c-1.14,.39-3.24,1.27-5.2,2.92-2.64,2.23-5.52,6.31-4.21,13.11,1.29,6.72,5.08,9.84,8.03,11.26,3.05,1.48,5.81,1.48,6.15,1.48h.07c.55,0,3.19-.08,6.08-1.48,2.95-1.43,6.73-4.54,8.03-11.26,1.31-6.8-1.57-10.88-4.21-13.11-1.96-1.66-4.07-2.53-5.2-2.92v-1.27c.28,.03,.57,.06,.91,.06,.28,0,.59-.01,.91-.04,1.06-.09,2.44-.36,3.62-1.29l6.76,8.95,1.25,12.2s0,.03,.01,.04c0,.02-.01,.04-.01,.07v9.97c0,.61,.49,1.1,1.1,1.1s1.1-.49,1.1-1.1v-9.97s-.02-.09-.03-.13c0-.06,.03-.12,.02-.18l-1.29-12.61c-.03-.32-.2-.59-.43-.77l-7.04-9.32c.27-.51,.5-1.1,.68-1.78l3.68,.9,4,6.74h0c.01,.05,.01,.09,.03,.13l2.37,5c.1,.2,.25,.36,.43,.47,.04,.03,.06,.07,.11,.09l5.22,2.73c.17,.09,.35,.13,.52,.13,.39,0,.77-.21,.97-.58,.29-.54,.09-1.21-.45-1.49ZM32.34,17.68c.05-.11,.46-.39,1.14-.39s1.09,.28,1.14,.36v6.67c-.81-.21-1.58-.35-2.27-.45v-6.19Zm-6.6-.39c.68,0,1.09,.28,1.14,.36v6.25c-.7,.1-1.47,.25-2.27,.47v-6.69c.04-.11,.46-.39,1.14-.39Zm7.37,31.19s2.78,.71,5.2,2.77c3.14,2.69,4.29,6.37,3.41,10.96-.89,4.64-3.16,7.89-6.74,9.65-2.71,1.34-5.22,1.3-5.24,1.3-.02,0-.04,0-.06,0-.03,0-2.53,.04-5.25-1.3-3.58-1.77-5.85-5.01-6.74-9.65-.88-4.59,.26-8.27,3.41-10.96,2.42-2.07,5.17-2.77,5.2-2.77,.49-.12,.84-.56,.84-1.07v-2.86c.23-.15,.43-.3,.61-.44,.45-.35,.63-.47,1.01-.47h1.9c.38,0,.55,.12,1.01,.47,.18,.14,.38,.29,.61,.44v2.85c0,.51,.35,.95,.84,1.07Zm2.99-5.34c-1.88,.16-2.47-.29-3.1-.77-.54-.41-1.2-.93-2.35-.93h-1.9c-1.15,0-1.82,.51-2.35,.93-.63,.48-1.22,.94-3.1,.77-2.67-.24-4.43-1.04-4.43-9.65,0-7.4,9.72-7.61,10.83-7.61s10.83,.21,10.83,7.61c0,8.62-1.75,9.42-4.43,9.65Z"/>
  </g>
</svg>