<?xml version="1.0" encoding="UTF-8"?>
<svg id="Layer_1" data-name="Layer 1" xmlns="http://www.w3.org/2000/svg" viewBox="0 0 46.95 82.16">
  <defs>
    <style>
      .cls-1 {
        fill: #001457;
      }

      .cls-2 {
        fill: #20aa4d;
      }
    </style>
  </defs>
  <g id="Termite">
    <path class="cls-2" d="M34.04,48.49c-.31-1.4-.72-2.77-1.22-4.11-.3-.81-1.55-2.45-.79-3.18,.62-.6,.86-1.31,.71-2.11-.33-1.79-1.93-2.33-3.02-3.55-.3-.34-.54-.83-.35-1.24,.1-.2,.29-.35,.36-.57,.09-.29-.07-.59-.24-.84-.39-.56-.8-2.55-1.32-3.81,1.4-.93,2.38-2.49,2.38-4.89,0-.96-.49-3.12-.46-2.94-.44-1.31-.92-2.22-.92-2.22-1.21-2.24-3.1-3.95-5.16-3.95-.71,0-1.4,.22-2.06,.58,1.75,.36,3.33,1.91,4.38,3.87,0,0,.49,.9,.92,2.22-.02-.18,.46,1.99,.46,2.94,0,2.79-1.33,4.45-3.1,5.3,.35,1.19,.65,2.53,.94,2.94,.17,.24,.32,.53,.23,.8-.06,.21-.25,.35-.34,.55-.19,.39,.04,.86,.33,1.19,1.04,1.17,2.58,1.68,2.9,3.4,.14,.77-.09,1.45-.68,2.02-.73,.7,.46,2.28,.75,3.05,.48,1.29,.87,2.61,1.17,3.95,.6,2.68,.84,5.45,.72,8.19-.17,4.2-1.17,8.34-2.8,12.21-1.47,3.47-3.01,7.12-5.29,10.15-.37,.48-.87,.81-1.43,.98,.21,.31,.42,.61,.65,.91,.55,.72,1.38,1.14,2.29,1.14s1.75-.42,2.29-1.14c2.39-3.16,3.99-6.96,5.52-10.58,1.7-4.03,2.74-8.35,2.92-12.73,.12-2.86-.13-5.74-.76-8.54Z"/>
    <path class="cls-1" d="M46.34,50.01l-2.91-1.38-3.15-8.45c-.01-.16-.01-.33-.05-.47-.19-.8-.76-1.33-1.49-1.39-1.02-.08-2.3,.64-4.39,2.54,.18-.63,.21-1.29,.08-1.98-.19-1.02-.71-2-1.45-2.83,3.36-3.03,5.19-5.67,5.09-7.33l.35-4.45s0-.04,0-.07c.02-.05,.06-.09,.07-.14l1.96-5.58c.2-.57-.1-1.2-.68-1.41-.57-.2-1.2,.1-1.41,.68l-1.96,5.58c-.04,.11-.04,.21-.04,.32-.07,.13-.13,.28-.14,.45l-.25,3.15c-.63,.15-1.67,.68-3.91,2.48-.68,.55-1.32,1.08-1.8,1.5-.19-.2-.4-.4-.6-.58,.14-.1,.28-.21,.41-.32,1.72-1.48,2.62-3.61,2.62-6.17,0-2.07-.6-4.26-1.62-6.17,.74-2,4.06-11.27,4.5-16.8,.05-.61-.41-1.14-1.01-1.19-.61-.05-1.14,.41-1.19,1.01-.34,4.32-2.67,11.39-3.84,14.72-.35-.41-.74-.79-1.14-1.12,.59-.64,.95-1.35,1.07-2.15,.23-1.52-.45-3.22-2-5.04-.4-.46-1.09-.52-1.56-.12-.46,.4-.52,1.09-.12,1.55,1.1,1.3,1.62,2.43,1.49,3.29-.08,.55-.43,.95-.8,1.26-.8-.35-1.65-.56-2.54-.56s-1.74,.2-2.54,.56c-.37-.3-.72-.71-.8-1.26-.13-.85,.39-1.99,1.49-3.29,.4-.46,.34-1.16-.12-1.56-.46-.39-1.16-.34-1.56,.12-1.55,1.82-2.22,3.52-2,5.04,.12,.8,.48,1.51,1.07,2.15-.4,.34-.78,.71-1.14,1.12-1.17-3.33-3.49-10.39-3.84-14.72C14.47,.41,13.94-.05,13.33,0c-.61,.05-1.06,.58-1.01,1.19,.44,5.53,3.76,14.8,4.5,16.8-1.02,1.9-1.62,4.1-1.62,6.17,0,2.56,.91,4.7,2.62,6.17,.13,.11,.27,.22,.41,.32-.3,.27-.6,.57-.87,.88-.49-.43-1.28-1.11-2.15-1.8-2.26-1.81-3.3-2.33-3.93-2.48l-.25-3.15c-.01-.16-.06-.31-.14-.45,0-.11,0-.21-.04-.32l-1.96-5.58c-.2-.58-.83-.88-1.41-.68-.57,.2-.88,.83-.68,1.41l1.96,5.58c.02,.05,.05,.09,.07,.14,0,.02-.01,.04,0,.07l.36,4.61c0,.11,0,.23,.03,.35v.1c.01,.08,.05,.14,.07,.21,.01,.06,.03,.12,.05,.17v.02c.52,1.7,2.37,4.04,5.31,6.63-.6,.76-1.02,1.62-1.19,2.5-.19,1.03-.03,2.02,.45,2.9-2.33-2.35-4-3.87-5.39-3.75-.37,.03-.79,.23-1.1,.63-.03,.03-.06,.06-.09,.1-.12,.19-.23,.4-.3,.68-.01,.06-.02,.13-.03,.2l-3.47,9-2.92,1.38c-.55,.27-.77,.93-.5,1.48,.19,.39,.58,.61,.99,.61,.16,0,.33-.04,.49-.11l2.95-1.4c.45-.08,.82-.43,.89-.9l2.5-6.48c.83,1.43,2.21,2.95,4.31,4.22-.26,1.22-.46,2.54-.6,3.9-.1,.02-.19,.04-.29,.09-1.36,.67-2.72,1.38-3.73,1.95-.51,.29-.92,.53-1.2,.72-.25,.17-.81,.55-.88,1.14,0,.03,0,.05,0,.08,0,.08,0,.16,.03,.25,0,.04,0,.09,.01,.13l3.17,18.05-1.22,1.63c-.34,.51-.2,1.19,.31,1.53,.19,.12,.4,.18,.61,.18,.36,0,.71-.17,.92-.49l1.44-1.92c.08-.11,.13-.24,.17-.37,0-.03,.02-.06,.03-.09,0-.06,0-.13,0-.2,0-.09,0-.18-.03-.27,0,0,0-.01,0-.02l-2.84-16.15c.43,.13,.94,.23,1.51,.23,.56,0,1.18-.1,1.84-.34,.1,2.12,.38,4.19,.84,6.01,1.14,4.48,4.81,12.93,7.65,16.7,.95,1.25,2.39,1.97,3.96,1.97,1.57,0,3.01-.72,3.96-1.97,2.85-3.77,6.52-12.22,7.66-16.7,.45-1.77,.72-3.77,.83-5.83,.43,.1,.84,.15,1.22,.15,.56,0,1.06-.09,1.49-.22l-2.84,16.15s0,.01,0,.02c-.02,.09-.03,.18-.03,.27,0,.07-.01,.13,0,.2,0,.03,.02,.06,.03,.09,.03,.14,.09,.26,.17,.38l1.44,1.92c.21,.32,.56,.49,.92,.49,.21,0,.42-.06,.61-.18,.51-.34,.65-1.02,.31-1.53l-1.22-1.63,3.17-18.05h0c.29-.86-.51-1.4-.82-1.61-.29-.19-.69-.43-1.2-.72-.92-.52-2.13-1.15-3.36-1.77-.15-1.59-.38-3.13-.7-4.52,1.66-1.1,2.86-2.36,3.64-3.58l2.31,6.19c.07,.48,.44,.82,.89,.9l2.95,1.4c.16,.08,.32,.11,.49,.11,.41,0,.8-.23,.99-.61,.27-.55,.05-1.21-.5-1.48Zm-34.9,5.18c-.14,0-.28,.04-.41,.1-1.02,.46-1.87,.34-2.48,.1,.71-.4,1.72-.95,2.92-1.56-.02,.45-.03,.91-.03,1.36Zm23.99-25.23c-.54,.93-1.67,2.41-3.85,4.39,.05-.41,.01-.83-.12-1.26,1.39-1.21,2.92-2.44,3.97-3.13Zm-18.03-5.81c0-.96,.46-2.94,.46-2.94,.16-.69,.93-2.22,.93-2.22,1.21-2.24,3.1-3.95,5.16-3.95s3.94,1.71,5.16,3.95c0,0,.49,.9,.92,2.22-.02-.18,.46,1.99,.46,2.94,0,4.45-3.38,6.03-6.54,6.03s-6.54-1.58-6.54-6.03Zm-5.57,5.81c1.18,.78,2.97,2.24,4.48,3.59-.07,.42-.04,.84,.08,1.24-.04,.03-.08,.06-.12,.09-2.57-2.25-3.85-3.91-4.44-4.91Zm1,15.22c-2.58-1.74-3.46-3.71-3.63-4.7,.97,.64,2.6,2.3,3.47,3.18,.18,.18,.35,.35,.51,.52-.12,.32-.24,.66-.35,1.01Zm21.36,12.47c-.1,1.85-.35,3.65-.77,5.29-.19,.74-.46,1.61-.78,2.55l-.6,1.65c-1.59,4.19-4,9.2-5.9,11.72-.52,.7-1.33,1.09-2.2,1.09s-1.67-.4-2.2-1.09c-1.91-2.52-4.31-7.54-5.9-11.72l-.6-1.65c-.32-.94-.59-1.8-.78-2.55-.42-1.63-.66-3.44-.77-5.29l-.05-1.5c-.04-2.38,.14-4.76,.49-6.87l.27-1.45c.39-1.82,.91-3.36,1.52-4.38l.7-1.3c.02-.31-.09-.62-.33-.85-.59-.57-.82-1.25-.68-2.02,.21-1.15,1.24-2.33,2.53-2.94l.83-1.21c-.02-.21-.1-.42-.24-.59-.32-.39-.33-.66-.05-1.13,.34-.57,1.01-1.14,1.62-1.65,1.1,.41,2.32,.62,3.64,.62s2.55-.22,3.64-.62c.61,.51,1.27,1.09,1.62,1.66,.28,.47,.27,.74-.05,1.13-.14,.17-.22,.38-.24,.59l.83,1.21c1.28,.6,2.31,1.78,2.53,2.94,.14,.77-.09,1.45-.68,2.02-.24,.23-.35,.54-.33,.85l.7,1.3c.08,.13,.16,.28,.24,.43,.01,.04,.03,.07,.05,.11,.49,.99,.9,2.31,1.23,3.84l.27,1.45c.35,2.11,.53,4.49,.49,6.87l-.05,1.5Zm4.53-2.27c-.56,.22-1.34,.33-2.26-.02,0-.41,0-.81-.02-1.22,.92,.48,1.71,.9,2.28,1.23Zm-3.77-10.56c-.13-.38-.26-.75-.41-1.09,1.91-1.88,2.96-2.67,3.52-3-.18,.86-.96,2.5-3.12,4.09Z"/>
  </g>
</svg>