<?xml version="1.0" encoding="UTF-8"?>
<svg id="Layer_1" data-name="Layer 1" xmlns="http://www.w3.org/2000/svg" viewBox="0 0 64.79 58.8">
  <defs>
    <style>
      .cls-1 {
        fill: #001457;
      }

      .cls-2 {
        fill: #fff;
      }

      .cls-3 {
        fill: #20aa4d;
      }
    </style>
  </defs>
  <g id="Tick">
    <g>
      <path class="cls-2" d="M31.28,13.75s.04,.07,.05,.1c.17,.41,.57,.68,1.01,.68,.44,0,.84-.26,1.01-.67,.02-.04,.04-.09,.07-.13,.39,.69,.85,2.38,.96,3.57-.06-.02-.13-.04-.19-.05-.19-.04-.38-.07-.57-.1-.1-.01-.19-.04-.29-.05-.29-.03-.59-.05-.9-.05s-.6,.02-.9,.05c-.1,.01-.19,.03-.29,.05-.19,.03-.39,.05-.57,.1-.07,.02-.14,.04-.21,.06,.06-1.19,.44-2.84,.8-3.55Z"/>
      <path class="cls-2" d="M37.46,24.98c0,4.25-3.14,4.88-5.01,4.88s-5.01-.63-5.01-4.88c0-1.15,.23-2.38,.67-3.57,.84-1.01,1.82-1.67,2.91-1.97,.02,0,.03-.01,.05-.01,.19-.05,.39-.09,.59-.11,.03,0,.06-.01,.1-.02,.23-.03,.46-.04,.69-.04s.47,.02,.69,.04c.03,0,.07,.01,.1,.02,.2,.03,.4,.06,.59,.11,.02,0,.03,0,.05,.01,1.1,.3,2.07,.95,2.91,1.97,.44,1.19,.67,2.42,.67,3.57Z"/>
      <path class="cls-2" d="M39.61,43.05c-1.15,1.35-3.24,2-6.39,2h-1.56c-3.15,0-5.24-.66-6.39-2-1.96-2.3-1.42-6.84-.51-12.54,.2-1.24,.44-2.36,.71-3.4,.77,3.1,3.29,4.96,6.97,4.96s6.2-1.85,6.97-4.96c.27,1.03,.51,2.16,.71,3.4,.91,5.7,1.45,10.24-.51,12.54Z"/>
    </g>
    <g>
      <path class="cls-3" d="M33.44,13.73s-.05,.09-.07,.13c-.13,.32-.41,.54-.73,.63,.27,.76,.51,1.77,.61,2.61,.03,0,.07,0,.1,0,.1,.01,.19,.03,.29,.05,.19,.03,.39,.05,.57,.1,.06,.01,.13,.04,.19,.05-.11-1.19-.57-2.88-.96-3.57Z"/>
      <path class="cls-3" d="M40.13,30.51c-.2-1.24-.44-2.36-.71-3.4-.39,1.59-1.25,2.84-2.49,3.7,.88,5.56,1.37,9.98-.56,12.24-1.04,1.22-2.87,1.87-5.55,1.98,.28,.01,.55,.02,.84,.02h1.56c3.15,0,5.24-.66,6.39-2,1.96-2.3,1.42-6.84,.51-12.54Z"/>
      <path class="cls-3" d="M33.75,20.43c.29,.23,.56,.5,.78,.81,.72,1.03,.86,2.51,.86,3.74,0,3.53-2.17,4.56-3.97,4.81,.37,.05,.72,.07,1.04,.07,1.87,0,5.01-.63,5.01-4.88,0-1.15-.23-2.38-.67-3.57-.84-1.01-1.82-1.67-2.91-1.97-.02,0-.03-.01-.05-.01-.19-.05-.39-.09-.59-.11-.03,0-.06-.01-.1-.02-.23-.03-.46-.04-.69-.04s-.47,.02-.69,.04c-.03,0-.07,.01-.1,.02-.09,.01-.17,.03-.26,.05,.85,.17,1.67,.53,2.35,1.07Z"/>
    </g>
    <path class="cls-1" d="M63.51,36.74l-5.91,.98-5.16-3.04s-.09-.03-.14-.05c-.06-.04-.11-.1-.18-.13l-5.76-2.68c-.13-.09-.28-.16-.45-.19l-3.45-.51c-.05-.32-.1-.64-.15-.97-.2-1.25-.44-2.42-.73-3.5l2.48-1.64,5.92,.85h.03s.09,.01,.14,.01c.06,0,.12-.02,.18-.03,.04,0,.07,0,.11,0l6.16-1.74c.05-.01,.1-.03,.15-.05,.23-.1,.41-.29,.53-.5,0-.01,.02-.02,.02-.03l2.92-5.69s.05-.1,.06-.15c.18-.51-.04-1.08-.54-1.34-.54-.28-1.21-.07-1.49,.47l-2.71,5.29-5.47,1.54-6.09-.87c-.09-.01-.17,0-.26,.01-.05,0-.1,0-.15,0-.06,.01-.11,.04-.17,.07-.07,.03-.15,.04-.21,.09l-2.28,1.51c-.48-1.34-1.05-2.51-1.69-3.49l1.56-4.33s0-.03,0-.05l6.93-8.07c.05-.06,.07-.12,.1-.19l.02-.03c.05-.1,.09-.2,.11-.31,.01-.05,.01-.11,.02-.16,0-.06,0-.12-.01-.19-.01-.1-.04-.2-.08-.3,0-.02-.01-.03-.02-.05-.03-.06-.05-.13-.09-.19L42.72,.44c-.37-.49-1.06-.58-1.55-.22-.49,.37-.58,1.06-.22,1.54l4.5,5.98-6.48,7.55c-.12,.15-.19,.32-.22,.49-.02,.04-.05,.07-.07,.11l-1.13,3.13h0c-.09-.09-.18-.18-.28-.26-.13-.11-.28-.21-.41-.31-.09-.07-.18-.14-.27-.2,.13-1.81-.72-6.03-2.34-6.73-.5-.22-1.02-.23-1.51-.03-.14,.06-.28,.13-.4,.21-.12-.08-.25-.15-.4-.21-.49-.2-1.01-.19-1.51,.03-.29,.13-1.18,.51-1.82,3.31-.23,1.03-.43,2.41-.33,3.42-.09,.06-.18,.14-.27,.2-.14,.1-.28,.2-.41,.31-.1,.08-.19,.17-.28,.25h0l-1.13-3.13c-.03-.07-.08-.13-.12-.19-.04-.14-.11-.28-.21-.41l-6.48-7.55L23.9,1.77c.37-.49,.27-1.18-.22-1.54-.49-.37-1.18-.27-1.54,.22l-5.02,6.67c-.04,.06-.06,.12-.09,.19,0,.02-.02,.03-.02,.05-.04,.1-.07,.2-.08,.3,0,.06-.01,.12-.01,.19,0,.06,0,.11,.02,.16,.02,.11,.06,.21,.11,.31l.02,.03c.03,.06,.06,.13,.1,.19l6.98,8.13,1.55,4.31c-.64,.98-1.21,2.14-1.69,3.49l-2.28-1.51c-.13-.09-.28-.14-.42-.16-.15-.04-.31-.06-.47-.04l-6.09,.87-5.47-1.54-2.71-5.29c-.28-.54-.94-.75-1.49-.47-.49,.25-.71,.83-.54,1.34,.02,.05,.04,.1,.06,.15l2.92,5.69s.02,.02,.02,.03c.11,.22,.29,.4,.53,.5,.05,.02,.1,.04,.15,.05l6.16,1.74s.07,0,.11,0c.06,.01,.12,.03,.18,.03,.04,0,.09,0,.14,0h.03l5.98-.86,2.54,1.68c-.28,1.08-.53,2.24-.73,3.5-.05,.33-.1,.65-.15,.97l-3.45,.51s-.08,.03-.12,.04c-.13,0-.27,.04-.4,.1l-5.8,2.69c-.07,.03-.12,.09-.18,.13-.05,.02-.1,.02-.14,.05l-5.16,3.04-5.91-.98c-.6-.1-1.17,.31-1.27,.91-.09,.55,.24,1.07,.75,1.23,.05,.02,.1,.03,.16,.04l6.31,1.05s.05,0,.08,0c.08,0,.16,0,.24,0,.07,0,.13-.02,.19-.04,.02,0,.05,0,.07-.01,.05-.02,.1-.04,.14-.07l.09-.05h0l5.42-3.19s.04-.04,.06-.05c.02,0,.05-.02,.07-.03l5.71-2.65h0l2.79-.41c-.1,.79-.19,1.55-.26,2.28l-3.39,2.72c-.16,.13-.26,.3-.33,.49-.03,.06-.08,.11-.1,.17l-2.06,6.06s0,.07-.01,.11c-.05,.11-.1,.23-.11,.37l-.61,6.09-3,5.47c-.29,.54-.09,1.21,.44,1.5,.49,.26,1.09,.12,1.41-.31,.03-.04,.06-.09,.09-.14l3.01-5.49c.09-.12,.16-.24,.19-.39,.01-.05,.02-.1,.03-.16l.63-6.28s.02-.05,.03-.07l2-5.88,1.68-1.34c.06,2.39,.57,4.36,1.86,5.87,1.59,1.87,4.23,2.78,8.07,2.78h1.56c3.83,0,6.47-.91,8.07-2.78,1.29-1.51,1.8-3.47,1.86-5.87l1.67,1.34,1.98,5.81s.02,.05,.03,.07l.63,6.28c0,.05,.01,.11,.03,.16,.04,.15,.11,.27,.19,.39l3.01,5.49s.06,.09,.09,.14c.32,.43,.92,.57,1.41,.31,.54-.29,.73-.96,.44-1.5l-3-5.47-.61-6.09c-.01-.13-.06-.25-.11-.37,0-.04,0-.07-.01-.11l-2.06-6.06c-.02-.05-.06-.09-.08-.14-.03-.08-.08-.15-.13-.23h-.01c-.05-.09-.1-.16-.17-.22l-3.39-2.72c-.06-.73-.15-1.49-.26-2.28l2.57,.38s.01,.01,.02,.02l5.8,2.69s.05,.02,.07,.03c.02,.02,.04,.04,.06,.05l5.42,3.19h0l.09,.06s.1,.05,.14,.07c.02,0,.04,0,.07,.01,.06,.02,.13,.03,.19,.04,.08,.01,.16,.02,.24,0,.03,0,.05,0,.08,0l6.31-1.05c.05,0,.11-.02,.16-.04,.51-.16,.84-.68,.75-1.23-.1-.6-.66-1.01-1.27-.91ZM31.28,13.75s.04,.07,.05,.1c.17,.41,.57,.68,1.01,.68,.44,0,.84-.26,1.01-.67,.02-.04,.04-.09,.07-.13,.39,.69,.85,2.38,.96,3.57-.06-.02-.13-.04-.19-.05-.19-.04-.38-.07-.57-.1-.1-.01-.19-.04-.29-.05-.29-.03-.59-.05-.9-.05s-.6,.02-.9,.05c-.1,.01-.19,.03-.29,.05-.19,.03-.39,.05-.57,.1-.07,.02-.14,.04-.21,.06,.06-1.19,.44-2.84,.8-3.55Zm-3.18,7.66c.84-1.01,1.82-1.67,2.91-1.97,.02,0,.03-.01,.05-.01,.19-.05,.39-.09,.59-.11,.03,0,.06-.01,.1-.02,.23-.03,.46-.04,.69-.04s.47,.02,.69,.04c.03,0,.07,.01,.1,.02,.2,.03,.4,.06,.59,.11,.02,0,.03,.01,.05,.01,1.1,.3,2.07,.95,2.91,1.97,.44,1.19,.67,2.42,.67,3.57,0,4.25-3.14,4.88-5.01,4.88s-5.01-.63-5.01-4.88c0-1.15,.23-2.38,.67-3.57Zm11.51,21.64c-1.15,1.35-3.24,2-6.39,2h-1.56c-3.15,0-5.24-.66-6.39-2-1.96-2.3-1.42-6.84-.51-12.54,.2-1.24,.44-2.36,.71-3.4,.77,3.1,3.29,4.96,6.97,4.96s6.2-1.85,6.97-4.96c.27,1.03,.51,2.16,.71,3.4,.91,5.7,1.45,10.24-.51,12.54Z"/>
  </g>
</svg>