<?xml version="1.0" encoding="UTF-8"?>
<svg width="800" height="800" viewBox="0 0 512 512" xmlns="http://www.w3.org/2000/svg">
  <g transform="translate(42.667, 42.667)">
    <path fill="#1cdc38" d="M213.333,0 C331.155,0 426.667,95.512 426.667,213.333 C426.667,331.154 331.155,426.667 213.333,426.667 C95.513,426.667 0,331.154 0,213.333 C0,95.512 95.513,0 213.333,0 Z M234.713,192 L192.047,192 L192.047,320 L234.713,320 L234.713,192 Z M213.55,101.333 C197.996,101.333 186.713,112.554 186.713,127.704 C186.713,143.468 197.699,154.667 213.55,154.667 C228.785,154.667 240.047,143.468 240.047,128 C240.047,112.554 228.785,101.333 213.55,101.333 Z"/>
  </g>
</svg>
