<svg width="145" height="25" viewBox="0 0 145 25" fill="none" xmlns="http://www.w3.org/2000/svg">
<path d="M11.328 24.416C4.47997 24.416 -2.92063e-05 21.024 -2.92063e-05 14.336C-2.92063e-05 6.432 4.79997 0.768 12.896 0.768C19.104 0.768 23.008 3.744 23.232 9.792H15.936C15.744 7.648 14.816 6.432 12.704 6.432C9.27997 6.432 7.61597 9.952 7.58397 14.016C7.55197 16.608 8.57597 18.688 11.392 18.688C13.408 18.688 14.88 17.568 15.488 15.232H22.688C21.792 21.376 17.024 24.416 11.328 24.416ZM28.7835 24.416C25.8395 24.416 23.5035 22.752 23.5035 19.776C23.5035 15.36 26.8315 13.888 32.4315 13.888H34.7355L34.7995 13.504C35.0235 12.128 34.7675 11.168 33.1035 11.168C31.6955 11.168 31.1835 12.032 30.9595 12.96H25.0715C25.9035 8.832 28.8475 6.784 33.3915 6.784C39.0555 6.784 41.7115 9.216 40.9115 14.304L40.2075 18.752C39.8555 20.928 39.7595 22.592 39.9515 24H33.8395C33.7115 23.328 33.7115 22.592 33.7435 21.92C32.8155 23.232 31.3435 24.416 28.7835 24.416ZM31.4395 20.256C32.8155 20.256 33.8715 19.392 34.0635 18.144L34.2235 17.28H32.5915C30.5435 17.28 29.7755 17.728 29.7755 18.88C29.7755 19.648 30.3515 20.256 31.4395 20.256ZM42.415 24L46.223 -1.90735e-06H52.463L48.687 24H42.415ZM52.0087 24L55.8167 -1.90735e-06H62.0567L58.2807 24H52.0087ZM67.3487 24L69.1087 12.832C69.4927 10.4 69.6847 8.8 69.7487 7.264H75.8927C75.8927 8.096 75.8607 9.216 75.7327 10.208C76.9167 8.288 78.7407 6.784 81.4607 6.784C84.5647 6.784 86.9327 8.864 86.1327 13.92L84.5327 24H78.2287L79.7327 14.496C80.0207 12.704 79.4447 11.84 78.0047 11.84C76.4047 11.84 75.4127 12.832 75.0927 14.848L73.6527 24H67.3487ZM96.6592 24.416C92.1472 24.416 87.9552 22.048 87.9552 16.736C87.9232 11.008 91.9552 6.816 97.7472 6.816C102.259 6.816 106.451 9.216 106.451 14.592C106.451 20.416 102.451 24.416 96.6592 24.416ZM96.7552 19.776C99.0592 19.776 100.115 17.408 100.115 14.304C100.115 12.736 99.3792 11.456 97.6512 11.456C95.3472 11.456 94.2272 13.728 94.2272 16.768C94.2272 18.24 94.7712 19.776 96.7552 19.776ZM109.932 24L107.66 7.264H114.028L114.764 16.672L118.604 7.264H123.66L124.46 16.672L128.268 7.264H134.348L126.476 24H120.556L119.692 15.2L116.012 24H109.932ZM135.627 16.288L137.131 1.12H144.203L140.843 16.288H135.627ZM137.547 24.384C135.531 24.384 134.059 22.912 134.059 21.024C134.059 19.168 135.595 17.632 137.611 17.632C139.627 17.632 141.163 19.104 141.163 20.992C141.163 22.88 139.563 24.384 137.547 24.384Z" fill="#1CDC38"/>
</svg>
