<svg width="287" height="86" viewBox="0 0 287 86" fill="none" xmlns="http://www.w3.org/2000/svg">
<g filter="url(#filter0_d_17289_1750)">
<rect x="20" y="21" width="189" height="44" rx="22" fill="#64FF01"/>
</g>
<path d="M78.7534 57.9814C77.0015 58.1115 75.4567 57.4609 73.9591 56.6896C68.1757 53.697 63.7864 49.3661 60.9983 43.5111C60.3202 42.0892 59.8869 40.6115 60.0282 39.0316C60.2448 36.578 61.3751 34.7007 63.7487 33.7063C64.1726 33.5297 64.6624 33.474 65.1239 33.4647C65.7456 33.4647 66.2354 33.7899 66.5651 34.3104C67.5635 35.8903 68.2605 37.5725 68.4301 39.4498C68.4677 39.8959 68.3924 40.2955 68.1286 40.6766C67.6765 41.3457 67.2432 42.0334 66.8194 42.7212C66.5556 43.1394 66.5274 43.5669 66.7158 44.0502C67.4316 45.8253 68.5337 47.3308 69.9371 48.6319C71.1051 49.7007 72.4144 50.565 73.8366 51.2621C74.4206 51.5502 74.9669 51.5223 75.5038 51.1505C76.1255 50.723 76.7566 50.3141 77.3594 49.8773C77.8304 49.5334 78.339 49.4219 78.9042 49.5613C80.5525 49.9516 82.1538 50.4535 83.6608 51.2342C84.9795 51.9219 85.1302 53.381 84.6969 54.3476C83.6608 56.6803 81.8335 57.8327 79.2998 57.9721C79.1208 57.9814 78.9324 57.9721 78.7534 57.9721V57.9814Z" fill="#414042"/>
<path d="M81.9092 45.7788H80.0066C80.0066 41.4108 76.4084 37.8606 71.9814 37.8606V35.9833C77.4634 35.9833 81.9187 40.3792 81.9187 45.7881L81.9092 45.7788Z" fill="#414042"/>
<path d="M86.0819 45.7788H84.1792C84.1792 39.1431 78.7067 33.7435 71.9814 33.7435V31.8661C79.7617 31.8661 86.0913 38.1115 86.0913 45.7881L86.0819 45.7788Z" fill="#414042"/>
<path d="M90.0003 45.7788H88.0976C88.0976 37.0149 80.8731 29.8773 71.9814 29.8773V28C81.9187 28 90.0003 35.974 90.0003 45.7788Z" fill="#414042"/>
<path d="M105.384 49.176C101.64 49.176 99.64 46.872 99.64 43.352V43.224C99.64 39.752 102.072 37.384 105.32 37.384C108.072 37.384 110.12 38.728 110.392 41.544H107.736C107.544 40.168 106.776 39.432 105.336 39.432C103.528 39.432 102.376 40.84 102.376 43.208V43.336C102.376 45.704 103.464 47.08 105.352 47.08C106.776 47.08 107.768 46.36 107.976 44.888H110.52C110.232 47.72 108.2 49.176 105.384 49.176ZM114.343 49.176C112.823 49.176 111.543 48.44 111.543 46.68C111.543 44.728 113.335 43.992 115.895 43.992H116.839V43.656C116.839 42.664 116.535 42.12 115.479 42.12C114.567 42.12 114.151 42.584 114.055 43.304H111.863C112.007 41.32 113.575 40.44 115.623 40.44C117.671 40.44 119.127 41.272 119.127 43.544V49H116.871V47.992C116.391 48.664 115.655 49.176 114.343 49.176ZM115.031 47.56C116.055 47.56 116.839 47 116.839 46.072V45.368H115.943C114.599 45.368 113.815 45.656 113.815 46.552C113.815 47.16 114.183 47.56 115.031 47.56ZM121.182 49V36.84H123.486V49H121.182ZM125.666 49V36.84H127.97V49H125.666ZM133.633 49V40.632H135.953V41.96C136.369 41.128 137.281 40.44 138.673 40.44C140.321 40.44 141.489 41.432 141.489 43.672V49H139.169V44.008C139.169 42.872 138.721 42.328 137.697 42.328C136.705 42.328 135.953 42.936 135.953 44.168V49H133.633ZM147.365 49.176C144.869 49.176 142.965 47.512 142.965 44.904V44.776C142.965 42.152 144.869 40.44 147.381 40.44C149.893 40.44 151.781 42.12 151.781 44.728V44.856C151.781 47.496 149.877 49.176 147.365 49.176ZM147.381 47.416C148.677 47.416 149.429 46.456 149.429 44.872V44.76C149.429 43.16 148.677 42.2 147.381 42.2C146.101 42.2 145.333 43.128 145.333 44.728V44.856C145.333 46.456 146.069 47.416 147.381 47.416ZM154.894 49L152.35 40.632H154.782L156.27 46.264L157.886 40.632H159.79L161.262 46.264L162.846 40.632H165.07L162.43 49H160.158L158.734 43.752L157.198 49H154.894Z" fill="#414042"/>
<g filter="url(#filter1_d_17289_1750)">
<circle cx="244" cy="43" r="23" fill="#64FF01"/>
</g>
<path d="M237.158 38.2105H251.526" stroke="#414042" stroke-width="2" stroke-linecap="round"/>
<path d="M237.158 42.9292H251.526" stroke="#414042" stroke-width="2" stroke-linecap="round"/>
<path d="M237.158 47.6479H251.526" stroke="#414042" stroke-width="2" stroke-linecap="round"/>
<rect x="232" y="31" width="24" height="24" rx="4" stroke="#414042" stroke-width="2"/>
<defs>
<filter id="filter0_d_17289_1750" x="0" y="1" width="229" height="84" filterUnits="userSpaceOnUse" color-interpolation-filters="sRGB">
<feFlood flood-opacity="0" result="BackgroundImageFix"/>
<feColorMatrix in="SourceAlpha" type="matrix" values="0 0 0 0 0 0 0 0 0 0 0 0 0 0 0 0 0 0 127 0" result="hardAlpha"/>
<feMorphology radius="5" operator="dilate" in="SourceAlpha" result="effect1_dropShadow_17289_1750"/>
<feOffset/>
<feGaussianBlur stdDeviation="7.5"/>
<feComposite in2="hardAlpha" operator="out"/>
<feColorMatrix type="matrix" values="0 0 0 0 0 0 0 0 0 0 0 0 0 0 0 0 0 0 0.25 0"/>
<feBlend mode="normal" in2="BackgroundImageFix" result="effect1_dropShadow_17289_1750"/>
<feBlend mode="normal" in="SourceGraphic" in2="effect1_dropShadow_17289_1750" result="shape"/>
</filter>
<filter id="filter1_d_17289_1750" x="201" y="0" width="86" height="86" filterUnits="userSpaceOnUse" color-interpolation-filters="sRGB">
<feFlood flood-opacity="0" result="BackgroundImageFix"/>
<feColorMatrix in="SourceAlpha" type="matrix" values="0 0 0 0 0 0 0 0 0 0 0 0 0 0 0 0 0 0 127 0" result="hardAlpha"/>
<feMorphology radius="5" operator="dilate" in="SourceAlpha" result="effect1_dropShadow_17289_1750"/>
<feOffset/>
<feGaussianBlur stdDeviation="7.5"/>
<feComposite in2="hardAlpha" operator="out"/>
<feColorMatrix type="matrix" values="0 0 0 0 0 0 0 0 0 0 0 0 0 0 0 0 0 0 0.25 0"/>
<feBlend mode="normal" in2="BackgroundImageFix" result="effect1_dropShadow_17289_1750"/>
<feBlend mode="normal" in="SourceGraphic" in2="effect1_dropShadow_17289_1750" result="shape"/>
</filter>
</defs>
</svg>
