<svg width="150" height="76" viewBox="0 0 150 76" fill="none" xmlns="http://www.w3.org/2000/svg">
<path d="M35.24 18.176C31.944 18.176 29.848 16.352 29.848 13.152C29.848 9.296 32.296 6.384 36.12 6.384C38.856 6.384 40.744 7.776 40.872 10.544H38.296C38.12 9.168 37.448 8.416 36.04 8.416C33.784 8.416 32.568 10.528 32.552 13.072C32.536 14.896 33.384 16.112 35.272 16.112C36.664 16.112 37.624 15.296 38.024 13.888H40.568C40.056 16.656 37.896 18.176 35.24 18.176ZM41.4301 18L43.3501 5.84H45.6541L44.8541 11.024C45.3981 10.144 46.2781 9.44 47.6381 9.44C49.2701 9.44 50.4221 10.448 50.0221 12.976L49.2221 18H46.9181L47.7021 12.992C47.8941 11.872 47.4941 11.328 46.5821 11.328C45.5101 11.328 44.6781 12.016 44.4861 13.296L43.7341 18H41.4301ZM54.0914 8.48C53.3554 8.48 52.7954 7.952 52.7954 7.232C52.7954 6.528 53.3714 5.984 54.1074 5.984C54.8434 5.984 55.4034 6.512 55.4034 7.216C55.4034 7.936 54.8274 8.48 54.0914 8.48ZM51.2754 18L52.6034 9.632H54.9074L53.5794 18H51.2754ZM55.7754 18L57.6954 5.84H59.9994L58.0794 18H55.7754ZM63.5558 18.176C61.6678 18.176 60.3078 16.848 60.3078 14.512C60.3078 11.504 62.0198 9.44 64.5318 9.44C65.9398 9.44 66.7398 10.08 67.1398 10.912L67.9398 5.84H70.2598L68.7558 15.44C68.5798 16.544 68.5158 17.296 68.5798 18H66.3078C66.2598 17.584 66.2758 17.12 66.3078 16.64C65.6998 17.632 64.8038 18.176 63.5558 18.176ZM64.4038 16.416C65.7798 16.416 66.8038 15.232 66.8038 13.2C66.8038 11.936 66.0838 11.2 64.9958 11.2C63.5718 11.2 62.6918 12.496 62.6918 14.352C62.6918 15.648 63.2998 16.416 64.4038 16.416ZM77.2113 18.192C74.9553 18.192 73.6593 17.12 73.6433 15.376H75.8033C75.8513 16.048 76.2033 16.56 77.2913 16.56C78.1233 16.56 78.5233 16.24 78.5233 15.632C78.5233 15.104 78.2033 14.896 77.0033 14.624C75.1153 14.224 74.3313 13.536 74.3313 12.16C74.3313 10.352 75.8832 9.424 77.7873 9.44C79.6753 9.44 81.0193 10.192 81.1313 12.032H79.0193C78.9713 11.456 78.5073 11.024 77.7233 11.024C76.9393 11.024 76.5073 11.344 76.5073 11.888C76.5073 12.384 76.9073 12.592 77.9633 12.832C79.9153 13.248 80.7953 13.84 80.7953 15.424C80.7953 17.216 79.3393 18.192 77.2113 18.192ZM84.4901 18.176C82.8901 18.176 81.8181 17.28 81.8181 15.824C81.8181 13.68 83.5781 12.992 86.0901 12.992H87.4661L87.5141 12.64C87.6741 11.664 87.4021 11.12 86.3301 11.12C85.4501 11.12 85.0021 11.568 84.8421 12.304H82.6341C83.0501 10.272 84.5861 9.44 86.4421 9.44C88.8261 9.44 90.1541 10.496 89.7701 12.896L89.3701 15.44C89.1941 16.528 89.1461 17.296 89.2261 18H87.0181C86.9541 17.616 86.9541 17.2 86.9701 16.848C86.4421 17.632 85.6421 18.176 84.4901 18.176ZM85.2741 16.576C86.2181 16.576 86.9861 16.016 87.1301 15.024L87.2421 14.368H86.1541C84.7461 14.368 84.1061 14.688 84.1061 15.584C84.1061 16.128 84.4901 16.576 85.2741 16.576ZM91.2025 11.28L91.4585 9.632H92.5465L92.7545 8.368C93.0585 6.528 94.3545 5.712 95.9865 5.712C96.6745 5.712 97.0105 5.792 97.3305 5.92L97.0585 7.648C96.8505 7.552 96.6105 7.504 96.2585 7.504C95.5225 7.504 95.1545 7.904 95.0425 8.56L94.8665 9.632H96.6905L96.4345 11.28H94.6105L93.5385 18H91.2345L92.2905 11.28H91.2025ZM99.0954 14.576C99.0954 15.744 99.6234 16.528 100.935 16.528C101.895 16.528 102.487 16.096 102.727 15.36H104.919C104.471 17.216 102.903 18.176 100.871 18.176C98.5034 18.176 96.8074 16.864 96.8074 14.464C96.8074 11.472 98.7914 9.44 101.431 9.44C104.007 9.44 105.575 11.056 105.127 13.968L105.063 14.336H99.0954V14.576ZM101.415 11.04C100.519 11.04 99.6714 11.568 99.2874 12.912H102.967C103.063 11.712 102.599 11.04 101.415 11.04ZM29.56 45L31.368 33.56H35.144C37.64 33.56 39.112 34.712 39.112 36.728C39.112 39.544 37.112 40.84 34.472 40.84H32.808L32.152 45H29.56ZM33.08 39.032H34.424C35.864 39.032 36.632 38.296 36.632 36.952C36.632 35.992 36.04 35.512 34.856 35.512H33.64L33.08 39.032ZM41.6735 41.576C41.6735 42.744 42.2015 43.528 43.5135 43.528C44.4735 43.528 45.0655 43.096 45.3055 42.36H47.4975C47.0495 44.216 45.4815 45.176 43.4495 45.176C41.0815 45.176 39.3855 43.864 39.3855 41.464C39.3855 38.472 41.3695 36.44 44.0095 36.44C46.5855 36.44 48.1535 38.056 47.7055 40.968L47.6415 41.336H41.6735V41.576ZM43.9935 38.04C43.0975 38.04 42.2495 38.568 41.8655 39.912H45.5455C45.6415 38.712 45.1775 38.04 43.9935 38.04ZM51.6283 45.16C49.7883 45.16 48.9243 44.184 49.2283 42.296L49.8683 38.28H48.7963L49.0523 36.632H50.1243L50.4123 34.824H52.7323L52.4283 36.632H54.1723L53.9163 38.28H52.1723L51.5483 42.248C51.4203 43.048 51.7083 43.304 52.3483 43.304C52.6203 43.304 52.9403 43.256 53.2283 43.144L52.9403 44.936C52.6203 45.064 52.1723 45.16 51.6283 45.16ZM61.305 45.192C59.049 45.192 57.753 44.12 57.737 42.376H59.897C59.945 43.048 60.297 43.56 61.385 43.56C62.217 43.56 62.617 43.24 62.617 42.632C62.617 42.104 62.297 41.896 61.097 41.624C59.209 41.224 58.425 40.536 58.425 39.16C58.425 37.352 59.977 36.424 61.881 36.44C63.769 36.44 65.113 37.192 65.225 39.032H63.113C63.065 38.456 62.601 38.024 61.817 38.024C61.033 38.024 60.601 38.344 60.601 38.888C60.601 39.384 61.001 39.592 62.057 39.832C64.009 40.248 64.889 40.84 64.889 42.424C64.889 44.216 63.433 45.192 61.305 45.192ZM68.5839 45.176C66.9839 45.176 65.9119 44.28 65.9119 42.824C65.9119 40.68 67.6719 39.992 70.1839 39.992H71.5599L71.6079 39.64C71.7679 38.664 71.4959 38.12 70.4239 38.12C69.5439 38.12 69.0959 38.568 68.9359 39.304H66.7279C67.1439 37.272 68.6799 36.44 70.5359 36.44C72.9199 36.44 74.2479 37.496 73.8639 39.896L73.4639 42.44C73.2879 43.528 73.2399 44.296 73.3199 45H71.1119C71.0479 44.616 71.0479 44.2 71.0639 43.848C70.5359 44.632 69.7359 45.176 68.5839 45.176ZM69.3679 43.576C70.3119 43.576 71.0799 43.016 71.2239 42.024L71.3359 41.368H70.2479C68.8399 41.368 68.1999 41.688 68.1999 42.584C68.1999 43.128 68.5839 43.576 69.3679 43.576ZM75.2963 38.28L75.5523 36.632H76.6403L76.8483 35.368C77.1523 33.528 78.4483 32.712 80.0803 32.712C80.7683 32.712 81.1043 32.792 81.4243 32.92L81.1523 34.648C80.9443 34.552 80.7043 34.504 80.3523 34.504C79.6163 34.504 79.2483 34.904 79.1363 35.56L78.9603 36.632H80.7843L80.5283 38.28H78.7043L77.6323 45H75.3283L76.3843 38.28H75.2963ZM83.1891 41.576C83.1891 42.744 83.7171 43.528 85.0291 43.528C85.9891 43.528 86.5811 43.096 86.8211 42.36H89.0131C88.5651 44.216 86.9971 45.176 84.9651 45.176C82.5971 45.176 80.9011 43.864 80.9011 41.464C80.9011 38.472 82.8851 36.44 85.5251 36.44C88.1011 36.44 89.6691 38.056 89.2211 40.968L89.1571 41.336H83.1891V41.576ZM85.5091 38.04C84.6131 38.04 83.7651 38.568 83.3811 39.912H87.0611C87.1571 38.712 86.6931 38.04 85.5091 38.04ZM29.56 72L31.368 60.56H38.776L38.456 62.576H33.624L33.208 65.248H37.096L36.808 67.136H32.92L32.456 69.984H37.592L37.272 72H29.56ZM42.9983 72.16C40.5182 72.16 38.8703 70.736 38.8703 68.336C38.8703 65.312 40.8703 63.456 43.4463 63.456C45.4943 63.456 47.0783 64.432 47.1743 66.704H44.9983C44.8863 65.632 44.3103 65.264 43.3823 65.264C42.0063 65.264 41.1903 66.528 41.1903 68.352C41.1903 69.664 41.7823 70.448 43.0783 70.448C44.0063 70.448 44.7423 69.888 44.9343 68.832H47.0303C46.7103 70.96 45.2063 72.16 42.9983 72.16ZM52.0593 72.176C49.7713 72.176 48.0113 70.8 47.9953 68.384C47.9953 65.552 49.9633 63.456 52.6833 63.456C54.9713 63.456 56.7633 64.8 56.7633 67.248C56.7633 70.128 54.8273 72.176 52.0593 72.176ZM52.1233 70.416C53.6113 70.416 54.4113 69.024 54.4113 67.184C54.4113 66.032 53.8353 65.2 52.6353 65.2C51.1793 65.2 50.3153 66.576 50.3153 68.4C50.3153 69.536 50.8273 70.416 52.1233 70.416ZM61.4213 65.28L61.6773 63.632H62.7653L62.9733 62.368C63.2773 60.528 64.5733 59.712 66.2053 59.712C66.8933 59.712 67.2293 59.792 67.5493 59.92L67.2773 61.648C67.0693 61.552 66.8293 61.504 66.4773 61.504C65.7413 61.504 65.3733 61.904 65.2613 62.56L65.0853 63.632H66.9093L66.6533 65.28H64.8293L63.7573 72H61.4533L62.5093 65.28H61.4213ZM66.977 72L67.873 66.288C68.065 65.104 68.129 64.368 68.145 63.632H70.385C70.385 64.064 70.353 64.72 70.273 65.392C70.961 64.144 71.809 63.504 73.329 63.504L72.993 65.664C71.265 65.648 70.193 66.24 69.921 68.064L69.281 72H66.977ZM76.4039 62.48C75.6679 62.48 75.1079 61.952 75.1079 61.232C75.1079 60.528 75.6839 59.984 76.4199 59.984C77.1559 59.984 77.7159 60.512 77.7159 61.216C77.7159 61.936 77.1399 62.48 76.4039 62.48ZM73.5879 72L74.9159 63.632H77.2199L75.8919 72H73.5879ZM80.4079 68.576C80.4079 69.744 80.9359 70.528 82.2479 70.528C83.2079 70.528 83.7999 70.096 84.0399 69.36H86.2319C85.7839 71.216 84.2159 72.176 82.1839 72.176C79.8159 72.176 78.1199 70.864 78.1199 68.464C78.1199 65.472 80.1039 63.44 82.7439 63.44C85.3199 63.44 86.8879 65.056 86.4399 67.968L86.3759 68.336H80.4079V68.576ZM82.7279 65.04C81.8319 65.04 80.9839 65.568 80.5999 66.912H84.2799C84.3759 65.712 83.9119 65.04 82.7279 65.04ZM87.3051 72L88.2011 66.288C88.3931 65.104 88.4571 64.368 88.4891 63.632H90.7131C90.7131 64.064 90.6971 64.624 90.6331 65.136C91.2251 64.176 92.1531 63.44 93.5131 63.44C95.1451 63.44 96.2971 64.448 95.8971 66.976L95.0971 72H92.7931L93.5771 66.992C93.7691 65.872 93.3851 65.328 92.4571 65.328C91.3851 65.328 90.5531 66.016 90.3611 67.296L89.6091 72H87.3051ZM100.446 72.176C98.5584 72.176 97.1984 70.848 97.1984 68.512C97.1984 65.504 98.9104 63.44 101.422 63.44C102.83 63.44 103.63 64.08 104.03 64.912L104.83 59.84H107.15L105.646 69.44C105.47 70.544 105.406 71.296 105.47 72H103.198C103.15 71.584 103.166 71.12 103.198 70.64C102.59 71.632 101.694 72.176 100.446 72.176ZM101.294 70.416C102.67 70.416 103.694 69.232 103.694 67.2C103.694 65.936 102.974 65.2 101.886 65.2C100.462 65.2 99.5824 66.496 99.5824 68.352C99.5824 69.648 100.19 70.416 101.294 70.416ZM107.291 72L109.211 59.84H111.515L109.595 72H107.291ZM112.079 74.848L114.191 71.056L112.175 63.632H114.559L115.727 68.672L118.319 63.632H120.655L114.415 74.848H112.079Z" fill="#E5E5E5"/>
<circle cx="10.5" cy="38.5" r="10.5" fill="#64FF01"/>
<path d="M4 39.5L7.95652 43L17 35" stroke="#414042" stroke-width="2.5" stroke-linecap="round" stroke-linejoin="round"/>
<circle cx="10.5" cy="11.5" r="10.5" fill="#64FF01"/>
<path d="M4 12.5L7.95652 16L17 8" stroke="#414042" stroke-width="2.5" stroke-linecap="round" stroke-linejoin="round"/>
<circle cx="10.5" cy="65.5" r="10.5" fill="#64FF01"/>
<path d="M4 66.5L7.95652 70L17 62" stroke="#414042" stroke-width="2.5" stroke-linecap="round" stroke-linejoin="round"/>
</svg>
