<svg width="149" height="76" viewBox="0 0 149 76" fill="none" xmlns="http://www.w3.org/2000/svg">
<path d="M28.624 18L30.432 6.56H33.04L31.232 18H28.624ZM33.5708 18L34.4668 12.288C34.6588 11.104 34.7228 10.368 34.7548 9.632H36.9788C36.9788 10.064 36.9628 10.624 36.8988 11.136C37.4908 10.176 38.4188 9.44 39.7788 9.44C41.4108 9.44 42.5628 10.448 42.1628 12.976L41.3628 18H39.0588L39.8428 12.992C40.0348 11.872 39.6508 11.328 38.7228 11.328C37.6508 11.328 36.8188 12.016 36.6268 13.296L35.8748 18H33.5708ZM46.68 18.192C44.424 18.192 43.128 17.12 43.112 15.376H45.272C45.32 16.048 45.672 16.56 46.76 16.56C47.592 16.56 47.992 16.24 47.992 15.632C47.992 15.104 47.672 14.896 46.472 14.624C44.584 14.224 43.8 13.536 43.8 12.16C43.8 10.352 45.352 9.424 47.256 9.44C49.144 9.44 50.488 10.192 50.6 12.032H48.488C48.44 11.456 47.976 11.024 47.192 11.024C46.408 11.024 45.976 11.344 45.976 11.888C45.976 12.384 46.376 12.592 47.432 12.832C49.384 13.248 50.264 13.84 50.264 15.424C50.264 17.216 48.808 18.192 46.68 18.192ZM60.2815 9.632L59.3695 15.44C59.1935 16.544 59.1455 17.296 59.1775 18H56.9375C56.9055 17.584 56.9055 17.104 56.9695 16.592C56.3615 17.504 55.5295 18.176 54.2175 18.176C52.4735 18.176 51.3535 17.136 51.7375 14.656L52.5375 9.632H54.8415L54.0415 14.736C53.8655 15.808 54.2335 16.4 55.1295 16.4C56.2015 16.4 57.0175 15.712 57.2095 14.432L57.9775 9.632H60.2815ZM61.0395 18L61.9355 12.288C62.1275 11.104 62.1915 10.368 62.2075 9.632H64.4475C64.4475 10.064 64.4155 10.72 64.3355 11.392C65.0235 10.144 65.8715 9.504 67.3915 9.504L67.0555 11.664C65.3275 11.648 64.2555 12.24 63.9835 14.064L63.3435 18H61.0395ZM69.8923 14.576C69.8923 15.744 70.4203 16.528 71.7323 16.528C72.6923 16.528 73.2843 16.096 73.5243 15.36H75.7163C75.2683 17.216 73.7003 18.176 71.6683 18.176C69.3003 18.176 67.6043 16.864 67.6043 14.464C67.6043 11.472 69.5883 9.44 72.2283 9.44C74.8043 9.44 76.3723 11.056 75.9243 13.968L75.8603 14.336H69.8923V14.576ZM72.2123 11.04C71.3163 11.04 70.4683 11.568 70.0843 12.912H73.7643C73.8603 11.712 73.3963 11.04 72.2123 11.04ZM80.1495 18.176C78.2615 18.176 76.9015 16.848 76.9015 14.512C76.9015 11.504 78.6135 9.44 81.1255 9.44C82.5335 9.44 83.3335 10.08 83.7335 10.912L84.5335 5.84H86.8535L85.3495 15.44C85.1735 16.544 85.1095 17.296 85.1735 18H82.9015C82.8535 17.584 82.8695 17.12 82.9015 16.64C82.2935 17.632 81.3975 18.176 80.1495 18.176ZM80.9975 16.416C82.3735 16.416 83.3975 15.232 83.3975 13.2C83.3975 11.936 82.6775 11.2 81.5895 11.2C80.1655 11.2 79.2855 12.496 79.2855 14.352C79.2855 15.648 79.8935 16.416 80.9975 16.416ZM28.56 45L30.368 33.56H33.728C37.568 33.56 39.36 35.496 39.376 38.44C39.376 42.408 36.848 45 32.736 45H28.56ZM31.472 42.984H32.72C35.248 42.984 36.688 41.352 36.688 38.52C36.688 36.728 35.792 35.56 33.664 35.56H32.64L31.472 42.984ZM40.2475 45L42.0555 33.56H44.6475L43.9115 38.232H48.4875L49.2395 33.56H51.8315L50.0235 45H47.4315L48.1675 40.28H43.5755L42.8395 45H40.2475ZM52.4663 45L54.2743 33.56H56.8663L56.1302 38.232H60.7063L61.4583 33.56H64.0503L62.2423 45H59.6503L60.3863 40.28H55.7943L55.0583 45H52.4663ZM69.069 45.176C66.045 45.176 64.445 43.624 64.461 41.416H66.925C66.957 42.392 67.549 43.288 69.149 43.288C70.397 43.304 71.085 42.696 71.085 41.72C71.085 40.984 70.637 40.616 69.165 40.248C66.605 39.656 65.533 38.824 65.533 36.968C65.533 34.984 67.149 33.4 69.853 33.4C72.381 33.4 73.949 34.52 73.949 36.824H71.581C71.501 35.72 70.813 35.304 69.741 35.304C68.573 35.304 68.029 35.88 68.029 36.696C68.029 37.352 68.445 37.672 69.965 38.056C72.429 38.664 73.629 39.48 73.629 41.352C73.629 43.576 71.981 45.16 69.069 45.176ZM78.3223 45L80.2423 32.84H82.5463L80.6263 45H78.3223ZM85.6226 35.48C84.8866 35.48 84.3266 34.952 84.3266 34.232C84.3266 33.528 84.9026 32.984 85.6386 32.984C86.3746 32.984 86.9346 33.512 86.9346 34.216C86.9346 34.936 86.3586 35.48 85.6226 35.48ZM82.8066 45L84.1346 36.632H86.4386L85.1106 45H82.8066ZM91.4826 45.16C89.0026 45.16 87.3546 43.736 87.3546 41.336C87.3546 38.312 89.3546 36.456 91.9306 36.456C93.9786 36.456 95.5626 37.432 95.6586 39.704H93.4826C93.3706 38.632 92.7946 38.264 91.8666 38.264C90.4906 38.264 89.6746 39.528 89.6746 41.352C89.6746 42.664 90.2666 43.448 91.5626 43.448C92.4906 43.448 93.2266 42.888 93.4186 41.832H95.5146C95.1946 43.96 93.6906 45.16 91.4826 45.16ZM98.7516 41.576C98.7516 42.744 99.2796 43.528 100.592 43.528C101.552 43.528 102.144 43.096 102.384 42.36H104.576C104.128 44.216 102.56 45.176 100.528 45.176C98.1596 45.176 96.4636 43.864 96.4636 41.464C96.4636 38.472 98.4476 36.44 101.088 36.44C103.664 36.44 105.232 38.056 104.784 40.968L104.72 41.336H98.7516V41.576ZM101.072 38.04C100.176 38.04 99.3276 38.568 98.9436 39.912H102.624C102.72 38.712 102.256 38.04 101.072 38.04ZM105.649 45L106.545 39.288C106.737 38.104 106.801 37.368 106.833 36.632H109.057C109.057 37.064 109.041 37.624 108.977 38.136C109.569 37.176 110.497 36.44 111.857 36.44C113.489 36.44 114.641 37.448 114.241 39.976L113.441 45H111.137L111.921 39.992C112.113 38.872 111.729 38.328 110.801 38.328C109.729 38.328 108.897 39.016 108.705 40.296L107.953 45H105.649ZM118.758 45.192C116.502 45.192 115.206 44.12 115.19 42.376H117.35C117.398 43.048 117.75 43.56 118.838 43.56C119.67 43.56 120.07 43.24 120.07 42.632C120.07 42.104 119.75 41.896 118.55 41.624C116.662 41.224 115.878 40.536 115.878 39.16C115.878 37.352 117.43 36.424 119.334 36.44C121.222 36.44 122.566 37.192 122.678 39.032H120.566C120.518 38.456 120.054 38.024 119.27 38.024C118.486 38.024 118.054 38.344 118.054 38.888C118.054 39.384 118.454 39.592 119.51 39.832C121.462 40.248 122.342 40.84 122.342 42.424C122.342 44.216 120.886 45.192 118.758 45.192ZM125.799 41.576C125.799 42.744 126.327 43.528 127.639 43.528C128.599 43.528 129.191 43.096 129.431 42.36H131.623C131.175 44.216 129.607 45.176 127.575 45.176C125.207 45.176 123.511 43.864 123.511 41.464C123.511 38.472 125.495 36.44 128.135 36.44C130.711 36.44 132.279 38.056 131.831 40.968L131.767 41.336H125.799V41.576ZM128.119 38.04C127.223 38.04 126.375 38.568 125.991 39.912H129.671C129.767 38.712 129.303 38.04 128.119 38.04ZM136.056 45.176C134.168 45.176 132.808 43.848 132.808 41.512C132.808 38.504 134.52 36.44 137.032 36.44C138.44 36.44 139.24 37.08 139.64 37.912L140.44 32.84H142.76L141.256 42.44C141.08 43.544 141.016 44.296 141.08 45H138.808C138.76 44.584 138.776 44.12 138.808 43.64C138.2 44.632 137.304 45.176 136.056 45.176ZM136.904 43.416C138.28 43.416 139.304 42.232 139.304 40.2C139.304 38.936 138.584 38.2 137.496 38.2C136.072 38.2 135.192 39.496 135.192 41.352C135.192 42.648 135.8 43.416 136.904 43.416ZM35.744 72L35.36 69.456H31.216L30.048 72H27.552L33.12 60.56H36.496L38.4 72H35.744ZM34.368 62.672L32.08 67.616H35.088L34.368 62.672ZM43.5451 72.16C41.0651 72.16 39.4171 70.736 39.4171 68.336C39.4171 65.312 41.4171 63.456 43.9931 63.456C46.0411 63.456 47.6251 64.432 47.7211 66.704H45.5451C45.4331 65.632 44.8571 65.264 43.9291 65.264C42.5531 65.264 41.7371 66.528 41.7371 68.352C41.7371 69.664 42.3291 70.448 43.6251 70.448C44.5531 70.448 45.2891 69.888 45.4811 68.832H47.5771C47.2571 70.96 45.7531 72.16 43.5451 72.16ZM52.6701 72.16C50.1901 72.16 48.5421 70.736 48.5421 68.336C48.5421 65.312 50.5421 63.456 53.1181 63.456C55.1661 63.456 56.7501 64.432 56.8461 66.704H54.6701C54.5581 65.632 53.9821 65.264 53.0541 65.264C51.6781 65.264 50.8621 66.528 50.8621 68.352C50.8621 69.664 51.4541 70.448 52.7501 70.448C53.6781 70.448 54.4141 69.888 54.6061 68.832H56.7021C56.3821 70.96 54.8781 72.16 52.6701 72.16ZM57.5551 72L58.4511 66.288C58.6431 65.104 58.7071 64.368 58.7231 63.632H60.9631C60.9631 64.064 60.9311 64.72 60.8511 65.392C61.5391 64.144 62.3871 63.504 63.9071 63.504L63.5711 65.664C61.8431 65.648 60.7711 66.24 60.4991 68.064L59.8591 72H57.5551ZM66.4079 68.576C66.4079 69.744 66.9359 70.528 68.2479 70.528C69.2079 70.528 69.7999 70.096 70.0399 69.36H72.2319C71.7839 71.216 70.2159 72.176 68.1839 72.176C65.8159 72.176 64.1199 70.864 64.1199 68.464C64.1199 65.472 66.1039 63.44 68.7439 63.44C71.3199 63.44 72.8879 65.056 72.4399 67.968L72.3759 68.336H66.4079V68.576ZM68.7279 65.04C67.8319 65.04 66.9839 65.568 66.5999 66.912H70.2799C70.3759 65.712 69.9119 65.04 68.7279 65.04ZM76.6651 72.176C74.7771 72.176 73.4171 70.848 73.4171 68.512C73.4171 65.504 75.1291 63.44 77.6411 63.44C79.0491 63.44 79.8491 64.08 80.2491 64.912L81.0491 59.84H83.3691L81.8651 69.44C81.6891 70.544 81.6251 71.296 81.6891 72H79.4171C79.3691 71.584 79.3851 71.12 79.4171 70.64C78.8091 71.632 77.9131 72.176 76.6651 72.176ZM77.5131 70.416C78.8891 70.416 79.9131 69.232 79.9131 67.2C79.9131 65.936 79.1931 65.2 78.1051 65.2C76.6811 65.2 75.8011 66.496 75.8011 68.352C75.8011 69.648 76.4091 70.416 77.5131 70.416ZM86.3258 62.48C85.5898 62.48 85.0298 61.952 85.0298 61.232C85.0298 60.528 85.6058 59.984 86.3418 59.984C87.0778 59.984 87.6378 60.512 87.6378 61.216C87.6378 61.936 87.0618 62.48 86.3258 62.48ZM83.5098 72L84.8378 63.632H87.1418L85.8138 72H83.5098ZM91.0658 72.16C89.2258 72.16 88.3618 71.184 88.6658 69.296L89.3058 65.28H88.2338L88.4898 63.632H89.5618L89.8498 61.824H92.1698L91.8658 63.632H93.6098L93.3538 65.28H91.6098L90.9858 69.248C90.8578 70.048 91.1458 70.304 91.7858 70.304C92.0578 70.304 92.3778 70.256 92.6658 70.144L92.3778 71.936C92.0578 72.064 91.6098 72.16 91.0658 72.16ZM96.2048 68.576C96.2048 69.744 96.7328 70.528 98.0448 70.528C99.0048 70.528 99.5968 70.096 99.8368 69.36H102.029C101.581 71.216 100.013 72.176 97.9808 72.176C95.6128 72.176 93.9168 70.864 93.9168 68.464C93.9168 65.472 95.9008 63.44 98.5408 63.44C101.117 63.44 102.685 65.056 102.237 67.968L102.173 68.336H96.2048V68.576ZM98.5248 65.04C97.6288 65.04 96.7808 65.568 96.3968 66.912H100.077C100.173 65.712 99.7088 65.04 98.5248 65.04ZM106.462 72.176C104.574 72.176 103.214 70.848 103.214 68.512C103.214 65.504 104.926 63.44 107.438 63.44C108.846 63.44 109.646 64.08 110.046 64.912L110.846 59.84H113.166L111.662 69.44C111.486 70.544 111.422 71.296 111.486 72H109.214C109.166 71.584 109.182 71.12 109.214 70.64C108.606 71.632 107.71 72.176 106.462 72.176ZM107.31 70.416C108.686 70.416 109.71 69.232 109.71 67.2C109.71 65.936 108.99 65.2 107.902 65.2C106.478 65.2 105.598 66.496 105.598 68.352C105.598 69.648 106.206 70.416 107.31 70.416Z" fill="#E5E5E5"/>
<circle cx="10.5" cy="38.5" r="10.5" fill="#64FF01"/>
<path d="M4 39.5L7.95652 43L17 35" stroke="#414042" stroke-width="2.5" stroke-linecap="round" stroke-linejoin="round"/>
<circle cx="10.5" cy="11.5" r="10.5" fill="#64FF01"/>
<path d="M4 12.5L7.95652 16L17 8" stroke="#414042" stroke-width="2.5" stroke-linecap="round" stroke-linejoin="round"/>
<circle cx="10.5" cy="65.5" r="10.5" fill="#64FF01"/>
<path d="M4 66.5L7.95652 70L17 62" stroke="#414042" stroke-width="2.5" stroke-linecap="round" stroke-linejoin="round"/>
</svg>
