<svg width="238" height="57" viewBox="0 0 238 57" fill="none" xmlns="http://www.w3.org/2000/svg">
<rect x="1" y="1" width="236" height="55" rx="27.5" fill="#F8F5F2" stroke="#828282" stroke-width="2"/>
<path d="M49.84 43.32V39.32C44.304 38.936 41.616 35.992 41.392 31.768H47.312C47.472 33.24 48.08 34.392 49.84 34.776V30.104C44.272 29.304 41.904 27.288 41.904 22.84C41.904 18.968 44.944 16.184 49.84 15.832V12.984H52.336V15.864C56.976 16.248 59.728 18.392 60.112 22.776H54.32C54.128 21.56 53.648 20.728 52.336 20.376V24.792C57.232 25.496 60.432 27.16 60.432 31.8C60.432 35.704 57.904 38.968 52.336 39.32V43.32H49.84ZM47.664 22.36C47.664 23.48 48.112 24.056 49.84 24.408V20.312C48.4 20.568 47.664 21.336 47.664 22.36ZM54.48 32.504C54.48 31.448 54.032 30.904 52.336 30.52V34.776C53.744 34.488 54.48 33.656 54.48 32.504ZM64.708 39L71.108 21.432H61.892V16.12H79.3V16.792L71.364 39H64.708ZM89.1185 39.384C82.7505 39.384 79.7745 36.44 79.5825 31.48H85.4065C85.5985 33.368 86.4945 34.648 88.7665 34.648C90.7825 34.648 91.7745 33.688 91.7745 32.056C91.7745 30.264 90.8145 29.368 88.7665 29.368H86.9425V25.304H88.6385C90.6865 25.304 91.6785 24.376 91.6785 22.776C91.6785 21.4 90.7825 20.504 89.0545 20.504C87.2945 20.504 86.2705 21.56 86.0145 23.416H80.2225C80.5105 18.904 83.5185 15.8 89.2145 15.8C94.5905 15.8 97.8225 18.264 97.8225 22.072C97.8225 24.632 96.3505 26.296 93.9505 27C96.5745 27.544 98.3985 29.4 98.3985 32.184C98.3985 36.536 95.1665 39.384 89.1185 39.384ZM109.866 39.352C104.458 39.352 101.322 36.92 100.842 32.536H106.858C107.082 33.688 107.786 34.488 109.546 34.488C112.266 34.488 113.386 32.44 113.482 28.536C112.49 30.104 111.114 31.224 108.298 31.224C103.914 31.224 100.554 28.696 100.554 23.832C100.554 19.032 104.138 15.768 109.962 15.768C116.778 15.768 119.978 20.344 119.978 26.968V27.736C119.978 35.16 116.394 39.352 109.866 39.352ZM109.866 27C111.754 27 113.002 25.624 113.002 23.8C113.002 21.784 111.786 20.376 109.866 20.376C108.042 20.376 106.826 21.784 106.826 23.736C106.826 25.624 107.978 27 109.866 27ZM134.686 39.162C130.726 39.162 128.458 36.408 128.458 32.646V32.502C128.458 28.74 130.996 25.932 134.686 25.932C137.242 25.932 139.528 27.12 139.924 30.018H138.358C137.998 27.966 136.594 27.174 134.722 27.174C131.77 27.174 130.078 29.334 130.078 32.484V32.628C130.078 35.814 131.662 37.902 134.686 37.902C137.476 37.902 138.682 36.084 138.736 33.798H134.974V32.502H140.266V33.456C140.266 37.182 137.98 39.162 134.686 39.162ZM146.957 39.162C143.519 39.162 142.277 37.272 142.043 35.076H143.555C143.753 36.606 144.365 37.902 146.957 37.902C148.613 37.902 149.891 36.93 149.891 35.472C149.891 34.014 149.225 33.402 146.777 33.006C144.077 32.592 142.475 31.746 142.475 29.46C142.475 27.48 144.185 25.968 146.615 25.968C149.189 25.968 150.791 27.228 151.043 29.514H149.639C149.333 27.894 148.397 27.228 146.615 27.228C144.851 27.228 143.933 28.11 143.933 29.316C143.933 30.576 144.401 31.224 147.029 31.62C149.891 32.07 151.403 32.934 151.403 35.364C151.403 37.524 149.513 39.162 146.957 39.162ZM156.273 39V27.408H152.529V26.13H161.583V27.408H157.839V39H156.273ZM169.128 27.624C168.588 27.624 168.138 27.174 168.138 26.634C168.138 26.094 168.588 25.644 169.128 25.644C169.668 25.644 170.118 26.094 170.118 26.634C170.118 27.174 169.668 27.624 169.128 27.624ZM168.408 39V29.586H169.902V39H168.408ZM172.96 39V29.586H174.454V31.08C174.886 30.198 175.93 29.424 177.478 29.424C179.422 29.424 180.79 30.486 180.79 33.222V39H179.296V33.114C179.296 31.458 178.594 30.72 177.082 30.72C175.696 30.72 174.454 31.602 174.454 33.294V39H172.96ZM187.624 39.162C184.996 39.162 183.016 37.308 183.016 34.392V34.248C183.016 31.368 185.068 29.424 187.588 29.424C189.55 29.424 191.386 30.324 191.674 32.718H190.198C189.964 31.224 188.884 30.666 187.588 30.666C185.878 30.666 184.564 32.034 184.564 34.248V34.392C184.564 36.696 185.824 37.92 187.642 37.92C188.974 37.92 190.18 37.146 190.342 35.616H191.728C191.53 37.65 189.892 39.162 187.624 39.162ZM194.834 39.09C194.204 39.09 193.682 38.586 193.682 37.938C193.682 37.29 194.204 36.786 194.834 36.786C195.464 36.786 195.986 37.29 195.986 37.938C195.986 38.586 195.464 39.09 194.834 39.09Z" fill="#414042"/>
</svg>
