<svg width="355" height="556" viewBox="0 0 355 556" fill="none" xmlns="http://www.w3.org/2000/svg">
<rect x="1" width="354" height="556" rx="20" fill="#F8F5F2"/>
<path d="M57.8624 41V26.7H63.4624C67.2024 26.7 69.2824 28.22 69.2824 31.24V31.32C69.2824 33.36 68.2024 34.5 66.7024 35.08L70.1224 41H65.8024L62.9024 35.88H61.9424V41H57.8624ZM61.9424 33.22H63.2624C64.6424 33.22 65.3224 32.64 65.3224 31.48V31.4C65.3224 30.24 64.6024 29.78 63.2824 29.78H61.9424V33.22ZM76.0999 41.24C72.8199 41.24 70.4199 39.32 70.4199 35.9V35.74C70.4199 32.38 72.9199 30.26 76.0799 30.26C78.9399 30.26 81.3999 31.9 81.3999 35.66V36.6H74.0399C74.1399 37.98 74.9399 38.78 76.2199 38.78C77.3999 38.78 77.8999 38.24 78.0399 37.54H81.3999C81.0799 39.9 79.2599 41.24 76.0999 41.24ZM74.0799 34.58H77.9199C77.8599 33.32 77.2399 32.62 76.0799 32.62C74.9999 32.62 74.2599 33.32 74.0799 34.58ZM87.1307 41.24C84.1507 41.24 82.4107 40 82.3307 37.68H85.6307C85.7507 38.44 86.0907 38.86 87.1107 38.86C87.9907 38.86 88.3907 38.52 88.3907 38C88.3907 37.5 87.8907 37.26 86.4507 37.06C83.6507 36.7 82.4707 35.88 82.4707 33.7C82.4707 31.38 84.5307 30.26 86.9507 30.26C89.5307 30.26 91.3307 31.14 91.5707 33.64H88.3307C88.1907 32.94 87.8107 32.6 86.9907 32.6C86.2107 32.6 85.8107 32.94 85.8107 33.42C85.8107 33.92 86.2907 34.12 87.5707 34.28C90.4707 34.64 91.8707 35.4 91.8707 37.64C91.8707 40.12 90.0307 41.24 87.1307 41.24ZM95.2037 29.54C94.0837 29.54 93.2437 28.76 93.2437 27.7C93.2437 26.64 94.0837 25.84 95.2037 25.84C96.3237 25.84 97.1837 26.64 97.1837 27.7C97.1837 28.76 96.3237 29.54 95.2037 29.54ZM93.4237 41V30.54H97.0037V41H93.4237ZM103.102 41.24C100.682 41.24 98.7021 39.5 98.7021 35.88V35.72C98.7021 32.16 100.662 30.26 103.142 30.26C104.782 30.26 105.762 30.96 106.362 32.02V25.94H109.942V41H106.362V39.3C105.842 40.38 104.682 41.24 103.102 41.24ZM104.362 38.5C105.662 38.5 106.462 37.6 106.462 35.82V35.66C106.462 33.9 105.722 32.96 104.402 32.96C103.062 32.96 102.342 33.86 102.342 35.68V35.84C102.342 37.6 103.122 38.5 104.362 38.5ZM117.174 41.24C113.894 41.24 111.494 39.32 111.494 35.9V35.74C111.494 32.38 113.994 30.26 117.154 30.26C120.014 30.26 122.474 31.9 122.474 35.66V36.6H115.114C115.214 37.98 116.014 38.78 117.294 38.78C118.474 38.78 118.974 38.24 119.114 37.54H122.474C122.154 39.9 120.334 41.24 117.174 41.24ZM115.154 34.58H118.994C118.934 33.32 118.314 32.62 117.154 32.62C116.074 32.62 115.334 33.32 115.154 34.58ZM124.007 41V30.54H127.587V32.22C128.147 31.14 129.287 30.26 131.027 30.26C133.047 30.26 134.447 31.52 134.447 34.2V41H130.867V34.92C130.867 33.74 130.407 33.16 129.367 33.16C128.307 33.16 127.587 33.8 127.587 35.14V41H124.007ZM140.648 41.24C138.288 41.24 136.968 40.1 136.968 37.64V32.98H135.708V30.54H136.968V28.36H140.548V30.54H142.608V32.98H140.548V37.3C140.548 38.06 140.928 38.4 141.608 38.4C142.008 38.4 142.308 38.34 142.628 38.22V40.94C142.168 41.06 141.488 41.24 140.648 41.24ZM146.141 29.54C145.021 29.54 144.181 28.76 144.181 27.7C144.181 26.64 145.021 25.84 146.141 25.84C147.261 25.84 148.121 26.64 148.121 27.7C148.121 28.76 147.261 29.54 146.141 29.54ZM144.361 41V30.54H147.941V41H144.361ZM153.1 41.24C151.22 41.24 149.56 40.32 149.56 38.1C149.56 35.64 151.64 34.68 155.12 34.68H156.12V34.44C156.12 33.44 155.88 32.78 154.74 32.78C153.76 32.78 153.4 33.36 153.32 34.02H149.96C150.12 31.5 152.1 30.26 154.96 30.26C157.84 30.26 159.68 31.44 159.68 34.22V41H156.2V39.78C155.7 40.54 154.78 41.24 153.1 41.24ZM154.34 38.82C155.36 38.82 156.12 38.24 156.12 37.34V36.7H155.18C153.74 36.7 153.1 36.98 153.1 37.84C153.1 38.44 153.5 38.82 154.34 38.82ZM161.822 41V25.94H165.382V41H161.822ZM176.666 41.24C173.386 41.24 170.986 39.32 170.986 35.9V35.74C170.986 32.38 173.486 30.26 176.646 30.26C179.506 30.26 181.966 31.9 181.966 35.66V36.6H174.606C174.706 37.98 175.506 38.78 176.786 38.78C177.966 38.78 178.466 38.24 178.606 37.54H181.966C181.646 39.9 179.826 41.24 176.666 41.24ZM174.646 34.58H178.486C178.426 33.32 177.806 32.62 176.646 32.62C175.566 32.62 174.826 33.32 174.646 34.58ZM183.499 41V30.54H187.079V32.22C187.639 31.14 188.779 30.26 190.519 30.26C192.539 30.26 193.939 31.52 193.939 34.2V41H190.359V34.92C190.359 33.74 189.899 33.16 188.859 33.16C187.799 33.16 187.079 33.8 187.079 35.14V41H183.499ZM203.12 44.5V39.38C202.6 40.38 201.44 41.24 199.86 41.24C197.44 41.24 195.46 39.5 195.46 35.88V35.72C195.46 32.16 197.42 30.26 199.9 30.26C201.54 30.26 202.52 30.96 203.12 32.02V30.54H206.7V44.5H203.12ZM201.12 38.5C202.42 38.5 203.22 37.6 203.22 35.82V35.66C203.22 33.9 202.48 32.96 201.16 32.96C199.82 32.96 199.1 33.86 199.1 35.68V35.84C199.1 37.6 199.88 38.5 201.12 38.5ZM212.252 41.24C210.232 41.24 208.732 40 208.732 37.36V30.54H212.312V36.78C212.312 37.96 212.772 38.54 213.792 38.54C214.872 38.54 215.572 37.9 215.572 36.56V30.54H219.152V41H215.572V39.38C215.012 40.46 213.992 41.24 212.252 41.24ZM223.153 29.54C222.033 29.54 221.193 28.76 221.193 27.7C221.193 26.64 222.033 25.84 223.153 25.84C224.273 25.84 225.133 26.64 225.133 27.7C225.133 28.76 224.273 29.54 223.153 29.54ZM221.373 41V30.54H224.953V41H221.373ZM227.171 41V30.54H230.751V32.62C231.411 31.06 232.511 30.38 234.131 30.4V33.74C231.951 33.68 230.751 34.36 230.751 36.04V41H227.171ZM237.422 44.5L239.162 39.94L234.982 30.54H238.862L241.022 36.12L243.022 30.54H246.442L240.842 44.5H237.422ZM252.145 41V32.98H250.825V30.54H252.145V29.62C252.145 27.02 253.765 25.78 256.245 25.78C256.905 25.78 257.405 25.88 257.885 26V28.62C257.625 28.54 257.305 28.48 256.905 28.48C256.065 28.48 255.705 28.94 255.705 29.62V30.54H257.825V32.98H255.705V41H252.145ZM264.128 41.24C260.908 41.24 258.408 39.28 258.408 35.9V35.74C258.408 32.38 260.908 30.26 264.148 30.26C267.368 30.26 269.848 32.32 269.848 35.64V35.8C269.848 39.2 267.348 41.24 264.128 41.24ZM264.148 38.58C265.488 38.58 266.208 37.58 266.208 35.84V35.68C266.208 33.92 265.508 32.94 264.148 32.94C262.808 32.94 262.068 33.88 262.068 35.64V35.8C262.068 37.6 262.768 38.58 264.148 38.58ZM271.41 41V30.54H274.99V32.62C275.65 31.06 276.75 30.38 278.37 30.4V33.74C276.19 33.68 274.99 34.36 274.99 36.04V41H271.41ZM279.964 41V30.54H283.544V32.14C284.104 31.14 285.204 30.26 286.824 30.26C288.204 30.26 289.164 30.86 289.664 32C290.564 30.78 291.804 30.26 293.124 30.26C295.104 30.26 296.544 31.54 296.544 34.16V41H292.964V34.76C292.964 33.7 292.444 33.18 291.624 33.18C290.664 33.18 290.024 33.8 290.024 34.94V41H286.484V34.76C286.484 33.7 285.964 33.18 285.144 33.18C284.184 33.18 283.544 33.8 283.544 34.94V41H279.964Z" fill="#414042"/>
<rect width="299" height="42" transform="matrix(1 0 0 -1 28 118)" fill="#F8F5F2"/>
<rect x="0.5" y="-0.5" width="298" height="41" transform="matrix(1 0 0 -1 28 117)" stroke="#828282" stroke-opacity="0.5"/>
<path d="M33.26 68V57.99H34.842L39.714 66.264V57.99H40.876V68H39.476L34.422 59.418V68H33.26ZM45.1409 68.126C43.7829 68.126 42.7049 67.468 42.7049 65.97C42.7049 64.276 44.4969 63.702 46.3729 63.702H47.4229V63.17C47.4229 62.008 46.9749 61.518 45.8549 61.518C44.8469 61.518 44.2869 61.938 44.1749 62.834H43.0129C43.1669 61.168 44.4969 60.552 45.9109 60.552C47.3109 60.552 48.5849 61.126 48.5849 63.17V68H47.4229V67.076C46.8769 67.762 46.2189 68.126 45.1409 68.126ZM45.2529 67.202C46.4849 67.202 47.4229 66.572 47.4229 65.438V64.528H46.4149C44.9449 64.528 43.8669 64.892 43.8669 65.97C43.8669 66.726 44.2309 67.202 45.2529 67.202ZM50.8674 68V60.678H52.0294V61.798C52.3654 61.112 53.1634 60.552 54.2134 60.552C55.1514 60.552 55.9774 60.944 56.3554 61.924C56.8594 60.972 57.9514 60.552 58.8614 60.552C60.1774 60.552 61.3254 61.336 61.3254 63.464V68H60.1634V63.38C60.1634 62.092 59.6174 61.56 58.6094 61.56C57.6574 61.56 56.6774 62.204 56.6774 63.52V68H55.5154V63.38C55.5154 62.092 54.9694 61.56 53.9614 61.56C53.0094 61.56 52.0294 62.204 52.0294 63.52V68H50.8674ZM66.6056 68.126C64.5336 68.126 63.0636 66.67 63.0636 64.416V64.304C63.0636 62.092 64.4776 60.552 66.4936 60.552C68.1876 60.552 69.7836 61.574 69.7836 64.192V64.57H64.2676C64.3236 66.236 65.1216 67.16 66.6196 67.16C67.7536 67.16 68.4116 66.74 68.5656 65.886H69.7276C69.4756 67.356 68.2576 68.126 66.6056 68.126ZM64.3096 63.632H68.5936C68.4816 62.12 67.6976 61.518 66.4936 61.518C65.3036 61.518 64.5056 62.33 64.3096 63.632ZM71.9128 62.274L71.1148 61.7L72.2768 60.146L70.5548 59.74L70.8628 58.802L72.5148 59.474L72.4168 57.598H73.4388L73.3408 59.474L74.9788 58.802L75.2868 59.74L73.5508 60.146L74.7128 61.7L73.9288 62.274L72.8928 60.594L71.9128 62.274Z" fill="#414042"/>
<rect width="299" height="42" transform="matrix(1 0 0 -1 28 191)" fill="#F8F5F2"/>
<rect x="0.5" y="-0.5" width="298" height="41" transform="matrix(1 0 0 -1 28 190)" stroke="#828282" stroke-opacity="0.5"/>
<path d="M33.26 141V130.99H39.098V131.984H34.478V135.386H38.202V136.38H34.478V140.006H39.35V141H33.26ZM41.1057 141V133.678H42.2677V134.798C42.6037 134.112 43.4017 133.552 44.4517 133.552C45.3897 133.552 46.2157 133.944 46.5937 134.924C47.0977 133.972 48.1897 133.552 49.0997 133.552C50.4157 133.552 51.5637 134.336 51.5637 136.464V141H50.4017V136.38C50.4017 135.092 49.8557 134.56 48.8477 134.56C47.8957 134.56 46.9157 135.204 46.9157 136.52V141H45.7537V136.38C45.7537 135.092 45.2077 134.56 44.1997 134.56C43.2477 134.56 42.2677 135.204 42.2677 136.52V141H41.1057ZM55.6819 141.126C54.3239 141.126 53.2459 140.468 53.2459 138.97C53.2459 137.276 55.0379 136.702 56.9139 136.702H57.9639V136.17C57.9639 135.008 57.5159 134.518 56.3959 134.518C55.3879 134.518 54.8279 134.938 54.7159 135.834H53.5539C53.7079 134.168 55.0379 133.552 56.4519 133.552C57.8519 133.552 59.1259 134.126 59.1259 136.17V141H57.9639V140.076C57.4179 140.762 56.7599 141.126 55.6819 141.126ZM55.7939 140.202C57.0259 140.202 57.9639 139.572 57.9639 138.438V137.528H56.9559C55.4859 137.528 54.4079 137.892 54.4079 138.97C54.4079 139.726 54.7719 140.202 55.7939 140.202ZM61.9964 132.152C61.5764 132.152 61.2264 131.802 61.2264 131.382C61.2264 130.962 61.5764 130.612 61.9964 130.612C62.4164 130.612 62.7664 130.962 62.7664 131.382C62.7664 131.802 62.4164 132.152 61.9964 132.152ZM61.4364 141V133.678H62.5984V141H61.4364ZM65.0048 141V130.178H66.1808V141H65.0048ZM74.0979 141.126C72.7399 141.126 71.6619 140.468 71.6619 138.97C71.6619 137.276 73.4539 136.702 75.3299 136.702H76.3799V136.17C76.3799 135.008 75.9319 134.518 74.8119 134.518C73.8039 134.518 73.2439 134.938 73.1319 135.834H71.9699C72.1239 134.168 73.4539 133.552 74.8679 133.552C76.2679 133.552 77.5419 134.126 77.5419 136.17V141H76.3799V140.076C75.8339 140.762 75.1759 141.126 74.0979 141.126ZM74.2099 140.202C75.4419 140.202 76.3799 139.572 76.3799 138.438V137.528H75.3719C73.9019 137.528 72.8239 137.892 72.8239 138.97C72.8239 139.726 73.1879 140.202 74.2099 140.202ZM82.5824 141.126C80.6644 141.126 79.2784 139.768 79.2784 137.486V137.374C79.2784 135.134 80.6784 133.552 82.6944 133.552C83.9124 133.552 84.6684 134.14 85.0884 134.854V130.178H86.2504V141H85.0884V139.74C84.6684 140.454 83.6464 141.126 82.5824 141.126ZM82.7084 140.16C84.0664 140.16 85.1304 139.264 85.1304 137.388V137.276C85.1304 135.4 84.2344 134.518 82.8064 134.518C81.3504 134.518 80.4824 135.54 80.4824 137.318V137.43C80.4824 139.278 81.4764 140.16 82.7084 140.16ZM91.3598 141.126C89.4418 141.126 88.0558 139.768 88.0558 137.486V137.374C88.0558 135.134 89.4558 133.552 91.4718 133.552C92.6898 133.552 93.4458 134.14 93.8658 134.854V130.178H95.0278V141H93.8658V139.74C93.4458 140.454 92.4238 141.126 91.3598 141.126ZM91.4858 140.16C92.8438 140.16 93.9078 139.264 93.9078 137.388V137.276C93.9078 135.4 93.0118 134.518 91.5838 134.518C90.1278 134.518 89.2598 135.54 89.2598 137.318V137.43C89.2598 139.278 90.2538 140.16 91.4858 140.16ZM97.3791 141V133.678H98.5411V134.994C99.0031 134.168 99.6331 133.594 100.949 133.552V134.644C99.4791 134.714 98.5411 135.176 98.5411 136.982V141H97.3791ZM105.434 141.126C103.362 141.126 101.892 139.67 101.892 137.416V137.304C101.892 135.092 103.306 133.552 105.322 133.552C107.016 133.552 108.612 134.574 108.612 137.192V137.57H103.096C103.152 139.236 103.95 140.16 105.448 140.16C106.582 140.16 107.24 139.74 107.394 138.886H108.556C108.304 140.356 107.086 141.126 105.434 141.126ZM103.138 136.632H107.422C107.31 135.12 106.526 134.518 105.322 134.518C104.132 134.518 103.334 135.33 103.138 136.632ZM112.731 141.126C110.981 141.126 109.931 140.244 109.861 138.746H110.995C111.079 139.614 111.541 140.16 112.717 140.16C113.823 140.16 114.313 139.782 114.313 138.998C114.313 138.228 113.739 137.976 112.605 137.766C110.701 137.416 110.057 136.884 110.057 135.61C110.057 134.252 111.387 133.552 112.535 133.552C113.851 133.552 114.985 134.084 115.181 135.666H114.061C113.893 134.868 113.445 134.518 112.521 134.518C111.681 134.518 111.135 134.938 111.135 135.568C111.135 136.226 111.499 136.492 112.843 136.73C114.355 137.01 115.419 137.346 115.419 138.9C115.419 140.23 114.509 141.126 112.731 141.126ZM119.458 141.126C117.708 141.126 116.658 140.244 116.588 138.746H117.722C117.806 139.614 118.268 140.16 119.444 140.16C120.55 140.16 121.04 139.782 121.04 138.998C121.04 138.228 120.466 137.976 119.332 137.766C117.428 137.416 116.784 136.884 116.784 135.61C116.784 134.252 118.114 133.552 119.262 133.552C120.578 133.552 121.712 134.084 121.908 135.666H120.788C120.62 134.868 120.172 134.518 119.248 134.518C118.408 134.518 117.862 134.938 117.862 135.568C117.862 136.226 118.226 136.492 119.57 136.73C121.082 137.01 122.146 137.346 122.146 138.9C122.146 140.23 121.236 141.126 119.458 141.126ZM124.262 135.274L123.464 134.7L124.626 133.146L122.904 132.74L123.212 131.802L124.864 132.474L124.766 130.598H125.788L125.69 132.474L127.328 131.802L127.636 132.74L125.9 133.146L127.062 134.7L126.278 135.274L125.242 133.594L124.262 135.274Z" fill="#414042"/>
<rect width="299" height="42" transform="matrix(1 0 0 -1 28 264)" fill="#F8F5F2"/>
<rect x="0.5" y="-0.5" width="298" height="41" transform="matrix(1 0 0 -1 28 263)" stroke="#828282" stroke-opacity="0.5"/>
<path d="M33.26 214V203.99H36.102C38.02 203.99 39.602 204.83 39.602 206.916V206.972C39.602 209.1 38.006 209.926 36.102 209.926H34.478V214H33.26ZM34.478 208.96H36.186C37.614 208.96 38.384 208.26 38.384 206.972V206.916C38.384 205.502 37.544 204.97 36.186 204.97H34.478V208.96ZM41.3108 214V203.178H42.4728V207.84C42.8088 207.154 43.6208 206.552 44.8248 206.552C46.3368 206.552 47.4008 207.378 47.4008 209.506V214H46.2388V209.422C46.2388 208.134 45.6928 207.56 44.5168 207.56C43.4388 207.56 42.4728 208.246 42.4728 209.562V214H41.3108ZM52.716 214.126C50.63 214.126 49.132 212.544 49.132 210.402V210.29C49.132 208.092 50.658 206.552 52.73 206.552C54.802 206.552 56.328 208.078 56.328 210.276V210.388C56.328 212.6 54.802 214.126 52.716 214.126ZM52.73 213.16C54.2 213.16 55.124 212.054 55.124 210.402V210.304C55.124 208.61 54.186 207.518 52.73 207.518C51.26 207.518 50.336 208.61 50.336 210.29V210.402C50.336 212.068 51.246 213.16 52.73 213.16ZM58.1272 214V206.678H59.2892V207.84C59.6252 207.154 60.4372 206.552 61.6412 206.552C63.1532 206.552 64.2172 207.378 64.2172 209.506V214H63.0552V209.422C63.0552 208.134 62.5092 207.56 61.3332 207.56C60.2552 207.56 59.2892 208.246 59.2892 209.562V214H58.1272ZM69.4904 214.126C67.4184 214.126 65.9484 212.67 65.9484 210.416V210.304C65.9484 208.092 67.3624 206.552 69.3784 206.552C71.0724 206.552 72.6684 207.574 72.6684 210.192V210.57H67.1524C67.2084 212.236 68.0064 213.16 69.5044 213.16C70.6384 213.16 71.2964 212.74 71.4504 211.886H72.6124C72.3604 213.356 71.1424 214.126 69.4904 214.126ZM67.1944 209.632H71.4784C71.3664 208.12 70.5824 207.518 69.3784 207.518C68.1884 207.518 67.3904 208.33 67.1944 209.632ZM78.1565 214V206.678H79.3185V207.84C79.6545 207.154 80.4665 206.552 81.6705 206.552C83.1825 206.552 84.2465 207.378 84.2465 209.506V214H83.0845V209.422C83.0845 208.134 82.5385 207.56 81.3625 207.56C80.2845 207.56 79.3185 208.246 79.3185 209.562V214H78.1565ZM89.0017 214.126C87.5457 214.126 86.4537 213.328 86.4537 211.312V206.678H87.6157V211.256C87.6157 212.544 88.1617 213.118 89.3097 213.118C90.3457 213.118 91.3257 212.432 91.3257 211.116V206.678H92.4877V214H91.3257V212.838C90.9897 213.524 90.1777 214.126 89.0017 214.126ZM94.8362 214V206.678H95.9982V207.798C96.3342 207.112 97.1322 206.552 98.1822 206.552C99.1202 206.552 99.9462 206.944 100.324 207.924C100.828 206.972 101.92 206.552 102.83 206.552C104.146 206.552 105.294 207.336 105.294 209.464V214H104.132V209.38C104.132 208.092 103.586 207.56 102.578 207.56C101.626 207.56 100.646 208.204 100.646 209.52V214H99.4842V209.38C99.4842 208.092 98.9382 207.56 97.9302 207.56C96.9782 207.56 95.9982 208.204 95.9982 209.52V214H94.8362ZM111.218 214.126C110.028 214.126 109.16 213.524 108.74 212.796V214H107.578V203.178H108.74V207.91C109.16 207.196 110.154 206.552 111.218 206.552C113.136 206.552 114.55 207.952 114.55 210.234V210.346C114.55 212.586 113.234 214.126 111.218 214.126ZM111.106 213.16C112.562 213.16 113.346 212.18 113.346 210.402V210.29C113.346 208.442 112.324 207.518 111.092 207.518C109.734 207.518 108.698 208.414 108.698 210.29V210.402C108.698 212.278 109.678 213.16 111.106 213.16ZM119.352 214.126C117.28 214.126 115.81 212.67 115.81 210.416V210.304C115.81 208.092 117.224 206.552 119.24 206.552C120.934 206.552 122.53 207.574 122.53 210.192V210.57H117.014C117.07 212.236 117.868 213.16 119.366 213.16C120.5 213.16 121.158 212.74 121.312 211.886H122.474C122.222 213.356 121.004 214.126 119.352 214.126ZM117.056 209.632H121.34C121.228 208.12 120.444 207.518 119.24 207.518C118.05 207.518 117.252 208.33 117.056 209.632ZM124.313 214V206.678H125.475V207.994C125.937 207.168 126.567 206.594 127.883 206.552V207.644C126.413 207.714 125.475 208.176 125.475 209.982V214H124.313ZM130.62 208.274L129.822 207.7L130.984 206.146L129.262 205.74L129.57 204.802L131.222 205.474L131.124 203.598H132.146L132.048 205.474L133.686 204.802L133.994 205.74L132.258 206.146L133.42 207.7L132.636 208.274L131.6 206.594L130.62 208.274Z" fill="#414042"/>
<rect width="299" height="113" transform="matrix(1 0 0 -1 28 408)" fill="#F8F5F2"/>
<rect x="0.5" y="-0.5" width="298" height="112" transform="matrix(1 0 0 -1 28 407)" stroke="#828282" stroke-opacity="0.5"/>
<path d="M33.26 287V276.99H34.954L38.048 284.788L41.044 276.99H42.724V287H41.506V278.572L38.188 287H37.81L34.38 278.572V287H33.26ZM48.1622 287.126C46.0902 287.126 44.6202 285.67 44.6202 283.416V283.304C44.6202 281.092 46.0342 279.552 48.0502 279.552C49.7442 279.552 51.3402 280.574 51.3402 283.192V283.57H45.8242C45.8802 285.236 46.6782 286.16 48.1762 286.16C49.3102 286.16 49.9682 285.74 50.1222 284.886H51.2842C51.0322 286.356 49.8142 287.126 48.1622 287.126ZM45.8662 282.632H50.1502C50.0382 281.12 49.2542 280.518 48.0502 280.518C46.8602 280.518 46.0622 281.33 45.8662 282.632ZM55.4596 287.126C53.7096 287.126 52.6596 286.244 52.5896 284.746H53.7236C53.8076 285.614 54.2696 286.16 55.4456 286.16C56.5516 286.16 57.0416 285.782 57.0416 284.998C57.0416 284.228 56.4676 283.976 55.3336 283.766C53.4296 283.416 52.7856 282.884 52.7856 281.61C52.7856 280.252 54.1156 279.552 55.2636 279.552C56.5796 279.552 57.7136 280.084 57.9096 281.666H56.7896C56.6216 280.868 56.1736 280.518 55.2496 280.518C54.4096 280.518 53.8636 280.938 53.8636 281.568C53.8636 282.226 54.2276 282.492 55.5716 282.73C57.0836 283.01 58.1476 283.346 58.1476 284.9C58.1476 286.23 57.2376 287.126 55.4596 287.126ZM62.1862 287.126C60.4362 287.126 59.3862 286.244 59.3162 284.746H60.4502C60.5342 285.614 60.9962 286.16 62.1722 286.16C63.2782 286.16 63.7682 285.782 63.7682 284.998C63.7682 284.228 63.1942 283.976 62.0602 283.766C60.1562 283.416 59.5122 282.884 59.5122 281.61C59.5122 280.252 60.8422 279.552 61.9902 279.552C63.3062 279.552 64.4402 280.084 64.6362 281.666H63.5162C63.3482 280.868 62.9002 280.518 61.9762 280.518C61.1362 280.518 60.5902 280.938 60.5902 281.568C60.5902 282.226 60.9542 282.492 62.2982 282.73C63.8102 283.01 64.8742 283.346 64.8742 284.9C64.8742 286.23 63.9642 287.126 62.1862 287.126ZM68.4788 287.126C67.1208 287.126 66.0428 286.468 66.0428 284.97C66.0428 283.276 67.8348 282.702 69.7108 282.702H70.7608V282.17C70.7608 281.008 70.3128 280.518 69.1928 280.518C68.1848 280.518 67.6248 280.938 67.5128 281.834H66.3508C66.5048 280.168 67.8348 279.552 69.2488 279.552C70.6488 279.552 71.9228 280.126 71.9228 282.17V287H70.7608V286.076C70.2148 286.762 69.5568 287.126 68.4788 287.126ZM68.5908 286.202C69.8228 286.202 70.7608 285.572 70.7608 284.438V283.528H69.7528C68.2828 283.528 67.2048 283.892 67.2048 284.97C67.2048 285.726 67.5688 286.202 68.5908 286.202ZM77.1313 289.674C74.9613 289.674 74.0093 288.652 73.8133 287.42H75.0033C75.1713 288.26 75.8713 288.694 77.1173 288.694C78.5593 288.694 79.4693 288.008 79.4693 286.44V285.376C79.0493 286.09 78.0553 286.762 76.9913 286.762C75.0733 286.762 73.6593 285.306 73.6593 283.29V283.192C73.6593 281.204 75.0593 279.552 77.0753 279.552C78.2933 279.552 79.0493 280.14 79.4693 280.854V279.678H80.6313V286.51C80.6173 288.638 79.1753 289.674 77.1313 289.674ZM77.1173 285.796C78.4753 285.796 79.5113 284.844 79.5113 283.206V283.108C79.5113 281.47 78.6153 280.518 77.1873 280.518C75.7313 280.518 74.8633 281.596 74.8633 283.136V283.248C74.8633 284.844 75.8853 285.796 77.1173 285.796ZM85.9786 287.126C83.9066 287.126 82.4366 285.67 82.4366 283.416V283.304C82.4366 281.092 83.8506 279.552 85.8666 279.552C87.5606 279.552 89.1566 280.574 89.1566 283.192V283.57H83.6406C83.6966 285.236 84.4946 286.16 85.9926 286.16C87.1266 286.16 87.7846 285.74 87.9386 284.886H89.1006C88.8486 286.356 87.6306 287.126 85.9786 287.126ZM83.6826 282.632H87.9666C87.8546 281.12 87.0706 280.518 85.8666 280.518C84.6766 280.518 83.8786 281.33 83.6826 282.632Z" fill="#414042"/>
<rect x="82" y="432" width="182" height="44" rx="22" fill="#414042"/>
<path d="M118.998 460.176C115.862 460.176 114.422 458.704 114.278 456.416H116.758C116.87 457.44 117.302 458.288 118.998 458.288C120.134 458.288 120.886 457.664 120.886 456.768C120.886 455.856 120.406 455.536 118.726 455.28C115.798 454.896 114.598 454.016 114.598 451.808C114.598 449.856 116.23 448.4 118.758 448.4C121.334 448.4 122.838 449.552 123.046 451.824H120.662C120.502 450.784 119.894 450.304 118.758 450.304C117.622 450.304 117.046 450.832 117.046 451.6C117.046 452.416 117.414 452.8 119.174 453.056C121.942 453.408 123.366 454.16 123.366 456.528C123.366 458.56 121.702 460.176 118.998 460.176ZM127.761 460.176C126.129 460.176 124.913 459.216 124.913 457.024V451.632H127.217V456.704C127.217 457.84 127.681 458.384 128.673 458.384C129.649 458.384 130.417 457.776 130.417 456.544V451.632H132.721V460H130.417V458.688C129.985 459.536 129.137 460.176 127.761 460.176ZM139.766 460.176C138.47 460.176 137.526 459.536 137.094 458.672V460H134.774V447.84H137.094V452.944C137.558 452.144 138.534 451.44 139.766 451.44C141.814 451.44 143.414 452.96 143.414 455.728V455.856C143.414 458.624 141.846 460.176 139.766 460.176ZM139.078 458.368C140.358 458.368 141.062 457.504 141.062 455.872V455.744C141.062 454.048 140.23 453.216 139.062 453.216C137.846 453.216 137.014 454.064 137.014 455.744V455.872C137.014 457.552 137.814 458.368 139.078 458.368ZM144.962 460V451.632H147.282V452.912C147.698 452.128 148.594 451.44 149.842 451.44C150.946 451.44 151.778 451.904 152.178 452.896C152.85 451.888 153.938 451.44 154.994 451.44C156.546 451.44 157.746 452.416 157.746 454.64V460H155.442V454.896C155.442 453.824 154.962 453.344 154.13 453.344C153.234 453.344 152.514 453.92 152.514 455.056V460H150.21V454.896C150.21 453.824 149.714 453.344 148.898 453.344C148.002 453.344 147.282 453.92 147.282 455.056V460H144.962ZM160.927 450.496C160.191 450.496 159.615 449.952 159.615 449.232C159.615 448.512 160.191 447.968 160.927 447.968C161.679 447.968 162.255 448.512 162.255 449.232C162.255 449.952 161.679 450.496 160.927 450.496ZM159.791 460V451.632H162.095V460H159.791ZM167.283 460.16C165.523 460.16 164.579 459.264 164.579 457.52V453.28H163.507V451.632H164.579V449.824H166.883V451.632H168.643V453.28H166.883V457.312C166.883 457.984 167.219 458.304 167.811 458.304C168.163 458.304 168.419 458.256 168.691 458.144V459.936C168.371 460.048 167.907 460.16 167.283 460.16ZM177.661 460.176C175.133 460.176 173.293 458.592 173.293 455.92V455.792C173.293 453.152 175.165 451.44 177.597 451.44C179.757 451.44 181.677 452.704 181.677 455.696V456.336H175.645C175.709 457.728 176.461 458.528 177.725 458.528C178.797 458.528 179.325 458.064 179.469 457.36H181.661C181.389 459.168 179.949 460.176 177.661 460.176ZM175.677 454.912H179.421C179.341 453.648 178.701 453.04 177.597 453.04C176.557 453.04 175.853 453.728 175.677 454.912ZM183.196 460V451.632H185.516V452.96C185.932 452.128 186.844 451.44 188.236 451.44C189.884 451.44 191.052 452.432 191.052 454.672V460H188.732V455.008C188.732 453.872 188.284 453.328 187.26 453.328C186.268 453.328 185.516 453.936 185.516 455.168V460H183.196ZM198.864 462.848V458.656C198.432 459.456 197.408 460.176 196.176 460.176C194.144 460.176 192.544 458.72 192.544 455.936V455.808C192.544 453.056 194.128 451.44 196.224 451.44C197.568 451.44 198.4 452.032 198.864 452.88V451.632H201.168V462.848H198.864ZM196.864 458.368C198.08 458.368 198.928 457.552 198.928 455.856V455.728C198.928 454.064 198.192 453.216 196.928 453.216C195.632 453.216 194.912 454.096 194.912 455.76V455.888C194.912 457.552 195.712 458.368 196.864 458.368ZM206.011 460.176C204.379 460.176 203.163 459.216 203.163 457.024V451.632H205.467V456.704C205.467 457.84 205.931 458.384 206.923 458.384C207.899 458.384 208.667 457.776 208.667 456.544V451.632H210.971V460H208.667V458.688C208.235 459.536 207.387 460.176 206.011 460.176ZM214.224 450.496C213.488 450.496 212.912 449.952 212.912 449.232C212.912 448.512 213.488 447.968 214.224 447.968C214.976 447.968 215.552 448.512 215.552 449.232C215.552 449.952 214.976 450.496 214.224 450.496ZM213.088 460V451.632H215.392V460H213.088ZM217.524 460V451.632H219.844V453.232C220.372 452.112 221.188 451.52 222.548 451.504V453.664C220.836 453.648 219.844 454.208 219.844 455.808V460H217.524ZM225.236 462.848L226.708 459.152L223.38 451.632H225.876L227.908 456.656L229.78 451.632H232.004L227.476 462.848H225.236Z" fill="#F8F5F2"/>
<path d="M59.204 509V508.558L63.658 503.849C64.831 502.608 65.579 501.537 65.579 500.432C65.579 499.429 65.018 498.783 63.964 498.783C62.893 498.783 62.213 499.412 62.026 501.01H59.527C59.663 498.205 61.363 496.675 64.083 496.675C66.769 496.675 68.299 498.171 68.299 500.364C68.299 501.979 67.364 503.305 65.953 504.665L63.658 506.909H68.384V509H59.204ZM75.1541 509V506.586H69.1871V505.583L74.4401 496.845H77.8231V504.614H79.4211V506.586H77.8231V509H75.1541ZM71.9411 504.614H75.2051V498.919L71.9411 504.614ZM84.7579 509V496.08H87.2229V501.52C87.6649 500.636 88.6339 499.905 90.1129 499.905C91.8639 499.905 93.1049 500.959 93.1049 503.339V509H90.6399V503.696C90.6399 502.489 90.1639 501.911 89.0759 501.911C88.0219 501.911 87.2229 502.557 87.2229 503.866V509H84.7579ZM99.3479 509.187C96.6959 509.187 94.6729 507.419 94.6729 504.648V504.512C94.6729 501.724 96.6959 499.905 99.3649 499.905C102.034 499.905 104.04 501.69 104.04 504.461V504.597C104.04 507.402 102.017 509.187 99.3479 509.187ZM99.3649 507.317C100.742 507.317 101.541 506.297 101.541 504.614V504.495C101.541 502.795 100.742 501.775 99.3649 501.775C98.0049 501.775 97.1889 502.761 97.1889 504.461V504.597C97.1889 506.297 97.9709 507.317 99.3649 507.317ZM108.65 509.187C106.916 509.187 105.624 508.167 105.624 505.838V500.109H108.072V505.498C108.072 506.705 108.565 507.283 109.619 507.283C110.656 507.283 111.472 506.637 111.472 505.328V500.109H113.92V509H111.472V507.606C111.013 508.507 110.112 509.187 108.65 509.187ZM116.102 509V500.109H118.567V501.809C119.128 500.619 119.995 499.99 121.44 499.973V502.268C119.621 502.251 118.567 502.846 118.567 504.546V509H116.102ZM126.826 509V500.109H129.291V501.809C129.852 500.619 130.719 499.99 132.164 499.973V502.268C130.345 502.251 129.291 502.846 129.291 504.546V509H126.826ZM137.73 509.187C135.044 509.187 133.089 507.504 133.089 504.665V504.529C133.089 501.724 135.078 499.905 137.662 499.905C139.957 499.905 141.997 501.248 141.997 504.427V505.107H135.588C135.656 506.586 136.455 507.436 137.798 507.436C138.937 507.436 139.498 506.943 139.651 506.195H141.98C141.691 508.116 140.161 509.187 137.73 509.187ZM135.622 503.594H139.6C139.515 502.251 138.835 501.605 137.662 501.605C136.557 501.605 135.809 502.336 135.622 503.594ZM146.923 509.187C144.526 509.187 143.132 508.133 143.047 506.212H145.342C145.444 507.011 145.835 507.47 146.906 507.47C147.858 507.47 148.3 507.113 148.3 506.501C148.3 505.889 147.773 505.634 146.498 505.447C144.135 505.09 143.217 504.41 143.217 502.676C143.217 500.823 144.917 499.905 146.736 499.905C148.708 499.905 150.187 500.619 150.408 502.659H148.147C148.011 501.928 147.603 501.588 146.753 501.588C145.954 501.588 145.495 501.962 145.495 502.506C145.495 503.067 145.92 503.288 147.212 503.475C149.439 503.798 150.663 504.359 150.663 506.263C150.663 508.184 149.269 509.187 146.923 509.187ZM152.227 512.026V500.109H154.692V501.503C155.185 500.653 156.222 499.905 157.531 499.905C159.707 499.905 161.407 501.52 161.407 504.461V504.597C161.407 507.538 159.741 509.187 157.531 509.187C156.154 509.187 155.151 508.507 154.692 507.64V512.026H152.227ZM156.8 507.266C158.16 507.266 158.908 506.348 158.908 504.614V504.478C158.908 502.676 158.024 501.792 156.783 501.792C155.491 501.792 154.607 502.693 154.607 504.478V504.614C154.607 506.399 155.457 507.266 156.8 507.266ZM167.182 509.187C164.53 509.187 162.507 507.419 162.507 504.648V504.512C162.507 501.724 164.53 499.905 167.199 499.905C169.868 499.905 171.874 501.69 171.874 504.461V504.597C171.874 507.402 169.851 509.187 167.182 509.187ZM167.199 507.317C168.576 507.317 169.375 506.297 169.375 504.614V504.495C169.375 502.795 168.576 501.775 167.199 501.775C165.839 501.775 165.023 502.761 165.023 504.461V504.597C165.023 506.297 165.805 507.317 167.199 507.317ZM173.526 509V500.109H175.991V501.52C176.433 500.636 177.402 499.905 178.881 499.905C180.632 499.905 181.873 500.959 181.873 503.339V509H179.408V503.696C179.408 502.489 178.932 501.911 177.844 501.911C176.79 501.911 175.991 502.557 175.991 503.866V509H173.526ZM187.215 509.187C184.818 509.187 183.424 508.133 183.339 506.212H185.634C185.736 507.011 186.127 507.47 187.198 507.47C188.15 507.47 188.592 507.113 188.592 506.501C188.592 505.889 188.065 505.634 186.79 505.447C184.427 505.09 183.509 504.41 183.509 502.676C183.509 500.823 185.209 499.905 187.028 499.905C189 499.905 190.479 500.619 190.7 502.659H188.439C188.303 501.928 187.895 501.588 187.045 501.588C186.246 501.588 185.787 501.962 185.787 502.506C185.787 503.067 186.212 503.288 187.504 503.475C189.731 503.798 190.955 504.359 190.955 506.263C190.955 508.184 189.561 509.187 187.215 509.187ZM196.649 509.187C193.963 509.187 192.008 507.504 192.008 504.665V504.529C192.008 501.724 193.997 499.905 196.581 499.905C198.876 499.905 200.916 501.248 200.916 504.427V505.107H194.507C194.575 506.586 195.374 507.436 196.717 507.436C197.856 507.436 198.417 506.943 198.57 506.195H200.899C200.61 508.116 199.08 509.187 196.649 509.187ZM194.541 503.594H198.519C198.434 502.251 197.754 501.605 196.581 501.605C195.476 501.605 194.728 502.336 194.541 503.594ZM209.545 509.17C207.675 509.17 206.672 508.218 206.672 506.365V501.86H205.533V500.109H206.672V498.188H209.12V500.109H210.99V501.86H209.12V506.144C209.12 506.858 209.477 507.198 210.106 507.198C210.48 507.198 210.752 507.147 211.041 507.028V508.932C210.701 509.051 210.208 509.17 209.545 509.17ZM213.981 498.902C213.199 498.902 212.587 498.324 212.587 497.559C212.587 496.794 213.199 496.216 213.981 496.216C214.78 496.216 215.392 496.794 215.392 497.559C215.392 498.324 214.78 498.902 213.981 498.902ZM212.774 509V500.109H215.222V509H212.774ZM217.487 509V500.109H219.952V501.469C220.394 500.636 221.346 499.905 222.672 499.905C223.845 499.905 224.729 500.398 225.154 501.452C225.868 500.381 227.024 499.905 228.146 499.905C229.795 499.905 231.07 500.942 231.07 503.305V509H228.622V503.577C228.622 502.438 228.112 501.928 227.228 501.928C226.276 501.928 225.511 502.54 225.511 503.747V509H223.063V503.577C223.063 502.438 222.536 501.928 221.669 501.928C220.717 501.928 219.952 502.54 219.952 503.747V509H217.487ZM237.273 509.187C234.587 509.187 232.632 507.504 232.632 504.665V504.529C232.632 501.724 234.621 499.905 237.205 499.905C239.5 499.905 241.54 501.248 241.54 504.427V505.107H235.131C235.199 506.586 235.998 507.436 237.341 507.436C238.48 507.436 239.041 506.943 239.194 506.195H241.523C241.234 508.116 239.704 509.187 237.273 509.187ZM235.165 503.594H239.143C239.058 502.251 238.378 501.605 237.205 501.605C236.1 501.605 235.352 502.336 235.165 503.594ZM250.866 512.281C247.993 512.281 246.684 511.023 246.446 509.187H248.894C249.047 509.969 249.608 510.479 250.866 510.479C252.362 510.479 253.11 509.697 253.11 508.303V506.96C252.617 507.827 251.563 508.609 250.254 508.609C248.095 508.609 246.378 506.994 246.378 504.359V504.24C246.378 501.69 248.078 499.905 250.288 499.905C251.733 499.905 252.6 500.534 253.11 501.435V500.109H255.558V508.303C255.541 510.938 253.79 512.281 250.866 512.281ZM250.985 506.756C252.277 506.756 253.178 505.838 253.178 504.325V504.206C253.178 502.693 252.379 501.775 251.036 501.775C249.659 501.775 248.894 502.761 248.894 504.223V504.359C248.894 505.838 249.761 506.756 250.985 506.756ZM260.688 509.187C258.954 509.187 257.662 508.167 257.662 505.838V500.109H260.11V505.498C260.11 506.705 260.603 507.283 261.657 507.283C262.694 507.283 263.51 506.637 263.51 505.328V500.109H265.958V509H263.51V507.606C263.051 508.507 262.15 509.187 260.688 509.187ZM270.536 509.187C268.921 509.187 267.561 508.405 267.561 506.535C267.561 504.461 269.465 503.679 272.185 503.679H273.188V503.322C273.188 502.268 272.865 501.69 271.743 501.69C270.774 501.69 270.332 502.183 270.23 502.948H267.901C268.054 500.84 269.72 499.905 271.896 499.905C274.072 499.905 275.619 500.789 275.619 503.203V509H273.222V507.929C272.712 508.643 271.93 509.187 270.536 509.187ZM271.267 507.47C272.355 507.47 273.188 506.875 273.188 505.889V505.141H272.236C270.808 505.141 269.975 505.447 269.975 506.399C269.975 507.045 270.366 507.47 271.267 507.47ZM277.734 509V500.109H280.199V501.809C280.76 500.619 281.627 499.99 283.072 499.973V502.268C281.253 502.251 280.199 502.846 280.199 504.546V509H277.734ZM286.938 509.187C285.323 509.187 283.963 508.405 283.963 506.535C283.963 504.461 285.867 503.679 288.587 503.679H289.59V503.322C289.59 502.268 289.267 501.69 288.145 501.69C287.176 501.69 286.734 502.183 286.632 502.948H284.303C284.456 500.84 286.122 499.905 288.298 499.905C290.474 499.905 292.021 500.789 292.021 503.203V509H289.624V507.929C289.114 508.643 288.332 509.187 286.938 509.187ZM287.669 507.47C288.757 507.47 289.59 506.875 289.59 505.889V505.141H288.638C287.21 505.141 286.377 505.447 286.377 506.399C286.377 507.045 286.768 507.47 287.669 507.47ZM294.137 509V500.109H296.602V501.52C297.044 500.636 298.013 499.905 299.492 499.905C301.243 499.905 302.484 500.959 302.484 503.339V509H300.019V503.696C300.019 502.489 299.543 501.911 298.455 501.911C297.401 501.911 296.602 502.557 296.602 503.866V509H294.137ZM307.843 509.17C305.973 509.17 304.97 508.218 304.97 506.365V501.86H303.831V500.109H304.97V498.188H307.418V500.109H309.288V501.86H307.418V506.144C307.418 506.858 307.775 507.198 308.404 507.198C308.778 507.198 309.05 507.147 309.339 507.028V508.932C308.999 509.051 308.506 509.17 307.843 509.17ZM315.101 509.187C312.415 509.187 310.46 507.504 310.46 504.665V504.529C310.46 501.724 312.449 499.905 315.033 499.905C317.328 499.905 319.368 501.248 319.368 504.427V505.107H312.959C313.027 506.586 313.826 507.436 315.169 507.436C316.308 507.436 316.869 506.943 317.022 506.195H319.351C319.062 508.116 317.532 509.187 315.101 509.187ZM312.993 503.594H316.971C316.886 502.251 316.206 501.605 315.033 501.605C313.928 501.605 313.18 502.336 312.993 503.594ZM325.079 509.187C322.393 509.187 320.438 507.504 320.438 504.665V504.529C320.438 501.724 322.427 499.905 325.011 499.905C327.306 499.905 329.346 501.248 329.346 504.427V505.107H322.937C323.005 506.586 323.804 507.436 325.147 507.436C326.286 507.436 326.847 506.943 327 506.195H329.329C329.04 508.116 327.51 509.187 325.079 509.187ZM322.971 503.594H326.949C326.864 502.251 326.184 501.605 325.011 501.605C323.906 501.605 323.158 502.336 322.971 503.594Z" fill="#414042"/>
<circle cx="38.8" cy="503.8" r="11.8" fill="#38B44A"/>
<path d="M31.9688 505.042L36.3161 509.389L46.253 499.452" stroke="#F8F5F2" stroke-width="1.5" stroke-linecap="round" stroke-linejoin="round"/>
<path d="M135.731 530.092L135.047 529.6L136.043 528.268L134.567 527.92L134.831 527.116L136.247 527.692L136.163 526.084H137.039L136.955 527.692L138.359 527.116L138.623 527.92L137.135 528.268L138.131 529.6L137.459 530.092L136.571 528.652L135.731 530.092ZM140.016 535V528.724H141.012V529.852C141.408 529.144 141.948 528.652 143.076 528.616V529.552C141.816 529.612 141.012 530.008 141.012 531.556V535H140.016ZM146.92 535.108C145.144 535.108 143.884 533.86 143.884 531.928V531.832C143.884 529.936 145.096 528.616 146.824 528.616C148.276 528.616 149.644 529.492 149.644 531.736V532.06H144.916C144.964 533.488 145.648 534.28 146.932 534.28C147.904 534.28 148.468 533.92 148.6 533.188H149.596C149.38 534.448 148.336 535.108 146.92 535.108ZM144.952 531.256H148.624C148.528 529.96 147.856 529.444 146.824 529.444C145.804 529.444 145.12 530.14 144.952 531.256ZM155.684 537.184V533.92C155.324 534.532 154.448 535.108 153.536 535.108C151.892 535.108 150.704 533.944 150.704 531.988V531.892C150.704 529.972 151.904 528.616 153.632 528.616C154.676 528.616 155.324 529.12 155.684 529.732V528.724H156.68V537.184H155.684ZM153.644 534.28C154.808 534.28 155.72 533.512 155.72 531.904V531.808C155.72 530.2 154.952 529.444 153.728 529.444C152.48 529.444 151.736 530.32 151.736 531.844V531.94C151.736 533.524 152.588 534.28 153.644 534.28ZM160.82 535.108C159.572 535.108 158.636 534.424 158.636 532.696V528.724H159.632V532.648C159.632 533.752 160.1 534.244 161.084 534.244C161.972 534.244 162.812 533.656 162.812 532.528V528.724H163.808V535H162.812V534.004C162.524 534.592 161.828 535.108 160.82 535.108ZM166.325 527.416C165.965 527.416 165.665 527.116 165.665 526.756C165.665 526.396 165.965 526.096 166.325 526.096C166.685 526.096 166.985 526.396 166.985 526.756C166.985 527.116 166.685 527.416 166.325 527.416ZM165.845 535V528.724H166.841V535H165.845ZM168.879 535V528.724H169.875V529.852C170.271 529.144 170.811 528.652 171.939 528.616V529.552C170.679 529.612 169.875 530.008 169.875 531.556V535H168.879ZM175.783 535.108C174.007 535.108 172.747 533.86 172.747 531.928V531.832C172.747 529.936 173.959 528.616 175.687 528.616C177.139 528.616 178.507 529.492 178.507 531.736V532.06H173.779C173.827 533.488 174.511 534.28 175.795 534.28C176.767 534.28 177.331 533.92 177.463 533.188H178.459C178.243 534.448 177.199 535.108 175.783 535.108ZM173.815 531.256H177.487C177.391 529.96 176.719 529.444 175.687 529.444C174.667 529.444 173.983 530.14 173.815 531.256ZM182.399 535.108C180.755 535.108 179.567 533.944 179.567 531.988V531.892C179.567 529.972 180.767 528.616 182.495 528.616C183.539 528.616 184.187 529.12 184.547 529.732V525.724H185.543V535H184.547V533.92C184.187 534.532 183.311 535.108 182.399 535.108ZM182.507 534.28C183.671 534.28 184.583 533.512 184.583 531.904V531.808C184.583 530.2 183.815 529.444 182.591 529.444C181.343 529.444 180.599 530.32 180.599 531.844V531.94C180.599 533.524 181.451 534.28 182.507 534.28ZM190.951 535V529.564H190.051V528.724H190.951V527.704C190.951 526.432 191.563 525.688 192.799 525.688C193.123 525.688 193.291 525.712 193.483 525.784V526.624C193.303 526.552 193.111 526.516 192.835 526.516C192.199 526.516 191.947 526.96 191.947 527.596V528.724H193.483V529.564H191.947V535H190.951ZM195.211 527.416C194.851 527.416 194.551 527.116 194.551 526.756C194.551 526.396 194.851 526.096 195.211 526.096C195.571 526.096 195.871 526.396 195.871 526.756C195.871 527.116 195.571 527.416 195.211 527.416ZM194.731 535V528.724H195.727V535H194.731ZM200.334 535.108C198.558 535.108 197.298 533.86 197.298 531.928V531.832C197.298 529.936 198.51 528.616 200.238 528.616C201.69 528.616 203.058 529.492 203.058 531.736V532.06H198.33C198.378 533.488 199.062 534.28 200.346 534.28C201.318 534.28 201.882 533.92 202.014 533.188H203.01C202.794 534.448 201.75 535.108 200.334 535.108ZM198.366 531.256H202.038C201.942 529.96 201.27 529.444 200.238 529.444C199.218 529.444 198.534 530.14 198.366 531.256ZM204.61 535V525.724H205.618V535H204.61ZM210.02 535.108C208.376 535.108 207.188 533.944 207.188 531.988V531.892C207.188 529.972 208.388 528.616 210.116 528.616C211.16 528.616 211.808 529.12 212.168 529.732V525.724H213.164V535H212.168V533.92C211.808 534.532 210.932 535.108 210.02 535.108ZM210.128 534.28C211.292 534.28 212.204 533.512 212.204 531.904V531.808C212.204 530.2 211.436 529.444 210.212 529.444C208.964 529.444 208.22 530.32 208.22 531.844V531.94C208.22 533.524 209.072 534.28 210.128 534.28ZM217.124 535.108C215.624 535.108 214.724 534.352 214.664 533.068H215.636C215.708 533.812 216.104 534.28 217.112 534.28C218.06 534.28 218.48 533.956 218.48 533.284C218.48 532.624 217.988 532.408 217.016 532.228C215.384 531.928 214.832 531.472 214.832 530.38C214.832 529.216 215.972 528.616 216.956 528.616C218.084 528.616 219.056 529.072 219.224 530.428H218.264C218.12 529.744 217.736 529.444 216.944 529.444C216.224 529.444 215.756 529.804 215.756 530.344C215.756 530.908 216.068 531.136 217.22 531.34C218.516 531.58 219.428 531.868 219.428 533.2C219.428 534.34 218.648 535.108 217.124 535.108Z" fill="#414141"/>
</svg>
