<svg width="332" height="116" viewBox="0 0 332 116" fill="none" xmlns="http://www.w3.org/2000/svg">
<path d="M68.6069 73.312C63.9029 73.312 61.1909 71.224 61.2389 67.504H66.3269C66.3749 68.56 66.9749 69.472 68.7269 69.472C70.0229 69.496 70.6709 68.968 70.6709 68.008C70.6709 67.312 70.0949 66.928 68.4629 66.616C64.1909 65.752 62.6549 64.336 62.6549 61.456C62.6549 58.12 65.2229 55.6 69.7589 55.6C73.9349 55.6 76.4789 57.28 76.4309 61.072H71.4629C71.3909 59.944 70.7429 59.416 69.6149 59.416C68.4869 59.416 67.9109 59.92 67.9109 60.712C67.9109 61.432 68.4149 61.744 70.0949 62.08C73.9829 62.848 75.9989 64.168 75.9989 67.192C75.9989 70.792 73.4309 73.264 68.6069 73.312ZM80.8054 73.312C78.5974 73.312 76.8454 72.064 76.8454 69.832C76.8454 66.52 79.3414 65.416 83.5414 65.416H85.2694L85.3174 65.128C85.4854 64.096 85.2934 63.376 84.0454 63.376C82.9894 63.376 82.6054 64.024 82.4374 64.72H78.0214C78.6454 61.624 80.8534 60.088 84.2614 60.088C88.5094 60.088 90.5014 61.912 89.9014 65.728L89.3734 69.064C89.1094 70.696 89.0374 71.944 89.1814 73H84.5974C84.5014 72.496 84.5014 71.944 84.5254 71.44C83.8294 72.424 82.7254 73.312 80.8054 73.312ZM82.7974 70.192C83.8294 70.192 84.6214 69.544 84.7654 68.608L84.8854 67.96H83.6614C82.1254 67.96 81.5494 68.296 81.5494 69.16C81.5494 69.736 81.9814 70.192 82.7974 70.192ZM90.9091 73L92.2291 64.624C92.5171 62.8 92.6611 61.6 92.7091 60.448H97.3171C97.3171 61.072 97.2931 61.84 97.1971 62.584C98.0371 61.264 99.5251 60.088 101.445 60.088C103.077 60.088 104.181 60.88 104.613 62.44C105.789 60.832 107.229 60.088 108.885 60.088C111.285 60.088 112.893 61.672 112.341 65.056L111.117 73H106.389L107.541 65.776C107.733 64.504 107.301 63.904 106.389 63.904C105.357 63.904 104.685 64.6 104.469 65.872L103.341 73H98.6851L99.8131 65.752C100.029 64.504 99.5731 63.904 98.6611 63.904C97.6051 63.904 96.9571 64.624 96.7651 65.872L95.6371 73H90.9091ZM118.237 67.792C118.237 69.088 118.789 70.144 120.373 70.144C121.549 70.144 122.149 69.568 122.389 68.752H126.829C126.229 71.704 123.757 73.312 120.253 73.312C116.605 73.312 113.629 71.56 113.629 67.552C113.629 63.064 116.725 60.088 120.925 60.088C125.125 60.088 127.645 62.728 126.949 67.216L126.877 67.768H118.237V67.792ZM120.901 63.112C119.917 63.112 118.981 63.712 118.525 65.296H122.605C122.725 64.024 122.269 63.112 120.901 63.112ZM136.936 73.312C134.32 73.312 132.424 71.488 132.424 67.864C132.424 62.92 135.112 60.088 138.664 60.088C140.488 60.088 141.76 60.88 142.312 62.2L143.44 55.024H148.192L145.96 69.064C145.696 70.72 145.6 71.944 145.696 73H141.04C140.92 72.472 140.944 71.752 140.968 71.056C140.032 72.544 138.808 73.312 136.936 73.312ZM139.12 69.808C140.68 69.808 141.784 68.152 141.784 65.848C141.784 64.384 141.088 63.568 139.888 63.568C138.352 63.568 137.272 65.128 137.272 67.48C137.272 68.944 137.896 69.808 139.12 69.808ZM151.493 73.312C149.285 73.312 147.533 72.064 147.533 69.832C147.533 66.52 150.029 65.416 154.229 65.416H155.957L156.005 65.128C156.173 64.096 155.981 63.376 154.733 63.376C153.677 63.376 153.293 64.024 153.125 64.72H148.709C149.333 61.624 151.541 60.088 154.949 60.088C159.197 60.088 161.189 61.912 160.589 65.728L160.061 69.064C159.797 70.696 159.725 71.944 159.869 73H155.285C155.189 72.496 155.189 71.944 155.213 71.44C154.517 72.424 153.413 73.312 151.493 73.312ZM153.485 70.192C154.517 70.192 155.309 69.544 155.453 68.608L155.573 67.96H154.349C152.813 67.96 152.237 68.296 152.237 69.16C152.237 69.736 152.669 70.192 153.485 70.192ZM161.713 77.176L164.737 71.584L161.665 60.448H166.561L167.857 66.76L170.977 60.448H175.657L166.417 77.176H161.713ZM184.787 73.336C181.331 73.336 179.027 71.992 179.003 68.968H183.371C183.443 69.76 183.803 70.264 184.907 70.264C185.723 70.264 186.179 69.976 186.179 69.376C186.179 68.824 185.819 68.608 184.115 68.296C181.283 67.768 179.963 66.736 179.963 64.552C179.963 61.576 182.435 60.064 185.795 60.088C188.963 60.088 191.147 61.264 191.315 64.24H187.019C186.947 63.592 186.539 63.064 185.675 63.064C184.811 63.064 184.403 63.376 184.403 63.904C184.403 64.48 184.979 64.672 186.227 64.936C189.539 65.56 190.835 66.472 190.835 68.872C190.835 71.92 188.267 73.336 184.787 73.336ZM196.659 67.792C196.659 69.088 197.211 70.144 198.795 70.144C199.971 70.144 200.571 69.568 200.811 68.752H205.251C204.651 71.704 202.179 73.312 198.675 73.312C195.027 73.312 192.051 71.56 192.051 67.552C192.051 63.064 195.147 60.088 199.347 60.088C203.547 60.088 206.067 62.728 205.371 67.216L205.299 67.768H196.659V67.792ZM199.323 63.112C198.339 63.112 197.403 63.712 196.947 65.296H201.027C201.147 64.024 200.691 63.112 199.323 63.112ZM206.104 73L207.424 64.624C207.712 62.8 207.832 61.6 207.88 60.448H212.488C212.488 61.072 212.44 62.2 212.32 63.208C213.304 61.168 214.744 60.256 216.856 60.28L216.184 64.696C213.52 64.552 212.056 65.296 211.696 67.624L210.832 73H206.104ZM220.082 73L217.658 60.448H222.506L223.514 68.152L227.042 60.448H231.698L225.122 73H220.082ZM235.869 59.488C234.405 59.488 233.373 58.48 233.373 57.136C233.373 55.768 234.429 54.784 235.893 54.784C237.309 54.784 238.389 55.768 238.389 57.136C238.389 58.48 237.285 59.488 235.869 59.488ZM231.069 73L233.037 60.448H237.765L235.773 73H231.069ZM245.054 73.288C241.382 73.288 238.574 71.344 238.574 67.528C238.574 63.064 241.478 60.112 245.726 60.112C249.086 60.112 251.63 61.672 251.75 65.392H247.334C247.238 64.264 246.71 63.736 245.63 63.736C243.926 63.736 243.302 65.608 243.302 67.576C243.302 68.968 243.83 69.904 245.222 69.904C246.302 69.904 247.046 69.256 247.286 67.984H251.51C251.102 71.392 248.798 73.288 245.054 73.288ZM257.198 67.792C257.198 69.088 257.75 70.144 259.334 70.144C260.51 70.144 261.11 69.568 261.35 68.752H265.79C265.19 71.704 262.718 73.312 259.214 73.312C255.566 73.312 252.59 71.56 252.59 67.552C252.59 63.064 255.686 60.088 259.886 60.088C264.086 60.088 266.606 62.728 265.91 67.216L265.838 67.768H257.198V67.792ZM259.862 63.112C258.878 63.112 257.942 63.712 257.486 65.296H261.566C261.686 64.024 261.23 63.112 259.862 63.112ZM56.3718 102.312C54.1638 102.312 52.4118 101.064 52.4118 98.832C52.4118 95.52 54.9078 94.416 59.1078 94.416H60.8358L60.8838 94.128C61.0518 93.096 60.8598 92.376 59.6118 92.376C58.5558 92.376 58.1718 93.024 58.0038 93.72H53.5878C54.2118 90.624 56.4198 89.088 59.8278 89.088C64.0758 89.088 66.0678 90.912 65.4678 94.728L64.9398 98.064C64.6758 99.696 64.6038 100.944 64.7478 102H60.1638C60.0678 101.496 60.0678 100.944 60.0918 100.44C59.3958 101.424 58.2918 102.312 56.3718 102.312ZM58.3638 99.192C59.3958 99.192 60.1878 98.544 60.3318 97.608L60.4518 96.96H59.2278C57.6918 96.96 57.1158 97.296 57.1158 98.16C57.1158 98.736 57.5478 99.192 58.3638 99.192ZM69.1792 102L66.7552 89.448H71.6032L72.6112 97.152L76.1392 89.448H80.7952L74.2192 102H69.1792ZM83.5125 102.312C81.3045 102.312 79.5525 101.064 79.5525 98.832C79.5525 95.52 82.0485 94.416 86.2485 94.416H87.9765L88.0245 94.128C88.1925 93.096 88.0005 92.376 86.7525 92.376C85.6965 92.376 85.3125 93.024 85.1445 93.72H80.7285C81.3525 90.624 83.5605 89.088 86.9685 89.088C91.2165 89.088 93.2085 90.912 92.6085 94.728L92.0805 98.064C91.8165 99.696 91.7445 100.944 91.8885 102H87.3045C87.2085 101.496 87.2085 100.944 87.2325 100.44C86.5365 101.424 85.4325 102.312 83.5125 102.312ZM85.5045 99.192C86.5365 99.192 87.3285 98.544 87.4725 97.608L87.5925 96.96H86.3685C84.8325 96.96 84.2565 97.296 84.2565 98.16C84.2565 98.736 84.6885 99.192 85.5045 99.192ZM98.5601 88.488C97.0961 88.488 96.0641 87.48 96.0641 86.136C96.0641 84.768 97.1201 83.784 98.5841 83.784C100 83.784 101.08 84.768 101.08 86.136C101.08 87.48 99.9761 88.488 98.5601 88.488ZM93.7601 102L95.7281 89.448H100.456L98.4641 102H93.7601ZM101.002 102L103.858 84H108.538L105.706 102H101.002ZM111.989 102.312C109.781 102.312 108.029 101.064 108.029 98.832C108.029 95.52 110.525 94.416 114.725 94.416H116.453L116.501 94.128C116.669 93.096 116.477 92.376 115.229 92.376C114.173 92.376 113.789 93.024 113.621 93.72H109.205C109.829 90.624 112.037 89.088 115.445 89.088C119.693 89.088 121.685 90.912 121.085 94.728L120.557 98.064C120.293 99.696 120.221 100.944 120.365 102H115.781C115.685 101.496 115.685 100.944 115.709 100.44C115.013 101.424 113.909 102.312 111.989 102.312ZM113.981 99.192C115.013 99.192 115.805 98.544 115.949 97.608L116.069 96.96H114.845C113.309 96.96 112.733 97.296 112.733 98.16C112.733 98.736 113.165 99.192 113.981 99.192ZM130.949 102.312C129.053 102.312 127.637 101.376 127.133 100.008L126.821 102H122.069L124.949 84.024H129.653L128.525 91.224C129.365 89.904 130.685 89.088 132.653 89.088C135.101 89.088 136.997 90.912 136.997 94.512C136.997 99.456 134.405 102.312 130.949 102.312ZM129.557 98.76C131.093 98.76 132.149 97.2 132.149 94.848C132.149 93.384 131.525 92.568 130.301 92.568C128.741 92.568 127.637 94.224 127.637 96.48C127.637 97.968 128.309 98.76 129.557 98.76ZM137.728 102L140.584 84H145.264L142.432 102H137.728ZM149.796 96.792C149.796 98.088 150.348 99.144 151.932 99.144C153.108 99.144 153.708 98.568 153.948 97.752H158.388C157.788 100.704 155.316 102.312 151.812 102.312C148.164 102.312 145.188 100.56 145.188 96.552C145.188 92.064 148.284 89.088 152.484 89.088C156.684 89.088 159.204 91.728 158.508 96.216L158.436 96.768H149.796V96.792ZM152.46 92.112C151.476 92.112 150.54 92.712 150.084 94.296H154.164C154.284 93.024 153.828 92.112 152.46 92.112ZM162.073 102.288C160.561 102.288 159.457 101.16 159.457 99.696C159.457 98.28 160.537 97.128 162.049 97.128C163.609 97.128 164.761 98.28 164.761 99.696C164.761 101.16 163.633 102.288 162.073 102.288ZM180.272 102.312C175.136 102.312 171.776 99.768 171.776 94.752C171.776 88.824 175.376 84.576 181.448 84.576C186.104 84.576 189.032 86.808 189.2 91.344H183.728C183.584 89.736 182.888 88.824 181.304 88.824C178.736 88.824 177.488 91.464 177.464 94.512C177.44 96.456 178.208 98.016 180.32 98.016C181.832 98.016 182.936 97.176 183.392 95.424H188.792C188.12 100.032 184.544 102.312 180.272 102.312ZM193.364 102.312C191.156 102.312 189.404 101.064 189.404 98.832C189.404 95.52 191.9 94.416 196.1 94.416H197.828L197.876 94.128C198.044 93.096 197.852 92.376 196.604 92.376C195.548 92.376 195.164 93.024 194.996 93.72H190.58C191.204 90.624 193.412 89.088 196.82 89.088C201.068 89.088 203.06 90.912 202.46 94.728L201.932 98.064C201.668 99.696 201.596 100.944 201.74 102H197.156C197.06 101.496 197.06 100.944 197.084 100.44C196.388 101.424 195.284 102.312 193.364 102.312ZM195.356 99.192C196.388 99.192 197.18 98.544 197.324 97.608L197.444 96.96H196.22C194.684 96.96 194.108 97.296 194.108 98.16C194.108 98.736 194.54 99.192 195.356 99.192ZM203.588 102L206.444 84H211.124L208.292 102H203.588ZM210.783 102L213.639 84H218.319L215.487 102H210.783ZM222.288 102L223.608 93.624C223.896 91.8 224.04 90.6 224.088 89.448H228.696C228.696 90.072 228.672 90.912 228.576 91.656C229.464 90.216 230.832 89.088 232.872 89.088C235.2 89.088 236.976 90.648 236.376 94.44L235.176 102H230.448L231.576 94.872C231.792 93.528 231.36 92.88 230.28 92.88C229.08 92.88 228.336 93.624 228.096 95.136L227.016 102H222.288ZM244.271 102.312C240.887 102.312 237.743 100.536 237.743 96.552C237.719 92.256 240.743 89.112 245.087 89.112C248.471 89.112 251.615 90.912 251.615 94.944C251.615 99.312 248.615 102.312 244.271 102.312ZM244.343 98.832C246.071 98.832 246.863 97.056 246.863 94.728C246.863 93.552 246.311 92.592 245.015 92.592C243.287 92.592 242.447 94.296 242.447 96.576C242.447 97.68 242.855 98.832 244.343 98.832ZM254.225 102L252.521 89.448H257.297L257.849 96.504L260.729 89.448H264.521L265.121 96.504L267.977 89.448H272.537L266.633 102H262.193L261.545 95.4L258.785 102H254.225ZM273.497 96.216L274.625 84.84H279.929L277.409 96.216H273.497ZM274.937 102.288C273.425 102.288 272.321 101.184 272.321 99.768C272.321 98.376 273.473 97.224 274.985 97.224C276.497 97.224 277.649 98.328 277.649 99.744C277.649 101.16 276.449 102.288 274.937 102.288Z" fill="#1CDC38"/>
<g clip-path="url(#clip0_2001_1075)">
<path d="M189.129 8.63975H200.088C202.398 8.63975 212.443 19.1491 212.887 21.9752C213.276 24.4596 212.649 34.6584 211.347 36.4534C209.249 39.3354 206.124 37.6832 204.884 38.4224C204.17 38.8509 204.277 42.8696 199.95 43.7453C195.172 44.7143 191.79 42.8944 190.287 38.4224L157.637 38.3106C155.257 42.441 152.997 44.8447 147.755 43.6211C143.767 42.6832 143.422 38.8758 142.696 38.4224C141.105 37.4224 135.3 39.9255 133.728 36.4534C132.514 33.764 134.799 28.3975 134.649 25.3354H119.933L119 24.3975L119.933 22.8634H145.921V25.3354H137.154L136.171 35.2733L142.721 35.7826C144.7 26.9565 155.295 27.3789 157.574 35.8882L183.405 35.764L187.225 3.93789C187.369 3.42236 186.58 2.45342 186.317 2.45342H140.598L139.659 5.54658H153.748L154.681 6.48447L153.748 8.01863H129.952L129.019 6.48447C129.383 4.83851 135.638 5.78261 137.16 5.5528C136.853 3.04348 137.223 0.745342 139.99 0L188.509 0.285714C190.939 2.65217 188.572 5.68323 189.129 8.63975ZM204.853 35.7826C206.475 36.0807 209.124 36.118 209.675 34.1863C210.182 32.4162 210.689 24.4286 210.389 22.5901C210.069 20.646 202.442 12.7702 200.576 11.8758C197.364 10.3292 192.661 11.4534 189.129 11.1118L186.624 35.8571C191.847 36.8634 189.786 34.2174 192.229 31.795C196.537 27.5155 204.152 29.6522 204.859 35.7826H204.853ZM149.521 31.6335C142.996 32.559 144.186 42.764 151.231 41.4162C156.886 40.3354 155.214 30.8261 149.521 31.6335ZM201.465 33.559C197.201 28.3292 189.023 36.4037 194.32 40.6149C199.079 44.4037 205.304 38.2671 201.465 33.559Z" fill="#1CDC38"/>
<path d="M155.938 17.2979C156.189 18.0183 155.663 19.7699 154.999 19.7699H126.82L125.887 18.832L126.82 17.2979H155.938Z" fill="#1CDC38"/>
<path d="M123.691 11.1182H149.992L150.931 12.0561L149.992 13.5902H123.691L122.758 12.6523L123.691 11.1182Z" fill="#1CDC38"/>
<path d="M191.008 22.2484L191.922 14.8012C199.149 11.8199 202.405 17.1801 206.037 22.2484H191.008Z" fill="#1CDC38"/>
</g>
<defs>
<clipPath id="clip0_2001_1075">
<rect width="94" height="44" fill="white" transform="translate(119)"/>
</clipPath>
</defs>
</svg>
