<svg width="135" height="129" viewBox="0 0 135 129" fill="none" xmlns="http://www.w3.org/2000/svg">
<circle cx="67.5" cy="59.5" r="59.5" fill="#1CDC38"/>
<rect y="86" width="135" height="43" fill="#414042"/>
<path d="M42.1974 45.416C35.7334 45.416 32.2774 42.824 32.1174 37.672H38.9974C39.1254 39.112 39.8294 40.296 42.1974 40.296C43.8934 40.296 44.7254 39.528 44.7254 38.408C44.7254 37.192 43.9254 36.808 41.4614 36.456C34.8694 35.72 32.6294 33.8 32.6294 29.096C32.6294 24.872 36.0854 21.8 41.7814 21.8C47.4454 21.8 50.6134 24.104 50.9974 29.096H44.2774C44.1174 27.688 43.3174 26.888 41.7814 26.888C40.2774 26.888 39.5094 27.56 39.5094 28.552C39.5094 29.64 40.1814 30.152 42.7094 30.472C48.4694 31.08 51.6694 32.552 51.6694 37.64C51.6694 41.896 48.3414 45.416 42.1974 45.416ZM57.1516 45.416C54.1436 45.416 51.4556 43.944 51.4556 40.36C51.4556 36.424 54.6556 34.888 60.4476 34.888H61.8876V34.6C61.8876 33.192 61.6316 32.168 59.9356 32.168C58.4956 32.168 58.0476 33.096 57.9516 33.96H52.0636C52.3196 29.864 55.5196 27.784 60.3196 27.784C65.1836 27.784 68.1276 29.768 68.1276 34.184V45H62.0476V43.08C61.3436 44.232 59.8716 45.416 57.1516 45.416ZM59.4236 41.192C60.8636 41.192 61.8876 40.392 61.8876 39.144V38.28H60.5436C58.4316 38.28 57.6636 38.696 57.6636 39.88C57.6636 40.68 58.2716 41.192 59.4236 41.192ZM73.7696 45L67.6256 28.264H74.3456L77.5136 38.44L80.7136 28.264H86.6336L80.5216 45H73.7696ZM94.1301 45.416C88.7861 45.416 84.8501 42.376 84.8501 36.84V36.584C84.8501 31.144 89.0101 27.784 94.1301 27.784C98.8341 27.784 102.834 30.472 102.834 36.488V38.024H91.2181C91.3781 40.04 92.5621 41.128 94.3541 41.128C96.1141 41.128 96.7861 40.296 96.9781 39.336H102.866C102.354 43.176 99.4421 45.416 94.1301 45.416ZM91.2501 34.728H96.7541C96.6901 32.936 95.8261 31.848 94.1301 31.848C92.5941 31.848 91.5061 32.84 91.2501 34.728ZM34.2927 75V74.008L42.0687 65.752C44.3727 63.288 45.9087 61.368 45.9087 59.48C45.9087 58.168 45.2687 57.208 43.8287 57.208C42.3567 57.208 41.4607 58.136 41.1727 60.664H34.6447C34.8367 54.712 38.4527 51.768 44.1807 51.768C50.0047 51.768 53.0448 54.872 53.0448 59.16C53.0448 62.392 51.3167 64.664 48.7887 67.096L46.1647 69.624H53.2367V75H34.2927ZM64.0558 75.416C57.4638 75.416 53.3678 71.32 53.3678 64.024V63.128C53.3678 55.8 58.0718 51.768 64.1838 51.768C70.2638 51.768 75.0318 55.384 75.0318 62.968V63.832C75.0318 71.192 70.7438 75.416 64.0558 75.416ZM64.2798 69.816C66.8398 69.816 67.8318 67.928 67.8318 63.96V63.128C67.8318 59.128 66.7758 57.272 64.2158 57.272C61.6238 57.272 60.5677 59.128 60.5677 63.096V63.992C60.5677 67.992 61.6238 69.816 64.2798 69.816ZM81.1565 63.48C77.1885 63.48 74.9485 60.92 74.9485 57.592C74.9485 54.328 77.6045 51.864 81.1885 51.864C84.7085 51.864 87.3645 54.168 87.3645 57.496C87.3645 60.856 85.0285 63.48 81.1565 63.48ZM77.8925 75L94.1165 52.12H97.3805L81.1245 75H77.8925ZM81.1885 59.896C82.2765 59.896 82.8525 59 82.8525 57.592C82.8525 56.184 82.2765 55.32 81.1885 55.32C80.1005 55.32 79.4925 56.184 79.4925 57.56C79.4925 59.032 80.1005 59.896 81.1885 59.896ZM93.9565 75.416C89.9885 75.416 87.7805 72.856 87.7805 69.528C87.7805 66.264 90.4045 63.8 93.9885 63.8C97.5405 63.8 100.196 66.104 100.196 69.432C100.196 72.792 97.8285 75.416 93.9565 75.416ZM93.9885 71.832C95.0765 71.832 95.6525 70.936 95.6525 69.528C95.6525 68.12 95.0765 67.256 93.9885 67.256C92.9005 67.256 92.2925 68.12 92.2925 69.496C92.2925 70.968 92.9005 71.832 93.9885 71.832Z" fill="#414042"/>
<path d="M29.7616 103V94.42H34.7776V95.272H30.8056V98.308H33.9016V99.16H30.8056V103H29.7616ZM38.4811 103.108C36.6931 103.108 35.4091 101.752 35.4091 99.916V99.82C35.4091 97.936 36.7171 96.616 38.4931 96.616C40.2691 96.616 41.5771 97.924 41.5771 99.808V99.904C41.5771 101.8 40.2691 103.108 38.4811 103.108ZM38.4931 102.28C39.7531 102.28 40.5451 101.332 40.5451 99.916V99.832C40.5451 98.38 39.7411 97.444 38.4931 97.444C37.2331 97.444 36.4411 98.38 36.4411 99.82V99.916C36.4411 101.344 37.2211 102.28 38.4931 102.28ZM43.1193 103V96.724H44.1153V97.852C44.5113 97.144 45.0513 96.652 46.1793 96.616V97.552C44.9193 97.612 44.1153 98.008 44.1153 99.556V103H43.1193ZM52.7508 103.108C51.2508 103.108 50.3508 102.352 50.2908 101.068H51.2628C51.3348 101.812 51.7308 102.28 52.7388 102.28C53.6868 102.28 54.1068 101.956 54.1068 101.284C54.1068 100.624 53.6148 100.408 52.6428 100.228C51.0108 99.928 50.4588 99.472 50.4588 98.38C50.4588 97.216 51.5988 96.616 52.5828 96.616C53.7108 96.616 54.6828 97.072 54.8508 98.428H53.8908C53.7468 97.744 53.3628 97.444 52.5708 97.444C51.8508 97.444 51.3828 97.804 51.3828 98.344C51.3828 98.908 51.6948 99.136 52.8468 99.34C54.1428 99.58 55.0548 99.868 55.0548 101.2C55.0548 102.34 54.2748 103.108 52.7508 103.108ZM58.1445 103.108C56.9805 103.108 56.0565 102.544 56.0565 101.26C56.0565 99.808 57.5925 99.316 59.2005 99.316H60.1005V98.86C60.1005 97.864 59.7165 97.444 58.7565 97.444C57.8925 97.444 57.4125 97.804 57.3165 98.572H56.3205C56.4525 97.144 57.5925 96.616 58.8045 96.616C60.0045 96.616 61.0965 97.108 61.0965 98.86V103H60.1005V102.208C59.6325 102.796 59.0685 103.108 58.1445 103.108ZM58.2405 102.316C59.2965 102.316 60.1005 101.776 60.1005 100.804V100.024H59.2365C57.9765 100.024 57.0525 100.336 57.0525 101.26C57.0525 101.908 57.3645 102.316 58.2405 102.316ZM63.0529 103V96.724H64.0489V97.684C64.3369 97.096 65.0209 96.616 65.9209 96.616C66.7249 96.616 67.4329 96.952 67.7569 97.792C68.1889 96.976 69.1249 96.616 69.9049 96.616C71.0329 96.616 72.0169 97.288 72.0169 99.112V103H71.0209V99.04C71.0209 97.936 70.5529 97.48 69.6889 97.48C68.8729 97.48 68.0329 98.032 68.0329 99.16V103H67.0369V99.04C67.0369 97.936 66.5689 97.48 65.7049 97.48C64.8889 97.48 64.0489 98.032 64.0489 99.16V103H63.0529ZM76.5428 103.108C74.7668 103.108 73.5068 101.86 73.5068 99.928V99.832C73.5068 97.936 74.7188 96.616 76.4468 96.616C77.8988 96.616 79.2668 97.492 79.2668 99.736V100.06H74.5388C74.5868 101.488 75.2708 102.28 76.5548 102.28C77.5268 102.28 78.0908 101.92 78.2228 101.188H79.2188C79.0028 102.448 77.9588 103.108 76.5428 103.108ZM74.5748 99.256H78.2468C78.1508 97.96 77.4788 97.444 76.4468 97.444C75.4268 97.444 74.7428 98.14 74.5748 99.256ZM86.3349 103.108C84.6909 103.108 83.5029 101.944 83.5029 99.988V99.892C83.5029 97.972 84.7029 96.616 86.4309 96.616C87.4749 96.616 88.1229 97.12 88.4829 97.732V93.724H89.4789V103H88.4829V101.92C88.1229 102.532 87.2469 103.108 86.3349 103.108ZM86.4429 102.28C87.6069 102.28 88.5189 101.512 88.5189 99.904V99.808C88.5189 98.2 87.7509 97.444 86.5269 97.444C85.2789 97.444 84.5349 98.32 84.5349 99.844V99.94C84.5349 101.524 85.3869 102.28 86.4429 102.28ZM93.0663 103.108C91.9023 103.108 90.9783 102.544 90.9783 101.26C90.9783 99.808 92.5143 99.316 94.1223 99.316H95.0223V98.86C95.0223 97.864 94.6383 97.444 93.6783 97.444C92.8143 97.444 92.3343 97.804 92.2383 98.572H91.2423C91.3743 97.144 92.5143 96.616 93.7263 96.616C94.9263 96.616 96.0183 97.108 96.0183 98.86V103H95.0223V102.208C94.5543 102.796 93.9903 103.108 93.0663 103.108ZM93.1623 102.316C94.2183 102.316 95.0223 101.776 95.0223 100.804V100.024H94.1583C92.8983 100.024 91.9743 100.336 91.9743 101.26C91.9743 101.908 92.2863 102.316 93.1623 102.316ZM98.363 105.184L99.551 102.352L97.091 96.724H98.159L100.079 101.224L101.819 96.724H102.839L99.371 105.184H98.363ZM13.4064 119V112.724H14.4024V113.684C14.6904 113.096 15.3744 112.616 16.2744 112.616C17.0784 112.616 17.7864 112.952 18.1104 113.792C18.5424 112.976 19.4784 112.616 20.2584 112.616C21.3864 112.616 22.3704 113.288 22.3704 115.112V119H21.3744V115.04C21.3744 113.936 20.9064 113.48 20.0424 113.48C19.2264 113.48 18.3864 114.032 18.3864 115.16V119H17.3904V115.04C17.3904 113.936 16.9224 113.48 16.0584 113.48C15.2424 113.48 14.4024 114.032 14.4024 115.16V119H13.4064ZM26.4523 119.108C25.2043 119.108 24.2683 118.424 24.2683 116.696V112.724H25.2643V116.648C25.2643 117.752 25.7323 118.244 26.7163 118.244C27.6043 118.244 28.4443 117.656 28.4443 116.528V112.724H29.4403V119H28.4443V118.004C28.1563 118.592 27.4603 119.108 26.4523 119.108ZM31.4773 119V109.724H32.4853V119H31.4773ZM36.4316 119.084C35.2916 119.084 34.7396 118.412 34.7396 117.428V113.564H33.8396V112.724H34.7396V111.296H35.7356V112.724H37.1996V113.564H35.7356V117.332C35.7356 117.944 36.0116 118.244 36.5156 118.244C36.8276 118.244 37.0676 118.196 37.2836 118.112V118.952C37.0796 119.024 36.8396 119.084 36.4316 119.084ZM39.2933 111.416C38.9333 111.416 38.6333 111.116 38.6333 110.756C38.6333 110.396 38.9333 110.096 39.2933 110.096C39.6533 110.096 39.9533 110.396 39.9533 110.756C39.9533 111.116 39.6533 111.416 39.2933 111.416ZM38.8133 119V112.724H39.8093V119H38.8133ZM41.8478 121.184V112.724H42.8438V113.78C43.2038 113.168 44.0558 112.616 44.9678 112.616C46.6118 112.616 47.8238 113.816 47.8238 115.772V115.868C47.8238 117.788 46.6958 119.108 44.9678 119.108C43.9358 119.108 43.2038 118.592 42.8438 117.968V121.184H41.8478ZM44.8718 118.28C46.1198 118.28 46.7918 117.44 46.7918 115.916V115.82C46.7918 114.236 45.9158 113.444 44.8598 113.444C43.6958 113.444 42.8078 114.212 42.8078 115.82V115.916C42.8078 117.524 43.6478 118.28 44.8718 118.28ZM49.3953 119V109.724H50.4033V119H49.3953ZM55.0096 119.108C53.2336 119.108 51.9736 117.86 51.9736 115.928V115.832C51.9736 113.936 53.1856 112.616 54.9136 112.616C56.3656 112.616 57.7336 113.492 57.7336 115.736V116.06H53.0056C53.0536 117.488 53.7376 118.28 55.0216 118.28C55.9936 118.28 56.5576 117.92 56.6896 117.188H57.6856C57.4696 118.448 56.4256 119.108 55.0096 119.108ZM53.0416 115.256H56.7136C56.6176 113.96 55.9456 113.444 54.9136 113.444C53.8936 113.444 53.2096 114.14 53.0416 115.256ZM64.3457 119.084C63.2057 119.084 62.6537 118.412 62.6537 117.428V113.564H61.7537V112.724H62.6537V111.296H63.6497V112.724H65.1137V113.564H63.6497V117.332C63.6497 117.944 63.9257 118.244 64.4297 118.244C64.7417 118.244 64.9817 118.196 65.1977 118.112V118.952C64.9937 119.024 64.7537 119.084 64.3457 119.084ZM66.7033 119V112.724H67.6993V113.852C68.0953 113.144 68.6353 112.652 69.7633 112.616V113.552C68.5033 113.612 67.6993 114.008 67.6993 115.556V119H66.7033ZM73.6073 119.108C71.8313 119.108 70.5713 117.86 70.5713 115.928V115.832C70.5713 113.936 71.7833 112.616 73.5113 112.616C74.9633 112.616 76.3313 113.492 76.3313 115.736V116.06H71.6033C71.6513 117.488 72.3353 118.28 73.6193 118.28C74.5913 118.28 75.1553 117.92 75.2873 117.188H76.2833C76.0673 118.448 75.0233 119.108 73.6073 119.108ZM71.6393 115.256H75.3113C75.2153 113.96 74.5433 113.444 73.5113 113.444C72.4913 113.444 71.8073 114.14 71.6393 115.256ZM79.4902 119.108C78.3262 119.108 77.4022 118.544 77.4022 117.26C77.4022 115.808 78.9382 115.316 80.5462 115.316H81.4462V114.86C81.4462 113.864 81.0622 113.444 80.1022 113.444C79.2382 113.444 78.7582 113.804 78.6622 114.572H77.6662C77.7982 113.144 78.9382 112.616 80.1502 112.616C81.3502 112.616 82.4422 113.108 82.4422 114.86V119H81.4462V118.208C80.9782 118.796 80.4142 119.108 79.4902 119.108ZM79.5862 118.316C80.6422 118.316 81.4462 117.776 81.4462 116.804V116.024H80.5822C79.3222 116.024 78.3982 116.336 78.3982 117.26C78.3982 117.908 78.7102 118.316 79.5862 118.316ZM86.3066 119.084C85.1666 119.084 84.6146 118.412 84.6146 117.428V113.564H83.7146V112.724H84.6146V111.296H85.6106V112.724H87.0746V113.564H85.6106V117.332C85.6106 117.944 85.8866 118.244 86.3906 118.244C86.7026 118.244 86.9426 118.196 87.1586 118.112V118.952C86.9546 119.024 86.7146 119.084 86.3066 119.084ZM88.6643 119V112.724H89.6603V113.684C89.9483 113.096 90.6323 112.616 91.5323 112.616C92.3363 112.616 93.0443 112.952 93.3683 113.792C93.8003 112.976 94.7363 112.616 95.5163 112.616C96.6443 112.616 97.6283 113.288 97.6283 115.112V119H96.6323V115.04C96.6323 113.936 96.1643 113.48 95.3003 113.48C94.4843 113.48 93.6443 114.032 93.6443 115.16V119H92.6483V115.04C92.6483 113.936 92.1803 113.48 91.3163 113.48C90.5003 113.48 89.6603 114.032 89.6603 115.16V119H88.6643ZM102.154 119.108C100.378 119.108 99.1181 117.86 99.1181 115.928V115.832C99.1181 113.936 100.33 112.616 102.058 112.616C103.51 112.616 104.878 113.492 104.878 115.736V116.06H100.15C100.198 117.488 100.882 118.28 102.166 118.28C103.138 118.28 103.702 117.92 103.834 117.188H104.83C104.614 118.448 103.57 119.108 102.154 119.108ZM100.186 115.256H103.858C103.762 113.96 103.09 113.444 102.058 113.444C101.038 113.444 100.354 114.14 100.186 115.256ZM106.406 119V112.724H107.402V113.72C107.69 113.132 108.386 112.616 109.418 112.616C110.714 112.616 111.626 113.324 111.626 115.148V119H110.63V115.076C110.63 113.972 110.162 113.48 109.154 113.48C108.23 113.48 107.402 114.068 107.402 115.196V119H106.406ZM115.486 119.084C114.346 119.084 113.794 118.412 113.794 117.428V113.564H112.894V112.724H113.794V111.296H114.79V112.724H116.254V113.564H114.79V117.332C114.79 117.944 115.066 118.244 115.57 118.244C115.882 118.244 116.122 118.196 116.338 118.112V118.952C116.134 119.024 115.894 119.084 115.486 119.084ZM119.788 119.108C118.288 119.108 117.388 118.352 117.328 117.068H118.3C118.372 117.812 118.768 118.28 119.776 118.28C120.724 118.28 121.144 117.956 121.144 117.284C121.144 116.624 120.652 116.408 119.68 116.228C118.048 115.928 117.496 115.472 117.496 114.38C117.496 113.216 118.636 112.616 119.62 112.616C120.748 112.616 121.72 113.072 121.888 114.428H120.928C120.784 113.744 120.4 113.444 119.608 113.444C118.888 113.444 118.42 113.804 118.42 114.344C118.42 114.908 118.732 115.136 119.884 115.34C121.18 115.58 122.092 115.868 122.092 117.2C122.092 118.34 121.312 119.108 119.788 119.108Z" fill="#F8F5F2"/>
</svg>
