<svg width="83" height="83" viewBox="0 0 83 83" fill="none" xmlns="http://www.w3.org/2000/svg">
<g filter="url(#filter0_d_2001_1085)">
<ellipse cx="41.1068" cy="37.5" rx="37.1068" ry="37.5" fill="#F8F5F2"/>
<path d="M41.1064 0.5C61.3189 0.5 77.7139 17.0605 77.7139 37.5C77.7139 57.9395 61.3189 74.5 41.1064 74.5C20.8942 74.4998 4.5 57.9394 4.5 37.5C4.5 17.0606 20.8942 0.500192 41.1064 0.5Z" stroke="black"/>
</g>
<path d="M21.7167 34.1004C16.6667 34.1004 13.9667 32.0754 13.8417 28.0504H19.2167C19.3167 29.1754 19.8667 30.1004 21.7167 30.1004C23.0417 30.1004 23.6917 29.5004 23.6917 28.6254C23.6917 27.6754 23.0667 27.3754 21.1417 27.1004C15.9917 26.5254 14.2417 25.0254 14.2417 21.3504C14.2417 18.0504 16.9417 15.6504 21.3917 15.6504C25.8167 15.6504 28.2917 17.4504 28.5917 21.3504H23.3417C23.2167 20.2504 22.5917 19.6254 21.3917 19.6254C20.2167 19.6254 19.6167 20.1504 19.6167 20.9254C19.6167 21.7754 20.1417 22.1754 22.1167 22.4254C26.6167 22.9004 29.1167 24.0504 29.1167 28.0254C29.1167 31.3504 26.5167 34.1004 21.7167 34.1004ZM33.3997 34.1004C31.0497 34.1004 28.9497 32.9504 28.9497 30.1504C28.9497 27.0754 31.4497 25.8754 35.9747 25.8754H37.0997V25.6504C37.0997 24.5504 36.8997 23.7504 35.5747 23.7504C34.4497 23.7504 34.0997 24.4754 34.0247 25.1504H29.4247C29.6247 21.9504 32.1247 20.3254 35.8747 20.3254C39.6747 20.3254 41.9747 21.8754 41.9747 25.3254V33.7754H37.2247V32.2754C36.6747 33.1754 35.5247 34.1004 33.3997 34.1004ZM35.1747 30.8004C36.2997 30.8004 37.0997 30.1754 37.0997 29.2004V28.5254H36.0497C34.3997 28.5254 33.7997 28.8504 33.7997 29.7754C33.7997 30.4004 34.2747 30.8004 35.1747 30.8004ZM46.3825 33.7754L41.5825 20.7004H46.8325L49.3075 28.6504L51.8075 20.7004H56.4325L51.6575 33.7754H46.3825ZM62.2892 34.1004C58.1142 34.1004 55.0392 31.7254 55.0392 27.4004V27.2004C55.0392 22.9504 58.2892 20.3254 62.2892 20.3254C65.9642 20.3254 69.0892 22.4254 69.0892 27.1254V28.3254H60.0142C60.1392 29.9004 61.0642 30.7504 62.4642 30.7504C63.8392 30.7504 64.3642 30.1004 64.5142 29.3504H69.1142C68.7142 32.3504 66.4392 34.1004 62.2892 34.1004ZM60.0392 25.7504H64.3392C64.2892 24.3504 63.6142 23.5004 62.2892 23.5004C61.0892 23.5004 60.2392 24.2754 60.0392 25.7504ZM15.5412 57.7754V57.0004L21.6162 50.5504C23.4162 48.6254 24.6162 47.1254 24.6162 45.6504C24.6162 44.6254 24.1162 43.8754 22.9912 43.8754C21.8412 43.8754 21.1412 44.6004 20.9162 46.5754H15.8162C15.9662 41.9254 18.7912 39.6254 23.2662 39.6254C27.8162 39.6254 30.1912 42.0504 30.1912 45.4004C30.1912 47.9254 28.8412 49.7004 26.8662 51.6004L24.8162 53.5754H30.3412V57.7754H15.5412ZM38.7936 58.1004C33.6436 58.1004 30.4436 54.9004 30.4436 49.2004V48.5004C30.4436 42.7754 34.1186 39.6254 38.8936 39.6254C43.6436 39.6254 47.3686 42.4504 47.3686 48.3754V49.0504C47.3686 54.8004 44.0186 58.1004 38.7936 58.1004ZM38.9686 53.7254C40.9686 53.7254 41.7436 52.2504 41.7436 49.1504V48.5004C41.7436 45.3754 40.9186 43.9254 38.9186 43.9254C36.8936 43.9254 36.0686 45.3754 36.0686 48.4754V49.1754C36.0686 52.3004 36.8936 53.7254 38.9686 53.7254ZM52.1535 48.7754C49.0535 48.7754 47.3035 46.7754 47.3035 44.1754C47.3035 41.6254 49.3785 39.7004 52.1785 39.7004C54.9285 39.7004 57.0035 41.5004 57.0035 44.1004C57.0035 46.7254 55.1785 48.7754 52.1535 48.7754ZM49.6035 57.7754L62.2785 39.9004H64.8285L52.1285 57.7754H49.6035ZM52.1785 45.9754C53.0285 45.9754 53.4785 45.2754 53.4785 44.1754C53.4785 43.0754 53.0285 42.4004 52.1785 42.4004C51.3285 42.4004 50.8535 43.0754 50.8535 44.1504C50.8535 45.3004 51.3285 45.9754 52.1785 45.9754ZM62.1535 58.1004C59.0535 58.1004 57.3285 56.1004 57.3285 53.5004C57.3285 50.9504 59.3785 49.0254 62.1785 49.0254C64.9535 49.0254 67.0285 50.8254 67.0285 53.4254C67.0285 56.0504 65.1785 58.1004 62.1535 58.1004ZM62.1785 55.3004C63.0285 55.3004 63.4785 54.6004 63.4785 53.5004C63.4785 52.4004 63.0285 51.7254 62.1785 51.7254C61.3285 51.7254 60.8535 52.4004 60.8535 53.4754C60.8535 54.6254 61.3285 55.3004 62.1785 55.3004Z" fill="#414042"/>
<defs>
<filter id="filter0_d_2001_1085" x="0" y="0" width="82.2148" height="83" filterUnits="userSpaceOnUse" color-interpolation-filters="sRGB">
<feFlood flood-opacity="0" result="BackgroundImageFix"/>
<feColorMatrix in="SourceAlpha" type="matrix" values="0 0 0 0 0 0 0 0 0 0 0 0 0 0 0 0 0 0 127 0" result="hardAlpha"/>
<feOffset dy="4"/>
<feGaussianBlur stdDeviation="2"/>
<feComposite in2="hardAlpha" operator="out"/>
<feColorMatrix type="matrix" values="0 0 0 0 0 0 0 0 0 0 0 0 0 0 0 0 0 0 0.25 0"/>
<feBlend mode="normal" in2="BackgroundImageFix" result="effect1_dropShadow_2001_1085"/>
<feBlend mode="normal" in="SourceGraphic" in2="effect1_dropShadow_2001_1085" result="shape"/>
</filter>
</defs>
</svg>
