<svg width="71" height="71" viewBox="0 0 71 71" fill="none" xmlns="http://www.w3.org/2000/svg">
<circle cx="35.5" cy="35.5" r="35.5" fill="white"/>
<circle cx="35.4995" cy="35.5004" r="26.0698" stroke="#F73500" stroke-width="4"/>
<mask id="path-3-inside-1_2001_1029" fill="white">
<path d="M32.1606 34.8622L31.8271 33.3775C31.0275 32.849 28.9583 33.5327 28.44 32.9791C27.8132 32.3122 27.0899 28.0887 26.423 26.906C25.8806 25.9497 23.2769 24.0582 23.1243 23.2109C23.0118 22.5818 23.4738 22.4224 23.9921 22.716C24.3578 22.9257 26.9533 25.6393 27.2306 26.0671C27.8493 27.0318 29.0386 31.8257 29.344 32.0396L31.5378 32.1151C31.8552 30.9198 30.5574 30.2697 30.3726 28.8688C30.1878 27.468 30.69 25.4884 30.5213 24.5363C30.2641 23.0893 28.2592 21.7178 28.1587 19.6292C28.1145 18.6813 29.3601 15.0827 30.2561 14.9317C30.6338 14.873 30.5132 14.9821 30.6096 15.2044C30.9994 16.0977 29.7297 17.5363 29.4886 18.5387C29.0306 20.4512 30.0994 21.7766 31.2605 23.1145C31.1239 21.0174 30.7463 18.7945 33.0284 17.8257C34.7401 17.1001 33.84 19.7214 34.4226 20.3422L36.2508 20.577C37.203 20.1241 36.6566 17.6705 37.4763 17.6621C38.7138 17.9683 39.9352 19.3775 40.0075 20.7112C40.0558 21.6549 39.2883 22.4602 39.8991 23.1103C40.9477 21.613 42.0085 20.2834 41.5103 18.2828C41.2652 17.2972 39.3968 15.3931 40.8794 14.9443C42.3781 17.0582 43.479 18.9665 42.2455 21.5752C41.904 22.2966 40.5379 23.9785 40.4335 24.5237C40.2647 25.3877 40.7348 27.5561 40.5781 28.852C40.3933 30.3703 39.3285 30.7352 39.3928 32.1277C39.9995 32.0354 41.3013 32.3583 41.7111 31.9222C42.342 31.2511 42.9246 27.296 43.6076 26.1426C43.7643 25.8742 46.8139 22.6741 47.0389 22.5776C47.726 22.2798 48.0715 22.909 47.6416 23.6471C47.059 24.6537 45.2509 25.7568 44.5759 26.9479C43.6277 28.6214 43.467 31.2217 42.5147 32.9749C42.0286 33.4991 39.9111 32.8784 39.1357 33.3817C38.7982 33.5998 38.6897 34.8538 39.0955 34.8538H43.5152C44.6683 35.915 44.9496 38.1546 45.946 39.2367C46.6532 40.0042 49.4657 41.426 49.755 41.9797C49.9358 42.3236 49.7791 42.7765 49.4456 42.9359C49.2046 43.0492 45.3514 40.3817 45.0179 39.9958C44.2304 39.0773 43.929 37.1438 43.013 36.2169C42.6835 36.0492 39.3767 36.0198 38.8946 36.1163C37.8017 36.326 39.3446 38.6999 39.8067 39.1444C40.4937 39.8029 43.5755 40.7718 43.917 41.3547L44.1179 45.5489L50.2412 49.4326C50.7032 49.894 50.43 50.8838 49.6988 50.4224L43.0973 46.1948C42.3821 45.2553 43.1576 43.2421 42.7076 42.1978C42.5228 41.77 40.5339 40.776 40.4013 40.9353C40.6826 44.0306 40.9035 46.9707 39.5977 49.8479C38.3281 52.6537 35.5798 54.6208 32.9601 52.1546C30.5293 49.8688 30.248 46.1025 30.3445 42.915C30.3605 42.4284 30.6177 41.8706 30.5654 41.4596C30.4087 40.2559 28.8498 41.8496 28.1868 42.0216C27.9337 43.0534 28.4882 45.5573 27.8855 46.3248L21.3082 50.4686L20.7175 50.5776C20.6532 50.1624 20.3238 49.7556 20.7175 49.4326L26.8449 45.5489C27.2266 44.3493 26.5515 42.3697 27.2507 41.3589C27.8172 40.5453 30.461 39.8449 31.2686 39.0522C31.6342 38.6957 32.7994 36.758 32.482 36.305C32.2128 35.9191 28.6569 36.1121 27.9458 36.2127C27.6243 36.4141 26.5315 39.3164 25.9529 40.0042C25.6756 40.3314 21.9028 43.0576 21.6497 43.0114C21.1997 42.9275 21.059 42.3404 21.3122 41.9251C21.6738 41.3338 24.3417 40.0755 25.0448 39.2661C25.9971 38.1756 26.3627 35.9695 27.4475 34.8538H32.1686L32.1606 34.8622ZM32.261 30.039C34.1655 30.3745 36.8896 29.7915 38.8906 30.039C39.7665 28.8311 39.662 26.6292 39.3044 25.2032C39.1196 24.4776 38.4486 23.5842 38.3923 22.9929C38.2959 21.9695 39.6459 20.0989 37.9906 19.5537C37.8499 20.4596 37.4361 21.3278 36.6566 21.8101C35.6843 21.3446 34.4668 22.1624 33.7637 21.3404C33.3097 20.8077 33.2695 19.864 32.5664 19.5537C31.4494 20.8035 32.8476 22.2127 32.7351 22.9677C32.6749 23.3494 32.0601 24.054 31.8673 24.5908C31.6463 25.2032 31.365 26.562 31.3489 27.2079C31.3289 27.9 31.5458 29.9132 32.265 30.039H32.261ZM33.0646 31.2972C32.7231 31.5321 32.7391 31.8257 32.7713 32.2157C32.7954 32.5135 33.5909 35.9275 33.6833 36.1037C34.3624 37.3913 37.0423 37.2697 37.4963 35.7136C37.641 35.2229 37.5044 34.749 37.5968 34.3505C37.6972 33.9102 38.6214 31.2972 37.8861 31.2972H33.0646ZM37.0102 43.6993C38.8223 43.2882 40.1683 43.435 38.995 41.0276C38.6937 40.8095 36.7289 41.5896 36.5803 40.8347C36.3794 39.8365 38.9749 40.4782 38.2357 38.6915C37.5647 37.0767 36.5361 38.2343 35.4753 38.2343C34.7119 38.2343 34.0048 37.601 33.37 37.8988C32.1525 39.0731 32.3012 40.1888 34.1334 40.1384L34.3704 41.1492C32.9119 41.296 31.4494 40.1426 31.578 42.5291C31.6503 43.9132 34.6034 42.8227 33.8561 44.5087C33.3097 44.6094 31.5659 44.2151 31.373 44.8484C30.9391 46.2786 32.7512 46.8616 33.7758 46.9078L33.9686 47.8598C32.8999 47.8514 31.3409 47.5453 32.2811 49.1013C32.9722 50.2421 33.8441 49.4075 34.4749 49.9569C35.3106 50.6825 33.82 50.9006 33.9726 51.32C34.2258 52.012 35.4151 52.142 36.0338 52.0078C36.3151 51.9449 37.6048 51.3158 37.0544 51.0096C36.3874 51.0054 36.2146 50.5525 36.4678 49.9443C38.0468 49.6339 38.9669 49.9737 38.995 47.864C38.8102 47.6627 36.7611 48.3631 36.9861 47.1301C37.0986 46.7232 40.1683 46.7903 39.5816 44.8526C39.3848 44.2067 37.5446 44.6178 36.9861 44.5087L37.0182 43.6993H37.0102Z"/>
</mask>
<path d="M32.1606 34.8622L31.8271 33.3775C31.0275 32.849 28.9583 33.5327 28.44 32.9791C27.8132 32.3122 27.0899 28.0887 26.423 26.906C25.8806 25.9497 23.2769 24.0582 23.1243 23.2109C23.0118 22.5818 23.4738 22.4224 23.9921 22.716C24.3578 22.9257 26.9533 25.6393 27.2306 26.0671C27.8493 27.0318 29.0386 31.8257 29.344 32.0396L31.5378 32.1151C31.8552 30.9198 30.5574 30.2697 30.3726 28.8688C30.1878 27.468 30.69 25.4884 30.5213 24.5363C30.2641 23.0893 28.2592 21.7178 28.1587 19.6292C28.1145 18.6813 29.3601 15.0827 30.2561 14.9317C30.6338 14.873 30.5132 14.9821 30.6096 15.2044C30.9994 16.0977 29.7297 17.5363 29.4886 18.5387C29.0306 20.4512 30.0994 21.7766 31.2605 23.1145C31.1239 21.0174 30.7463 18.7945 33.0284 17.8257C34.7401 17.1001 33.84 19.7214 34.4226 20.3422L36.2508 20.577C37.203 20.1241 36.6566 17.6705 37.4763 17.6621C38.7138 17.9683 39.9352 19.3775 40.0075 20.7112C40.0558 21.6549 39.2883 22.4602 39.8991 23.1103C40.9477 21.613 42.0085 20.2834 41.5103 18.2828C41.2652 17.2972 39.3968 15.3931 40.8794 14.9443C42.3781 17.0582 43.479 18.9665 42.2455 21.5752C41.904 22.2966 40.5379 23.9785 40.4335 24.5237C40.2647 25.3877 40.7348 27.5561 40.5781 28.852C40.3933 30.3703 39.3285 30.7352 39.3928 32.1277C39.9995 32.0354 41.3013 32.3583 41.7111 31.9222C42.342 31.2511 42.9246 27.296 43.6076 26.1426C43.7643 25.8742 46.8139 22.6741 47.0389 22.5776C47.726 22.2798 48.0715 22.909 47.6416 23.6471C47.059 24.6537 45.2509 25.7568 44.5759 26.9479C43.6277 28.6214 43.467 31.2217 42.5147 32.9749C42.0286 33.4991 39.9111 32.8784 39.1357 33.3817C38.7982 33.5998 38.6897 34.8538 39.0955 34.8538H43.5152C44.6683 35.915 44.9496 38.1546 45.946 39.2367C46.6532 40.0042 49.4657 41.426 49.755 41.9797C49.9358 42.3236 49.7791 42.7765 49.4456 42.9359C49.2046 43.0492 45.3514 40.3817 45.0179 39.9958C44.2304 39.0773 43.929 37.1438 43.013 36.2169C42.6835 36.0492 39.3767 36.0198 38.8946 36.1163C37.8017 36.326 39.3446 38.6999 39.8067 39.1444C40.4937 39.8029 43.5755 40.7718 43.917 41.3547L44.1179 45.5489L50.2412 49.4326C50.7032 49.894 50.43 50.8838 49.6988 50.4224L43.0973 46.1948C42.3821 45.2553 43.1576 43.2421 42.7076 42.1978C42.5228 41.77 40.5339 40.776 40.4013 40.9353C40.6826 44.0306 40.9035 46.9707 39.5977 49.8479C38.3281 52.6537 35.5798 54.6208 32.9601 52.1546C30.5293 49.8688 30.248 46.1025 30.3445 42.915C30.3605 42.4284 30.6177 41.8706 30.5654 41.4596C30.4087 40.2559 28.8498 41.8496 28.1868 42.0216C27.9337 43.0534 28.4882 45.5573 27.8855 46.3248L21.3082 50.4686L20.7175 50.5776C20.6532 50.1624 20.3238 49.7556 20.7175 49.4326L26.8449 45.5489C27.2266 44.3493 26.5515 42.3697 27.2507 41.3589C27.8172 40.5453 30.461 39.8449 31.2686 39.0522C31.6342 38.6957 32.7994 36.758 32.482 36.305C32.2128 35.9191 28.6569 36.1121 27.9458 36.2127C27.6243 36.4141 26.5315 39.3164 25.9529 40.0042C25.6756 40.3314 21.9028 43.0576 21.6497 43.0114C21.1997 42.9275 21.059 42.3404 21.3122 41.9251C21.6738 41.3338 24.3417 40.0755 25.0448 39.2661C25.9971 38.1756 26.3627 35.9695 27.4475 34.8538H32.1686L32.1606 34.8622ZM32.261 30.039C34.1655 30.3745 36.8896 29.7915 38.8906 30.039C39.7665 28.8311 39.662 26.6292 39.3044 25.2032C39.1196 24.4776 38.4486 23.5842 38.3923 22.9929C38.2959 21.9695 39.6459 20.0989 37.9906 19.5537C37.8499 20.4596 37.4361 21.3278 36.6566 21.8101C35.6843 21.3446 34.4668 22.1624 33.7637 21.3404C33.3097 20.8077 33.2695 19.864 32.5664 19.5537C31.4494 20.8035 32.8476 22.2127 32.7351 22.9677C32.6749 23.3494 32.0601 24.054 31.8673 24.5908C31.6463 25.2032 31.365 26.562 31.3489 27.2079C31.3289 27.9 31.5458 29.9132 32.265 30.039H32.261ZM33.0646 31.2972C32.7231 31.5321 32.7391 31.8257 32.7713 32.2157C32.7954 32.5135 33.5909 35.9275 33.6833 36.1037C34.3624 37.3913 37.0423 37.2697 37.4963 35.7136C37.641 35.2229 37.5044 34.749 37.5968 34.3505C37.6972 33.9102 38.6214 31.2972 37.8861 31.2972H33.0646ZM37.0102 43.6993C38.8223 43.2882 40.1683 43.435 38.995 41.0276C38.6937 40.8095 36.7289 41.5896 36.5803 40.8347C36.3794 39.8365 38.9749 40.4782 38.2357 38.6915C37.5647 37.0767 36.5361 38.2343 35.4753 38.2343C34.7119 38.2343 34.0048 37.601 33.37 37.8988C32.1525 39.0731 32.3012 40.1888 34.1334 40.1384L34.3704 41.1492C32.9119 41.296 31.4494 40.1426 31.578 42.5291C31.6503 43.9132 34.6034 42.8227 33.8561 44.5087C33.3097 44.6094 31.5659 44.2151 31.373 44.8484C30.9391 46.2786 32.7512 46.8616 33.7758 46.9078L33.9686 47.8598C32.8999 47.8514 31.3409 47.5453 32.2811 49.1013C32.9722 50.2421 33.8441 49.4075 34.4749 49.9569C35.3106 50.6825 33.82 50.9006 33.9726 51.32C34.2258 52.012 35.4151 52.142 36.0338 52.0078C36.3151 51.9449 37.6048 51.3158 37.0544 51.0096C36.3874 51.0054 36.2146 50.5525 36.4678 49.9443C38.0468 49.6339 38.9669 49.9737 38.995 47.864C38.8102 47.6627 36.7611 48.3631 36.9861 47.1301C37.0986 46.7232 40.1683 46.7903 39.5816 44.8526C39.3848 44.2067 37.5446 44.6178 36.9861 44.5087L37.0182 43.6993H37.0102Z" fill="#414042" stroke="#414042" stroke-width="2" mask="url(#path-3-inside-1_2001_1029)"/>
<path d="M15.8516 17.7227L53.2779 55.149" stroke="#F73500" stroke-width="4"/>
</svg>
