<svg width="29" height="29" viewBox="0 0 29 29" fill="none" xmlns="http://www.w3.org/2000/svg">
<circle cx="14.2222" cy="14.2222" r="13.7222" stroke="#38B44A"/>
<path d="M12.3921 6.92138C12.5483 7.10328 13.1422 7.30742 13.3395 7.53782C13.9294 7.2003 13.6334 6.49695 13.6992 5.93912L14.1164 5.98358L14.2582 6.55152C15.2098 7.13562 14.881 5.78147 15.3927 5.94114C15.7976 6.06645 15.2386 7.22253 15.7216 7.46304C16.0812 7.53985 16.7739 6.98404 16.9691 6.67885C16.9732 6.32313 16.5231 4.80528 16.7821 4.62742C16.9424 4.60518 17.0965 4.6355 17.2014 4.76889C17.3123 4.91239 17.598 6.6647 17.5734 6.88702C17.5302 7.29529 16.2909 7.7844 16.1799 8.13203C16.0258 8.61912 16.5457 9.65191 15.96 10.3411C15.8798 10.4341 15.6681 10.4583 15.6435 10.5574C15.6065 10.715 15.8079 11.5861 15.9148 11.6043C16.2231 11.5396 16.9157 11.194 17.076 10.9293C17.4233 10.3532 17.4089 9.12238 17.8405 8.59689C17.9371 8.47966 19.904 6.82841 20.0314 6.76172C20.4815 6.52727 20.7611 6.72533 20.4322 7.15583C19.9205 7.82482 18.6462 8.44126 18.2331 9.13653C17.8919 9.71255 17.9063 10.7554 17.5466 11.291C17.1541 11.8751 16.0011 11.9378 15.8552 12.6553C16.0237 13.2111 17.7316 12.0611 18.1982 12.3259C18.3626 12.4208 19.2032 14.6178 19.5526 14.9856C20.015 15.4727 21.3468 15.9679 21.9531 16.4651C22.4936 16.9097 22.3744 17.2311 21.7188 16.9987C21.5174 16.9279 19.3388 15.5819 19.195 15.4384C18.8394 15.0827 18.0317 12.9908 17.746 12.9241L15.9168 13.5062L15.9086 14.729C16.3669 15.4141 18.2968 16.7582 18.5558 17.3887C18.7448 17.8475 17.9227 18.9652 18.0337 19.5049L20.5267 22.6174L20.5822 23.0176L20.0191 22.9145L17.5138 19.8222C17.1048 19.1815 18.0707 18.1285 17.894 17.5322C17.8056 17.2331 16.0689 15.7436 15.7031 15.4363C15.4688 15.782 15.8901 15.9497 16.0052 16.1498C16.6547 17.2978 16.9444 19.0137 16.0114 20.0849C14.7597 21.526 12.8442 20.4305 12.5935 18.7975C12.5092 18.2457 12.6962 17.1684 12.9285 16.649C13.1196 16.2205 13.8349 15.784 13.4423 15.4384L11.2535 17.6232C11.309 18.1588 11.9646 19.2057 11.7981 19.6746L9.14683 22.9872C8.65563 23.2096 8.44805 22.9165 8.76661 22.4597C9.43046 21.5017 10.4457 20.5983 11.1096 19.61C11.311 18.9632 10.4827 17.7627 10.6636 17.3605C11.1281 16.7076 13.0847 15.2989 13.2656 14.6562C13.3149 14.4844 13.4361 13.5769 13.3293 13.5062L11.4384 12.9544C11.0336 13.1646 10.4848 14.9776 10.0676 15.404C9.96277 15.5111 7.67528 16.9461 7.52935 17.0007C7.30533 17.0815 7.07103 17.128 6.91895 16.8976C6.93128 16.7521 6.99088 16.645 7.09569 16.5459C7.67116 16.0043 9.08107 15.5697 9.64215 14.9371C10.0285 14.5026 10.7931 12.4956 11.0253 12.3541C11.459 12.0894 12.7497 12.9201 13.2882 12.8109C13.2717 12.6634 13.3354 12.4491 13.2656 12.3259C13.1854 12.1864 11.9255 11.673 11.7036 11.388C11.3336 10.9131 11.3028 9.59734 10.9246 9.02132C10.5752 8.48977 9.21877 7.68941 8.71112 7.15381C8.41106 6.8365 8.6248 6.50301 9.13245 6.7415C9.27015 6.80618 11.2905 8.52817 11.3891 8.6656C11.9851 9.48214 11.6234 10.715 12.6778 11.3395C13.0374 11.5518 13.2429 11.7781 13.4403 11.2991C13.7794 10.4765 13.3827 10.622 13.1381 10.1794C12.836 9.6317 13.0025 8.7323 13.0662 8.13607C12.8031 7.70355 11.7323 7.35794 11.6419 6.89915C11.5453 6.40196 11.9502 5.22567 12.0427 4.68805C12.0468 4.58901 12.2605 4.60922 12.3058 4.62943C12.8052 4.83761 12.0262 6.50301 12.388 6.92543L12.3921 6.92138ZM15.5366 9.87221C15.925 9.2396 15.2078 9.12642 15.1379 8.61104C15.0783 8.18054 15.4318 7.58229 14.8255 7.3054C14.5213 7.16594 14.1041 7.46304 14.0239 7.73185C13.9376 8.02087 14.1062 8.24117 14.0856 8.49583C14.0465 8.99707 13.4814 9.22344 13.6067 9.71659C13.7424 10.1269 14.3404 9.58926 14.657 9.60947C14.9735 9.62968 15.2037 9.98338 15.5366 9.87423V9.87221ZM14.5727 10.1855C14.0363 10.3007 13.8739 12.2895 13.9027 12.7604C13.9191 13.0332 14.0815 13.3061 14.0733 13.5547C14.0589 13.971 13.6766 14.6501 13.9972 15.0928C14.248 15.4404 14.9879 15.3676 15.2386 15.0867C15.6127 14.6663 15.1441 13.9407 15.1256 13.5688C15.105 13.1161 15.4112 12.6088 15.329 11.863C15.2982 11.5861 14.9118 10.1147 14.5727 10.1855ZM13.7321 19.8505C14.7186 20.7458 15.8819 19.7898 16.0319 18.6984C16.2148 17.3746 15.1112 14.7229 13.7444 16.4489C13.097 17.2675 12.912 19.1087 13.73 19.8525L13.7321 19.8505Z" fill="#38B44A"/>
</svg>
