<svg width="29" height="29" viewBox="0 0 29 29" fill="none" xmlns="http://www.w3.org/2000/svg">
<circle cx="14.2222" cy="14.2222" r="13.7222" stroke="#38B44A"/>
<path d="M20.2343 9.4563L16.9163 10.8227L17.1721 11.8414C17.2476 11.9683 17.3378 11.9458 17.4637 11.9273C17.8957 11.8619 18.5648 11.4078 19.0703 11.3382C19.5757 11.2687 20.3811 11.4344 20.8216 11.3075C21.3082 11.1684 21.7969 9.85723 22.4156 9.68745L22.6736 9.85519C22.7491 10.1293 21.2893 11.8762 20.9453 11.9396C20.314 12.0583 19.4709 11.8292 18.7955 11.9908C18.676 12.0194 17.4826 12.5103 17.3966 12.5676C16.9435 12.8724 17.1868 13.5372 17.6147 13.6599C18.0656 13.7888 18.7284 13.5331 19.1542 13.7949C19.7309 14.1468 20.5468 15.8937 21.2054 16.3969C21.6144 16.7099 22.3254 16.7876 22.7533 17.0351C23.1811 17.2826 23.0175 17.6161 22.5309 17.567C22.0758 17.5199 20.9013 16.9287 20.5846 16.5933C20.1777 16.1596 19.2087 14.5886 18.8563 14.3922C18.6067 14.2531 18.1663 14.1959 17.9754 14.4454C18.2355 14.8811 18.0656 15.4519 18.2858 15.8671C18.5061 16.2823 19.5673 16.7569 19.882 17.1824L20.0057 19.9173C20.551 20.6271 21.8619 21.0199 21.9437 21.9649C21.6291 22.2738 19.8589 20.4451 19.4604 20.2978C19.1038 19.8089 19.4918 18.1684 19.301 17.5363C19.259 17.3951 18.4662 16.7671 18.3278 16.7446C18.095 16.7099 18.2041 16.8019 18.16 16.894C17.7217 17.8165 17.7594 18.3525 16.8554 19.097C14.5085 21.0321 11.2428 19.5778 10.8276 16.7467C10.6912 16.6342 9.6719 17.3624 9.61527 17.5547C9.42021 18.2318 9.77257 19.7782 9.5104 20.2139C9.44119 20.3285 7.60388 21.8504 7.46965 21.9097C7.29766 21.9854 7.14036 22.0202 6.99774 21.8626C6.87399 21.7236 6.97257 21.6151 7.04808 21.4965C7.32493 21.0587 8.76583 20.3428 8.96718 19.8907L9.06576 17.2254L10.6724 15.9285L10.9345 14.292L10.0347 14.3861C9.47684 14.963 8.65887 16.5483 8.03385 16.9349C7.79474 17.0842 6.15879 17.7163 6.00358 17.5629C5.91968 16.7774 7.33332 16.7549 7.84089 16.3396C8.48269 15.816 9.07834 14.4168 9.78096 13.8338C10.4165 13.3776 11.547 14.155 11.8721 13.0156C11.9098 12.6024 10.4563 12.0542 10.0998 11.9846C9.45587 11.8598 8.28973 12.0828 7.81152 11.8639C7.66471 11.7964 6.54261 10.4341 6.43984 10.2357C6.32658 10.0188 6.21542 9.68336 6.58246 9.6854C6.85302 9.6854 7.76328 11.0764 8.0674 11.3096C9.40344 11.2298 10.4186 11.3812 11.6162 11.9458C11.9601 11.911 12.0797 10.9782 11.9161 10.8043L8.72808 9.43789C8.41767 8.5317 7.7528 7.5662 7.46965 6.67843C7.41512 6.50455 7.29557 6.27749 7.41722 6.10771L7.72553 6.01771C8.01077 6.10362 8.80988 8.64626 9.30696 9.07787C9.46636 9.21492 11.9077 10.2336 12.1657 10.2827C13.7765 10.5793 12.7152 8.57057 13.4451 7.89554C13.8897 7.48642 15.4481 7.56211 15.7019 8.15941C16.0165 8.89786 15.2132 10.2111 16.6457 10.3134L19.6953 9.08196C20.1378 8.73217 20.6559 6.79502 21.0607 6.22226C21.3291 5.84383 21.6941 5.96861 21.6102 6.44523C21.4655 7.26959 20.4755 8.57875 20.2343 9.4563ZM14.6993 9.16992C13.8981 9.31516 14.3868 8.62989 14.0282 8.26169C13.615 8.55011 13.7534 9.15969 13.8121 9.5954C13.9212 9.74882 15.079 9.74882 15.188 9.5954C15.2404 9.16788 15.4355 8.31897 14.8147 8.25965L14.6993 9.16992ZM14.4812 10.2275C11.2911 10.2848 11.9476 15.008 14.7643 14.7052C17.1344 14.4516 17.4029 10.1743 14.4812 10.2275ZM12.1909 13.8849C11.3561 14.1816 11.2785 15.7362 11.354 16.491C11.5931 18.8516 14.2987 20.2712 16.3332 18.7923C17.7594 17.7572 18.1285 15.2207 16.9645 13.9074C16.522 14.1529 16.3122 14.6439 15.8277 14.9261C14.5966 15.64 12.7551 15.235 12.1888 13.8849H12.1909Z" fill="#38B44A"/>
</svg>
