<svg width="29" height="29" viewBox="0 0 29 29" fill="none" xmlns="http://www.w3.org/2000/svg">
<circle cx="14.2222" cy="14.2222" r="13.7222" stroke="#38B44A"/>
<path d="M22.3441 16.9745L22.3359 16.955C21.0861 13.8142 18.7979 10.6756 16.05 8.32867C16.6451 7.24713 17.6405 6.9854 18.6912 6.70852C18.9026 6.65228 19.116 6.59604 19.3253 6.53331C19.3787 6.51817 19.4279 6.51817 19.4751 6.51817C19.5469 6.51817 19.6249 6.52033 19.6824 6.45112C19.744 6.37757 19.7399 6.2586 19.7152 6.10286L19.7009 6.0185L19.6208 6.01201C18.2192 5.90386 16.7621 6.56143 15.5985 7.81169C15.2578 7.20819 14.5129 6.9616 13.889 6.98323C13.2282 7.00919 12.6926 7.32284 12.4545 7.81386C11.0796 6.50303 9.71076 5.89737 8.37888 6.01417L8.29884 6.02066L8.28653 6.10286C8.2619 6.2586 8.2578 6.37757 8.31937 6.45112C8.37683 6.52033 8.45481 6.51817 8.52664 6.51817C8.57384 6.51817 8.62309 6.51817 8.67645 6.53331C8.88783 6.59604 9.0992 6.65228 9.31058 6.70852C10.3613 6.9854 11.3566 7.24713 11.9518 8.32867C9.15461 10.734 6.92387 13.7948 5.66587 16.955L5.63714 17.0243C5.21439 18.0863 4.73418 19.289 5.1754 20.1045C5.42166 20.5587 5.91009 20.8313 6.67145 20.9416C6.93824 20.9805 7.20707 21 7.47591 21C9.59173 21 11.7568 19.8428 12.982 17.9976C13.3739 18.4822 13.6756 18.759 13.9999 18.759C14.3241 18.759 14.6258 18.4822 15.0177 17.9955C16.3886 20.0526 18.8554 21.2379 21.201 20.9546C22.0301 20.8551 22.5575 20.5782 22.8181 20.111C23.2676 19.2998 22.7976 18.1188 22.342 16.9745H22.3441ZM13.3288 17.4612C13.339 17.3898 13.5094 16.9074 13.6469 16.5203C13.7844 16.1331 13.9137 15.7653 13.9609 15.6031C13.9793 15.5404 13.9814 15.4906 13.9814 15.4539C13.9937 15.4539 14.0101 15.4539 14.0306 15.456C14.0286 15.8627 14.1989 16.2758 14.3508 16.6436C14.5232 17.061 14.6853 17.4547 14.5581 17.7294C14.476 17.909 14.2707 18.0452 13.9342 18.1426C13.7269 18.1015 13.3329 17.6537 13.3308 17.459L13.3288 17.4612ZM10.8415 17.3206C12.081 16.3429 12.8917 15.1402 13.7372 13.8618C13.4663 17.2168 11.6049 19.6567 8.81189 20.271C7.96434 20.4571 6.36773 20.5869 5.76438 19.8947C5.54069 19.6373 5.47912 19.2803 5.58173 18.8304C7.46155 19.6394 9.67587 18.2399 10.8436 17.3206H10.8415ZM9.85441 17.3249C9.91187 16.9312 10.5132 14.8093 10.6691 14.5151C10.7245 14.4113 11.0652 14.1236 11.3382 13.8921C11.5249 13.7342 11.7055 13.5806 11.843 13.453V15.5599C11.7527 15.8129 10.8661 16.5311 10.3326 16.9615C10.1417 17.1173 9.96933 17.2557 9.85031 17.3595C9.85031 17.3466 9.85441 17.3336 9.85441 17.3271V17.3249ZM12.4525 14.8222C12.4156 14.872 12.4012 14.9217 12.3909 14.9585C12.3868 14.9693 12.3827 14.9845 12.3868 14.9845C12.3827 14.9845 12.3684 14.9888 12.3335 14.9845C12.3601 14.6838 12.3376 14.3291 12.315 13.9873C12.2883 13.5806 12.2596 13.1588 12.3212 12.8582C12.3499 12.7154 12.7152 12.2612 13.0066 11.8978C13.1954 11.6641 13.376 11.437 13.4991 11.2618C13.9342 12.5705 13.22 13.7926 12.4545 14.8222H12.4525ZM13.1626 10.2711C13.218 10.8378 12.629 11.5711 12.2391 12.0557L12.1385 12.1811C11.763 12.6548 9.8934 14.6751 9.33521 14.7141C9.327 14.7141 9.31673 14.7141 9.30647 14.7141C9.30647 14.0219 10.8374 11.8329 12.1057 10.5134C12.67 9.92719 12.8794 9.84499 12.9327 9.83417C13.0702 9.95531 13.1461 10.0981 13.1626 10.269V10.2711ZM16.1567 13.453C16.2942 13.5806 16.4748 13.7342 16.6616 13.8921C16.9345 14.1236 17.2752 14.4113 17.3306 14.5129C17.4845 14.8071 18.0878 16.9291 18.1453 17.3271C18.1453 17.3379 18.1494 17.353 18.1515 17.3703C17.6528 16.9832 16.2306 15.7524 16.1567 15.575V13.4508V13.453ZM18.6666 14.7141C18.1084 14.6773 16.2388 12.6548 15.8632 12.1811L15.7627 12.0557C15.3728 11.5711 14.7817 10.8357 14.8392 10.2711C14.8556 10.1002 14.9316 9.95747 15.069 9.83417C15.1183 9.84283 15.2989 9.90772 15.7688 10.3749C16.9099 11.5106 18.6994 13.9505 18.6953 14.7119C18.685 14.7119 18.6768 14.7119 18.6666 14.7119V14.7141ZM14.5108 11.2575C14.6094 11.3916 14.7489 11.5755 14.9028 11.7788C15.1922 12.1595 15.6272 12.7305 15.6785 12.8495V14.9845C15.6375 14.991 15.6211 14.9888 15.6211 14.9931C15.619 14.9866 15.6129 14.9715 15.6108 14.9607C15.6006 14.9239 15.5862 14.8742 15.5493 14.8244C14.6442 13.6088 14.1209 12.5294 14.5108 11.2596V11.2575ZM14.6483 9.18741C14.4431 9.77793 14.2297 10.4052 14.0429 11.0736C14.0265 11.1342 14.0224 11.1861 14.0224 11.2229C13.9999 11.2229 13.9711 11.2207 13.9444 11.2164L13.3431 9.18309C13.7597 9.3172 14.2318 9.31936 14.6504 9.18741H14.6483ZM20.7536 18.4908C19.8548 18.3416 18.9498 17.8592 18.7404 17.4136C18.6235 17.1649 18.1822 15.6247 18.0878 15.1099C18.2356 15.1748 18.3895 15.2138 18.5414 15.2505C18.7404 15.2981 18.9272 15.3435 19.0873 15.4474C19.6126 15.7891 21.2893 17.3963 21.8598 17.9782C21.8906 18.0085 21.9275 18.0387 21.9665 18.069C22.0711 18.1512 22.1225 18.1988 22.1204 18.2659C21.868 18.5103 21.3734 18.5925 20.7536 18.4908ZM17.2074 11.145C17.2916 11.145 17.3798 11.1385 17.4701 11.132C17.7369 11.1147 18.0119 11.0974 18.1925 11.1904C18.3054 11.2791 19.1796 12.4255 19.4423 12.8798C18.4675 12.5402 17.7492 11.9821 17.2074 11.145ZM17.1069 10.5112C16.877 10.5026 16.6616 10.4918 16.5097 10.4225C16.4009 10.3598 15.4959 9.44266 15.3399 9.22419L15.5718 8.68774C15.7319 8.75912 16.1752 9.11603 16.5364 9.44698C16.8463 9.73035 17.1726 10.0851 17.5461 10.5458C17.4024 10.5242 17.2526 10.5177 17.1069 10.5112ZM15.0916 8.21619C15.067 8.30704 15.0383 8.41303 14.989 8.46062C14.6709 8.78292 13.6264 8.81969 13.1256 8.52335C12.9389 8.41303 12.8609 8.27459 12.8937 8.11452C12.9717 7.74031 13.5114 7.54563 13.9957 7.54563C14.0122 7.54563 14.0286 7.54563 14.0429 7.54563C14.478 7.55645 15.0095 7.73166 15.0998 8.18374L15.0916 8.21619ZM10.5316 11.132C10.626 11.1385 10.7163 11.1428 10.8025 11.145C10.3223 11.941 9.60199 12.4969 8.55947 12.8755C8.82626 12.4191 9.69434 11.2813 9.799 11.1969C9.91598 11.1363 10.0637 11.119 10.2238 11.119C10.3244 11.119 10.429 11.1255 10.5316 11.132ZM11.9025 10.0115C11.7547 10.1889 11.6008 10.3728 11.4941 10.4225C11.3402 10.4939 11.1247 10.5026 10.8949 10.5112C10.7492 10.5177 10.5994 10.5242 10.4557 10.5458C10.8292 10.0851 11.1555 9.73251 11.4654 9.44698C11.8163 9.12468 12.2473 8.77643 12.4156 8.69423L12.5838 9.37344C12.3355 9.49024 12.1077 9.76496 11.9025 10.0094V10.0115ZM6.22202 17.1021C6.49291 16.3883 7.48617 14.4783 7.76938 14.0738L9.31879 13.1999C9.00891 13.7645 8.85704 14.3334 8.71544 14.9477L6.22407 17.1L6.22202 17.1021ZM8.9145 15.4474C9.07458 15.3435 9.26133 15.2981 9.46039 15.2505C9.59583 15.2181 9.73538 15.1835 9.87083 15.1294C9.83799 15.2678 9.80311 15.4257 9.76617 15.5988C9.59378 16.3926 9.35573 17.4807 9.0007 17.8008C8.6272 18.1382 6.78637 18.7309 6.10299 18.4952C5.97781 18.4519 5.90598 18.3848 5.88546 18.3005C5.87109 18.2096 5.91624 18.1642 6.02911 18.0755C6.0681 18.0452 6.10915 18.0149 6.14198 17.9803C6.7125 17.3985 8.38914 15.7913 8.9145 15.4495V15.4474ZM17.2382 17.3855C18.3936 18.2745 20.5833 19.6221 22.418 18.8326C22.5165 19.2977 22.4508 19.6632 22.221 19.9206C21.6812 20.5263 20.3145 20.4852 19.2186 20.2429C16.3866 19.62 14.556 17.2492 14.2666 13.8683C15.1265 15.1705 15.9515 16.397 17.2382 17.3855ZM19.2822 14.9434L18.6809 13.2021C20.4027 13.6845 21.084 15.3608 21.7038 17.0351L19.2822 14.9434Z" fill="#38B44A"/>
</svg>
