<svg width="29" height="29" viewBox="0 0 29 29" fill="none" xmlns="http://www.w3.org/2000/svg">
<circle cx="14.2222" cy="14.2222" r="13.7222" stroke="#38B44A"/>
<path d="M8.95184 13.5447C8.81381 13.5838 7.73029 15.0885 7.53475 15.3485C7.31161 15.6476 6.16598 17.2075 6.13377 17.4077C6.02565 18.0979 7.38983 20.6909 7.05166 21.0222L6.53405 20.9071C6.33391 19.9454 5.42063 18.3809 5.38152 17.4675C5.35622 16.8578 8.08687 13.8346 8.43193 13.0271C8.777 12.8177 11.3811 13.0501 12.0575 12.9718C12.4692 12.9235 12.9915 12.675 12.4969 12.2977L9.78001 12.0239C9.54306 11.9503 9.20029 11.3866 9.02775 11.1657C8.7517 10.8068 6.96884 8.2783 6.93663 8.07123C6.84692 7.51215 7.54166 6.30195 7.7556 5.73597L8.09147 5.77278C8.56996 6.134 7.46114 7.54436 7.64518 8.05283L9.87663 11.2325C10.3229 11.6351 12.1265 11.5592 12.8005 11.7018C12.8419 11.4948 12.6993 11.4165 12.5636 11.3061C12.0483 10.8874 10.8359 10.4893 10.4356 10.0982C10.2884 9.95325 10.2884 9.88653 10.2631 9.69556C10.1757 9.04445 10.1803 6.18922 10.3183 5.59792C10.4034 5.2275 11.901 3.01878 12.1656 3.0763C12.299 3.10621 12.3496 3.32938 12.3404 3.46973C12.3105 3.94368 11.1235 5.2045 10.9647 5.78428L11.0154 9.63344C11.0913 9.7922 13.1801 10.9242 13.3135 10.8989C13.7736 10.8114 13.2376 9.93944 13.2813 9.72317C13.3296 9.47699 13.7161 8.76606 14.0037 8.82358C14.6938 8.96392 13.8058 9.74848 14.0819 10.1925C14.42 10.349 15.2045 10.464 15.3908 10.0936C15.6071 9.72087 15.1125 9.38726 15.2252 9.01684C15.4184 8.38183 16.265 9.31134 16.1132 10.1235C16.0557 10.4272 15.6485 10.6941 16.288 10.8805C16.732 10.5583 18.4596 9.93024 18.5494 9.45859C18.6391 8.98693 18.6276 6.38708 18.5448 5.90162C18.4389 5.26431 17.2588 4.12544 17.1001 3.53875C17.0403 3.32018 17.2542 3.04179 17.4451 3.0832C17.6177 3.12001 19.1567 5.41156 19.2142 5.69225C19.3154 6.18232 19.3338 9.32284 19.2395 9.806C19.1153 10.4364 17.2266 10.8782 16.8286 11.3061C16.6952 11.451 16.6883 11.5109 16.7113 11.7064L19.274 11.4533C19.8353 11.2785 21.2938 8.5774 21.8413 8.02982C22.0277 7.6801 20.836 5.85561 21.4871 5.72677C21.816 5.66234 22.5982 7.62719 22.5752 7.9631C22.5361 8.54289 20.2264 11.1865 19.8836 11.948C19.1981 12.0883 18.4965 12.1873 17.804 12.2839C17.5234 12.323 16.6722 12.1298 16.8378 12.6773C16.8976 12.8798 17.2657 12.9557 17.4589 12.9787C18.0801 13.0501 20.8015 12.8476 21.0615 12.9994L24.0774 17.295C24.1234 17.6286 23.2607 20.2008 23.0583 20.6494C22.7822 21.2637 22.3083 21.2154 22.3658 20.6541C22.451 19.8557 23.5851 17.8839 23.3228 17.2351L20.6244 13.6045L17.6844 13.6598C17.2519 14.2557 19.6743 14.6353 20.001 14.8055C20.1022 14.8585 20.2149 14.8769 20.2701 14.9965C20.5554 16.3263 21.3559 18.1715 21.4203 19.4899C21.4733 20.5321 19.8997 22.7431 19.626 23.8705C19.1682 24.3951 18.9036 24.0408 19.067 23.438C19.366 22.329 20.4426 20.891 20.7463 19.7061C20.5968 19.0159 20.0309 15.7097 19.6513 15.383C19.4834 15.2381 18.3193 14.9459 18.2066 15.0448C19.4788 18.3349 15.798 23.9211 12.4531 20.2813C11.1189 18.8296 10.8474 16.9429 11.1902 15.0448C10.668 15.0793 9.87202 15.1944 9.63738 15.7327C9.17038 16.8049 9.10827 18.4591 8.67348 19.5888C8.82531 20.3112 10.6266 23.5001 10.4931 23.9418C10.3942 24.2708 10.0515 24.1443 9.87893 23.8935C9.66268 23.5783 8.00175 19.8442 8.00405 19.6095L9.18649 15.0494C9.67418 14.2971 11.878 14.7112 11.7676 13.547H8.94954L8.95184 13.5447ZM15.9107 12.1643C16.0327 10.5169 13.4285 10.4893 13.6103 12.1643H15.9107ZM14.1463 12.7832C13.2882 12.8154 13.1663 12.9787 12.7108 13.6252C11.227 15.7235 11.2937 18.6041 13.3894 20.2652C15.7681 22.1495 18.0272 18.4982 17.8569 16.3793C17.7925 15.5763 16.9114 13.3676 16.2029 12.9649C15.9913 12.8453 14.4983 12.7717 14.1463 12.7855V12.7832Z" fill="#38B44A"/>
</svg>
