<svg width="29" height="29" viewBox="0 0 29 29" fill="none" xmlns="http://www.w3.org/2000/svg">
<circle cx="14.2222" cy="14.2222" r="13.7222" stroke="#38B44A"/>
<path d="M13.7735 7.94404C13.8202 7.97579 13.8445 8.10838 13.9006 8.13826C14.3716 8.38477 15.6781 7.6247 16.209 8.21669C16.3286 8.35115 16.2968 8.57525 16.5435 8.6817C16.7099 8.75266 17.4145 8.59766 17.7603 8.6761C18.1715 8.7676 18.2762 9.24008 18.4519 9.29798C18.751 9.39882 19.1267 9.07201 19.6986 9.354C20.1079 9.55569 20.0537 9.95346 20.3958 10.2429C20.9939 10.749 21.8967 10.9134 22.2911 11.8041C22.4201 12.0955 22.3677 12.3812 22.478 12.6445C22.5546 12.8313 22.8556 13.1095 22.9845 13.3523C23.3527 14.047 23.749 14.8743 23.6013 15.6811C23.4425 16.542 21.549 17.8754 20.7528 18.1555C19.1921 18.7045 17.0444 17.9912 15.8164 16.9622C15.8146 16.3272 16.3286 16.8109 16.7454 16.7717C16.9529 16.753 17.5061 16.514 17.6781 16.3889C17.9659 16.1778 18.3622 15.1675 18.6725 15.3767C18.9472 15.5597 18.3566 16.471 18.1734 16.6503C17.9042 16.9136 17.4631 16.9715 17.3659 17.3357C18.3715 17.7783 19.0033 17.6793 19.7528 16.8744C19.9528 16.6596 20.5098 15.442 20.8238 15.7502C20.9098 16.2917 20.4463 16.8296 20.1136 17.2348C19.9734 17.4048 19.5491 17.4981 19.7491 17.8044C20.579 17.9949 22.8911 16.3646 23.0462 15.6829C23.2219 14.9098 22.7995 13.8752 22.2724 13.3224C21.6219 14.3813 20.5042 15.1712 19.2444 15.274L19.1603 14.9677C19.2014 14.7286 19.8575 14.639 20.1098 14.5195C20.8705 14.1628 21.7659 13.5671 21.9079 12.6669C22.0294 11.9013 21.1173 10.9825 20.3584 10.9843C20.4294 12.7902 18.9323 14.3906 17.0968 14.3365L17.1043 13.8957C18.9566 13.7874 20.3864 11.8938 19.6837 10.1178C19.521 9.70509 19.25 9.69015 18.8182 9.77418C18.3379 9.86756 18.5435 10.3214 18.4799 10.6482C18.1229 12.4559 17.0164 13.8098 14.9903 13.4998C14.6221 13.4438 14.351 13.074 14.7193 12.9601C15.2314 12.8033 15.8276 13.046 16.5603 12.7454C17.7528 12.258 18.4239 10.1944 17.6482 9.16165C17.4071 9.04213 16.6146 9.20087 16.4837 9.39882C16.3884 9.54075 16.3697 9.92732 16.2893 10.1383C15.7473 11.5745 14.9305 12.7379 13.2146 12.4708C12.8856 12.4204 12.6221 12.1104 12.2726 12.0973C12.0483 12.088 11.2483 12.2019 11.1548 12.3849C11.1081 12.4746 10.9025 13.3616 10.9287 13.4401L11.4333 13.8752C11.8408 13.5166 11.0165 12.5642 11.9399 12.6725L12.323 15.0909C12.5623 15.1283 12.4688 15.0685 12.5174 14.9602C12.6464 14.6764 12.9866 13.1562 13.3006 13.2253C13.3511 13.2365 13.5062 13.4102 13.523 13.4774C13.609 13.8098 12.8333 15.2179 12.88 15.6941C13.0389 16.1704 13.8688 16.4654 13.8165 16.9977C13.7679 17.4925 12.8744 18.8633 12.51 19.2499C12.1212 19.6626 11.009 20.5627 10.5511 19.9838C10.5006 19.7037 11.409 19.5076 11.6614 19.3358C12.1025 19.037 13.1922 17.5784 13.2352 17.0854C13.2688 16.7082 12.1716 15.9556 11.9455 15.6082C11.7754 15.3431 11.7773 15.02 11.5754 14.7623C11.4072 14.5456 10.953 14.2356 10.7661 13.9798C9.7343 14.4597 11.1062 15.1862 11.0838 15.6829C11.0427 16.6073 9.29318 18.5215 8.22218 18.3497L8.19975 17.9351C8.50068 17.726 8.85768 17.698 9.1773 17.5056C9.56047 17.274 10.4072 16.3123 10.4539 15.879C10.5212 15.2665 9.56982 14.7268 9.36048 14.1777C9.17917 13.6997 9.21655 13.0684 9.1044 12.5661C7.81471 12.1123 8.06517 12.9172 7.55677 13.5521C7.36986 13.7856 6.66333 14.3402 6.61473 13.8304C6.58482 13.5148 7.48013 13.1226 7.46331 12.6202C7.37546 12.1702 6.61473 13.117 6.4652 13.2085C6.13623 13.4139 5.58858 13.6044 5.73063 13.0348C6.08203 12.7865 6.59417 12.5792 6.71566 12.1048C6.26707 12.1123 6.02222 12.4839 5.54933 12.4821C5.31382 12.4821 5.36989 12.2374 5.454 12.1029C5.55307 11.9423 6.2895 11.7089 6.48202 11.4493C6.70818 11.1431 6.57735 10.7696 6.66707 10.4203C6.95117 9.32786 9.27263 8.0617 10.3306 7.9982C10.6408 7.97953 10.7474 8.19615 11.0576 8.18868C11.9118 8.16814 12.766 7.26241 13.7866 7.93657L13.7735 7.94404ZM10.538 11.5483C12.024 12.1216 12.9455 11.0478 13.3342 9.72376C13.9772 7.53133 12.4464 8.23537 11.1418 8.84044C11.138 9.82461 10.8633 10.6444 10.538 11.5483ZM10.4352 8.56965C9.24085 8.64249 6.72314 9.92359 7.10257 11.3877C7.1979 11.7575 7.62032 11.961 7.97545 12.0096C9.96233 12.2785 10.8913 10.2597 10.4352 8.57152V8.56965ZM12.8744 11.8284C14.5529 12.8033 16.0295 10.3606 15.966 8.98237C15.9305 8.21483 14.1342 8.67797 14.0408 8.84231C13.9828 8.94502 13.8613 9.84702 13.7585 10.1477C13.5211 10.8368 13.0707 11.1953 12.8763 11.8303L12.8744 11.8284ZM10.138 13.8584C10.2072 13.7725 10.6427 12.4615 10.6315 12.3457C10.5829 11.8415 9.69318 11.8527 9.64458 12.4316L9.7885 13.976C9.82402 14.0171 10.0913 13.9126 10.1362 13.8565L10.138 13.8584Z" fill="#38B44A"/>
<path d="M15.3419 20.7401C14.8223 21.2107 13.6615 21.9278 12.9401 21.7093C12.8335 21.6775 12.6616 21.5244 12.6877 21.403C12.7083 21.3134 14.0896 20.9847 14.4204 20.798C14.8428 20.5608 15.7755 19.6663 15.9213 19.2087C15.9606 19.0855 15.9662 19.0537 15.9138 18.9323C15.7232 18.4972 14.8783 17.8342 14.6129 17.33C14.4559 17.0294 14.4372 16.5924 14.2802 16.3552C14.1045 16.09 13.0746 15.7277 13.155 15.3337C13.2148 15.0405 13.6989 15.2739 13.8541 15.3785C14.0653 15.3449 13.7643 14.6315 14.312 14.8294C14.6092 14.9378 14.5606 16.0116 14.884 15.9387C15.0372 15.9033 15.3419 14.5419 15.5026 14.3159C15.7718 13.9368 16.0727 14.3047 15.94 14.6558L15.1325 17.0854C15.3568 17.64 16.5475 18.5252 16.5288 19.0649C16.5101 19.6046 15.7251 20.3964 15.3456 20.7401H15.3419Z" fill="#38B44A"/>
<path d="M8.36799 11.1542C8.59819 11.1542 8.7848 10.9677 8.7848 10.7377C8.7848 10.5077 8.59819 10.3213 8.36799 10.3213C8.13779 10.3213 7.95117 10.5077 7.95117 10.7377C7.95117 10.9677 8.13779 11.1542 8.36799 11.1542Z" fill="#38B44A"/>
</svg>
