<svg width="29" height="29" viewBox="0 0 29 29" fill="none" xmlns="http://www.w3.org/2000/svg">
<circle cx="14.2222" cy="14.2222" r="13.7222" stroke="#38B44A"/>
<path d="M23.5844 7.85509C24.4 8.82264 23.0005 10.1127 22.2165 10.5828C21.6158 10.9411 20.9624 11.1077 20.2985 11.2995C19.9001 12.0541 19.6219 12.891 19.0866 13.5655C18.9327 13.7595 18.2898 14.2865 18.2624 14.4256C18.1718 14.8999 18.9179 14.9125 19.194 15.0432C20.1172 15.4796 20.5177 16.6516 19.2467 16.7823C18.8357 16.8244 17.6344 16.8434 17.2676 16.7612C16.6922 16.6305 16.1168 15.4395 15.5604 15.4037C14.8122 15.3552 15.2189 15.8063 15.1894 16.1942C15.1536 16.6432 14.789 16.7443 14.3991 16.7844C13.2735 16.9003 10.5588 16.9109 9.44599 16.7844C8.70408 16.7001 8.61345 16.1857 8.24671 16.1014C8.14554 16.0782 7.4205 16.0782 7.31511 16.1225C6.80294 16.3312 6.44042 17.225 6.59428 17.7372C6.83877 18.553 8.73991 19.5395 9.54926 19.6301C9.90968 19.6702 10.5525 19.6617 10.9193 19.6301C12.1354 19.5205 13.6656 18.7638 14.7279 18.6879C15.5899 18.6267 14.9829 19.2739 14.6625 19.5795C11.3492 22.7141 3.18615 21.7254 4.82804 15.6461C4.99876 15.0179 5.14841 14.4298 5.30859 13.808C6.06314 10.8421 7.56171 7.05829 11.2354 7.1953C13.2483 7.27119 15.004 9.02922 17.0885 7.88249C17.3709 7.60635 16.8967 6.67042 17.6786 6.25937C18.4606 5.84832 19.2488 6.72312 19.9022 6.85381C20.2057 6.91494 20.5135 6.84116 20.8149 6.88965C21.5863 7.01823 23.068 7.24379 23.5865 7.85931L23.5844 7.85509ZM9.23311 16.1499H14.555C14.7089 15.3826 12.9827 15.4564 12.8836 15.292C12.9131 14.1895 12.4747 13.1714 11.7666 12.3514C11.5769 12.1321 11.2207 12.0562 11.1195 11.7295C11.4609 10.8168 12.5548 12.364 12.8077 12.7877C13.2145 13.4686 13.2883 14.0651 13.5433 14.7924C13.9248 15.0053 15.3581 15.1549 15.2948 14.5247C15.2695 14.2738 14.8543 13.886 14.9787 13.5171C15.4065 13.0997 16.1295 14.8704 16.3487 15.1507C16.5868 15.4564 17.1285 15.7641 17.3498 16.152H19.4048C19.3584 15.1444 17.8304 15.8021 17.7145 14.9441C17.5479 13.7004 18.0306 13.8986 18.6503 13.1292C19.2004 12.4441 19.5018 11.5588 19.879 10.7746C20.779 10.5828 21.5441 10.3762 22.286 9.80917C24.3326 8.24717 22.6148 7.81504 21.0235 7.52414C20.5936 7.44615 19.9886 7.47776 19.5861 7.3808C19.1203 7.26697 17.7208 6.10549 17.7524 7.33442C17.7671 7.87828 18.2266 8.2556 18.2414 8.32305C18.4753 9.32644 17.529 8.47272 17.354 8.46218C17.1601 8.45164 16.5932 8.72568 16.2833 8.76362C13.9227 9.04398 12.5401 7.57052 10.287 7.82558C8.27833 8.05324 6.63644 11.0065 6.15588 12.7582C5.88821 13.7321 5.72381 14.6364 5.44138 15.6271C4.77535 17.9648 5.28541 19.5521 7.68396 20.3384C9.23522 20.8464 11.5115 20.9371 12.8689 19.9484C12.0448 19.881 11.2122 20.2351 10.3966 20.2667C8.40479 20.3447 4.71633 18.5192 6.39405 16.1583C6.89779 15.4522 7.5575 15.41 8.3816 15.5259C8.97386 15.6103 9.08768 16.1098 9.231 16.152L9.23311 16.1499Z" fill="#38B44A"/>
<path d="M20.7708 8.97003C21.0234 8.97003 21.2282 8.76523 21.2282 8.5126C21.2282 8.25998 21.0234 8.05518 20.7708 8.05518C20.5182 8.05518 20.3135 8.25998 20.3135 8.5126C20.3135 8.76523 20.5182 8.97003 20.7708 8.97003Z" fill="#38B44A"/>
</svg>
