<svg width="29" height="29" viewBox="0 0 29 29" fill="none" xmlns="http://www.w3.org/2000/svg">
<circle cx="14.2222" cy="14.2222" r="13.7222" stroke="#38B44A"/>
<path d="M14.9062 9.53271L15.0931 9.62796C15.2221 9.5738 15.9884 8.35806 16.1267 8.89403C16.2575 9.40199 15.437 9.895 15.4127 10.2778C15.4015 10.459 15.5641 10.698 15.5548 10.9277C15.5435 11.2004 15.2912 11.4207 15.2856 11.587C15.2781 11.8055 15.652 12.2443 15.5641 12.5637C15.6893 12.6832 17.8743 12.0184 18.25 11.9399C19.3622 11.7046 20.7453 11.4376 21.8743 11.5365C23.3098 11.6635 23.6911 12.9035 22.564 13.8205C20.7491 15.2939 17.7211 13.9531 15.6501 13.9139C15.5136 14.0128 15.5697 14.5787 15.5211 14.814C15.4763 15.0287 15.2202 15.391 15.2202 15.5087C15.2202 15.6263 15.5211 15.9961 15.5622 16.3491C15.6407 17.0195 15.6445 18.8552 15.5548 19.5163C15.366 20.902 14.0015 20.9095 13.794 19.5182C13.7043 18.9113 13.7174 17.0718 13.7884 16.4424C13.8296 16.0801 14.1641 15.5834 14.1585 15.4135C14.1548 15.279 13.8856 14.9709 13.8296 14.7206C13.766 14.4405 13.852 14.1529 13.6987 13.9139C13.5548 13.8093 10.6464 14.3714 10.1773 14.4237C9.0259 14.5507 7.74181 14.6086 6.78669 13.8205C5.68204 12.9091 6.08203 11.6747 7.47453 11.5365C9.553 11.3311 11.766 12.2518 13.781 12.5618C13.7417 12.263 14.0595 11.8055 14.0613 11.5888C14.0632 11.3722 13.8034 11.163 13.7903 10.9296C13.7772 10.6962 13.9697 10.4889 13.951 10.2965C13.9137 9.90621 13.1417 9.29928 13.2314 8.98554C13.8651 8.37487 13.8856 9.75495 14.4408 9.67651V7.10871C14.4408 6.93316 14.908 6.93316 14.908 7.10871V9.53645L14.9062 9.53271ZM14.8968 10.5225C14.5529 10.2909 14.1436 10.9595 14.452 11.1537C14.9193 11.4488 15.1735 10.7074 14.8968 10.5225ZM14.6725 11.8223C14.2295 11.8185 14.2688 14.504 14.4314 14.8625C14.5716 15.1744 14.7884 15.1875 14.9305 14.8775C15.0389 14.6403 15.0557 12.3265 14.9529 12.1024C14.908 12.0034 14.7492 11.9138 14.6744 11.8223H14.6725ZM13.6912 13.4078C13.9454 13.1855 12.8445 12.9185 12.7585 12.8942C11.6072 12.5543 8.14928 11.7252 7.15117 12.1491C6.48763 12.4292 6.58669 12.9316 7.06332 13.3573C8.61843 14.7468 11.8371 13.3629 13.6931 13.4096L13.6912 13.4078ZM15.6538 13.4078C17.5734 13.3517 20.7435 14.7822 22.3341 13.3144C22.8649 12.8251 22.8238 12.3564 22.121 12.1285C21.0219 11.77 17.8519 12.5188 16.6613 12.8755C16.5585 12.9054 15.3996 13.1911 15.6538 13.4078ZM14.9996 16.3958L14.8127 15.8766L14.452 15.9457L14.4389 16.3976H14.9996V16.3958ZM14.9996 17.6096C15.052 17.1147 14.9922 16.8141 14.4314 16.9952L14.3436 17.6096H14.9978H14.9996ZM14.4987 18.1811C14.1155 18.3081 14.3828 19.2512 14.9136 18.8758C15.1286 18.7227 15.08 17.9869 14.4987 18.1811ZM14.495 19.3931C14.2445 19.4641 14.4445 20.0878 14.8127 19.8992C15.1809 19.7106 14.9978 19.2512 14.495 19.3931Z" fill="#38B44A"/>
<path d="M20.9713 22.4579C20.7022 22.654 19.4218 21.737 19.1601 21.5297C18.6387 21.1114 17.2966 19.6529 17.1695 19.0366C17.0555 18.4801 17.2723 17.5987 17.1284 17.1168C17.0275 16.7788 15.3826 15.6471 15.6518 15.2774C15.7509 15.2792 15.8406 15.2027 15.9415 15.2269C16.0798 15.2605 17.448 16.5921 17.562 16.7751C17.8686 17.2625 17.6331 18.1925 17.7041 18.7808C17.7882 19.4848 19.1919 20.9527 19.7882 21.3672C20.0386 21.5409 21.0218 21.9798 21.0536 22.1535L20.9695 22.4597L20.9713 22.4579Z" fill="#38B44A"/>
<path d="M13.6912 15.2752C13.9959 15.5758 12.4034 16.7356 12.2669 17.0736C12.0557 17.5927 12.2931 18.4593 12.1753 19.0363C12.0408 19.6918 10.5959 21.2418 10.0389 21.6639C9.76416 21.8712 8.74736 22.5528 8.46138 22.4221C8.35484 22.3735 8.224 22.2297 8.31559 22.0897C8.35858 22.0224 9.30249 21.5425 9.49875 21.4043C10.0614 21.0103 11.3735 19.7217 11.5847 19.0998C11.7959 18.4779 11.4165 17.35 11.7791 16.7729C11.8501 16.6609 13.0837 15.4134 13.1716 15.3629C13.3529 15.2602 13.4875 15.2546 13.6893 15.2752H13.6912Z" fill="#38B44A"/>
<path d="M22.2887 20.2221C22.1523 20.2464 22.0588 20.3005 21.9112 20.2781C21.1766 20.1623 18.9467 18.4554 18.7598 17.7271C18.6477 17.2882 18.8701 16.6178 18.6496 16.2499C18.429 15.882 16.5916 15.2265 16.1617 14.8138C16.029 14.6868 15.9561 14.5169 16.0702 14.3395L16.373 14.3208L19.1168 15.8764C19.343 16.1939 19.1935 17.3163 19.3467 17.701C19.4701 18.0091 20.4009 18.8364 20.7056 19.0512C21.0701 19.3089 21.9467 19.6394 22.1504 19.8486C22.2682 19.97 22.3168 20.0465 22.2869 20.2258L22.2887 20.2221Z" fill="#38B44A"/>
<path d="M13.3974 14.7036C13.2778 14.9147 11.1133 15.8391 10.79 16.1603C10.4068 16.5935 10.747 17.3368 10.5339 17.8653C10.2704 18.5208 8.03114 20.2931 7.36199 20.2987C7.13209 20.3005 6.95078 20.0858 7.20685 19.8635C7.52274 19.589 8.22179 19.3406 8.63487 19.0493C9.00308 18.7879 10.0573 17.8803 10.1339 17.4657C10.2105 17.0511 9.98437 16.1136 10.2741 15.8316C11.0872 15.5328 12.0871 14.6439 12.8647 14.4048C13.0049 14.3619 13.1862 14.2909 13.3189 14.3843C13.4198 14.4497 13.4497 14.6121 13.3974 14.7036Z" fill="#38B44A"/>
<path d="M16.0276 12.0069C16.0071 11.8052 16.0127 11.6708 16.1155 11.4896C16.3286 11.1143 17.5996 10.2123 17.693 9.88733L17.1622 7.78267C17.5697 7.14772 17.8949 6.35777 18.3024 5.73963C18.4519 5.51179 18.8126 5.13643 18.9079 5.62571C18.9715 5.95626 17.8313 7.33073 17.7958 7.8555C17.7528 8.47924 18.4108 9.53998 18.2519 10.0741C18.2145 10.1973 16.5865 11.8407 16.4519 11.9192C16.3024 12.0069 16.1996 12.0331 16.0276 12.0069Z" fill="#38B44A"/>
<path d="M10.6666 5.38313C10.7862 5.36258 10.917 5.52506 10.9806 5.61096C11.1282 5.80518 12.046 7.42617 12.0815 7.59237C12.2366 8.33003 11.6535 9.13492 11.6497 9.88566C11.8553 10.2536 13.4123 11.5104 13.4161 11.7737C13.4198 12.065 13.1077 12.0445 12.8927 11.9194C12.7563 11.8391 11.1264 10.1975 11.0909 10.0724C10.96 9.62047 11.5937 8.38606 11.6348 7.85756C11.5208 7.45418 10.3208 5.85 10.4628 5.56614C10.4871 5.51759 10.6198 5.39246 10.6666 5.38313Z" fill="#38B44A"/>
</svg>
