<svg width="29" height="29" viewBox="0 0 29 29" fill="none" xmlns="http://www.w3.org/2000/svg">
<circle cx="14.2222" cy="14.2222" r="13.7222" stroke="#38B44A"/>
<g clip-path="url(#clip0_17308_565)">
<path d="M5.21949 23.8928C5.10504 23.8709 5.01308 23.779 4.99527 23.6571C4.98701 23.5927 4.95782 23.3989 5.60598 21.6861C6.22681 20.0448 6.70605 19.1343 6.72475 19.096C6.79656 18.9586 6.96425 18.9045 7.10138 18.9748L8.05608 19.4707C8.19279 19.5432 8.24691 19.7139 8.17687 19.854C8.10463 19.9937 7.93652 20.0499 7.79938 19.9796L7.09603 19.6131C6.91513 19.9877 6.55393 20.7696 6.13122 21.8862C5.6205 23.237 5.56162 23.5698 5.55569 23.6128C5.55467 23.7498 5.45376 23.8723 5.31755 23.8928C5.2846 23.8982 5.25293 23.8968 5.22212 23.8909L5.21949 23.8928Z" fill="#38B44A"/>
<path d="M10.1156 22.4996C9.92414 22.4631 9.72685 22.4092 9.53646 22.3311C8.61186 21.9526 7.64423 19.4668 7.45819 18.9711C7.40418 18.8236 7.47673 18.6585 7.61978 18.6021C7.76502 18.5461 7.9268 18.6188 7.98123 18.764C8.37521 19.82 9.20347 21.5772 9.7473 21.7994C10.1576 21.9683 10.6191 22.0005 10.9624 21.9939L10.456 21.372C10.4025 21.306 10.38 21.2204 10.3958 21.1374C10.4074 21.0768 10.69 19.6663 11.969 18.8919C12.1728 18.7681 12.2852 18.5733 12.3127 18.2973C12.4005 17.3819 11.509 15.801 10.2802 14.6973C10.1653 14.5941 10.1542 14.4129 10.2565 14.2953C10.3587 14.1776 10.5368 14.1651 10.6516 14.2684C11.8451 15.342 12.99 17.0898 12.8684 18.3498C12.8242 18.8086 12.6102 19.1653 12.2517 19.3829C11.3957 19.9008 11.0707 20.7919 10.9762 21.1202L11.7358 22.053C11.7987 22.1301 11.8168 22.2382 11.7826 22.3339C11.7484 22.4297 11.6643 22.4997 11.5673 22.5183C11.5317 22.5255 10.8525 22.6424 10.113 22.5014L10.1156 22.4996Z" fill="#38B44A"/>
<path d="M16.2728 24.3847C15.6169 24.2597 14.69 23.7738 14.6144 23.0574C14.5124 22.0849 14.0546 21.0166 13.2579 19.8838C12.7571 19.1723 12.605 18.439 12.4705 17.7927C12.3341 17.1321 12.2149 16.5608 11.7628 16.1329C10.6428 15.0686 11.6664 12.451 11.7102 12.3408C11.7679 12.1938 11.932 12.1228 12.0761 12.1805C12.2202 12.2381 12.2888 12.4046 12.2311 12.5517C11.9717 13.2066 11.4509 15.0529 12.1479 15.7158C12.727 16.2679 12.8683 16.9503 13.0182 17.6716C13.146 18.2934 13.2813 18.9352 13.7138 19.55C14.5682 20.7635 15.059 21.9217 15.1717 22.9939C15.2051 23.3211 15.8132 23.7206 16.4057 23.8312C16.7103 23.8846 16.9114 23.8347 16.9462 23.7599C17.0483 23.547 17.0185 23.4762 16.6434 23.0746C16.4599 22.8769 16.2308 22.631 16.002 22.2875C15.3175 21.2597 16.4058 18.1478 16.5323 17.7953C16.5856 17.6474 16.7465 17.5688 16.8915 17.622C17.0364 17.6752 17.1125 17.8385 17.0592 17.9864C16.6208 19.2092 16.0723 21.3687 16.4677 21.9625C16.6699 22.266 16.8724 22.4836 17.0524 22.676C17.4045 23.0546 17.7358 23.4107 17.4492 24.0046C17.2839 24.345 16.867 24.4864 16.3062 24.3887C16.2952 24.3866 16.2842 24.3845 16.271 24.382L16.2728 24.3847Z" fill="#38B44A"/>
<path d="M12.2847 21.1604C11.6751 21.0442 10.9274 20.7785 10.8957 20.7654C10.7507 20.7122 10.6742 20.5512 10.7279 20.401C10.779 20.2527 10.94 20.1742 11.0871 20.2278C11.0937 20.229 11.826 20.4918 12.3938 20.6001C12.5919 20.6379 12.6899 20.5426 12.7386 20.4427L11.8913 19.3118C11.7987 19.1872 11.8215 19.0079 11.945 18.9106C12.068 18.8155 12.2441 18.8374 12.3388 18.9624L13.2734 20.2099C13.3204 20.2746 13.341 20.3576 13.3261 20.4361C13.2581 20.7928 12.9256 21.2803 12.2852 21.1582L12.2847 21.1604Z" fill="#38B44A"/>
<path d="M16.6653 22.9599C16.6499 22.957 16.6345 22.954 16.6177 22.9462C16.4732 22.8907 16.402 22.7261 16.4552 22.5782C16.4565 22.5714 16.7238 21.8274 16.4351 21.1285C16.0809 20.2706 16.0622 19.6627 16.0603 19.6367C16.056 19.4801 16.177 19.3475 16.3331 19.3424C16.487 19.3368 16.6165 19.4592 16.6204 19.618C16.6205 19.6296 16.6431 20.157 16.9519 20.9062C17.3275 21.8193 16.9922 22.741 16.9779 22.7801C16.9276 22.9123 16.7947 22.9869 16.6627 22.9617L16.6653 22.9599Z" fill="#38B44A"/>
<path d="M18.1825 23.7469C17.8348 23.6806 17.4475 23.5347 17.1067 23.3838C16.9657 23.322 16.9019 23.1541 16.964 23.0079C17.0256 22.8639 17.1915 22.7956 17.3343 22.86C17.8267 23.077 18.3811 23.2316 18.5961 23.2168C18.5804 23.1673 18.5435 23.0859 18.4667 22.962C18.3421 22.7662 18.2084 22.5943 18.08 22.4303C17.6523 21.8862 17.2099 21.323 17.9116 20.4781C18.5835 19.6695 20.2748 16.6725 20.5004 15.4533C20.7239 14.2453 20.5784 12.5439 20.5748 12.5269C20.5649 12.4111 20.6246 12.3016 20.7237 12.2485C20.799 12.1884 20.947 11.8308 21.0542 11.5676C21.2699 11.0462 21.5377 10.3953 21.9659 9.96782C22.5524 9.37995 23.4506 8.04257 22.6558 7.18671C22.5877 7.11329 22.507 7.08164 22.3919 7.08758C21.6612 7.11564 20.2468 8.54057 19.5273 9.43085C19.4679 9.5032 19.3806 9.54235 19.2887 9.53412C19.2011 9.52673 18.4281 9.37005 17.9742 9.27422C17.442 9.1588 16.6445 9.42982 16.637 9.43305C16.5637 9.45859 16.485 9.45287 16.4166 9.4166C16.3483 9.38032 16.2987 9.3174 16.2789 9.24157C16.2789 9.24157 16.1216 8.77457 15.2632 8.10882C15.1241 8.00094 14.9739 7.87933 14.8158 7.75155C14.4046 7.41979 13.3097 6.53461 13.0636 6.64111C13.0636 6.64111 13.0453 6.66551 13.033 6.74219C12.9143 7.48434 13.1174 7.87871 13.5218 8.66479C13.6084 8.8324 13.7017 9.01291 13.8 9.21528C14.3611 10.3637 15.0239 11.3617 15.031 11.3724C15.1179 11.5028 15.0841 11.68 14.9553 11.7694C14.8265 11.8587 14.6527 11.8256 14.5658 11.6951C14.5374 11.6525 13.8764 10.6571 13.297 9.47272C13.2005 9.27301 13.109 9.09516 13.0237 8.93245C12.6059 8.12059 12.3317 7.58481 12.4793 6.65524C12.5342 6.30771 12.7181 6.16844 12.8616 6.10979C13.3749 5.90548 14.1083 6.44975 15.1638 7.30186C15.318 7.42655 15.4664 7.5455 15.6015 7.6503C16.2431 8.14919 16.5518 8.56371 16.697 8.81919C17.014 8.73551 17.5842 8.6164 18.0618 8.70745C18.0706 8.70913 18.0794 8.71081 18.086 8.71207C18.7243 8.84539 19.0386 8.90764 19.1975 8.9356C19.6554 8.3883 21.2685 6.55496 22.3694 6.51146C22.6429 6.50083 22.8826 6.59535 23.0604 6.78732C24.152 7.96476 23.0745 9.64453 22.3528 10.367C22.006 10.7147 21.7634 11.3053 21.5659 11.7791C21.4135 12.1475 21.2941 12.4386 21.1377 12.6133C21.1696 13.068 21.2435 14.4629 21.0431 15.5498C20.7911 16.9197 19.0473 19.9764 18.3308 20.8393C17.9459 21.3029 18.0586 21.4894 18.512 22.0664C18.6444 22.2334 18.7928 22.4244 18.9333 22.6441C19.0296 22.7973 19.3263 23.263 19.0549 23.5855C18.8837 23.79 18.5557 23.8111 18.1816 23.7398L18.1825 23.7469Z" fill="#38B44A"/>
<path d="M17.3327 16.9228C16.6218 16.7872 16.2224 16.2741 15.7167 15.6244C15.5427 15.4006 15.347 15.1471 15.1182 14.8873C14.4661 14.1447 14.2845 12.8595 14.4442 11.9741C14.539 11.4412 14.7481 11.0743 15.048 10.913C15.1449 10.8594 15.181 10.7175 15.1928 10.6081C15.2644 9.94536 14.723 8.70545 13.7255 7.85976C13.6075 7.76057 13.5921 7.57862 13.6903 7.45789C13.7908 7.33758 13.9675 7.32012 14.0854 7.41932C15.283 8.43565 15.8346 9.84952 15.7476 10.6651C15.7007 11.1141 15.4811 11.321 15.3057 11.4154C15.2014 11.4722 15.0648 11.674 14.9935 12.0718C14.8634 12.8025 15.0069 13.9038 15.5357 14.5043C15.7737 14.7752 15.9769 15.0371 16.1545 15.2662C16.6217 15.8667 16.9294 16.2624 17.4356 16.3589C17.8846 16.4445 18.358 15.9955 19.0125 15.3741C19.2102 15.1863 19.4333 14.9731 19.6775 14.757C20.7397 13.8159 20.5783 12.5926 20.5701 12.5399C20.5473 12.3845 20.6525 12.2395 20.8054 12.2152C20.9583 12.1908 21.1 12.2969 21.1232 12.4501C21.1337 12.5149 21.3442 14.0311 20.0431 15.1847C19.8072 15.3931 19.5954 15.5945 19.392 15.7881C18.6456 16.4966 18.0555 17.0559 17.327 16.917L17.3327 16.9228Z" fill="#38B44A"/>
<path d="M19.256 9.52772C19.1988 9.51681 19.1428 9.48754 19.0994 9.43976C19.0901 9.42869 18.081 8.29719 17.0575 8.10207C15.9483 7.89059 15.0761 7.77545 15.0673 7.77377C14.9164 7.75197 14.8065 7.61016 14.8273 7.45371C14.848 7.29727 14.9898 7.18717 15.1434 7.20715C15.1522 7.20883 16.038 7.32424 17.1649 7.53908C18.3754 7.76986 19.4726 9.00183 19.5173 9.05452C19.6204 9.1718 19.609 9.35095 19.4953 9.45711C19.4266 9.5184 19.3378 9.541 19.2542 9.52506L19.256 9.52772Z" fill="#38B44A"/>
<path d="M1.96674 20.2208C1.83028 20.1948 1.7311 20.069 1.74044 19.9243C1.82925 18.5372 2.37933 17.961 2.86644 17.4518C3.28796 17.0115 3.65264 16.63 3.76965 15.7411C3.8102 15.4327 3.84036 15.1549 3.8671 14.895C4.0248 13.3978 4.11931 12.4953 5.92593 10.0899C8.0526 7.26189 12.1924 7.13062 12.3665 7.12662C12.5222 7.12376 12.649 7.2479 12.6512 7.40405C12.6534 7.56021 12.5301 7.69245 12.3766 7.69574C12.3353 7.69716 8.33048 7.82626 6.37105 10.4351C4.65959 12.7123 4.57638 13.5076 4.42411 14.9524C4.39694 15.2145 4.36593 15.4968 4.32629 15.8124C4.1848 16.8896 3.69768 17.3988 3.26742 17.849C2.80873 18.3288 2.37541 18.7831 2.29995 19.9566C2.29025 20.1151 2.15589 20.2336 2.00238 20.2253C1.99138 20.2232 1.97817 20.2207 1.96717 20.2186L1.96674 20.2208Z" fill="#38B44A"/>
<path d="M15.9737 14.3111C16.3189 14.3769 16.6581 14.119 16.7313 13.7349C16.8045 13.3509 16.584 12.9863 16.2388 12.9204C15.8936 12.8546 15.5544 13.1126 15.4812 13.4966C15.408 13.8806 15.6285 14.2453 15.9737 14.3111Z" fill="#38B44A"/>
<path d="M19.1573 14.4464C19.5025 14.5122 19.8417 14.2542 19.9149 13.8702C19.9881 13.4862 19.7676 13.1215 19.4224 13.0557C19.0772 12.9899 18.738 13.2478 18.6648 13.6319C18.5916 14.0159 18.8121 14.3805 19.1573 14.4464Z" fill="#38B44A"/>
<path d="M17.295 16.6179C17.5515 16.6668 17.8035 16.4754 17.8578 16.1905C17.9121 15.9056 17.7482 15.635 17.4917 15.5861C17.2353 15.5372 16.9833 15.7285 16.929 16.0134C16.8747 16.2984 17.0386 16.569 17.295 16.6179Z" fill="#38B44A"/>
<path d="M20.2769 11.4589C20.1712 11.4387 20.0659 11.4047 19.9623 11.3501C18.8992 10.8127 19.4402 8.96786 19.4644 8.88879C19.5094 8.73696 19.669 8.65349 19.8134 8.6973C19.9623 8.74195 20.0436 8.90158 19.9991 9.05117C19.9962 9.06687 19.5827 10.5176 20.2128 10.8376C20.8593 11.1678 21.7458 10.1908 21.7545 10.1808C21.859 10.0636 22.0348 10.0506 22.1492 10.1561C22.2641 10.2594 22.2752 10.4405 22.1708 10.5577C22.1275 10.6053 21.2153 11.6331 20.2729 11.4558L20.2769 11.4589Z" fill="#38B44A"/>
</g>
<defs>
<clipPath id="clip0_17308_565">
<rect width="19.2397" height="20.3086" fill="white" transform="translate(4.89844 3.15723) rotate(10.7939)"/>
</clipPath>
</defs>
</svg>
