<svg width="29" height="29" viewBox="0 0 29 29" fill="none" xmlns="http://www.w3.org/2000/svg">
<circle cx="14.2222" cy="14.2222" r="13.7222" stroke="#38B44A"/>
<path d="M10.8866 16.7851C10.7203 16.7496 10.7016 16.8336 10.6212 16.9401C10.4268 17.1978 10.2549 17.6572 10.0474 17.9541C9.74272 18.393 8.43807 19.9243 8.03995 20.1503C7.85864 20.253 7.72407 20.2586 7.5222 20.2381C7.49604 20.0644 7.5222 19.9617 7.61005 19.8142C7.88294 19.3491 8.95395 18.576 9.3745 18.0288C9.67169 17.6423 10.8848 15.6571 11.0006 15.2649C11.1558 14.7346 11.096 14.1146 11.1782 13.5749C11.2362 13.1902 11.5707 11.9427 11.5427 11.6962C11.5053 11.3525 10.7128 11.2629 10.4268 11.2834L10.053 13.4759L8.13153 15.7654C7.88481 15.9223 7.59136 15.758 7.7278 15.4498L9.60254 13.2126C9.81188 12.7046 9.78571 10.9641 9.99879 10.7139C10.2848 10.3758 11.3296 11.1154 11.7614 10.9118L12.3875 9.63818C12.3931 9.3095 11.5502 9.37112 11.2642 9.17317C10.9782 8.97521 10.5876 7.91448 10.2306 8.14231C9.96889 8.31039 8.54835 12.0603 8.17826 12.7233C7.92967 13.1696 7.65304 13.6402 7.17828 13.8774C6.50166 13.6944 7.33716 13.1117 7.56145 12.7625C8.21191 11.7522 8.68667 10.2003 9.18946 9.06672C9.3446 8.7175 9.89599 7.83978 9.93711 7.56712C10.0081 7.10585 8.95395 6.32898 9.01937 5.76873C9.74459 5.6268 9.84366 6.51946 10.2904 6.88362C11.3053 5.95174 12.2006 5.15806 13.5483 6.14223C13.737 6.10301 13.6081 5.54463 13.6922 5.39523C14.1838 5.26824 14.1202 6.05445 14.4866 6.05259C14.8529 6.05072 14.8809 5.41577 14.9594 5.38963L15.2679 5.4083L15.3744 6.14223C15.7707 6.06379 16.0286 5.72017 16.4604 5.68095C17.3501 5.59878 18.0772 6.27855 18.6117 6.88362C18.8641 6.92844 19.2734 6.0059 19.4416 5.86397C19.6472 5.69029 20.0098 5.72391 19.9164 6.05632C19.8154 6.41301 18.9706 7.23658 19.0398 7.56526C19.0958 7.83604 19.4753 8.33093 19.5986 8.59985C20.2435 10.0173 20.793 11.8269 21.6378 13.0986C21.8042 13.3489 22.1892 13.4273 22.0341 13.7728C21.879 14.1183 21.4135 13.6159 21.2771 13.4591C20.1257 12.1275 19.7818 9.54854 18.6846 8.1087C18.3538 8.00972 18.0416 8.95841 17.7089 9.17504C17.4304 9.35618 16.5762 9.33751 16.6024 9.62697L17.3388 10.9548C17.7052 11.0519 18.7444 10.3833 18.9781 10.7139C19.236 11.0817 19.1407 12.6691 19.3725 13.2144L21.3145 15.4778L21.1743 15.8121L20.8379 15.7673L18.9407 13.5543L18.5463 11.2872L17.5893 11.459L17.4659 11.7746L18.0529 15.3789C18.6248 16.1949 19.0472 17.3136 19.6379 18.0905C19.9687 18.5274 21.3762 19.6666 21.5014 19.9617C21.522 20.0121 21.464 20.2325 21.4528 20.2418C21.3126 20.3483 20.9836 20.1279 20.8603 20.0401C19.7164 19.2408 19.1407 17.9504 18.3557 16.9457C18.2753 16.843 18.2622 16.7515 18.0921 16.7907L18.1781 20.6564C17.6379 23.0785 15.4903 21.2129 14.7838 19.9542C14.6324 19.6834 14.737 19.4089 14.3557 19.4967C14.1333 20.5014 12.1782 22.6602 11.1745 21.5042C11.1259 21.4463 10.896 21.0635 10.896 21.0355V16.7869L10.8866 16.7851ZM11.9819 6.25428C11.6436 6.33084 10.6586 7.16748 10.7464 7.55218C10.7707 7.6549 11.4436 8.6372 11.5427 8.70816C11.7632 8.86503 12.4436 9.01256 12.6941 8.92853C12.7875 8.71563 13.3613 8.05827 13.395 7.94249C13.4137 7.879 13.3221 6.85748 13.2978 6.76784C13.1688 6.31777 12.3875 6.16277 11.9819 6.25614V6.25428ZM16.3763 6.25614C16.2024 6.29163 15.7744 6.54187 15.7015 6.70247L15.5594 7.86779C15.98 8.28985 15.9669 8.98829 16.6323 8.9472C17.5276 8.89118 17.9426 8.12737 18.2753 7.40839C17.879 6.71741 17.2417 6.0806 16.3763 6.25801V6.25614ZM14.3202 6.5344C13.7595 6.66139 13.6735 7.71652 14.2081 7.81923C15.58 8.08442 15.3464 6.30283 14.3202 6.5344ZM13.3277 9.401C13.7969 9.34311 14.2137 9.93511 14.5744 9.88095C15.094 9.40661 16.2005 9.56161 15.5071 8.66895C15.2155 8.29358 14.2847 8.29545 13.8324 8.38322C13.481 8.45232 13.2193 9.05365 13.3258 9.39914L13.3277 9.401ZM13.0118 9.89029C12.2249 10.1013 11.7259 13.4647 11.6361 14.2191C11.4361 15.9167 11.1969 18.8225 11.352 20.4771C11.3894 20.873 11.4511 21.2185 11.8847 21.3399C12.5707 21.1569 13.7651 20.0364 13.8735 19.3473C14.1127 17.8215 13.4081 16.4246 13.737 14.9157C13.8548 14.3741 14.1819 13.7224 14.2454 13.1827C14.2978 12.7438 14.3127 10.6877 14.1483 10.4001C14.0043 10.148 13.2847 9.81746 13.0118 9.89029ZM16.1875 9.99673C15.8174 9.68673 15.0847 10.0864 14.8623 10.4393C14.6398 10.7923 14.681 12.3909 14.7296 12.897C14.8174 13.812 15.3239 14.7215 15.3744 15.6142C15.4417 16.7907 14.7557 18.4696 15.208 19.6087C15.3894 20.0663 16.5819 21.3847 17.0846 21.3399C17.4697 21.2353 17.5725 20.929 17.6136 20.5668C17.78 19.0877 17.5706 16.3257 17.4248 14.7794C17.3388 13.8624 16.8379 10.5439 16.1856 9.99673H16.1875ZM14.5314 17.8122C14.7501 16.7608 15.0959 15.4181 14.4866 14.4526C13.9277 15.3676 14.1912 16.4956 14.3464 17.4854C14.3688 17.6255 14.3539 17.773 14.5333 17.8122H14.5314Z" fill="#38B44A"/>
</svg>
