<svg width="29" height="29" viewBox="0 0 29 29" fill="none" xmlns="http://www.w3.org/2000/svg">
<circle cx="14.2222" cy="14.2222" r="13.7222" stroke="#38B44A"/>
<path d="M12.8928 13.8367L12.7216 13.0928C12.311 12.8281 11.2484 13.1706 10.9822 12.8932C10.6604 12.5591 10.289 10.4432 9.94646 9.85064C9.66792 9.37156 8.33092 8.4239 8.25251 7.99945C8.19474 7.68427 8.43202 7.60442 8.69818 7.75151C8.88594 7.85657 10.2188 9.21607 10.3612 9.43039C10.6789 9.91368 11.2897 12.3154 11.4465 12.4226L12.573 12.4604C12.736 11.8615 12.0696 11.5358 11.9747 10.834C11.8797 10.1322 12.1377 9.14042 12.051 8.66344C11.919 7.93852 10.8894 7.25141 10.8378 6.205C10.8151 5.73012 11.4547 3.92727 11.9148 3.85163C12.1088 3.82221 12.0469 3.87684 12.0964 3.9882C12.2965 4.43577 11.6445 5.15649 11.5207 5.65869C11.2855 6.61685 11.8344 7.28084 12.4306 7.95113C12.3605 6.90051 12.1665 5.78686 13.3385 5.30147C14.2174 4.93796 13.7553 6.25123 14.0544 6.56221L14.9932 6.67988C15.4822 6.45295 15.2016 5.22373 15.6225 5.21953C16.258 5.37292 16.8853 6.07893 16.9224 6.74712C16.9472 7.2199 16.5531 7.62334 16.8667 7.94903C17.4052 7.19889 17.9499 6.53279 17.6941 5.53051C17.5682 5.03672 16.6088 4.08276 17.3701 3.85793C18.1397 4.91695 18.7051 5.87301 18.0716 7.17998C17.8963 7.54139 17.1947 8.38398 17.1411 8.65714C17.0544 9.09 17.2958 10.1763 17.2154 10.8256C17.1205 11.5863 16.5737 11.7691 16.6067 12.4667C16.9183 12.4204 17.5868 12.5822 17.7972 12.3637C18.1212 12.0275 18.4203 10.0461 18.7711 9.46821C18.8516 9.33374 20.4176 7.7305 20.5331 7.68217C20.8859 7.53298 21.0634 7.84817 20.8426 8.21799C20.5434 8.72228 19.615 9.2749 19.2683 9.87165C18.7814 10.71 18.6989 12.0128 18.2099 12.8911C17.9602 13.1538 16.8729 12.8428 16.4747 13.0949C16.3013 13.2042 16.2456 13.8325 16.454 13.8325H18.7236C19.3158 14.3641 19.4602 15.4861 19.9719 16.0283C20.3351 16.4128 21.7793 17.1251 21.9279 17.4025C22.0207 17.5748 21.9403 17.8017 21.769 17.8815C21.6452 17.9383 19.6665 16.6019 19.4953 16.4086C19.0909 15.9484 18.9362 14.9797 18.4657 14.5154C18.2965 14.4313 16.5985 14.4166 16.3509 14.4649C15.7897 14.57 16.582 15.7593 16.8192 15.982C17.172 16.3119 18.7546 16.7973 18.93 17.0894L19.0331 19.1906L22.1776 21.1364C22.4148 21.3675 22.2745 21.8634 21.899 21.6322L18.5091 19.5142C18.1418 19.0435 18.54 18.0349 18.3089 17.5117C18.214 17.2974 17.1927 16.7994 17.1246 16.8793C17.269 18.43 17.3825 19.9029 16.7119 21.3444C16.0599 22.7501 14.6487 23.7356 13.3034 22.5001C12.0551 21.3549 11.9107 19.468 11.9602 17.871C11.9685 17.6273 12.1005 17.3478 12.0737 17.1419C11.9932 16.5389 11.1927 17.3373 10.8522 17.4235C10.7223 17.9404 11.007 19.1948 10.6975 19.5793L7.31991 21.6554L7.01661 21.71C6.9836 21.502 6.81441 21.2982 7.01661 21.1364L10.1631 19.1906C10.3591 18.5897 10.0125 17.5979 10.3715 17.0915C10.6624 16.6839 12.0201 16.3329 12.4348 15.9358C12.6225 15.7572 13.2209 14.7864 13.0579 14.5595C12.9196 14.3662 11.0936 14.4628 10.7284 14.5133C10.5634 14.6141 10.0022 16.0682 9.70506 16.4128C9.56269 16.5767 7.62528 17.9425 7.49529 17.9194C7.2642 17.8773 7.19199 17.5832 7.32197 17.3752C7.50767 17.0789 8.87768 16.4485 9.23876 16.043C9.72775 15.4967 9.91551 14.3914 10.4726 13.8325H12.8969L12.8928 13.8367ZM12.9444 11.4203C13.9224 11.5884 15.3213 11.2963 16.3488 11.4203C16.7986 10.8151 16.745 9.71196 16.5613 8.99754C16.4664 8.63403 16.1218 8.18647 16.093 7.89019C16.0434 7.37749 16.7367 6.44034 15.8866 6.16718C15.8144 6.62105 15.6019 7.056 15.2016 7.29764C14.7023 7.06441 14.0771 7.47415 13.7161 7.06231C13.4829 6.79545 13.4623 6.32267 13.1012 6.16718C12.5276 6.79335 13.2456 7.49936 13.1879 7.87759C13.1569 8.0688 12.8412 8.4218 12.7422 8.69076C12.6287 8.99754 12.4843 9.67834 12.476 10.0019C12.4657 10.3486 12.5771 11.3572 12.9465 11.4203H12.9444ZM13.3571 12.0506C13.1817 12.1683 13.1899 12.3154 13.2064 12.5108C13.2188 12.66 13.6273 14.3704 13.6748 14.4586C14.0235 15.1037 15.3997 15.0428 15.6328 14.2632C15.7071 14.0174 15.637 13.7799 15.6844 13.5803C15.736 13.3597 16.2106 12.0506 15.833 12.0506H13.3571ZM15.3832 18.264C16.3137 18.0581 17.0049 18.1316 16.4024 16.9255C16.2477 16.8162 15.2388 17.2071 15.1624 16.8288C15.0593 16.3287 16.3921 16.6502 16.0125 15.7551C15.6679 14.9461 15.1397 15.5261 14.595 15.5261C14.203 15.5261 13.8399 15.2088 13.5139 15.358C12.8887 15.9463 12.965 16.5052 13.9059 16.48L14.0276 16.9864C13.2786 17.06 12.5276 16.4821 12.5936 17.6777C12.6308 18.3711 14.1473 17.8248 13.7635 18.6695C13.4829 18.7199 12.5875 18.5224 12.4884 18.8397C12.2656 19.5562 13.1961 19.8483 13.7223 19.8714L13.8213 20.3484C13.2725 20.3442 12.4719 20.1908 12.9547 20.9704C13.3096 21.5419 13.7573 21.1238 14.0813 21.399C14.5104 21.7625 13.7449 21.8718 13.8234 22.0819C13.9533 22.4286 14.5641 22.4938 14.8818 22.4265C15.0262 22.395 15.6886 22.0798 15.4059 21.9264C15.0634 21.9243 14.9747 21.6974 15.1046 21.3927C15.9155 21.2372 16.388 21.4074 16.4024 20.3505C16.3075 20.2496 15.2553 20.6005 15.3708 19.9828C15.4286 19.779 17.0049 19.8126 16.7037 18.8418C16.6026 18.5182 15.6576 18.7241 15.3708 18.6695L15.3873 18.264H15.3832Z" fill="#38B44A"/>
</svg>
