<svg width="29" height="29" viewBox="0 0 29 29" fill="none" xmlns="http://www.w3.org/2000/svg">
<circle cx="14.2222" cy="14.2222" r="13.7222" stroke="#38B44A"/>
<g clip-path="url(#clip0_17308_561)">
<path d="M19.4516 5.1145L19.5357 5.36087C19.4564 5.75985 18.3573 5.46102 18.0528 5.61202L16.4161 7.11414C16.7634 7.76903 16.5112 8.48751 15.842 8.77681C16.5747 9.28546 16.386 10.1073 16.6809 10.8019C17.7753 10.7939 17.5104 9.74961 17.8514 9.0661C18.4414 9.34904 19.5055 9.36017 20.0463 9.62403C20.1241 9.66218 20.1748 9.7051 20.2065 9.78776C20.2763 9.93717 20.159 10.1518 19.9924 10.1581L18.2114 9.68603C18.0798 10.4554 17.807 11.3089 16.8681 11.2692C16.7666 11.6459 17.3486 11.9098 17.6214 11.8716C17.6801 11.8637 18.2352 11.336 18.619 11.2438C19.477 11.0371 20.9313 11.3789 21.6323 11.913C21.921 12.1339 21.8147 12.4773 21.4991 12.4359C21.2437 12.4026 20.5237 11.9305 20.1479 11.8192C19.5737 11.6491 19.1424 11.5855 18.5746 11.8319C18.3129 11.9448 17.845 12.4232 17.761 12.4439C17.5516 12.4948 17.3677 12.2388 17.1837 12.3374C17.2868 12.5695 17.3264 13.0606 17.4644 13.2434C17.5453 13.3483 17.9608 13.5359 18.1321 13.6821C19.0995 14.5039 19.3232 16.0824 19.5341 17.2634L21.9368 20.8685C22.1398 21.25 21.8258 21.4932 21.5229 21.2055L19.0916 17.5495C18.8014 16.4638 18.7681 15.3877 18.0829 14.4451C17.9798 14.3037 17.8546 14.0366 17.6579 14.0414C18.259 16.165 18.7506 18.3395 19.1328 20.5172C19.2232 21.0306 19.5896 22.3706 19.2819 22.7553C18.7919 23.3672 18.2209 22.7044 17.8974 22.3118C17.1647 21.4232 16.6016 20.1754 16.4732 19.0294C16.1465 19.4109 15.9577 19.9004 15.6707 20.3201C15.5581 20.4854 14.6303 21.6394 14.5415 21.6394C13.7358 20.9082 13.1078 20.0117 12.6478 19.0278C12.4068 20.0101 12.0468 20.975 11.4885 21.8238C11.2681 22.1608 10.6876 22.9857 10.2816 22.9889C9.65356 22.9937 9.57743 22.5136 9.61867 22.0066C9.71065 20.8812 10.1167 19.3012 10.3577 18.1567C10.6495 16.777 10.9874 15.4052 11.3442 14.0414C10.4069 14.7567 10.2023 16.0442 10.0627 17.1473C9.3665 18.5811 8.31184 19.84 7.4808 21.207C7.29841 21.4169 6.97329 21.3692 7.00342 21.0529L9.468 17.265C9.69004 16.0744 9.90731 14.5246 10.87 13.6837C11.0571 13.52 11.4267 13.3754 11.5393 13.2466C11.7026 13.0606 11.755 12.5869 11.8184 12.3406C11.8105 12.1943 11.3014 12.482 11.1618 12.4471C11.0714 12.4232 10.6147 11.9495 10.3482 11.8351C9.78678 11.5919 9.34271 11.6491 8.77494 11.8224C8.41968 11.9305 7.68221 12.4041 7.4237 12.4391C7.10651 12.4804 7.00184 12.1371 7.29048 11.9162C7.97244 11.3948 9.40456 11.0546 10.2435 11.2279C10.6384 11.309 11.23 11.8653 11.3014 11.8748C11.5202 11.9066 12.3148 11.6412 12.134 11.2724C11.1729 11.3296 10.8652 10.4824 10.7114 9.6892L8.93036 10.1613C8.76225 10.1549 8.64648 9.94035 8.71626 9.79094C8.74798 9.70828 8.79714 9.66536 8.87644 9.62721C9.42835 9.35699 10.5068 9.35063 11.1063 9.05498C11.3061 9.7655 11.3077 10.8734 12.3196 10.7892C12.6843 10.1502 12.4448 9.29659 13.1585 8.7784C12.7811 8.5495 12.4417 8.13463 12.4496 7.66889C12.4528 7.41616 12.6685 7.23972 12.5352 7.03625C12.4718 6.9377 10.9699 5.65653 10.8684 5.6152C10.6828 5.54049 8.86058 5.70581 9.47117 5.11767C9.6266 4.96667 10.7939 4.98415 11.0254 5.06204C11.3601 5.22099 12.8588 6.7247 13.0412 6.73742C13.0919 6.7406 13.268 6.60867 13.4345 6.59913C14.2639 6.54826 15.2012 6.59595 16.0244 6.66748C16.3971 6.58164 17.4692 5.20669 17.899 5.06204C18.1305 4.98415 19.2978 4.96667 19.4532 5.11767L19.4516 5.1145ZM13.3726 7.16978C12.8334 7.29376 12.9127 8.11079 13.3726 8.24431C13.5629 8.29994 15.409 8.30153 15.6421 8.25861C16.1512 8.16324 16.1655 7.3033 15.7072 7.16978C15.5042 7.11096 13.6058 7.11732 13.3726 7.16978ZM14.0847 8.83244C13.6327 8.92622 13.26 9.39991 13.0919 9.80524C13.0951 9.84339 13.3473 10.0182 13.4012 10.0373C13.6629 10.1247 15.3487 10.1216 15.6025 10.0373C16.0418 9.89108 15.9181 9.62403 15.685 9.32838C15.3059 8.84834 14.6684 8.71004 14.0847 8.83244ZM13.1585 10.4776C12.9349 10.4363 13.0285 10.5301 12.9809 10.6509C11.6757 13.9508 10.7288 18.3379 10.1849 21.8603C10.077 22.5597 10.1484 22.609 10.6305 22.0702C11.2189 21.4153 11.8073 20.1977 12.0151 19.3425L13.1585 10.4776ZM18.9187 22.4294C18.3177 18.7973 17.5564 15.1811 16.4145 11.6825L15.9197 10.4776L17.0616 19.5015C17.2503 20.1436 17.5136 20.7461 17.8577 21.3151C17.9465 21.4598 18.7015 22.6519 18.9156 22.4294H18.9187ZM13.5534 11.5061H15.5264C15.3709 11.3058 15.5549 10.662 15.2536 10.6302C14.7508 10.5762 14.1498 10.6795 13.6343 10.6366L13.555 11.5061H13.5534ZM13.4837 12.0688C13.1109 12.9064 14.2703 13.1894 14.8999 13.0527C15.3805 12.9494 15.9007 12.5361 15.4756 12.0703H13.4837V12.0688ZM15.9213 14.9093C15.8436 14.2591 15.888 14.105 15.2536 13.8777C14.7429 13.6949 14.3908 13.6853 13.8706 13.8411C13.2632 14.0239 13.0681 14.248 13.1601 14.9093H15.9229H15.9213ZM16.1576 16.8104L15.926 15.4195L13.0903 15.3957L12.9206 16.8088H16.156L16.1576 16.8104ZM16.2369 17.3635H12.8429C12.6827 17.6067 12.9095 18.5414 13.1316 18.6177L16.0085 18.5827C16.1401 18.1742 16.2971 17.807 16.2369 17.3635ZM15.6834 19.1836H13.3155L14.4606 20.8462C14.7255 20.8462 15.769 19.2599 15.6834 19.1836Z" fill="#38B44A"/>
</g>
<defs>
<clipPath id="clip0_17308_561">
<rect width="15" height="18" fill="white" transform="translate(7 5)"/>
</clipPath>
</defs>
</svg>
